%TF.GenerationSoftware,KiCad,Pcbnew,6.0.7+dfsg-1~bpo11+1*%
%TF.CreationDate,2022-08-19T21:28:34-04:00*%
%TF.ProjectId,iov-rp2040,696f762d-7270-4323-9034-302e6b696361,rev?*%
%TF.SameCoordinates,Original*%
%TF.FileFunction,Paste,Top*%
%TF.FilePolarity,Positive*%
%FSLAX46Y46*%
G04 Gerber Fmt 4.6, Leading zero omitted, Abs format (unit mm)*
G04 Created by KiCad (PCBNEW 6.0.7+dfsg-1~bpo11+1) date 2022-08-19 21:28:34*
%MOMM*%
%LPD*%
G01*
G04 APERTURE LIST*
G04 Aperture macros list*
%AMRoundRect*
0 Rectangle with rounded corners*
0 $1 Rounding radius*
0 $2 $3 $4 $5 $6 $7 $8 $9 X,Y pos of 4 corners*
0 Add a 4 corners polygon primitive as box body*
4,1,4,$2,$3,$4,$5,$6,$7,$8,$9,$2,$3,0*
0 Add four circle primitives for the rounded corners*
1,1,$1+$1,$2,$3*
1,1,$1+$1,$4,$5*
1,1,$1+$1,$6,$7*
1,1,$1+$1,$8,$9*
0 Add four rect primitives between the rounded corners*
20,1,$1+$1,$2,$3,$4,$5,0*
20,1,$1+$1,$4,$5,$6,$7,0*
20,1,$1+$1,$6,$7,$8,$9,0*
20,1,$1+$1,$8,$9,$2,$3,0*%
G04 Aperture macros list end*
%ADD10RoundRect,0.140000X0.170000X-0.140000X0.170000X0.140000X-0.170000X0.140000X-0.170000X-0.140000X0*%
%ADD11RoundRect,0.150000X0.150000X-0.825000X0.150000X0.825000X-0.150000X0.825000X-0.150000X-0.825000X0*%
%ADD12RoundRect,0.140000X-0.170000X0.140000X-0.170000X-0.140000X0.170000X-0.140000X0.170000X0.140000X0*%
%ADD13R,1.000000X1.450000*%
%ADD14RoundRect,0.249999X-0.395001X-0.395001X0.395001X-0.395001X0.395001X0.395001X-0.395001X0.395001X0*%
%ADD15RoundRect,0.050000X-0.387500X-0.050000X0.387500X-0.050000X0.387500X0.050000X-0.387500X0.050000X0*%
%ADD16RoundRect,0.050000X-0.050000X-0.387500X0.050000X-0.387500X0.050000X0.387500X-0.050000X0.387500X0*%
%ADD17RoundRect,0.150000X-0.512500X-0.150000X0.512500X-0.150000X0.512500X0.150000X-0.512500X0.150000X0*%
%ADD18RoundRect,0.140000X0.140000X0.170000X-0.140000X0.170000X-0.140000X-0.170000X0.140000X-0.170000X0*%
%ADD19R,1.100000X1.100000*%
%ADD20RoundRect,0.135000X0.135000X0.185000X-0.135000X0.185000X-0.135000X-0.185000X0.135000X-0.185000X0*%
%ADD21RoundRect,0.135000X0.185000X-0.135000X0.185000X0.135000X-0.185000X0.135000X-0.185000X-0.135000X0*%
%ADD22RoundRect,0.135000X-0.135000X-0.185000X0.135000X-0.185000X0.135000X0.185000X-0.135000X0.185000X0*%
%ADD23RoundRect,0.218750X0.256250X-0.218750X0.256250X0.218750X-0.256250X0.218750X-0.256250X-0.218750X0*%
%ADD24RoundRect,0.140000X-0.140000X-0.170000X0.140000X-0.170000X0.140000X0.170000X-0.140000X0.170000X0*%
%ADD25R,1.400000X1.200000*%
%ADD26RoundRect,0.135000X-0.185000X0.135000X-0.185000X-0.135000X0.185000X-0.135000X0.185000X0.135000X0*%
%ADD27RoundRect,0.150000X0.587500X0.150000X-0.587500X0.150000X-0.587500X-0.150000X0.587500X-0.150000X0*%
G04 APERTURE END LIST*
D10*
%TO.C,C7*%
X152750000Y-128980000D03*
X152750000Y-128020000D03*
%TD*%
D11*
%TO.C,U3*%
X151845000Y-114225000D03*
X153115000Y-114225000D03*
X154385000Y-114225000D03*
X155655000Y-114225000D03*
X155655000Y-109275000D03*
X154385000Y-109275000D03*
X153115000Y-109275000D03*
X151845000Y-109275000D03*
%TD*%
D10*
%TO.C,C13*%
X162890000Y-114980000D03*
X162890000Y-114020000D03*
%TD*%
D12*
%TO.C,C8*%
X158250000Y-128000000D03*
X158250000Y-128960000D03*
%TD*%
D13*
%TO.C,SW2*%
X144900000Y-109175000D03*
X144900000Y-114325000D03*
X146600000Y-109175000D03*
X146600000Y-114325000D03*
%TD*%
D14*
%TO.C,U4*%
X158200000Y-119700000D03*
X158200000Y-121300000D03*
X159800000Y-119700000D03*
X159800000Y-121300000D03*
D15*
X155562500Y-117900000D03*
X155562500Y-118300000D03*
X155562500Y-118700000D03*
X155562500Y-119100000D03*
X155562500Y-119500000D03*
X155562500Y-119900000D03*
X155562500Y-120300000D03*
X155562500Y-120700000D03*
X155562500Y-121100000D03*
X155562500Y-121500000D03*
X155562500Y-121900000D03*
X155562500Y-122300000D03*
X155562500Y-122700000D03*
X155562500Y-123100000D03*
D16*
X156400000Y-123937500D03*
X156800000Y-123937500D03*
X157200000Y-123937500D03*
X157600000Y-123937500D03*
X158000000Y-123937500D03*
X158400000Y-123937500D03*
X158800000Y-123937500D03*
X159200000Y-123937500D03*
X159600000Y-123937500D03*
X160000000Y-123937500D03*
X160400000Y-123937500D03*
X160800000Y-123937500D03*
X161200000Y-123937500D03*
X161600000Y-123937500D03*
D15*
X162437500Y-123100000D03*
X162437500Y-122700000D03*
X162437500Y-122300000D03*
X162437500Y-121900000D03*
X162437500Y-121500000D03*
X162437500Y-121100000D03*
X162437500Y-120700000D03*
X162437500Y-120300000D03*
X162437500Y-119900000D03*
X162437500Y-119500000D03*
X162437500Y-119100000D03*
X162437500Y-118700000D03*
X162437500Y-118300000D03*
X162437500Y-117900000D03*
D16*
X161600000Y-117062500D03*
X161200000Y-117062500D03*
X160800000Y-117062500D03*
X160400000Y-117062500D03*
X160000000Y-117062500D03*
X159600000Y-117062500D03*
X159200000Y-117062500D03*
X158800000Y-117062500D03*
X158400000Y-117062500D03*
X158000000Y-117062500D03*
X157600000Y-117062500D03*
X157200000Y-117062500D03*
X156800000Y-117062500D03*
X156400000Y-117062500D03*
%TD*%
D17*
%TO.C,U1*%
X166612500Y-108050000D03*
X166612500Y-109000000D03*
X166612500Y-109950000D03*
X168887500Y-109950000D03*
X168887500Y-108050000D03*
%TD*%
D12*
%TO.C,C6*%
X170500000Y-113020000D03*
X170500000Y-113980000D03*
%TD*%
D18*
%TO.C,C15*%
X153480000Y-122000000D03*
X152520000Y-122000000D03*
%TD*%
D19*
%TO.C,D2*%
X162750000Y-108150000D03*
X162750000Y-105350000D03*
%TD*%
D20*
%TO.C,R2*%
X157010000Y-99750000D03*
X155990000Y-99750000D03*
%TD*%
D12*
%TO.C,C2*%
X165000000Y-113020000D03*
X165000000Y-113980000D03*
%TD*%
D21*
%TO.C,R10*%
X174250000Y-115510000D03*
X174250000Y-114490000D03*
%TD*%
D18*
%TO.C,C14*%
X153480000Y-117500000D03*
X152520000Y-117500000D03*
%TD*%
D21*
%TO.C,R8*%
X150250000Y-115010000D03*
X150250000Y-113990000D03*
%TD*%
D22*
%TO.C,R6*%
X149240000Y-112750000D03*
X150260000Y-112750000D03*
%TD*%
D23*
%TO.C,D1*%
X174250000Y-118537500D03*
X174250000Y-116962500D03*
%TD*%
D24*
%TO.C,C17*%
X164520000Y-122000000D03*
X165480000Y-122000000D03*
%TD*%
D22*
%TO.C,R9*%
X177740000Y-121250000D03*
X178760000Y-121250000D03*
%TD*%
D24*
%TO.C,C18*%
X164520000Y-117250000D03*
X165480000Y-117250000D03*
%TD*%
D25*
%TO.C,SW1*%
X176950000Y-102750000D03*
X172550000Y-104750000D03*
X172550000Y-108750000D03*
X176950000Y-110750000D03*
%TD*%
D17*
%TO.C,U2*%
X166612500Y-113050000D03*
X166612500Y-114000000D03*
X166612500Y-114950000D03*
X168887500Y-114950000D03*
X168887500Y-113050000D03*
%TD*%
D10*
%TO.C,C19*%
X159000000Y-115000000D03*
X159000000Y-114040000D03*
%TD*%
D12*
%TO.C,C3*%
X149000000Y-109290000D03*
X149000000Y-110250000D03*
%TD*%
D13*
%TO.C,SW3*%
X162650000Y-128925000D03*
X162650000Y-134075000D03*
X164350000Y-128925000D03*
X164350000Y-134075000D03*
%TD*%
D25*
%TO.C,Y1*%
X154400000Y-128850000D03*
X156600000Y-128850000D03*
X156600000Y-127150000D03*
X154400000Y-127150000D03*
%TD*%
D26*
%TO.C,R5*%
X161500000Y-111740000D03*
X161500000Y-112760000D03*
%TD*%
D10*
%TO.C,C12*%
X160000000Y-115000000D03*
X160000000Y-114040000D03*
%TD*%
%TO.C,C11*%
X158000000Y-115000000D03*
X158000000Y-114040000D03*
%TD*%
D26*
%TO.C,R7*%
X161000000Y-129740000D03*
X161000000Y-130760000D03*
%TD*%
D12*
%TO.C,C4*%
X150000000Y-109270000D03*
X150000000Y-110230000D03*
%TD*%
%TO.C,C5*%
X170500000Y-108020000D03*
X170500000Y-108980000D03*
%TD*%
%TO.C,C1*%
X165000000Y-108040000D03*
X165000000Y-109000000D03*
%TD*%
D22*
%TO.C,R1*%
X160990000Y-99750000D03*
X162010000Y-99750000D03*
%TD*%
D26*
%TO.C,R4*%
X160500000Y-111740000D03*
X160500000Y-112760000D03*
%TD*%
%TO.C,R3*%
X158250000Y-125990000D03*
X158250000Y-127010000D03*
%TD*%
D10*
%TO.C,C9*%
X161890000Y-114980000D03*
X161890000Y-114020000D03*
%TD*%
D12*
%TO.C,C10*%
X160250000Y-126020000D03*
X160250000Y-126980000D03*
%TD*%
D27*
%TO.C,Q1*%
X178187500Y-119700000D03*
X178187500Y-117800000D03*
X176312500Y-118750000D03*
%TD*%
D12*
%TO.C,C16*%
X159250000Y-126020000D03*
X159250000Y-126980000D03*
%TD*%
M02*
