%TF.GenerationSoftware,KiCad,Pcbnew,6.0.7+dfsg-1~bpo11+1*%
%TF.CreationDate,2022-08-19T21:28:34-04:00*%
%TF.ProjectId,iov-rp2040,696f762d-7270-4323-9034-302e6b696361,rev?*%
%TF.SameCoordinates,Original*%
%TF.FileFunction,Legend,Top*%
%TF.FilePolarity,Positive*%
%FSLAX46Y46*%
G04 Gerber Fmt 4.6, Leading zero omitted, Abs format (unit mm)*
G04 Created by KiCad (PCBNEW 6.0.7+dfsg-1~bpo11+1) date 2022-08-19 21:28:34*
%MOMM*%
%LPD*%
G01*
G04 APERTURE LIST*
%ADD10C,0.050000*%
%ADD11C,0.200000*%
%ADD12C,0.300000*%
%ADD13C,0.150000*%
%ADD14C,0.120000*%
G04 APERTURE END LIST*
D10*
X136488739Y-113448590D02*
X136434111Y-113463599D01*
X136388881Y-113487768D01*
X136360663Y-113529790D01*
X136363735Y-113555393D01*
X135827899Y-112290781D02*
X135788211Y-112318801D01*
X135769466Y-117079741D02*
X135770224Y-117138601D01*
X135771991Y-117192521D01*
X135782922Y-117212032D01*
X135918454Y-112304010D02*
X135894044Y-112290781D01*
X133553161Y-110440012D02*
X133574608Y-110486640D01*
X133580157Y-110518073D01*
X137796785Y-107225407D02*
X137831812Y-107242937D01*
X137765534Y-114067956D02*
X137734197Y-114023668D01*
X137710765Y-113974150D01*
X137714135Y-113931199D01*
X139321594Y-106972656D02*
X139288166Y-107011339D01*
X139257295Y-107059510D01*
X139230220Y-107107932D01*
X139216402Y-107141426D01*
X139346857Y-107296284D02*
X139317965Y-107339243D01*
X139286407Y-107380472D01*
X139249385Y-107417880D01*
X139240037Y-107421961D01*
X138512080Y-109908268D02*
X138487367Y-109916146D01*
X135773653Y-112879920D02*
X135784492Y-112932184D01*
X135782852Y-112985281D01*
X135781683Y-112992200D01*
X138544593Y-113414642D02*
X138616903Y-113417029D01*
X138691242Y-113419893D01*
X138741334Y-113422033D01*
X138791434Y-113424334D01*
X138865821Y-113428042D01*
X138938220Y-113431997D01*
X139007426Y-113436131D01*
X139072234Y-113440374D01*
X139131439Y-113444658D01*
X139183835Y-113448914D01*
X139241024Y-113454426D01*
X138602686Y-113836542D02*
X138546564Y-113845917D01*
X138495323Y-113854126D01*
X138442774Y-113862296D01*
X138387365Y-113870599D01*
X138381128Y-113871506D01*
X135420711Y-112801038D02*
X135392632Y-112755358D01*
X135357009Y-112709413D01*
X135317319Y-112666180D01*
X135277044Y-112628634D01*
X135231176Y-112594235D01*
X135181697Y-112584985D01*
X135179669Y-112594855D01*
X136054768Y-119566824D02*
X135973418Y-119566824D01*
X138714062Y-113933287D02*
X138679335Y-113947183D01*
X137891866Y-110922804D02*
X137896934Y-110863394D01*
X137903514Y-110805438D01*
X137911083Y-110752463D01*
X137920464Y-110701659D01*
X137929648Y-110668035D01*
X135333650Y-106104206D02*
X135332198Y-106044599D01*
X135329971Y-105990927D01*
X135320548Y-105980468D01*
X136899461Y-112183386D02*
X136925919Y-112224635D01*
X138742725Y-106960591D02*
X138720676Y-106999114D01*
X135708836Y-119328698D02*
X135684627Y-119374081D01*
X135702955Y-119424811D01*
X135708836Y-119434531D01*
X140253613Y-106205364D02*
X140208359Y-106230102D01*
X140166796Y-106270308D01*
X140131809Y-106309887D01*
X140092885Y-106358029D01*
X140059196Y-106402421D01*
X135620421Y-113102399D02*
X135620421Y-113102399D01*
X135794847Y-117092970D02*
X135826364Y-117212032D01*
X138534921Y-109708030D02*
X138576229Y-109669849D01*
X138596400Y-109617147D01*
X138612383Y-109559858D01*
X138624072Y-109506729D01*
X138634357Y-109448234D01*
X138808505Y-113814620D02*
X138860407Y-113812149D01*
X138910679Y-113815616D01*
X138945158Y-113823297D01*
X134320348Y-111641059D02*
X134320348Y-111641059D01*
X138192575Y-110544531D02*
X138229441Y-110507305D01*
X138235607Y-110491614D01*
X138852820Y-106920100D02*
X138895421Y-106881424D01*
X138934541Y-106847789D01*
X138977484Y-106813788D01*
X139011570Y-106794407D01*
X134768241Y-114116395D02*
X134718691Y-114106960D01*
X134685257Y-114087663D01*
X138955975Y-108545565D02*
X138909039Y-108573804D01*
X138879581Y-108620092D01*
X138857777Y-108669706D01*
X138842424Y-108723195D01*
X138840711Y-108732135D01*
X135594783Y-119533750D02*
X135582683Y-119487448D01*
X134881120Y-105457916D02*
X134881120Y-105457916D01*
X136968364Y-108870490D02*
X136954468Y-108835764D01*
X138652676Y-113871316D02*
X138686827Y-113832636D01*
X138636332Y-113830810D01*
X138602686Y-113836542D01*
X137190503Y-108242656D02*
X137164044Y-108283905D01*
X137190478Y-113342501D02*
X137240473Y-113354056D01*
X137295784Y-113357254D01*
X137354367Y-113358283D01*
X137408759Y-113357771D01*
X135630868Y-105716755D02*
X135644065Y-105665794D01*
X135648133Y-105605014D01*
X135650448Y-105540918D01*
X135651612Y-105484331D01*
X135652268Y-105420809D01*
X135652401Y-105350679D01*
X135652192Y-105300417D01*
X135651996Y-105274270D01*
X137120696Y-111933594D02*
X137100209Y-111973281D01*
X135701010Y-106461089D02*
X135750441Y-106449527D01*
X135760634Y-106398528D01*
X135764452Y-106342197D01*
X135767156Y-106280689D01*
X136254893Y-106536094D02*
X136295732Y-106566753D01*
X136347002Y-106575124D01*
X136370039Y-106575781D01*
X135829522Y-100890220D02*
X135830513Y-100962826D01*
X135831039Y-101029698D01*
X135831118Y-101090175D01*
X135830768Y-101143599D01*
X135829666Y-101202721D01*
X135827329Y-101254965D01*
X135818839Y-101270885D01*
X138679631Y-107039633D02*
X138726979Y-107020481D01*
X138768624Y-106991355D01*
X138809566Y-106958497D01*
X138852820Y-106920100D01*
X135761753Y-113163906D02*
X135788211Y-113190364D01*
X138965478Y-113536755D02*
X138965478Y-113536755D01*
X138740407Y-113795523D02*
X138788463Y-113816537D01*
X138808505Y-113814620D01*
X136060239Y-106496001D02*
X136117291Y-106496890D01*
X136170639Y-106500154D01*
X136223820Y-106510383D01*
X136254893Y-106536094D01*
X135345034Y-112864499D02*
X135382657Y-112898027D01*
X135421944Y-112929387D01*
X135468203Y-112962133D01*
X135516167Y-112990455D01*
X135559086Y-113005156D01*
X138434044Y-110094739D02*
X138418308Y-110143856D01*
X138410223Y-110169061D01*
X138381128Y-113871506D02*
X138262065Y-113888738D01*
X138290238Y-113981340D02*
X138243989Y-113957778D01*
X138237168Y-113957656D01*
X134571128Y-111967978D02*
X134546026Y-111923396D01*
X134514325Y-111897619D01*
X138698628Y-106974218D02*
X138720676Y-106935694D01*
X134200711Y-111503407D02*
X134216668Y-111552034D01*
X134233784Y-111576453D01*
X136363490Y-113045206D02*
X136374449Y-113094361D01*
X136362197Y-113148637D01*
X136314718Y-113175749D01*
X136255979Y-113185884D01*
X136192259Y-113189614D01*
X136133909Y-113190365D01*
X139353455Y-113632073D02*
X139290775Y-113613705D01*
X139239253Y-113605066D01*
X139181565Y-113598365D01*
X139121204Y-113593723D01*
X139061662Y-113591265D01*
X139006434Y-113591113D01*
X138945542Y-113594711D01*
X138897276Y-113612280D01*
X138898508Y-113616034D01*
X136777569Y-112317239D02*
X136821729Y-112289703D01*
X136838121Y-112236113D01*
X136843786Y-112185948D01*
X136846053Y-112135697D01*
X136846544Y-112091741D01*
X132375792Y-108083906D02*
X132410299Y-108130046D01*
X132443927Y-108178168D01*
X132486021Y-108239368D01*
X132517879Y-108286092D01*
X132552139Y-108336615D01*
X132588255Y-108390133D01*
X132625683Y-108445841D01*
X132663878Y-108502933D01*
X132702296Y-108560604D01*
X132740392Y-108618050D01*
X132777623Y-108674465D01*
X132813442Y-108729044D01*
X132847306Y-108780983D01*
X138631768Y-107053186D02*
X138679631Y-107039633D01*
X136185086Y-112132031D02*
X136185086Y-112132031D01*
X134174682Y-111417656D02*
X134174682Y-111417656D01*
X137640294Y-107475364D02*
X137640294Y-107475364D01*
X138720676Y-106999114D02*
X138698628Y-106974218D01*
X138266955Y-110584219D02*
X138294240Y-110541629D01*
X138321507Y-110484169D01*
X138343398Y-110431365D01*
X138363136Y-110378295D01*
X138378669Y-110330321D01*
X138389596Y-110279650D01*
X138387617Y-110268798D01*
X132612308Y-113874886D02*
X132556214Y-113863444D01*
X132491988Y-113858598D01*
X132424301Y-113857874D01*
X132361753Y-113859211D01*
X132287486Y-113862187D01*
X132230742Y-113865094D01*
X132167709Y-113868750D01*
X132097954Y-113873160D01*
X132021043Y-113878333D01*
X131936546Y-113884276D01*
X131891318Y-113887540D01*
X135541416Y-112941269D02*
X135512793Y-112897940D01*
X135492003Y-112889286D01*
X136133909Y-113190365D02*
X136081658Y-113189671D01*
X136028188Y-113185959D01*
X135979077Y-113167927D01*
X135973419Y-113150678D01*
X135384400Y-112634962D02*
X135427192Y-112665120D01*
X135464228Y-112631524D01*
X135458543Y-112611625D01*
X138577969Y-109827572D02*
X138587488Y-109876711D01*
X138579198Y-109930279D01*
X138557027Y-109977562D01*
X138537813Y-109988906D01*
X137714135Y-113931199D02*
X137753559Y-113896482D01*
X137768841Y-113874446D01*
X138157910Y-110475368D02*
X138157910Y-110475368D01*
X135774982Y-106086302D02*
X135798340Y-106271510D01*
X135753367Y-118106653D02*
X135737382Y-118122639D01*
X135444253Y-113183158D02*
X135498892Y-113182930D01*
X135558759Y-113182053D01*
X135615898Y-113180250D01*
X135667570Y-113175826D01*
X135664895Y-113172001D01*
X139730745Y-106403511D02*
X139771019Y-106370678D01*
X139793274Y-106363688D01*
X138818223Y-108811510D02*
X138858931Y-108776500D01*
X138862069Y-108771823D01*
X135708836Y-119434531D02*
X135708836Y-119434531D01*
X137673367Y-107263293D02*
X137640676Y-107302350D01*
X137640294Y-107309272D01*
X136085656Y-118385340D02*
X136095651Y-118330711D01*
X136098910Y-118277445D01*
X136095431Y-118225209D01*
X136085214Y-118173673D01*
X138182806Y-110517886D02*
X138192575Y-110544531D01*
X136058707Y-118283594D02*
X136058878Y-118334135D01*
X136059405Y-118386596D01*
X136061859Y-118440018D01*
X136083406Y-118394623D01*
X136085657Y-118385340D01*
X135973419Y-112317239D02*
X135940047Y-112277170D01*
X135918454Y-112304010D01*
X135558555Y-104988281D02*
X135559205Y-105042016D01*
X135563270Y-105092787D01*
X135569226Y-105074271D01*
X137910946Y-107207118D02*
X137949710Y-107172071D01*
X137997489Y-107134292D01*
X138038655Y-107104486D01*
X138089354Y-107070734D01*
X138134281Y-107044190D01*
X138180982Y-107025573D01*
X135912718Y-113190365D02*
X135865707Y-113168633D01*
X135858650Y-113157292D01*
X139239310Y-108001759D02*
X139214413Y-108040616D01*
X136925919Y-112224635D02*
X136951727Y-112267527D01*
X136951973Y-112272499D01*
X135945447Y-112930695D02*
X135933350Y-112980966D01*
X135934990Y-112985665D01*
X137772586Y-107201944D02*
X137796785Y-107225407D01*
X135594783Y-119441146D02*
X135599696Y-119493734D01*
X135594783Y-119533750D01*
X135518795Y-105623281D02*
X135513468Y-105679267D01*
X135507501Y-105731846D01*
X135499448Y-105790985D01*
X135491104Y-105840667D01*
X135479685Y-105889959D01*
X135469551Y-105909913D01*
X134870098Y-105385156D02*
X134870967Y-105435917D01*
X134881120Y-105457916D01*
X137640294Y-107475364D02*
X137666753Y-107447344D01*
X137819961Y-111436341D02*
X137839384Y-111386464D01*
X137850908Y-111329616D01*
X137859848Y-111269470D01*
X137866416Y-111215620D01*
X137872885Y-111154147D01*
X137879272Y-111084932D01*
X137883493Y-111034429D01*
X137887689Y-110980398D01*
X137891866Y-110922804D01*
X139253610Y-107819323D02*
X139266689Y-107791580D01*
X138528633Y-110200573D02*
X138515062Y-110256572D01*
X138495024Y-110309934D01*
X138470611Y-110362420D01*
X138445158Y-110407501D01*
X138410601Y-110447933D01*
X138401948Y-110448442D01*
X136501776Y-112502448D02*
X136499241Y-112450224D01*
X136476128Y-112449531D01*
X136476128Y-112555364D02*
X136501757Y-112508793D01*
X136501776Y-112502448D01*
X138070888Y-110041823D02*
X138043104Y-110083786D01*
X138021159Y-110102054D01*
X136317378Y-112767031D02*
X136290919Y-112778699D01*
X136687794Y-112933039D02*
X136654721Y-112971136D01*
X135297224Y-106225302D02*
X135288509Y-106281034D01*
X135263898Y-106326301D01*
X135211107Y-106324282D01*
X135410444Y-100500653D02*
X135401355Y-100559949D01*
X135398307Y-100617825D01*
X135396315Y-100671960D01*
X135394610Y-100734244D01*
X135393227Y-100803733D01*
X135392198Y-100879482D01*
X135391726Y-100932994D01*
X135391435Y-100988589D01*
X135391336Y-101045989D01*
X138833312Y-109248073D02*
X138823018Y-109292100D01*
X136136347Y-115068906D02*
X136149692Y-115101979D01*
X133059476Y-107359981D02*
X133106105Y-107378286D01*
X133149360Y-107403453D01*
X133190060Y-107433573D01*
X133201909Y-107444035D01*
X134359461Y-103257043D02*
X134393559Y-103219174D01*
X134438152Y-103248206D01*
X134475787Y-103286998D01*
X134482584Y-103294948D01*
X138434044Y-110359323D02*
X138434044Y-110359323D01*
X136925919Y-109090884D02*
X136903871Y-109131736D01*
X137640294Y-107435677D02*
X137613836Y-107463697D01*
X135677670Y-113117834D02*
X135686576Y-113092619D01*
X134860186Y-102996249D02*
X134866661Y-102931400D01*
X134873016Y-102866776D01*
X134879644Y-102798112D01*
X134884409Y-102747986D01*
X134889588Y-102692906D01*
X134895297Y-102631609D01*
X134901654Y-102562830D01*
X134908774Y-102485306D01*
X134916774Y-102397774D01*
X134925772Y-102298971D01*
X134930682Y-102244947D01*
X134935884Y-102187632D01*
X134941394Y-102126867D01*
X134947227Y-102062494D01*
X134953396Y-101994356D01*
X134959917Y-101922294D01*
X134966805Y-101846151D01*
X134974072Y-101765768D01*
X134981736Y-101680989D01*
X136562117Y-112985386D02*
X136581961Y-112948474D01*
X138304617Y-110789970D02*
X138282958Y-110837821D01*
X138263372Y-110888123D01*
X138249482Y-110937304D01*
X138248837Y-110944622D01*
X139049201Y-108110311D02*
X139069045Y-108072399D01*
X136136564Y-118925209D02*
X136136119Y-119566824D01*
X135920503Y-113150678D02*
X135912718Y-113190365D01*
X135546413Y-105881250D02*
X135545770Y-105789782D01*
X135545155Y-105709963D01*
X135544531Y-105641450D01*
X135543859Y-105583898D01*
X135542685Y-105517372D01*
X135540613Y-105463831D01*
X135528134Y-105518211D01*
X135522892Y-105576079D01*
X135518795Y-105623281D01*
X136624080Y-112825959D02*
X136669913Y-112803219D01*
X136654060Y-112765047D01*
X137016962Y-112290781D02*
X137005294Y-112264323D01*
X135034149Y-113177135D02*
X135047378Y-113024985D01*
X134311416Y-111523489D02*
X134274144Y-111486781D01*
X134245085Y-111443091D01*
X134233286Y-111422882D01*
X137004025Y-112396614D02*
X136983971Y-112445643D01*
X136952790Y-112457089D01*
X138539900Y-110134427D02*
X138530735Y-110185351D01*
X138528633Y-110200573D01*
X135818839Y-101270885D02*
X135808206Y-101219350D01*
X135790743Y-101274081D01*
X135785561Y-101325110D01*
X135780975Y-101374096D01*
X131361195Y-106249204D02*
X131327762Y-106190578D01*
X131295015Y-106126237D01*
X131263829Y-106058689D01*
X131235079Y-105990441D01*
X131209642Y-105923999D01*
X131188392Y-105861871D01*
X131172205Y-105806565D01*
X131160013Y-105747768D01*
X131170325Y-105702656D01*
X138037169Y-110200573D02*
X138037169Y-110200573D01*
X134134565Y-106214933D02*
X134171902Y-106181373D01*
X134174253Y-106127364D01*
X135569226Y-105074271D02*
X135569226Y-105074271D01*
X133879204Y-111034010D02*
X133851805Y-110991279D01*
X133816899Y-110936705D01*
X133788865Y-110892573D01*
X133761091Y-110848060D01*
X133734729Y-110802210D01*
X133736712Y-110782656D01*
X135648176Y-105802183D02*
X135636135Y-105848177D01*
X140469492Y-105879182D02*
X140465136Y-105933383D01*
X140457026Y-105954010D01*
X136933842Y-112390000D02*
X136956803Y-112343786D01*
X136983113Y-112317239D01*
X136833315Y-113944322D02*
X136782952Y-113955102D01*
X136726650Y-113965496D01*
X136673122Y-113972024D01*
X136617887Y-113975899D01*
X136557924Y-113978776D01*
X136529044Y-113979995D01*
X136149692Y-115101979D02*
X136149692Y-115101979D01*
X135973418Y-119566824D02*
X135972357Y-118911980D01*
X134385919Y-113031110D02*
X134387057Y-113084360D01*
X134399537Y-113140270D01*
X134447205Y-113175873D01*
X134498560Y-113185142D01*
X134551772Y-113188085D01*
X134619532Y-113188374D01*
X134673655Y-113187440D01*
X134735545Y-113185847D01*
X134769565Y-113184870D01*
X136263268Y-113023633D02*
X136223092Y-112993000D01*
X136216048Y-112938720D01*
X136216761Y-112881032D01*
X136219542Y-112818082D01*
X136221535Y-112780221D01*
X136899461Y-109036406D02*
X136925378Y-109079940D01*
X136925919Y-109090884D01*
X137057780Y-111298327D02*
X137048818Y-111250463D01*
X136952790Y-112457089D02*
X136903849Y-112467494D01*
X136902276Y-112466898D01*
X136073586Y-117159114D02*
X136107831Y-117198231D01*
X136113497Y-117218646D01*
X135433780Y-112495282D02*
X135435867Y-112444570D01*
X138248562Y-107078047D02*
X138296978Y-107093089D01*
X138324846Y-107080290D01*
X136925919Y-109249634D02*
X136976674Y-109260381D01*
X137007456Y-109214445D01*
X137037683Y-109160288D01*
X135966881Y-114029170D02*
X135914961Y-114043679D01*
X135860875Y-114047319D01*
X135832694Y-114044425D01*
X134939297Y-105345469D02*
X134930380Y-105395244D01*
X134923664Y-105448973D01*
X134919211Y-105502511D01*
X134918216Y-105524062D01*
X135686576Y-113092619D02*
X135658256Y-113047231D01*
X135615349Y-113019868D01*
X135603012Y-113060921D01*
X138279908Y-110438698D02*
X138288816Y-110485000D01*
X135701689Y-118660035D02*
X135701689Y-118660035D01*
X133465759Y-110228739D02*
X133436492Y-110183772D01*
X133432207Y-110224765D01*
X131794414Y-106933459D02*
X131759828Y-106883974D01*
X131725538Y-106834389D01*
X131692028Y-106785436D01*
X131659787Y-106737848D01*
X131629300Y-106692359D01*
X131601055Y-106649702D01*
X131567722Y-106598500D01*
X131540392Y-106555375D01*
X131513177Y-106509635D01*
X137849688Y-111774843D02*
X137845284Y-111724520D01*
X137842002Y-111673814D01*
X137840150Y-111640685D01*
X136448636Y-113032381D02*
X136448636Y-113032381D01*
X135787268Y-116656407D02*
X135782499Y-116707205D01*
X135778258Y-116768661D01*
X135775340Y-116823221D01*
X135772923Y-116880696D01*
X135771080Y-116939348D01*
X135769885Y-116997443D01*
X135769410Y-117053243D01*
X135769466Y-117079741D01*
X136085657Y-118385340D02*
X136085657Y-118385340D01*
X134387315Y-111736650D02*
X134351919Y-111700889D01*
X134312546Y-111666995D01*
X134292506Y-111656682D01*
X139408915Y-106533567D02*
X139398672Y-106547540D01*
X139798011Y-106848594D02*
X139792838Y-106899425D01*
X139775138Y-106949581D01*
X139750983Y-107001513D01*
X139724656Y-107050756D01*
X139699612Y-107093872D01*
X136463807Y-112393753D02*
X136471596Y-112334646D01*
X136470979Y-112282129D01*
X136466456Y-112224615D01*
X136458661Y-112166810D01*
X136448228Y-112113423D01*
X136432446Y-112060074D01*
X136414776Y-112030177D01*
X138389526Y-110544550D02*
X138366237Y-110590355D01*
X138364148Y-110609656D01*
X134003786Y-112767031D02*
X134063853Y-112770958D01*
X134114672Y-112778993D01*
X134164850Y-112790397D01*
X134222312Y-112808011D01*
X134268717Y-112827709D01*
X134306544Y-112862776D01*
X135402846Y-101598923D02*
X135402846Y-101598923D01*
X138516794Y-107032187D02*
X138537576Y-107078424D01*
X138548306Y-107078489D01*
X138961006Y-113509541D02*
X138910083Y-113513441D01*
X138873363Y-113527156D01*
X133335290Y-110074896D02*
X133308168Y-110017949D01*
X133283282Y-109967865D01*
X133256477Y-109915492D01*
X133228601Y-109862430D01*
X133200499Y-109810279D01*
X133173018Y-109760641D01*
X133147004Y-109715116D01*
X133128966Y-109684635D01*
X132302677Y-107616554D02*
X132258770Y-107581372D01*
X132223456Y-107544812D01*
X132186236Y-107501076D01*
X132155573Y-107461194D01*
X132126782Y-107419940D01*
X132121377Y-107411669D01*
X138059169Y-114105131D02*
X138003702Y-114106421D01*
X137941785Y-114106990D01*
X137881383Y-114105554D01*
X137829521Y-114100134D01*
X137782159Y-114082959D01*
X137765534Y-114067956D01*
X137111128Y-108202969D02*
X137084669Y-108230988D01*
X135269541Y-98400156D02*
X135465245Y-98400156D01*
X136124480Y-116524114D02*
X136123996Y-115770052D01*
X135586333Y-105980468D02*
X135596075Y-105840870D01*
X137799044Y-111113385D02*
X137799044Y-111113385D01*
X136634878Y-113495683D02*
X136605277Y-113451127D01*
X136550548Y-113441827D01*
X136497286Y-113447036D01*
X136488739Y-113448590D01*
X135965200Y-116477812D02*
X135953099Y-116524114D01*
X138431118Y-113906280D02*
X138481060Y-113911043D01*
X138538571Y-113914161D01*
X138591143Y-113909478D01*
X138636060Y-113886583D01*
X138652676Y-113871316D01*
X135781683Y-112992200D02*
X135782365Y-113044238D01*
X135805141Y-113087602D01*
X133512794Y-110412239D02*
X133491991Y-110366461D01*
X133478768Y-110316883D01*
X133484568Y-110306406D01*
X135550086Y-106417031D02*
X135546413Y-105881250D01*
X138354669Y-113987356D02*
X138373752Y-114002687D01*
X134277696Y-104379739D02*
X134294945Y-104331946D01*
X134298437Y-104273957D01*
X134299355Y-104208621D01*
X134298977Y-104147650D01*
X134297706Y-104075762D01*
X134296370Y-104021480D01*
X134294652Y-103961909D01*
X134292555Y-103896875D01*
X135972357Y-118911980D02*
X135972049Y-118727755D01*
X135971739Y-118553548D01*
X135971424Y-118389112D01*
X135971099Y-118234200D01*
X135970763Y-118088565D01*
X135970412Y-117951962D01*
X135970044Y-117824142D01*
X135969655Y-117704860D01*
X135969242Y-117593870D01*
X135968803Y-117490923D01*
X135968334Y-117395775D01*
X135967832Y-117308178D01*
X135967295Y-117227886D01*
X135966720Y-117154651D01*
X135966103Y-117088228D01*
X135965442Y-117028370D01*
X135964733Y-116974831D01*
X135963160Y-116885720D01*
X135961363Y-116818923D01*
X135958191Y-116756250D01*
X135946377Y-116762241D01*
X139240037Y-107421961D02*
X139210392Y-107377670D01*
X139208057Y-107319175D01*
X139216198Y-107264018D01*
X139233633Y-107214273D01*
X139241500Y-107200539D01*
X134932151Y-112458892D02*
X134904498Y-112413355D01*
X134873047Y-112372491D01*
X134837001Y-112335007D01*
X134826926Y-112326600D01*
X135751280Y-118157365D02*
X135753367Y-118106653D01*
X136317378Y-112806719D02*
X136317378Y-112806719D01*
X136056099Y-112965857D02*
X136107449Y-112980598D01*
X136151845Y-113004623D01*
X136154218Y-113008374D01*
X139388106Y-107290156D02*
X139388106Y-107290156D01*
X136954468Y-108835764D02*
X136970453Y-108819778D01*
X136125104Y-112773882D02*
X136125104Y-112773882D01*
X137695142Y-110828958D02*
X137679636Y-110879844D01*
X137662233Y-110930578D01*
X137642216Y-110977746D01*
X137640098Y-110981094D01*
X136148155Y-117601740D02*
X136150242Y-117551028D01*
X135735698Y-118368023D02*
X135741347Y-118417816D01*
X135760718Y-118403424D01*
X138401948Y-110448442D02*
X138393306Y-110488301D01*
X135620527Y-117218646D02*
X135620527Y-117218646D01*
X134292555Y-103896875D02*
X134289980Y-103822739D01*
X134287317Y-103750359D01*
X134284609Y-103680700D01*
X134281901Y-103614725D01*
X134279237Y-103553396D01*
X134276661Y-103497678D01*
X134273438Y-103433779D01*
X134270554Y-103383849D01*
X134267093Y-103340144D01*
X132373632Y-107733016D02*
X132365517Y-107700266D01*
X134994461Y-106049415D02*
X134994063Y-105983245D01*
X134992920Y-105915702D01*
X134991103Y-105847713D01*
X134988686Y-105780205D01*
X134985741Y-105714107D01*
X134982340Y-105650347D01*
X134978557Y-105589853D01*
X134974464Y-105533552D01*
X134970135Y-105482373D01*
X134963354Y-105417236D01*
X134954163Y-105356974D01*
X134939297Y-105345469D01*
X136448636Y-113032381D02*
X136461671Y-113084571D01*
X132439107Y-108513449D02*
X132406789Y-108470544D01*
X132379646Y-108428003D01*
X132347136Y-108374578D01*
X132318250Y-108325601D01*
X132287619Y-108272401D01*
X132255994Y-108216198D01*
X136997282Y-111282470D02*
X136962613Y-111319785D01*
X136939746Y-111365107D01*
X136935997Y-111415420D01*
X136936519Y-111420437D01*
X132365517Y-107700266D02*
X132349438Y-107651681D01*
X132307240Y-107619223D01*
X132302677Y-107616554D01*
X135701475Y-118474826D02*
X135691344Y-118531190D01*
X135691062Y-118574635D01*
X136873003Y-111893906D02*
X136878741Y-111836381D01*
X136904139Y-111782623D01*
X136910024Y-111770671D01*
X137814492Y-111500619D02*
X137812445Y-111449256D01*
X137819961Y-111436341D01*
X136279697Y-112517489D02*
X136310062Y-112477513D01*
X136308354Y-112456317D01*
X138515483Y-109728179D02*
X138501496Y-109679078D01*
X138542050Y-109645600D01*
X138550902Y-109645353D01*
X135211107Y-106324282D02*
X135232586Y-106348633D01*
X136784925Y-111797008D02*
X136794153Y-111847444D01*
X136798721Y-111902154D01*
X136801991Y-111959499D01*
X136804055Y-112012264D01*
X136804381Y-112023187D01*
X134881120Y-105312396D02*
X134870225Y-105363913D01*
X134870098Y-105385156D01*
X135778429Y-100379583D02*
X135805282Y-100423223D01*
X135813863Y-100473233D01*
X135819011Y-100532851D01*
X135822094Y-100591245D01*
X135824670Y-100662964D01*
X135826178Y-100718891D01*
X135827567Y-100781807D01*
X135828880Y-100852139D01*
X135829522Y-100890220D01*
X135415825Y-100424219D02*
X135424278Y-100374279D01*
X135424480Y-100321545D01*
X135420174Y-100270920D01*
X135417460Y-100252239D01*
X136134931Y-118118230D02*
X136135434Y-118179721D01*
X136135702Y-118233065D01*
X136135942Y-118297039D01*
X136136149Y-118370247D01*
X136136268Y-118423493D01*
X136136371Y-118479808D01*
X136136456Y-118538779D01*
X136136524Y-118599992D01*
X136136573Y-118663033D01*
X136136602Y-118727490D01*
X136136611Y-118792947D01*
X136136598Y-118858991D01*
X136136564Y-118925209D01*
X137033314Y-112237864D02*
X137044982Y-112264323D01*
X137216961Y-108267553D02*
X137190503Y-108242656D01*
X136476128Y-112555364D02*
X136476128Y-112555364D01*
X132121377Y-107411669D02*
X132088527Y-107361693D01*
X132054492Y-107310885D01*
X132025323Y-107267749D01*
X131993658Y-107221223D01*
X131960064Y-107172132D01*
X131925108Y-107121306D01*
X131889354Y-107069570D01*
X131853368Y-107017753D01*
X131817716Y-106966683D01*
X131794414Y-106933459D01*
X137746559Y-111007819D02*
X137746559Y-111007819D01*
X136127726Y-115386348D02*
X136131434Y-115441283D01*
X136137846Y-115497014D01*
X136148265Y-115549169D01*
X136160958Y-115571616D01*
X138021159Y-110102054D02*
X138000689Y-110150745D01*
X138024005Y-110197191D01*
X138037169Y-110200573D01*
X133405054Y-113362762D02*
X133453622Y-113345755D01*
X133493485Y-113314776D01*
X133495242Y-113311151D01*
X138910294Y-113693074D02*
X138960708Y-113687012D01*
X138989669Y-113666616D01*
X138677011Y-107068252D02*
X138654530Y-107092882D01*
X134734055Y-104168073D02*
X134747401Y-104201146D01*
X137111128Y-108242656D02*
X137137586Y-108214636D01*
X138910294Y-113957657D02*
X138859326Y-113974040D01*
X138804951Y-113981529D01*
X138758159Y-113983711D01*
X139214565Y-113658420D02*
X139162334Y-113667447D01*
X139113117Y-113680160D01*
X139060682Y-113699141D01*
X139012756Y-113724650D01*
X138980050Y-113759354D01*
X133834239Y-110908333D02*
X133867155Y-110957795D01*
X133898921Y-111001306D01*
X133874887Y-110941416D01*
X133847758Y-110891683D01*
X133812517Y-110829069D01*
X133784699Y-110780544D01*
X133753552Y-110726856D01*
X133719187Y-110668229D01*
X133700832Y-110637135D01*
X137799044Y-107382760D02*
X137825503Y-107339950D01*
X136436107Y-114036731D02*
X136380100Y-114040441D01*
X136323797Y-114045052D01*
X136268390Y-114049974D01*
X136227971Y-114053778D01*
X137325889Y-111239062D02*
X137279896Y-111245677D01*
X135810633Y-116651354D02*
X135806599Y-116484428D01*
X133020325Y-108950416D02*
X133051829Y-108998480D01*
X133086885Y-109046531D01*
X133123036Y-109091558D01*
X133157824Y-109130549D01*
X133197842Y-109167944D01*
X139151152Y-107470260D02*
X139133715Y-107518571D01*
X139124265Y-107568775D01*
X139121962Y-107603723D01*
X134881120Y-105457916D02*
X134885383Y-105404838D01*
X134884796Y-105351071D01*
X134881120Y-105312396D01*
X135559086Y-113005156D02*
X135547217Y-112954102D01*
X135541416Y-112941269D01*
X133818382Y-107121333D02*
X133843411Y-107074056D01*
X133839570Y-107019770D01*
X133838623Y-107013726D01*
X137957795Y-111589635D02*
X137927307Y-111607917D01*
X138296999Y-110141419D02*
X138301560Y-110094376D01*
X135832694Y-114044425D02*
X135781214Y-114042688D01*
X135761753Y-114060406D01*
X135585238Y-106165677D02*
X135585766Y-106216088D01*
X135588442Y-106267161D01*
X135595865Y-106251076D01*
X135814669Y-113163906D02*
X135788211Y-113137448D01*
X133768222Y-107335068D02*
X133803437Y-107299093D01*
X133797436Y-107243407D01*
X137109887Y-111538214D02*
X137151552Y-111508620D01*
X137163506Y-111509928D01*
X139150546Y-107397304D02*
X139162101Y-107446807D01*
X139151152Y-107470260D01*
X138725086Y-109552344D02*
X138742667Y-109504521D01*
X138725086Y-109486198D01*
X135378107Y-106385491D02*
X135378107Y-106385491D01*
X135140668Y-116502755D02*
X135105465Y-116546396D01*
X135097881Y-116601362D01*
X135091658Y-116662559D01*
X135086681Y-116719493D01*
X135083139Y-116763057D01*
X135254268Y-119566824D02*
X134960349Y-119566824D01*
X139174879Y-107874944D02*
X139166391Y-107927426D01*
X139151534Y-107980346D01*
X139135652Y-108028286D01*
X139117142Y-108078568D01*
X139096858Y-108128755D01*
X139075651Y-108176411D01*
X139054377Y-108219100D01*
X136988404Y-112356927D02*
X137004025Y-112396614D01*
X134233784Y-111576453D02*
X134223485Y-111580937D01*
X130501303Y-113761266D02*
X130551400Y-113755727D01*
X130614464Y-113751473D01*
X130679245Y-113747807D01*
X130734851Y-113744980D01*
X130795517Y-113742137D01*
X130860380Y-113739326D01*
X130928579Y-113736594D01*
X130999253Y-113733989D01*
X135708836Y-119434531D02*
X135734889Y-119401458D01*
X138720676Y-106935694D02*
X138720676Y-106935694D01*
X136150242Y-117551028D02*
X136134257Y-117567014D01*
X135990776Y-116002066D02*
X135990776Y-116002066D01*
X135020296Y-119183928D02*
X135034738Y-119134638D01*
X135043745Y-119081884D01*
X135051083Y-119029314D01*
X135058298Y-118969248D01*
X135065168Y-118903275D01*
X135069961Y-118850874D01*
X135074343Y-118796714D01*
X133559776Y-107626095D02*
X133605254Y-107607536D01*
X138720676Y-106935694D02*
X138742725Y-106960591D01*
X138989669Y-113666616D02*
X139038557Y-113648158D01*
X139088531Y-113644292D01*
X139141805Y-113644122D01*
X135870715Y-117018648D02*
X135869561Y-116966444D01*
X135867007Y-116910621D01*
X135862397Y-116858097D01*
X135851256Y-116807757D01*
X135841126Y-116801928D01*
X136177133Y-112781756D02*
X136207144Y-112821953D01*
X136156051Y-112823241D01*
X136654721Y-112971136D02*
X136604845Y-112978558D01*
X136581961Y-112984439D01*
X135405887Y-112571747D02*
X135355604Y-112560308D01*
X135351017Y-112554343D01*
X137102118Y-113355730D02*
X137144027Y-113324943D01*
X137190478Y-113342501D01*
X138346222Y-110274166D02*
X138350080Y-110324899D01*
X138326030Y-110359751D01*
X135594617Y-99585820D02*
X135578632Y-99601805D01*
X135592530Y-99636532D02*
X135594617Y-99585820D01*
X134779107Y-103394166D02*
X134783038Y-103445607D01*
X134796893Y-103496692D01*
X134829355Y-103458267D01*
X134835132Y-103401828D01*
X134835711Y-103373280D01*
X138434044Y-110160885D02*
X138456386Y-110113256D01*
X138457865Y-110086563D01*
X135978579Y-115955260D02*
X135983099Y-116005698D01*
X135990776Y-116002066D01*
X137799044Y-107329844D02*
X137772586Y-107372654D01*
X138479586Y-113984034D02*
X138460503Y-113968703D01*
X137039741Y-111564827D02*
X137089443Y-111555830D01*
X137109887Y-111538214D01*
X135934990Y-112985665D02*
X135974075Y-113017686D01*
X135976623Y-113016405D01*
X133314154Y-113402359D02*
X133359751Y-113376077D01*
X133405054Y-113362762D01*
X136058086Y-112259031D02*
X136058086Y-112290781D01*
X136714253Y-106678233D02*
X136759294Y-106705118D01*
X136793628Y-106708073D01*
X138916360Y-108906984D02*
X138915954Y-108958406D01*
X138903225Y-108965890D01*
X138323977Y-110027271D02*
X138323977Y-110027271D01*
X137005294Y-112264323D02*
X137033314Y-112237864D01*
X137640294Y-107309272D02*
X137682637Y-107294395D01*
X135615016Y-106417031D02*
X135550086Y-106417031D01*
X136450480Y-112502448D02*
X136472235Y-112549187D01*
X136476128Y-112555364D01*
X136395098Y-113960334D02*
X136395098Y-113960334D01*
X136775552Y-112249292D02*
X136741749Y-112287124D01*
X136777569Y-112317239D01*
X135806599Y-116484428D02*
X135787268Y-116656407D01*
X133597517Y-113259734D02*
X133653271Y-113242127D01*
X133698108Y-113218930D01*
X133740992Y-113189608D01*
X133779929Y-113155984D01*
X133820013Y-113110683D01*
X133846918Y-113065070D01*
X133856753Y-113022707D01*
X135788211Y-113190364D02*
X135788211Y-113190364D01*
X136227971Y-114053778D02*
X136171346Y-114058133D01*
X136120497Y-114058737D01*
X136069546Y-114049492D01*
X136051272Y-114034569D01*
X135073836Y-98400156D02*
X135269541Y-98400156D01*
X135057133Y-106310393D02*
X135040763Y-106282620D01*
X135708836Y-101932344D02*
X135693268Y-101990582D01*
X135688178Y-102047311D01*
X135684885Y-102116057D01*
X135683687Y-102166197D01*
X135683288Y-102218128D01*
X135683687Y-102270430D01*
X135684885Y-102321683D01*
X135688178Y-102393489D01*
X135693268Y-102454948D01*
X135702848Y-102512515D01*
X135708836Y-102527656D01*
X133805481Y-114102269D02*
X133752945Y-114101416D01*
X133701597Y-114100774D01*
X133627409Y-114100196D01*
X133557455Y-114100065D01*
X133492675Y-114100366D01*
X133434007Y-114101084D01*
X133382390Y-114102203D01*
X133326157Y-114104291D01*
X133273304Y-114108625D01*
X133263086Y-114111301D01*
X136343836Y-112795051D02*
X136317378Y-112767031D01*
X135782922Y-117212032D02*
X135794847Y-117092970D01*
X136257846Y-112001615D02*
X136285918Y-112045075D01*
X136290514Y-112064562D01*
X136970453Y-108819778D02*
X136970453Y-108819778D01*
X133128966Y-109684635D02*
X133097573Y-109631796D01*
X133069478Y-109583569D01*
X133039731Y-109531811D01*
X133009255Y-109478150D01*
X132978971Y-109424214D01*
X132949801Y-109371630D01*
X132922667Y-109322027D01*
X132904208Y-109287760D01*
X133380504Y-109092821D02*
X133363323Y-109045615D01*
X133331328Y-108985300D01*
X133303003Y-108936410D01*
X133270392Y-108882556D01*
X133234618Y-108825437D01*
X133196804Y-108766750D01*
X133158072Y-108708193D01*
X133119546Y-108651462D01*
X133082348Y-108598256D01*
X133047601Y-108550273D01*
X133016428Y-108509209D01*
X132978826Y-108464301D01*
X132951678Y-108444488D01*
X138387617Y-110268798D02*
X138343645Y-110253894D01*
X135757808Y-119053324D02*
X135803700Y-119076370D01*
X135810007Y-119128483D01*
X135801430Y-119163334D01*
X135990774Y-116002066D02*
X135996152Y-115951646D01*
X135991756Y-115922691D01*
X135101735Y-112474564D02*
X135095237Y-112526150D01*
X135108049Y-112574905D01*
X135139108Y-112608281D01*
X137130567Y-111893906D02*
X137120696Y-111933594D01*
X135595865Y-106251076D02*
X135595865Y-106251076D01*
X137682637Y-107294395D02*
X137705360Y-107248459D01*
X137713962Y-107198846D01*
X137712090Y-107184654D01*
X139699612Y-107093872D02*
X139662105Y-107155821D01*
X139628448Y-107210038D01*
X139598586Y-107256592D01*
X139564581Y-107306868D01*
X139531232Y-107350986D01*
X139489946Y-107366485D01*
X135259044Y-112804368D02*
X135304133Y-112828361D01*
X135345034Y-112864499D01*
X139851011Y-106722897D02*
X139837306Y-106772024D01*
X139810195Y-106800873D01*
X133197842Y-109167944D02*
X133237802Y-109204355D01*
X133272482Y-109241472D01*
X133308480Y-109283844D01*
X133343349Y-109328632D01*
X133374642Y-109372997D01*
X137799044Y-111166302D02*
X137772586Y-111123492D01*
X135565875Y-99246823D02*
X135571482Y-99303791D01*
X135578410Y-99355048D01*
X135586926Y-99407143D01*
X135596600Y-99457640D01*
X135609127Y-99512694D01*
X135619825Y-99551094D01*
X137799044Y-111113385D02*
X137825503Y-111156196D01*
X138292673Y-110374826D02*
X138280019Y-110343174D01*
X138903225Y-108965890D02*
X138886827Y-109013590D01*
X137095101Y-111444114D02*
X137084882Y-111392503D01*
X137084670Y-111379530D01*
X134973155Y-117589064D02*
X134969431Y-117639867D01*
X134957634Y-117692164D01*
X134930519Y-117714741D01*
X136085214Y-118173673D02*
X136070691Y-118124836D01*
X136059051Y-118182760D01*
X136058684Y-118234268D01*
X136058707Y-118283594D01*
X135482379Y-114089949D02*
X135422531Y-114089492D01*
X135369116Y-114088161D01*
X135312337Y-114085356D01*
X135260448Y-114080468D01*
X135218376Y-114065079D01*
X138980050Y-113759354D02*
X138933298Y-113784097D01*
X138881914Y-113782669D01*
X138862516Y-113780366D01*
X135222400Y-112701816D02*
X135244806Y-112747874D01*
X135238672Y-112767031D01*
X133712591Y-110756198D02*
X133679441Y-110714577D01*
X133658315Y-110676823D01*
X136264461Y-112052656D02*
X136238408Y-112068399D01*
X138957954Y-108672185D02*
X138982826Y-108716541D01*
X138964191Y-108764822D01*
X138940991Y-108795933D01*
X140408581Y-105898812D02*
X140458933Y-105887862D01*
X140469492Y-105879182D01*
X135595863Y-106251076D02*
X135599315Y-106199449D01*
X135600071Y-106149219D01*
X135598331Y-106095697D01*
X135595651Y-106065868D01*
X135783235Y-118623759D02*
X135799047Y-118676161D01*
X135809218Y-118726915D01*
X135811538Y-118761723D01*
X137666753Y-107447344D02*
X137640294Y-107435677D01*
X136458692Y-113269741D02*
X136521284Y-113271128D01*
X136590083Y-113275039D01*
X136662540Y-113281102D01*
X136736107Y-113288941D01*
X136808236Y-113298183D01*
X136876381Y-113308454D01*
X136937993Y-113319380D01*
X136990524Y-113330588D01*
X137042037Y-113345321D01*
X137066840Y-113359004D01*
X138262065Y-113888738D02*
X138431118Y-113906280D01*
X137229140Y-111471733D02*
X137269521Y-111441536D01*
X137312031Y-111435492D01*
X138163000Y-113977684D02*
X138214576Y-113987652D01*
X138266903Y-113990139D01*
X138290238Y-113981340D01*
X135647642Y-105908017D02*
X135647642Y-105908017D01*
X137084669Y-106985176D02*
X137142971Y-106986297D01*
X137194785Y-106992144D01*
X137243954Y-107009233D01*
X137283966Y-107040146D01*
X137288338Y-107044578D01*
X133432207Y-110224765D02*
X133449785Y-110271929D01*
X133445858Y-110279948D01*
X135047378Y-113024985D02*
X135060607Y-112872835D01*
X139099767Y-107959951D02*
X139117244Y-107910281D01*
X139131267Y-107859356D01*
X139141357Y-107808915D01*
X132815917Y-107220959D02*
X132867388Y-107233868D01*
X132908358Y-107267533D01*
X136555806Y-112938824D02*
X136545407Y-112913927D01*
X137037683Y-109160288D02*
X137066431Y-109103447D01*
X137091617Y-109049285D01*
X137113163Y-108998024D01*
X137130994Y-108949884D01*
X137147943Y-108894438D01*
X137158819Y-108844649D01*
X137163646Y-108792981D01*
X139241500Y-107200539D02*
X139268865Y-107148895D01*
X139288618Y-107102432D01*
X139306006Y-107055208D01*
X139320597Y-107006501D01*
X139321594Y-106972656D01*
X138861428Y-109136172D02*
X138843472Y-109183264D01*
X138844487Y-109222161D01*
X136136119Y-119566824D02*
X136054768Y-119566824D01*
X138434044Y-110306406D02*
X138412122Y-110353092D01*
X138408396Y-110372552D01*
X137825503Y-111156196D02*
X137799044Y-111166302D01*
X135843217Y-113155731D02*
X135871418Y-113199974D01*
X135926101Y-113210617D01*
X135989912Y-113215591D01*
X136039989Y-113217999D01*
X136099948Y-113220236D01*
X139293123Y-107632791D02*
X139270819Y-107677903D01*
X139264324Y-107681921D01*
X138248837Y-110944622D02*
X138241116Y-111002051D01*
X138226472Y-111057423D01*
X138205804Y-111119830D01*
X138180520Y-111186120D01*
X138152031Y-111253138D01*
X138121743Y-111317728D01*
X138091068Y-111376737D01*
X138061412Y-111427010D01*
X138025893Y-111474999D01*
X138004097Y-111492621D01*
X136099948Y-113220236D02*
X136154121Y-113222748D01*
X136212472Y-113227129D01*
X136267566Y-113233628D01*
X136316249Y-113246511D01*
X136317378Y-113248694D01*
X139030402Y-108301027D02*
X139024901Y-108351492D01*
X139008543Y-108399325D01*
X139006684Y-108403958D01*
X138459692Y-110293177D02*
X138434044Y-110306406D01*
X137164044Y-108283905D02*
X137190503Y-108308802D01*
X132922544Y-108857812D02*
X132915408Y-108806931D01*
X132918044Y-108798281D01*
X136899461Y-109036406D02*
X136899461Y-109036406D01*
X138280019Y-110343174D02*
X138254881Y-110299225D01*
X138256406Y-110248296D01*
X135384721Y-106372334D02*
X135350453Y-106335515D01*
X135341152Y-106282630D01*
X135337102Y-106223711D01*
X135334908Y-106161213D01*
X135333650Y-106104206D01*
X138479586Y-113984034D02*
X138479586Y-113984034D01*
X134055190Y-106241391D02*
X134094878Y-106228162D01*
X135433779Y-112495282D02*
X135433779Y-112495282D01*
X137825503Y-107339950D02*
X137799044Y-107329844D01*
X135628140Y-114039170D02*
X135674556Y-114007467D01*
X135731513Y-113988480D01*
X135783135Y-113978006D01*
X135838969Y-113974230D01*
X135879469Y-113985415D01*
X133630498Y-110597448D02*
X133630498Y-110597448D01*
X135139108Y-112608281D02*
X135139108Y-112608281D01*
X137996356Y-110297575D02*
X138000800Y-110247462D01*
X137961070Y-110278572D01*
X137945436Y-110326000D01*
X138654530Y-107092882D02*
X138661788Y-107131406D01*
X138661788Y-107131406D02*
X138661788Y-107131406D01*
X137033160Y-112097715D02*
X137017814Y-112149041D01*
X136994652Y-112195521D01*
X136983717Y-112196934D01*
X135132933Y-118164532D02*
X135138408Y-118101938D01*
X135143295Y-118017232D01*
X135147577Y-117913972D01*
X135149486Y-117856496D01*
X135151238Y-117795718D01*
X135152830Y-117732080D01*
X135154261Y-117666029D01*
X135155528Y-117598009D01*
X135156629Y-117528465D01*
X135157562Y-117457842D01*
X135158326Y-117386586D01*
X135158918Y-117315140D01*
X135159336Y-117243949D01*
X135159577Y-117173460D01*
X135159641Y-117104116D01*
X135159524Y-117036363D01*
X135159225Y-116970645D01*
X135158742Y-116907408D01*
X135158072Y-116847096D01*
X135157214Y-116790154D01*
X135156166Y-116737028D01*
X135153488Y-116644000D01*
X135150024Y-116571573D01*
X135143315Y-116509342D01*
X135140668Y-116502755D01*
X135765919Y-119507293D02*
X135748286Y-119556621D01*
X135708835Y-119527137D01*
X135040763Y-106282620D02*
X135009487Y-106243579D01*
X134999136Y-106191441D01*
X134995492Y-106131619D01*
X134994565Y-106079560D01*
X134994461Y-106049415D01*
X135607182Y-117185573D02*
X135620527Y-117218646D01*
X135179669Y-112594855D02*
X135192221Y-112643495D01*
X135215915Y-112691435D01*
X135222400Y-112701816D01*
X139323366Y-107625684D02*
X139293123Y-107632791D01*
X133274669Y-107481145D02*
X133323584Y-107469717D01*
X133372313Y-107500766D01*
X133413586Y-107535191D01*
X133458347Y-107578812D01*
X137919713Y-111669010D02*
X137901704Y-111718679D01*
X137875034Y-111761741D01*
X137849688Y-111774843D01*
X135708836Y-102527656D02*
X135708836Y-102527656D01*
X132688221Y-107138021D02*
X132728910Y-107174783D01*
X132769447Y-107205836D01*
X132815917Y-107220959D01*
X136529044Y-112714114D02*
X136529044Y-112714114D01*
X136916199Y-108816883D02*
X136917411Y-108870313D01*
X136906428Y-108920409D01*
X136902593Y-108930950D01*
X137735893Y-107149446D02*
X137770350Y-107187911D01*
X137772586Y-107201944D01*
X136102285Y-116312448D02*
X136099953Y-116368112D01*
X136097453Y-116423023D01*
X136094807Y-116476863D01*
X136092037Y-116529312D01*
X136089168Y-116580053D01*
X136084725Y-116652261D01*
X136080186Y-116718831D01*
X136075628Y-116778685D01*
X136071129Y-116830750D01*
X136065353Y-116886191D01*
X136057545Y-116934219D01*
X137084670Y-111379530D02*
X137076771Y-111329035D01*
X137057780Y-111298327D01*
X138872168Y-113640157D02*
X138830919Y-113666616D01*
X137567534Y-107211186D02*
X137619044Y-107219403D01*
X137666638Y-107237121D01*
X137673367Y-107263293D01*
X135558123Y-118964897D02*
X135548187Y-119566824D01*
X139447739Y-106551628D02*
X139493322Y-106527043D01*
X139520027Y-106522864D01*
X139006684Y-108403958D02*
X138989487Y-108455370D01*
X138980316Y-108507146D01*
X138982089Y-108527101D01*
X134619661Y-112036718D02*
X134634198Y-112014495D01*
X134211850Y-105566540D02*
X134243158Y-105526652D01*
X134246116Y-105526853D01*
X138940991Y-108795933D02*
X138919132Y-108843957D01*
X138915128Y-108895365D01*
X138916360Y-108906984D01*
X138725086Y-109486198D02*
X138705136Y-109533955D01*
X138700893Y-109565573D01*
X136476128Y-112449531D02*
X136452503Y-112494179D01*
X136450480Y-112502448D01*
X132918044Y-108798281D02*
X132951734Y-108842970D01*
X132983345Y-108891344D01*
X133010760Y-108934918D01*
X133020325Y-108950416D01*
X138652326Y-114017189D02*
X138614512Y-114051377D01*
X138579565Y-114057853D01*
X135464887Y-105610052D02*
X135463703Y-105558717D01*
X135460244Y-105506373D01*
X135450387Y-105504219D01*
X138661788Y-107131406D02*
X138686117Y-107085562D01*
X138677011Y-107068252D01*
X136978836Y-108701285D02*
X136954107Y-108746851D01*
X136941202Y-108754144D01*
X134881871Y-117747814D02*
X134864305Y-117697481D01*
X134857440Y-117625241D01*
X134850781Y-117527080D01*
X134847551Y-117469083D01*
X134844400Y-117405569D01*
X134841337Y-117336861D01*
X134838372Y-117263279D01*
X134835514Y-117185145D01*
X134832772Y-117102780D01*
X134830156Y-117016505D01*
X134827674Y-116926641D01*
X134825336Y-116833510D01*
X134823152Y-116737434D01*
X134821130Y-116638733D01*
X134819281Y-116537728D01*
X134817613Y-116434742D01*
X134816135Y-116330094D01*
X134814857Y-116224108D01*
X134813788Y-116117103D01*
X134812938Y-116009402D01*
X134812316Y-115901324D01*
X134811931Y-115793193D01*
X134811792Y-115685329D01*
X134811909Y-115578053D01*
X134812290Y-115471686D01*
X134812947Y-115366551D01*
X133658315Y-110676823D02*
X133636433Y-110629409D01*
X133630498Y-110597448D01*
X137312031Y-111435492D02*
X137303248Y-111485074D01*
X137283086Y-111501774D01*
X136582791Y-112767031D02*
X136543071Y-112798672D01*
X136544430Y-112802796D01*
X134960650Y-106223947D02*
X134960650Y-106223947D01*
X136317378Y-112806719D02*
X136343836Y-112795051D01*
X138037169Y-110200573D02*
X138072198Y-110161321D01*
X138085069Y-110111276D01*
X138087997Y-110059502D01*
X135465245Y-98400156D02*
X135495118Y-98631666D01*
X136263374Y-113118940D02*
X136308308Y-113092429D01*
X136299052Y-113040584D01*
X136263268Y-113023633D01*
X136290919Y-112778699D02*
X136317378Y-112806719D01*
X139069204Y-107805722D02*
X139048535Y-107864736D01*
X139036250Y-107915419D01*
X139027958Y-107965912D01*
X139023511Y-108024159D01*
X139027365Y-108079121D01*
X139049201Y-108110311D01*
X132908358Y-107267533D02*
X132950484Y-107302062D01*
X132996565Y-107332156D01*
X133043818Y-107355140D01*
X133059476Y-107359981D01*
X134174253Y-106127364D02*
X134177991Y-106077222D01*
X134191762Y-106028906D01*
X134205110Y-106014280D01*
X139190254Y-107694334D02*
X139215502Y-107650095D01*
X139213248Y-107631981D01*
X137207447Y-108697246D02*
X137235869Y-108654479D01*
X137232077Y-108642584D01*
X134268544Y-104849375D02*
X134265652Y-104785626D01*
X134263206Y-104727320D01*
X134261209Y-104674273D01*
X134259062Y-104604160D01*
X134257944Y-104544848D01*
X134258076Y-104481496D01*
X134260889Y-104425523D01*
X134277696Y-104379739D01*
X135378107Y-106385491D02*
X135384721Y-106372334D01*
X138487367Y-109916146D02*
X138465647Y-109961502D01*
X138460279Y-109962448D01*
X133853291Y-106919739D02*
X133878863Y-106876254D01*
X133883211Y-106829612D01*
X136078330Y-118549900D02*
X136058406Y-118600290D01*
X136055989Y-118657205D01*
X136055976Y-118709796D01*
X136056149Y-118721479D01*
X132044140Y-107859010D02*
X132015598Y-107816330D01*
X131983391Y-107762950D01*
X131957964Y-107718090D01*
X131932331Y-107670806D01*
X131907287Y-107622637D01*
X131883627Y-107575125D01*
X131862147Y-107529810D01*
X131838273Y-107475469D01*
X131818740Y-107422448D01*
X135760976Y-118309574D02*
X135736132Y-118353263D01*
X135735698Y-118368023D01*
X137758227Y-111049068D02*
X137719669Y-111032449D01*
X136070831Y-114132756D02*
X136181472Y-114145566D01*
X138301560Y-110094376D02*
X138265278Y-110057173D01*
X138225536Y-110090284D01*
X138222379Y-110119870D01*
X137640098Y-110981094D02*
X137618349Y-111029844D01*
X137604831Y-111076013D01*
X133484568Y-110306406D02*
X133479474Y-110255372D01*
X133465759Y-110228739D01*
X139029357Y-113511219D02*
X138961006Y-113509541D01*
X133445858Y-110279948D02*
X133414079Y-110232972D01*
X133386600Y-110181014D01*
X133364083Y-110135698D01*
X133340164Y-110085406D01*
X133335290Y-110074896D01*
X135919988Y-117159116D02*
X135918308Y-117212830D01*
X135914658Y-117275552D01*
X135908166Y-117327248D01*
X135882763Y-117267505D01*
X135877817Y-117209527D01*
X135873873Y-117136857D01*
X135871955Y-117080687D01*
X135870715Y-117018648D01*
X137216961Y-111621559D02*
X137211570Y-111681967D01*
X137200363Y-111738167D01*
X137185064Y-111793354D01*
X137167557Y-111841584D01*
X137142930Y-111886099D01*
X137130567Y-111893906D01*
X135074343Y-118796714D02*
X135078776Y-118739717D01*
X135083722Y-118679091D01*
X135089078Y-118615929D01*
X135094743Y-118551325D01*
X135100617Y-118486372D01*
X135106597Y-118422165D01*
X135112582Y-118359797D01*
X135118471Y-118300363D01*
X135124162Y-118244956D01*
X135129554Y-118194670D01*
X135132933Y-118164532D01*
X136951973Y-112272499D02*
X136928822Y-112268113D01*
X133797436Y-107243407D02*
X133792807Y-107193205D01*
X133799062Y-107141070D01*
X133818382Y-107121333D01*
X135066019Y-112598459D02*
X135065423Y-112546292D01*
X135032865Y-112505678D01*
X135020819Y-112502448D01*
X135991756Y-115922691D02*
X135978579Y-115955260D01*
X138564103Y-109433281D02*
X138550190Y-109484795D01*
X138533612Y-109537888D01*
X138514734Y-109587319D01*
X138504628Y-109605260D01*
X135768367Y-112334557D02*
X135755565Y-112388183D01*
X135752658Y-112441719D01*
X135751233Y-112506745D01*
X135751244Y-112578527D01*
X135752644Y-112652327D01*
X135755389Y-112723410D01*
X135759431Y-112787040D01*
X135764725Y-112838480D01*
X135773653Y-112879920D01*
X140457026Y-105954010D02*
X140431711Y-106005951D01*
X140399002Y-106059378D01*
X140369801Y-106100359D01*
X140332369Y-106145847D01*
X140290588Y-106186456D01*
X140253613Y-106205364D01*
X138840711Y-108732135D02*
X138827260Y-108783134D01*
X138818223Y-108811510D01*
X137755362Y-113838614D02*
X137706564Y-113852570D01*
X137644836Y-113864931D01*
X137589175Y-113874366D01*
X137528251Y-113883560D01*
X137464553Y-113892172D01*
X137400569Y-113899859D01*
X137338788Y-113906277D01*
X137281698Y-113911084D01*
X137217176Y-113914396D01*
X137203732Y-113914586D01*
X137959505Y-110438698D02*
X137973699Y-110388931D01*
X137987211Y-110336554D01*
X137996356Y-110297575D01*
X138537813Y-109988906D02*
X138523342Y-109967799D01*
X132951678Y-108444488D02*
X132930712Y-108432433D01*
X136807015Y-112627768D02*
X136807805Y-112678850D01*
X136823190Y-112698967D01*
X139439461Y-106524426D02*
X139408915Y-106533567D01*
X135759011Y-119156720D02*
X135747222Y-119205956D01*
X135750326Y-119236095D01*
X139213248Y-107631981D02*
X139221824Y-107607656D01*
X136051272Y-114034569D02*
X136004569Y-114015436D01*
X135966881Y-114029170D01*
X135983770Y-112974040D02*
X136035477Y-112961779D01*
X136056099Y-112965857D01*
X139141357Y-107808915D02*
X139153940Y-107759673D01*
X139176550Y-107712039D01*
X139190254Y-107694334D01*
X137712090Y-107184654D02*
X137735893Y-107149446D01*
X135620421Y-113102399D02*
X135671422Y-113113050D01*
X135677670Y-113117834D01*
X136304001Y-111985221D02*
X136253531Y-111975974D01*
X136257846Y-112001615D01*
X139196581Y-107978073D02*
X139232325Y-107939203D01*
X139280711Y-107951614D01*
X136903871Y-109131736D02*
X136881822Y-109156632D01*
X137203732Y-113914586D02*
X137148024Y-113913430D01*
X137094083Y-113911019D01*
X137034194Y-113907535D01*
X136982650Y-113903976D01*
X136932105Y-113899959D01*
X136912690Y-113898255D01*
X136148154Y-117601740D02*
X136148154Y-117601740D01*
X138523342Y-109967799D02*
X138516696Y-109916417D01*
X138512080Y-109908268D01*
X139388106Y-107290156D02*
X139399774Y-107316614D01*
X134960650Y-106223947D02*
X134995931Y-106265350D01*
X135034832Y-106300205D01*
X135057133Y-106310393D01*
X134230544Y-111462422D02*
X134233784Y-111487319D01*
X136129006Y-113080893D02*
X136129006Y-113080893D01*
X138951115Y-113886599D02*
X138923513Y-113928747D01*
X138928248Y-113931604D01*
X133985395Y-106364114D02*
X134013127Y-106321920D01*
X134015503Y-106295138D01*
X135402846Y-101598923D02*
X135409785Y-101546752D01*
X135412749Y-101491778D01*
X135415349Y-101421601D01*
X135417564Y-101339262D01*
X135419371Y-101247801D01*
X135420751Y-101150262D01*
X135421273Y-101100162D01*
X135421681Y-101049684D01*
X135421972Y-100999206D01*
X135422142Y-100949109D01*
X135422112Y-100851579D01*
X135421570Y-100760135D01*
X135420495Y-100677818D01*
X135418866Y-100607670D01*
X135416661Y-100552732D01*
X135410444Y-100500653D01*
X138460503Y-113968703D02*
X138409398Y-113978940D01*
X138359055Y-113986876D01*
X138354669Y-113987356D01*
X134895242Y-105623261D02*
X134885252Y-105674423D01*
X134883119Y-105726619D01*
X134882684Y-105780286D01*
X134883559Y-105841006D01*
X134884749Y-105879968D01*
X139239138Y-107736895D02*
X139278401Y-107754605D01*
X133896440Y-112942671D02*
X133927478Y-112902649D01*
X133936079Y-112851609D01*
X133936128Y-112847236D01*
X138725846Y-109131290D02*
X138744334Y-109077984D01*
X138760608Y-109028994D01*
X138776464Y-108978401D01*
X138789860Y-108929890D01*
X138792402Y-108909695D01*
X135933732Y-113967502D02*
X135887088Y-113944171D01*
X135831047Y-113936578D01*
X135770523Y-113936697D01*
X135718665Y-113939314D01*
X135655919Y-113943819D01*
X135541151Y-105246250D02*
X135527805Y-105279323D01*
X135826364Y-117212032D02*
X135837034Y-117268190D01*
X135842816Y-117328914D01*
X135845435Y-117388013D01*
X135846240Y-117439130D01*
X135846061Y-117496536D01*
X135844906Y-117560655D01*
X135842783Y-117631907D01*
X135840835Y-117683579D01*
X135838462Y-117738734D01*
X135837118Y-117767657D01*
X138500190Y-107024274D02*
X138516794Y-107032187D01*
X134747401Y-104201146D02*
X134751529Y-104150451D01*
X134747401Y-104135000D01*
X136731393Y-112905651D02*
X136718341Y-112915078D01*
X134826926Y-112326600D02*
X134788024Y-112288454D01*
X134749182Y-112242801D01*
X134708228Y-112190341D01*
X134669550Y-112137209D01*
X134637534Y-112089541D01*
X134611600Y-112041705D01*
X134619661Y-112036718D01*
X133937544Y-106753693D02*
X133983187Y-106727671D01*
X133982113Y-106668584D01*
X133978021Y-106615971D01*
X133973582Y-106566008D01*
X139295058Y-107813705D02*
X139285171Y-107863027D01*
X139266786Y-107880838D01*
X136459703Y-113874923D02*
X136409936Y-113892733D01*
X136359538Y-113903392D01*
X136340701Y-113904739D01*
X135801430Y-119163334D02*
X135759011Y-119156720D01*
X136058419Y-117324479D02*
X136054983Y-117268915D01*
X136054662Y-117218146D01*
X136063271Y-117167218D01*
X136073586Y-117159114D01*
X136221535Y-112780221D02*
X136225329Y-112719189D01*
X136229687Y-112668154D01*
X136236253Y-112616938D01*
X136248288Y-112565316D01*
X136276448Y-112520013D01*
X136279697Y-112517489D01*
X135585042Y-105848177D02*
X135586333Y-105980468D01*
X138434044Y-110160885D02*
X138434044Y-110160885D01*
X133736712Y-110782656D02*
X133771701Y-110819573D01*
X133805129Y-110865236D01*
X133834239Y-110908333D01*
X135444253Y-106164937D02*
X135444253Y-106411142D01*
X138823018Y-109292100D02*
X138815573Y-109321187D01*
X135651996Y-105274270D02*
X135648072Y-104816302D01*
X137208576Y-108131862D02*
X137192591Y-108147847D01*
X135930492Y-113110990D02*
X135920503Y-113150678D01*
X135445403Y-105742344D02*
X135464095Y-105693414D01*
X135465051Y-105641713D01*
X135464887Y-105610052D01*
X133630498Y-110597448D02*
X133663647Y-110639068D01*
X133684774Y-110676823D01*
X131978211Y-113664823D02*
X132032099Y-113659303D01*
X132087089Y-113653669D01*
X132142784Y-113647962D01*
X132198788Y-113642221D01*
X132254704Y-113636488D01*
X132310138Y-113630803D01*
X132364692Y-113625207D01*
X132417971Y-113619740D01*
X132469578Y-113614444D01*
X132542988Y-113606906D01*
X132610410Y-113599981D01*
X132670506Y-113593803D01*
X132721940Y-113588512D01*
X132750757Y-113585544D01*
X139264324Y-107681921D02*
X139235317Y-107723160D01*
X139239138Y-107736895D01*
X136941202Y-108754144D02*
X136914163Y-108796816D01*
X136916199Y-108816883D01*
X135541151Y-105312396D02*
X135541151Y-105312396D01*
X138792402Y-108909695D02*
X138761112Y-108950979D01*
X138730161Y-109012210D01*
X138703376Y-109069981D01*
X138675163Y-109134163D01*
X138646991Y-109201385D01*
X138620330Y-109268279D01*
X138596648Y-109331472D01*
X138577416Y-109387596D01*
X138564103Y-109433281D01*
X136461671Y-113084571D02*
X136429027Y-113122776D01*
X136424554Y-113110989D01*
X135582683Y-119487448D02*
X135585836Y-119437331D01*
X135594783Y-119441146D01*
X135594783Y-119441146D02*
X135594783Y-119441146D01*
X134223485Y-111580937D02*
X134192094Y-111541227D01*
X134171448Y-111493584D01*
X134161328Y-111443398D01*
X134174682Y-111417656D01*
X136081149Y-112198779D02*
X136030710Y-112199413D01*
X136049576Y-112250040D01*
X136058086Y-112259031D01*
X135973419Y-113150678D02*
X135941187Y-113112245D01*
X135930492Y-113110990D01*
X134048379Y-111285364D02*
X134048379Y-111285364D01*
X135351017Y-112554343D02*
X135309059Y-112559154D01*
X131891318Y-113887540D02*
X131834354Y-113891584D01*
X131777706Y-113895420D01*
X131721441Y-113899045D01*
X131665628Y-113902459D01*
X131610335Y-113905661D01*
X131555630Y-113908650D01*
X131501581Y-113911425D01*
X131448256Y-113913984D01*
X131395723Y-113916326D01*
X131344050Y-113918451D01*
X131293306Y-113920358D01*
X131194874Y-113923511D01*
X131100972Y-113925778D01*
X131012146Y-113927150D01*
X130928939Y-113927617D01*
X130851896Y-113927173D01*
X130781562Y-113925809D01*
X130718482Y-113923516D01*
X130663200Y-113920285D01*
X130596091Y-113913664D01*
X130562689Y-113908054D01*
X137163646Y-108792981D02*
X137173838Y-108742038D01*
X137203023Y-108700090D01*
X137207447Y-108697246D01*
X137840150Y-111640685D02*
X137835036Y-111585536D01*
X137825665Y-111533018D01*
X137814492Y-111500619D01*
X138410223Y-110169061D02*
X138434044Y-110160885D01*
X137033314Y-112237864D02*
X137033314Y-112237864D01*
X138180982Y-107025573D02*
X138185464Y-107076069D01*
X138183209Y-107085104D01*
X134685257Y-114087663D02*
X134634984Y-114072280D01*
X134582338Y-114073509D01*
X134529835Y-114079193D01*
X134488143Y-114085245D01*
X137029116Y-108407774D02*
X136992175Y-108443181D01*
X136991826Y-108493220D01*
X136992188Y-108500378D01*
X134048379Y-111285364D02*
X134085926Y-111320134D01*
X134101968Y-111338281D01*
X135971330Y-112850816D02*
X135965443Y-112900621D01*
X135945447Y-112930695D01*
X138237168Y-113957656D02*
X138186608Y-113946887D01*
X138169461Y-113915138D01*
X136202303Y-113031614D02*
X136227303Y-113076092D01*
X136225469Y-113082338D01*
X134174682Y-111417656D02*
X134216900Y-111447071D01*
X134230544Y-111462422D01*
X135287997Y-112621510D02*
X135303075Y-112614748D01*
X133684774Y-110676823D02*
X133706655Y-110724236D01*
X133712591Y-110756198D01*
X138183209Y-107085104D02*
X138197747Y-107095159D01*
X137799044Y-107382760D02*
X137799044Y-107382760D01*
X134981736Y-101680989D02*
X134987655Y-101599415D01*
X134990837Y-101544679D01*
X134994146Y-101481383D01*
X134997566Y-101410082D01*
X135001081Y-101331330D01*
X135004675Y-101245683D01*
X135008332Y-101153695D01*
X135012036Y-101055920D01*
X135015772Y-100952915D01*
X135019523Y-100845233D01*
X135023273Y-100733429D01*
X135027006Y-100618058D01*
X135030707Y-100499675D01*
X135034360Y-100378835D01*
X135037948Y-100256092D01*
X135041455Y-100132001D01*
X135044867Y-100007117D01*
X135048166Y-99881995D01*
X135051336Y-99757189D01*
X135054363Y-99633255D01*
X135057229Y-99510746D01*
X135059920Y-99390219D01*
X135062418Y-99272227D01*
X135064708Y-99157325D01*
X135066774Y-99046068D01*
X135068601Y-98939012D01*
X135070171Y-98836710D01*
X135071470Y-98739718D01*
X135072481Y-98648590D01*
X135073189Y-98563881D01*
X135073577Y-98486146D01*
X138288816Y-110485000D02*
X138268204Y-110537212D01*
X138251691Y-110585664D01*
X138266955Y-110584219D01*
X134267093Y-103340144D02*
X134266113Y-103288400D01*
X134308678Y-103282396D01*
X132255994Y-108216198D02*
X132223782Y-108158771D01*
X132191470Y-108102065D01*
X132159925Y-108047545D01*
X132130018Y-107996676D01*
X132102617Y-107950923D01*
X132073214Y-107903157D01*
X132044140Y-107859010D01*
X137604831Y-111076013D02*
X137583733Y-111136497D01*
X137552842Y-111188949D01*
X137515087Y-111231655D01*
X137473397Y-111262902D01*
X137420215Y-111283240D01*
X137362382Y-111275771D01*
X137325889Y-111239062D01*
X135655919Y-113943819D02*
X135595221Y-113948447D01*
X135544041Y-113952156D01*
X135492183Y-113955762D01*
X135441176Y-113959164D01*
X135380939Y-113962975D01*
X135327401Y-113966113D01*
X135283544Y-113968382D01*
X135595651Y-106065868D02*
X135585520Y-106122232D01*
X135585238Y-106165677D01*
X139445568Y-107409219D02*
X139390969Y-107499953D01*
X138197747Y-107095159D02*
X138239003Y-107066625D01*
X138248562Y-107078047D01*
X135679945Y-106417031D02*
X135615016Y-106417031D01*
X135171636Y-113016716D02*
X135206511Y-113062251D01*
X135237321Y-113104479D01*
X135260266Y-113151497D01*
X135224553Y-113171878D01*
X138862516Y-113780366D02*
X138808865Y-113776699D01*
X138758044Y-113783617D01*
X138740407Y-113795523D01*
X134333003Y-111567587D02*
X134311416Y-111523489D01*
X133659462Y-107510202D02*
X133653408Y-107460524D01*
X133683429Y-107457958D01*
X138550902Y-109645353D02*
X138543668Y-109668504D01*
X134488143Y-114085245D02*
X134429928Y-114091509D01*
X134364399Y-114095711D01*
X134306031Y-114098343D01*
X134241071Y-114100498D01*
X134170701Y-114102145D01*
X134096102Y-114103257D01*
X134044604Y-114103686D01*
X133992100Y-114103854D01*
X133938942Y-114103754D01*
X133885480Y-114103375D01*
X133832063Y-114102711D01*
X133805481Y-114102269D01*
X135592529Y-99636532D02*
X135592529Y-99636532D01*
X135946377Y-116762241D02*
X135939996Y-116816740D01*
X135934859Y-116874073D01*
X135931019Y-116925452D01*
X135927535Y-116979965D01*
X135924517Y-117035987D01*
X135922072Y-117091888D01*
X135920309Y-117146041D01*
X135919988Y-117159116D01*
X136185086Y-112092344D02*
X136158628Y-112120363D01*
X135953099Y-116524114D02*
X135956252Y-116574230D01*
X135965200Y-116570416D01*
X139810195Y-106800873D02*
X139798011Y-106848594D01*
X139011570Y-106794407D02*
X139062071Y-106773345D01*
X139104609Y-106746673D01*
X139153387Y-106713022D01*
X139204442Y-106675229D01*
X139253809Y-106636130D01*
X139297524Y-106598562D01*
X139331625Y-106565362D01*
X140059196Y-106402421D02*
X140024688Y-106447852D01*
X139992477Y-106488654D01*
X139957311Y-106531585D01*
X139925109Y-106568646D01*
X136881822Y-109156632D02*
X136903871Y-109195156D01*
X139252691Y-107978073D02*
X139239310Y-108001759D01*
X136897621Y-106866823D02*
X136927075Y-106908701D01*
X136930694Y-106926354D01*
X137408759Y-113357771D02*
X137470411Y-113357385D01*
X137525917Y-113358153D01*
X137584930Y-113359793D01*
X137645612Y-113362224D01*
X137706126Y-113365369D01*
X137764635Y-113369147D01*
X137819303Y-113373481D01*
X137856677Y-113377048D01*
X133374642Y-109372997D02*
X133405833Y-109418071D01*
X133442165Y-109464735D01*
X133478271Y-109501279D01*
X133513033Y-109463099D01*
X133496112Y-109400208D01*
X138256406Y-110248296D02*
X138262510Y-110194154D01*
X138280344Y-110147200D01*
X138296999Y-110141419D01*
X134233784Y-111487319D02*
X134200711Y-111503407D01*
X136113497Y-117218646D02*
X136118891Y-117155603D01*
X136120249Y-117103893D01*
X136121452Y-117039183D01*
X136122482Y-116962675D01*
X136123063Y-116905707D01*
X136123553Y-116844387D01*
X136123946Y-116779068D01*
X136124237Y-116710108D01*
X136124420Y-116637863D01*
X136124489Y-116562688D01*
X136124480Y-116524114D01*
X134426523Y-111719390D02*
X134451209Y-111769096D01*
X134402827Y-111753118D01*
X134387315Y-111736650D01*
X136134257Y-117567014D02*
X136148154Y-117601740D01*
X136057545Y-116934219D02*
X136049680Y-116991264D01*
X136045705Y-117046420D01*
X136043042Y-117096767D01*
X136040695Y-117153718D01*
X136038702Y-117216287D01*
X136037103Y-117283492D01*
X136035937Y-117354347D01*
X136035242Y-117427869D01*
X136035060Y-117477879D01*
X136035058Y-117503073D01*
X137768841Y-113874446D02*
X137789620Y-113828711D01*
X137755362Y-113838614D01*
X135168321Y-112700042D02*
X135135528Y-112660531D01*
X135102978Y-112646310D01*
X138460279Y-109962448D02*
X138465575Y-110013653D01*
X138815573Y-109321187D02*
X138791450Y-109365331D01*
X138789308Y-109394781D01*
X135851257Y-106476157D02*
X135904678Y-106487849D01*
X135955035Y-106492443D01*
X136005701Y-106495003D01*
X136060239Y-106496001D01*
X138539878Y-114038415D02*
X138535153Y-114010979D01*
X134750000Y-103500000D02*
X134756136Y-103449459D01*
X134763942Y-103393852D01*
X134779107Y-103394166D01*
X136945763Y-108682205D02*
X136978836Y-108701285D01*
X135734889Y-102241667D02*
X135734714Y-102185150D01*
X135734048Y-102134057D01*
X135732408Y-102074530D01*
X135729175Y-102014250D01*
X135723611Y-101963209D01*
X135708836Y-101932344D01*
X136053648Y-117741198D02*
X136057002Y-117687331D01*
X136059608Y-117630553D01*
X136061445Y-117572574D01*
X136062494Y-117515102D01*
X136062735Y-117459848D01*
X136062150Y-117408520D01*
X136060224Y-117352484D01*
X136058419Y-117324479D01*
X137163506Y-111509928D02*
X137209819Y-111490372D01*
X137229140Y-111471733D01*
X135798340Y-106271510D02*
X135806600Y-106327306D01*
X135816442Y-106378207D01*
X135828944Y-106427627D01*
X135849711Y-106474918D01*
X135851257Y-106476157D01*
X138844487Y-109222161D02*
X138833312Y-109248073D01*
X136340701Y-113904739D02*
X136331118Y-113948718D01*
X134976693Y-119391798D02*
X134982770Y-119338416D01*
X134990486Y-119288486D01*
X135000755Y-119238435D01*
X135017434Y-119188181D01*
X135020296Y-119183928D01*
X133883211Y-106829612D02*
X133885678Y-106778931D01*
X133929196Y-106751666D01*
X133937544Y-106753693D01*
X138679335Y-113947183D02*
X138730047Y-113949271D01*
X131513177Y-106509635D02*
X131487631Y-106463922D01*
X131459896Y-106415600D01*
X131434275Y-106371641D01*
X131407671Y-106326552D01*
X131381302Y-106282419D01*
X131361195Y-106249204D01*
X136058086Y-112290781D02*
X136026204Y-112330056D01*
X136025748Y-112337083D01*
X133838623Y-107013726D02*
X133833678Y-106960836D01*
X133853291Y-106919739D01*
X137984254Y-111553714D02*
X137957795Y-111589635D01*
X135397430Y-105676198D02*
X135398676Y-105730857D01*
X135401688Y-105781019D01*
X135411809Y-105782031D01*
X137206487Y-108182574D02*
X137206487Y-108182574D01*
X134308678Y-103282396D02*
X134357801Y-103271056D01*
X134359461Y-103257043D01*
X135022131Y-112557631D02*
X135052945Y-112597012D01*
X135066018Y-112598459D01*
X134292506Y-111656682D02*
X134264310Y-111648824D01*
X135569226Y-104902291D02*
X135558772Y-104955489D01*
X135558555Y-104988281D01*
X136370294Y-112357757D02*
X136393084Y-112317239D01*
X135417460Y-100252239D02*
X135408655Y-100200223D01*
X135396914Y-100250509D01*
X135396325Y-100305156D01*
X135991756Y-116240191D02*
X135978579Y-116272760D01*
X136414776Y-112030177D02*
X136369221Y-112006170D01*
X136320559Y-111989526D01*
X136304001Y-111985221D01*
X137866687Y-110520494D02*
X137860856Y-110536799D01*
X136529044Y-112714114D02*
X136551705Y-112668212D01*
X136529044Y-112647969D01*
X135664945Y-118085157D02*
X135666729Y-117992262D01*
X135668199Y-117907115D01*
X135669353Y-117829672D01*
X135670191Y-117759886D01*
X135670712Y-117697711D01*
X135670915Y-117643102D01*
X135670621Y-117575275D01*
X135669608Y-117524213D01*
X135665413Y-117471770D01*
X135655290Y-117503074D01*
X135805141Y-113087602D02*
X135844873Y-113094385D01*
X135066018Y-112598459D02*
X135066018Y-112598459D01*
X137192591Y-108147847D02*
X137206487Y-108182574D01*
X132732996Y-108983489D02*
X132705847Y-108940382D01*
X132666469Y-108878486D01*
X132629018Y-108820369D01*
X132593849Y-108766552D01*
X132561314Y-108717556D01*
X132531768Y-108673900D01*
X132497632Y-108624900D01*
X132464593Y-108580181D01*
X132441232Y-108553947D01*
X135419882Y-112460555D02*
X135433779Y-112495282D01*
X136858350Y-111639359D02*
X136833199Y-111682726D01*
X136809140Y-111728178D01*
X136787710Y-111776916D01*
X136784925Y-111797008D01*
X137772586Y-107372654D02*
X137799044Y-107382760D01*
X138004097Y-111492621D02*
X137984881Y-111540411D01*
X137984254Y-111553714D01*
X138730047Y-113949271D02*
X138730047Y-113949271D01*
X133496112Y-109400208D02*
X133478660Y-109351005D01*
X133458461Y-109300162D01*
X133438017Y-109253673D01*
X133419831Y-109217532D01*
X138579565Y-114057853D02*
X138528269Y-114059072D01*
X138539878Y-114038415D01*
X135458543Y-112611625D02*
X135427065Y-112572050D01*
X135405887Y-112571747D01*
X136149692Y-115035833D02*
X136136347Y-115068906D01*
X136123996Y-115770052D02*
X136102285Y-116312448D01*
X136156051Y-112823241D02*
X136123656Y-112784364D01*
X136125104Y-112773882D01*
X138652676Y-113871316D02*
X138652676Y-113871316D01*
X137613836Y-107463697D02*
X137640294Y-107475364D01*
X136459639Y-113573400D02*
X136459639Y-113573400D01*
X137927307Y-111607917D02*
X137921180Y-111657826D01*
X137919713Y-111669010D01*
X136424554Y-113110989D02*
X136434989Y-113060904D01*
X136448636Y-113032381D01*
X138087997Y-110059502D02*
X138070888Y-110041823D01*
X138169461Y-113915138D02*
X138127610Y-113888679D01*
X139280711Y-107951614D02*
X139252691Y-107978073D01*
X138700893Y-109565573D02*
X138725086Y-109552344D01*
X138504628Y-109605260D02*
X138471937Y-109656154D01*
X138441525Y-109711755D01*
X138416481Y-109760159D01*
X138391029Y-109811226D01*
X138366529Y-109862182D01*
X138344338Y-109910253D01*
X138320689Y-109965067D01*
X138304484Y-110014041D01*
X134091960Y-111233560D02*
X134056769Y-111197490D01*
X134023090Y-111205687D01*
X135444253Y-106411142D02*
X135543471Y-106429122D01*
X136081685Y-118747014D02*
X136087824Y-118690760D01*
X136091013Y-118634888D01*
X136088871Y-118581237D01*
X136078330Y-118549900D01*
X135788211Y-112318801D02*
X135768367Y-112334557D01*
X136331118Y-113948718D02*
X136373524Y-113976461D01*
X136395098Y-113960334D01*
X136899056Y-111885730D02*
X136873003Y-111893906D01*
X137508003Y-107131406D02*
X137513006Y-107181800D01*
X137554878Y-107210680D01*
X137567534Y-107211186D01*
X134122008Y-111391198D02*
X134081409Y-111358827D01*
X134068419Y-111338281D01*
X135411809Y-105782031D02*
X135420418Y-105729265D01*
X135445403Y-105742344D01*
X135760718Y-118403424D02*
X135802993Y-118431417D01*
X135787684Y-118469785D01*
X140005220Y-113551963D02*
X139944897Y-113552180D01*
X139893156Y-113552896D01*
X139836315Y-113554796D01*
X139782463Y-113559014D01*
X139733398Y-113569165D01*
X139700505Y-113594506D01*
X137929648Y-110668035D02*
X137943438Y-110615926D01*
X137947591Y-110565599D01*
X137946591Y-110554346D01*
X136059504Y-118918594D02*
X136081685Y-118747014D01*
X136544832Y-113907394D02*
X136600794Y-113898112D01*
X136599854Y-113865962D01*
X136462333Y-112926407D02*
X136424238Y-112959312D01*
X136393525Y-112947017D01*
X136079905Y-113017982D02*
X136078705Y-113069048D01*
X136129006Y-113080893D01*
X132618436Y-108022545D02*
X132591387Y-107973717D01*
X132558730Y-107923068D01*
X132522761Y-107873311D01*
X132485778Y-107827165D01*
X132450076Y-107787346D01*
X132410751Y-107750608D01*
X132373632Y-107733016D01*
X138222379Y-110119870D02*
X138211946Y-110171810D01*
X138194936Y-110222941D01*
X138175374Y-110271672D01*
X138170043Y-110283673D01*
X136882560Y-112417864D02*
X136883977Y-112469771D01*
X136880531Y-112521037D01*
X136851533Y-112548694D01*
X135102978Y-112646310D02*
X135056515Y-112627466D01*
X135015024Y-112584867D01*
X134983807Y-112544358D01*
X134953795Y-112498217D01*
X134932151Y-112458892D01*
X139141805Y-113644122D02*
X139194612Y-113646476D01*
X139214565Y-113658420D01*
X137191979Y-108625390D02*
X137180322Y-108574109D01*
X137184166Y-108518683D01*
X135596075Y-105840870D02*
X135601842Y-105786973D01*
X135612615Y-105738129D01*
X135630868Y-105716755D01*
X135416524Y-105530677D02*
X135398465Y-105580233D01*
X135397264Y-105632623D01*
X135397430Y-105676198D01*
X134487577Y-111758734D02*
X134458223Y-111709101D01*
X134430675Y-111667076D01*
X134396554Y-111622705D01*
X134355558Y-111592345D01*
X134349744Y-111594942D01*
X135976623Y-113016405D02*
X135983770Y-112974040D01*
X136928822Y-112268113D02*
X136883846Y-112297403D01*
X136881096Y-112354637D01*
X136882560Y-112417864D01*
X132750757Y-113585544D02*
X132819074Y-113576901D01*
X132888242Y-113565174D01*
X132956856Y-113550819D01*
X133023512Y-113534294D01*
X133086804Y-113516054D01*
X133145330Y-113496557D01*
X133197684Y-113476259D01*
X133255462Y-113448738D01*
X133303674Y-113415125D01*
X133314154Y-113402359D01*
X136134280Y-113034839D02*
X136088525Y-113014250D01*
X136079905Y-113017982D01*
X133458347Y-107578812D02*
X133495404Y-107616280D01*
X133534519Y-107647459D01*
X133559776Y-107626095D01*
X136156557Y-117952866D02*
X136140426Y-118001441D01*
X136135994Y-118054022D01*
X136134855Y-118109753D01*
X136134931Y-118118230D01*
X136185086Y-112132031D02*
X136211544Y-112104011D01*
X132930712Y-108432433D02*
X132901329Y-108385250D01*
X132868830Y-108345143D01*
X132834410Y-108305637D01*
X132802455Y-108270810D01*
X137746559Y-111007819D02*
X137758227Y-111049068D01*
X132124240Y-107687031D02*
X132160131Y-107745407D01*
X132194733Y-107801387D01*
X132227611Y-107854284D01*
X132258330Y-107903413D01*
X132286453Y-107948085D01*
X132319162Y-107999529D01*
X132350901Y-108048497D01*
X132375792Y-108083906D01*
X135527805Y-105279323D02*
X135541151Y-105312396D01*
X135411809Y-105782031D02*
X135411809Y-105782031D01*
X136902276Y-112466898D02*
X136922455Y-112418577D01*
X136933842Y-112390000D01*
X136912690Y-113898255D02*
X136861207Y-113894044D01*
X136811091Y-113892006D01*
X136833315Y-113901323D01*
X135415826Y-100424219D02*
X135415826Y-100424219D01*
X137279896Y-111245677D02*
X137253005Y-111288982D01*
X137220469Y-111329279D01*
X137182980Y-111370772D01*
X137145969Y-111407630D01*
X137105295Y-111440340D01*
X137095101Y-111444114D01*
X133495242Y-113311151D02*
X133537969Y-113278289D01*
X133588387Y-113261614D01*
X133597517Y-113259734D01*
X136833315Y-113901323D02*
X136939149Y-113921148D01*
X134624044Y-103495125D02*
X134626522Y-103550372D01*
X134633526Y-103600799D01*
X134646994Y-103652332D01*
X134671704Y-103700523D01*
X134701702Y-103718281D01*
X134747401Y-104135000D02*
X134734055Y-104168073D01*
X135128171Y-112449531D02*
X135101735Y-112474564D01*
X136182831Y-116762241D02*
X136182664Y-116825652D01*
X136182442Y-116887988D01*
X136182165Y-116949186D01*
X136181835Y-117009184D01*
X136181454Y-117067922D01*
X136181022Y-117125338D01*
X136180541Y-117181371D01*
X136180013Y-117235959D01*
X136179438Y-117289040D01*
X136178818Y-117340553D01*
X136177449Y-117438631D01*
X136175917Y-117529701D01*
X136174232Y-117613271D01*
X136172405Y-117688850D01*
X136170447Y-117755946D01*
X136168369Y-117814068D01*
X136165050Y-117883350D01*
X136160306Y-117939729D01*
X136156557Y-117952866D01*
X139489946Y-107366485D02*
X139486774Y-107315589D01*
X139483770Y-107264962D01*
X139483332Y-107257392D01*
X137719669Y-111032449D02*
X137746559Y-111007819D01*
X140100919Y-106125350D02*
X140143426Y-106089375D01*
X140184644Y-106055317D01*
X140224040Y-106023568D01*
X140272816Y-105985503D01*
X140316145Y-105953170D01*
X140360724Y-105922225D01*
X140406687Y-105898540D01*
X140408581Y-105898812D01*
X135539126Y-98969010D02*
X135545609Y-99023673D01*
X135550993Y-99075628D01*
X135556412Y-99132701D01*
X135561496Y-99191048D01*
X135565875Y-99246823D01*
X135737382Y-118122639D02*
X135751279Y-118157365D01*
X138465575Y-110013653D02*
X138501424Y-110050302D01*
X138518716Y-110051779D01*
X136804381Y-112023187D02*
X136805455Y-112077279D01*
X136805100Y-112133093D01*
X136802010Y-112184122D01*
X136789812Y-112235133D01*
X136775552Y-112249292D01*
X138157909Y-110475368D02*
X138182806Y-110517886D01*
X137945436Y-110326000D02*
X137928373Y-110374397D01*
X137904049Y-110420553D01*
X137886996Y-110443645D01*
X139352569Y-107616898D02*
X139323366Y-107625684D01*
X137066840Y-113359004D02*
X137102118Y-113355730D01*
X134101968Y-111338281D02*
X134128345Y-111382128D01*
X134122008Y-111391198D01*
X136983717Y-112196934D02*
X136942631Y-112168201D01*
X136899461Y-112183386D01*
X135751279Y-118157365D02*
X135751279Y-118157365D01*
X135737112Y-102712864D02*
X135722796Y-102766736D01*
X135717180Y-102841043D01*
X135711710Y-102941985D01*
X135709047Y-103001712D01*
X135706440Y-103067219D01*
X135703898Y-103138213D01*
X135701427Y-103214402D01*
X135699034Y-103295492D01*
X135696725Y-103381191D01*
X135694508Y-103471206D01*
X135692389Y-103565244D01*
X135690376Y-103663012D01*
X135688475Y-103764218D01*
X135686694Y-103868569D01*
X135685038Y-103975771D01*
X135683516Y-104085533D01*
X135682133Y-104197561D01*
X135680897Y-104311562D01*
X135679815Y-104427244D01*
X135678893Y-104544314D01*
X135678139Y-104662479D01*
X135677560Y-104781446D01*
X135677161Y-104900922D01*
X135676951Y-105020615D01*
X135676936Y-105140231D01*
X135677123Y-105259479D01*
X135788211Y-113190364D02*
X135814669Y-113163906D01*
X133605254Y-107607536D02*
X133656763Y-107610103D01*
X133666786Y-107555201D01*
X133659462Y-107510202D01*
X136606120Y-106665684D02*
X136658718Y-106659597D01*
X136709162Y-106667336D01*
X136714253Y-106678233D01*
X134586709Y-103374323D02*
X134618411Y-103414407D01*
X134623534Y-103465139D01*
X134624044Y-103495125D01*
X138324846Y-107080290D02*
X138373514Y-107065400D01*
X138381128Y-107095845D01*
X136290514Y-112064562D02*
X136264461Y-112052656D01*
X138535153Y-114010979D02*
X138485515Y-114023975D01*
X138455778Y-114043647D01*
X136846544Y-112091741D02*
X136848631Y-112035394D01*
X136855236Y-111981522D01*
X136873003Y-111933594D01*
X135905564Y-112828860D02*
X135954885Y-112814989D01*
X135956392Y-112811847D01*
X135578632Y-99601805D02*
X135592529Y-99636532D01*
X137232077Y-108642584D02*
X137191979Y-108625390D01*
X134306544Y-112862776D02*
X134342189Y-112899133D01*
X134346232Y-112899323D01*
X138725086Y-109552344D02*
X138725086Y-109552344D01*
X135543471Y-106429122D02*
X135597730Y-106439368D01*
X135651456Y-106450201D01*
X135701010Y-106461089D01*
X136165786Y-115287189D02*
X136156243Y-115228989D01*
X136126658Y-115281456D01*
X136126154Y-115336915D01*
X136127726Y-115386348D01*
X139520027Y-106522864D02*
X139567756Y-106505684D01*
X139608393Y-106473252D01*
X139610876Y-106470572D01*
X135569226Y-105074271D02*
X135573008Y-105022951D01*
X135573473Y-104970796D01*
X135570721Y-104916336D01*
X135569226Y-104902291D01*
X136330770Y-112413446D02*
X136366380Y-112376784D01*
X136370294Y-112357757D01*
X139793274Y-106363688D02*
X139841122Y-106334659D01*
X139885698Y-106301404D01*
X139929025Y-106267546D01*
X139977799Y-106228299D01*
X140017195Y-106195914D01*
X140058412Y-106161460D01*
X140100919Y-106125350D01*
X139121962Y-107603723D02*
X139115570Y-107656173D01*
X139102712Y-107709469D01*
X139087295Y-107758707D01*
X139069204Y-107805722D01*
X136529044Y-112647969D02*
X136504464Y-112692722D01*
X136502991Y-112709061D01*
X134701702Y-103718281D02*
X134722056Y-103668274D01*
X134733520Y-103612964D01*
X134742943Y-103554385D01*
X134750000Y-103500000D01*
X133724461Y-107395989D02*
X133730091Y-107343702D01*
X133768222Y-107335068D01*
X139823107Y-113481299D02*
X139875996Y-113481609D01*
X139927785Y-113482265D01*
X139977778Y-113483237D01*
X140040431Y-113484975D01*
X140096993Y-113487154D01*
X140156608Y-113490394D01*
X140207617Y-113494862D01*
X140226596Y-113498084D01*
X139398672Y-106547540D02*
X139447739Y-106551628D01*
X135283544Y-113968382D02*
X135226771Y-113972196D01*
X135164658Y-113980177D01*
X135109276Y-113994430D01*
X135073717Y-114030473D01*
X135113704Y-114071632D01*
X135146596Y-114088819D01*
X136744018Y-112672383D02*
X136744018Y-112672383D01*
X138163000Y-113977684D02*
X138163000Y-113977684D01*
X134264310Y-111648824D02*
X134316907Y-111640889D01*
X134320348Y-111641059D01*
X139266786Y-107880838D02*
X139232653Y-107842111D01*
X139253610Y-107819323D01*
X135750326Y-119236095D02*
X135756646Y-119293312D01*
X135762460Y-119349715D01*
X135766691Y-119400724D01*
X135768356Y-119452264D01*
X135765919Y-119507293D01*
X135978579Y-116272760D02*
X135983099Y-116323198D01*
X135990776Y-116319566D01*
X137190503Y-108308802D02*
X137190503Y-108308802D01*
X136624080Y-112825959D02*
X136624080Y-112825959D01*
X134490305Y-111841884D02*
X134504720Y-111793659D01*
X134487577Y-111758734D01*
X135648072Y-104816302D02*
X135626497Y-105213177D01*
X136581961Y-112948474D02*
X136555806Y-112938824D01*
X134482584Y-103294948D02*
X134518875Y-103332702D01*
X134560858Y-103364706D01*
X134586709Y-103374323D01*
X135787455Y-118733387D02*
X135771947Y-118685796D01*
X135767509Y-118737822D01*
X135767754Y-118773074D01*
X131528419Y-106086600D02*
X131563263Y-106142454D01*
X131601483Y-106191255D01*
X131648824Y-106248573D01*
X131683695Y-106289515D01*
X131719985Y-106331243D01*
X131756640Y-106372555D01*
X131792605Y-106412253D01*
X131826826Y-106449135D01*
X131872583Y-106496556D01*
X131917651Y-106538731D01*
X131934886Y-106549323D01*
X134205110Y-106014280D02*
X134221371Y-105966194D01*
X134227189Y-105909999D01*
X134229817Y-105859294D01*
X134230909Y-105804407D01*
X134230424Y-105748175D01*
X134228318Y-105693435D01*
X134224549Y-105643024D01*
X134216862Y-105587448D01*
X134211850Y-105566540D01*
X130501302Y-113761267D02*
X130501302Y-113761267D01*
X132216450Y-106787004D02*
X132255323Y-106823218D01*
X132293516Y-106857723D01*
X132342495Y-106900375D01*
X132388137Y-106938316D01*
X132429225Y-106970590D01*
X132472327Y-107001508D01*
X132516605Y-107024797D01*
X132519605Y-107025129D01*
X136160958Y-115571616D02*
X136169673Y-115637686D01*
X136172824Y-115704226D01*
X136174714Y-115760436D01*
X136176428Y-115825710D01*
X136177959Y-115899691D01*
X136179300Y-115982024D01*
X136180445Y-116072351D01*
X136181387Y-116170316D01*
X136181780Y-116222052D01*
X136182120Y-116275564D01*
X136182406Y-116330807D01*
X136182638Y-116387736D01*
X136182813Y-116446308D01*
X136182933Y-116506478D01*
X136182995Y-116568200D01*
X136182999Y-116631431D01*
X136182945Y-116696126D01*
X136182831Y-116762241D01*
X135691062Y-118574635D02*
X135691590Y-118625046D01*
X135694266Y-118676119D01*
X135701689Y-118660035D01*
X139165722Y-107274991D02*
X139146783Y-107323601D01*
X139137745Y-107375320D01*
X139150546Y-107397304D01*
X135788211Y-113137448D02*
X135761753Y-113163906D01*
X134349744Y-111594942D02*
X134333003Y-111567587D01*
X133936128Y-112847236D02*
X133941194Y-112794945D01*
X133984314Y-112767672D01*
X134003786Y-112767031D01*
X138304484Y-110014041D02*
X138323977Y-110027271D01*
X138381128Y-107095845D02*
X138414201Y-107102092D01*
X135870223Y-112257708D02*
X135831955Y-112290609D01*
X135827899Y-112290781D01*
X137283086Y-111501774D02*
X137247350Y-111538918D01*
X137222925Y-111586029D01*
X137216961Y-111621559D01*
X135391336Y-101045989D02*
X135391395Y-101103428D01*
X135391570Y-101159139D01*
X135391855Y-101212839D01*
X135392244Y-101264244D01*
X135393008Y-101336429D01*
X135393972Y-101401855D01*
X135395117Y-101459568D01*
X135396889Y-101522863D01*
X135399433Y-101576849D01*
X135402846Y-101598923D01*
X136545407Y-112913927D02*
X136498006Y-112892957D01*
X136462333Y-112926407D01*
X132454460Y-114130619D02*
X132369683Y-114130895D01*
X132284793Y-114131501D01*
X132200227Y-114132424D01*
X132116423Y-114133648D01*
X132033821Y-114135160D01*
X131952860Y-114136945D01*
X131873978Y-114138991D01*
X131797613Y-114141281D01*
X131724205Y-114143803D01*
X131654192Y-114146543D01*
X131588013Y-114149485D01*
X131526107Y-114152617D01*
X131468911Y-114155924D01*
X131416866Y-114159392D01*
X131349414Y-114164864D01*
X131329981Y-114166754D01*
X136125104Y-112773882D02*
X136177133Y-112781756D01*
X136403228Y-112383385D02*
X136403975Y-112433732D01*
X136453417Y-112419147D01*
X136463807Y-112393753D01*
X139483332Y-107257392D02*
X139473817Y-107202295D01*
X139421411Y-107198731D01*
X139384533Y-107240952D01*
X139354907Y-107283749D01*
X139346857Y-107296284D01*
X135620527Y-117152500D02*
X135607182Y-117185573D01*
X134233286Y-111422882D02*
X134204640Y-111376817D01*
X134173225Y-111332209D01*
X134139136Y-111287945D01*
X134105481Y-111248188D01*
X134091960Y-111233560D01*
X137137586Y-108214636D02*
X137111128Y-108202969D01*
X137142281Y-108347184D02*
X137103409Y-108313381D01*
X137064477Y-108348476D01*
X137065138Y-108355104D01*
X134960349Y-119566824D02*
X134976693Y-119391798D01*
X132904208Y-109287760D02*
X132880298Y-109243350D01*
X132855701Y-109198267D01*
X132831119Y-109153756D01*
X132801480Y-109100827D01*
X132774332Y-109053180D01*
X132746974Y-109006411D01*
X132732996Y-108983489D01*
X138442513Y-109794528D02*
X138490563Y-109771931D01*
X138521167Y-109774484D01*
X133856753Y-113022707D02*
X133868411Y-112972464D01*
X133896440Y-112942671D01*
X136211544Y-112104011D02*
X136185086Y-112092344D01*
X134246116Y-105526853D02*
X134287448Y-105487798D01*
X134290564Y-105432846D01*
X134290237Y-105369280D01*
X134288815Y-105314310D01*
X134286469Y-105248053D01*
X134283235Y-105169470D01*
X134279146Y-105077522D01*
X134276792Y-105026212D01*
X134274238Y-104971170D01*
X134271487Y-104912268D01*
X134268544Y-104849375D01*
X131329981Y-114166754D02*
X131259141Y-114173809D01*
X131193904Y-114179906D01*
X131134044Y-114185045D01*
X131079332Y-114189224D01*
X131006421Y-114193690D01*
X130943817Y-114195991D01*
X130890751Y-114196124D01*
X130833508Y-114192921D01*
X130781112Y-114183475D01*
X130741648Y-114164137D01*
X138982089Y-108527101D02*
X138955975Y-108545565D01*
X139399774Y-107316614D02*
X139371754Y-107343073D01*
X135396325Y-100305156D02*
X135396566Y-100360226D01*
X135399419Y-100410630D01*
X135415826Y-100424219D01*
X135495118Y-98631666D02*
X135503008Y-98692694D01*
X135509439Y-98742282D01*
X135517330Y-98802954D01*
X135524728Y-98859643D01*
X135531280Y-98909649D01*
X135538362Y-98963282D01*
X135539126Y-98969010D01*
X131743481Y-107217396D02*
X131724965Y-107169146D01*
X131707921Y-107116356D01*
X131767344Y-107138825D01*
X131813802Y-107202479D01*
X131851733Y-107257735D01*
X131895211Y-107323221D01*
X131944218Y-107398916D01*
X131998738Y-107484797D01*
X132028058Y-107531550D01*
X132058751Y-107580842D01*
X132090812Y-107632670D01*
X132124240Y-107687031D01*
X138518716Y-110051779D02*
X138544527Y-110098656D01*
X138539900Y-110134427D01*
X136873003Y-111933594D02*
X136898811Y-111890701D01*
X136899056Y-111885730D01*
X139331625Y-106565362D02*
X139371872Y-106526028D01*
X139414218Y-106498956D01*
X139439461Y-106524426D01*
X135759115Y-102181075D02*
X135758745Y-102241642D01*
X135758190Y-102299837D01*
X135757458Y-102355388D01*
X135756563Y-102408022D01*
X135754936Y-102480908D01*
X135753003Y-102545696D01*
X135750802Y-102601468D01*
X135747517Y-102660213D01*
X135742020Y-102710435D01*
X135737112Y-102712864D01*
X139196581Y-107978073D02*
X139196581Y-107978073D01*
X136056149Y-118721479D02*
X136059504Y-118918594D01*
X139360086Y-107316614D02*
X139388106Y-107290156D01*
X131170325Y-105702656D02*
X131216360Y-105734874D01*
X131254615Y-105770287D01*
X131298999Y-105814250D01*
X131346490Y-105863521D01*
X131394066Y-105914861D01*
X131438705Y-105965030D01*
X131477385Y-106010787D01*
X131514466Y-106059335D01*
X131528419Y-106086600D01*
X138434044Y-110359323D02*
X138455965Y-110312636D01*
X138459692Y-110293177D01*
X136363735Y-113555393D02*
X136410563Y-113578959D01*
X136459639Y-113573400D01*
X135303075Y-112614748D02*
X135355641Y-112614120D01*
X135384400Y-112634962D01*
X135238672Y-112767031D02*
X135197352Y-112737428D01*
X135168321Y-112700042D01*
X137856677Y-113377048D02*
X137912155Y-113382119D01*
X137963342Y-113386064D01*
X138021416Y-113390057D01*
X138085188Y-113394034D01*
X138153466Y-113397929D01*
X138225061Y-113401678D01*
X138298783Y-113405215D01*
X138373440Y-113408475D01*
X138447842Y-113411394D01*
X138520800Y-113413906D01*
X138544593Y-113414642D01*
X138408396Y-110372552D02*
X138434044Y-110359323D01*
X135469551Y-105909913D02*
X135454439Y-105964258D01*
X135449295Y-106016112D01*
X135446249Y-106068644D01*
X135444545Y-106127470D01*
X135444253Y-106164937D01*
X139054377Y-108219100D02*
X139033919Y-108265905D01*
X139030402Y-108301027D01*
X135956392Y-112811847D02*
X135971330Y-112850816D01*
X136581961Y-112984439D02*
X136562117Y-112985386D01*
X136154218Y-113008374D02*
X136200278Y-113031583D01*
X136202303Y-113031614D01*
X135677123Y-105259479D02*
X135679945Y-106417031D01*
X136238408Y-112068399D02*
X136226499Y-112118124D01*
X136196106Y-112160857D01*
X136154099Y-112190902D01*
X136100683Y-112202395D01*
X136081149Y-112198779D01*
X139678124Y-106430593D02*
X139725552Y-106409347D01*
X139730745Y-106403511D01*
X139214413Y-108040616D02*
X139189369Y-107994666D01*
X139196581Y-107978073D01*
X135761753Y-114060406D02*
X135708862Y-114080681D01*
X135653416Y-114085845D01*
X135591960Y-114088556D01*
X135532723Y-114089693D01*
X135482379Y-114089949D01*
X135626497Y-105213177D02*
X135623100Y-105274020D01*
X135619621Y-105333248D01*
X135616116Y-105390082D01*
X135612641Y-105443744D01*
X135608150Y-105509014D01*
X135603941Y-105565416D01*
X135599280Y-105620638D01*
X135594336Y-105662969D01*
X134747401Y-104201146D02*
X134747401Y-104201146D01*
X136903871Y-109195156D02*
X136925663Y-109241366D01*
X136925919Y-109249634D01*
X138730047Y-113949272D02*
X138714062Y-113933287D01*
X139925109Y-106568646D02*
X139893219Y-106614052D01*
X139870420Y-106660697D01*
X139854301Y-106708147D01*
X139851011Y-106722897D01*
X135303075Y-112614748D02*
X135303075Y-112614748D01*
X139266689Y-107791580D02*
X139215373Y-107792012D01*
X139183393Y-107835532D01*
X139174879Y-107874944D01*
X137946591Y-110554346D02*
X137946890Y-110503869D01*
X137955564Y-110452995D01*
X137959505Y-110438698D01*
X130562689Y-113908054D02*
X130515365Y-113891629D01*
X130480388Y-113853200D01*
X130474844Y-113831692D01*
X136936519Y-111420437D02*
X136932411Y-111473880D01*
X136915681Y-111526835D01*
X136891426Y-111580085D01*
X136863609Y-111630538D01*
X136858350Y-111639359D01*
X139216402Y-107141426D02*
X139199159Y-107192898D01*
X139179314Y-107242843D01*
X139165722Y-107274991D01*
X137044982Y-112264323D02*
X137016962Y-112290781D01*
X132441232Y-108553947D02*
X132441232Y-108533698D01*
X136225469Y-113082338D02*
X136259378Y-113119958D01*
X136263374Y-113118940D01*
X134068419Y-111338281D02*
X134047871Y-111291775D01*
X134048379Y-111285364D01*
X136178885Y-114759372D02*
X136178566Y-114821452D01*
X136178150Y-114880917D01*
X136177642Y-114937495D01*
X136177050Y-114990916D01*
X136176018Y-115064535D01*
X136174833Y-115129527D01*
X136173517Y-115184981D01*
X136171601Y-115242501D01*
X136167411Y-115293132D01*
X136165786Y-115287189D01*
X139069045Y-108072399D02*
X139079138Y-108019857D01*
X139095104Y-107971694D01*
X139099767Y-107959951D01*
X139610876Y-106470572D02*
X139650151Y-106437257D01*
X139678124Y-106430593D01*
X136720867Y-112621028D02*
X136732036Y-112670246D01*
X136744018Y-112672383D01*
X138343645Y-110253894D02*
X138346222Y-110274166D01*
X135787684Y-118469785D02*
X135767900Y-118519489D01*
X135768261Y-118572942D01*
X135783235Y-118623759D01*
X137190503Y-108308802D02*
X137216961Y-108267553D01*
X138127610Y-113888679D02*
X138076860Y-113901537D01*
X138042943Y-113904739D01*
X137750192Y-110703281D02*
X137722404Y-110749135D01*
X137704731Y-110797645D01*
X137695142Y-110828958D01*
X134015503Y-106295138D02*
X134024462Y-106245171D01*
X134055190Y-106241391D01*
X137206488Y-108182574D02*
X137208576Y-108131862D01*
X136654060Y-112765047D02*
X136601821Y-112766909D01*
X136582791Y-112767031D01*
X136025748Y-112337083D02*
X135977257Y-112322118D01*
X135973419Y-112317239D01*
X136780222Y-112798525D02*
X136750794Y-112839444D01*
X136730391Y-112885604D01*
X136731393Y-112905651D01*
X136370039Y-106575781D02*
X136424175Y-106578970D01*
X136470548Y-106600785D01*
X136483972Y-106629378D01*
X135780975Y-101374096D02*
X135777059Y-101428292D01*
X135774222Y-101482216D01*
X135771512Y-101545969D01*
X135768967Y-101618155D01*
X135767380Y-101670273D01*
X135765895Y-101725106D01*
X135764522Y-101782237D01*
X135763273Y-101841255D01*
X135762159Y-101901745D01*
X135761190Y-101963293D01*
X135760380Y-102025486D01*
X135759737Y-102087910D01*
X135759275Y-102150152D01*
X135759115Y-102181075D01*
X136930694Y-106926354D02*
X136954163Y-106972744D01*
X137006406Y-106983792D01*
X137061431Y-106985209D01*
X137084669Y-106985176D01*
D11*
X161000000Y-150250000D02*
X157000000Y-150250000D01*
X157000000Y-150250000D02*
X157000000Y-151500000D01*
X157000000Y-151500000D02*
X161000000Y-151500000D01*
X161000000Y-151500000D02*
X161000000Y-150250000D01*
G36*
X161000000Y-150250000D02*
G01*
X157000000Y-150250000D01*
X157000000Y-151500000D01*
X161000000Y-151500000D01*
X161000000Y-150250000D01*
G37*
D10*
X138873363Y-113527156D02*
X138917625Y-113551283D01*
X138965478Y-113536755D01*
X135224553Y-113171878D02*
X135281114Y-113180573D01*
X135340968Y-113182267D01*
X135402764Y-113183027D01*
X135444253Y-113183158D01*
X138862069Y-108771823D02*
X138892127Y-108731070D01*
X138928284Y-108691981D01*
X138957954Y-108672185D01*
X136035058Y-117503073D02*
X136035176Y-117574867D01*
X136035372Y-117638283D01*
X136035659Y-117693490D01*
X136036288Y-117761278D01*
X136037195Y-117811548D01*
X136040022Y-117861820D01*
X136048574Y-117807391D01*
X136053648Y-117741198D01*
X136793628Y-106708073D02*
X136846652Y-106713348D01*
X136872155Y-106758694D01*
X136873003Y-106787448D01*
X136910024Y-111770671D02*
X136932700Y-111723942D01*
X136956529Y-111672693D01*
X136977605Y-111624610D01*
X136988398Y-111596696D01*
X136181472Y-114145566D02*
X136178885Y-114759372D01*
X137288338Y-107044578D02*
X137327742Y-107079051D01*
X137378285Y-107089395D01*
X137415738Y-107078360D01*
X133973582Y-106566008D02*
X133969462Y-106515991D01*
X133966509Y-106464318D01*
X133966543Y-106411064D01*
X133985395Y-106364114D01*
X133263086Y-114111301D02*
X133205886Y-114117648D01*
X133155153Y-114120141D01*
X133090711Y-114122449D01*
X133013958Y-114124539D01*
X132956641Y-114125794D01*
X132894889Y-114126928D01*
X132829117Y-114127930D01*
X132759739Y-114128790D01*
X132687169Y-114129499D01*
X132611823Y-114130047D01*
X132534115Y-114130423D01*
X132454460Y-114130619D01*
X135492003Y-112889286D02*
X135453050Y-112854894D01*
X135426111Y-112811178D01*
X135420711Y-112801038D01*
X137886996Y-110443645D02*
X137863255Y-110489807D01*
X137866687Y-110520494D01*
X136988398Y-111596696D02*
X137026301Y-111562797D01*
X137039741Y-111564827D01*
X138928248Y-113931604D02*
X138910294Y-113957657D01*
X138414201Y-107102092D02*
X138450197Y-107065613D01*
X138488885Y-107032790D01*
X138500190Y-107024274D01*
X135083139Y-116763057D02*
X135078129Y-116821813D01*
X135072127Y-116879971D01*
X135064131Y-116933217D01*
X135047066Y-116934220D01*
X136851533Y-112548694D02*
X136814470Y-112583456D01*
X136807015Y-112627768D01*
X135879469Y-113985415D02*
X135925408Y-114007605D01*
X135945638Y-114009733D01*
X135139108Y-112608281D02*
X135141743Y-112555098D01*
X135136173Y-112502931D01*
X135128171Y-112449531D01*
X135767156Y-106280689D02*
X135774982Y-106086302D01*
X136599854Y-113865962D02*
X136546144Y-113858561D01*
X136496212Y-113863243D01*
X136459703Y-113874923D01*
X132441232Y-108533698D02*
X132439107Y-108513449D01*
X138457865Y-110086563D02*
X138434044Y-110094739D01*
X135218376Y-114065079D02*
X135269904Y-114052560D01*
X135320183Y-114051130D01*
X135372534Y-114052638D01*
X135420924Y-114055901D01*
X134094878Y-106228162D02*
X134134565Y-106214933D01*
X139390969Y-107499953D02*
X139366962Y-107546286D01*
X139350967Y-107596578D01*
X139352569Y-107616898D01*
X133580157Y-110518073D02*
X133547710Y-110475457D01*
X133521142Y-110428300D01*
X133512794Y-110412239D01*
X138364148Y-110609656D02*
X138354101Y-110660082D01*
X138338684Y-110708166D01*
X138318633Y-110759202D01*
X138304617Y-110789970D01*
X135841126Y-116801928D02*
X135817889Y-116753226D01*
X135812454Y-116696444D01*
X135810633Y-116651354D01*
X137111128Y-108242656D02*
X137111128Y-108242656D01*
X135603012Y-113060921D02*
X135620421Y-113102399D01*
X139221824Y-107607656D02*
X139267893Y-107578510D01*
X139309747Y-107542461D01*
X139345501Y-107508437D01*
X131818740Y-107422448D02*
X131802630Y-107374156D01*
X131783273Y-107320774D01*
X131763727Y-107269060D01*
X131743481Y-107217396D01*
X130741648Y-114164137D02*
X130742890Y-114111328D01*
X130802274Y-114096148D01*
X130857831Y-114088304D01*
X130929697Y-114081135D01*
X130987218Y-114076620D01*
X131052814Y-114072240D01*
X131126815Y-114067928D01*
X131209551Y-114063618D01*
X131254299Y-114061444D01*
X134514325Y-111897619D02*
X134477324Y-111863964D01*
X134490305Y-111841884D01*
X139241024Y-113454426D02*
X139295878Y-113459674D01*
X139360623Y-113464603D01*
X139414237Y-113468023D01*
X139471064Y-113471156D01*
X139530097Y-113473954D01*
X139590330Y-113476371D01*
X139650754Y-113478360D01*
X139710363Y-113479876D01*
X139768150Y-113480871D01*
X139823107Y-113481299D01*
X138170043Y-110283673D02*
X138149052Y-110331343D01*
X138130837Y-110378279D01*
X138119894Y-110429474D01*
X138148534Y-110471374D01*
X138157910Y-110475368D01*
X134594814Y-111988224D02*
X134571128Y-111967978D01*
X134634198Y-112014495D02*
X134594814Y-111988224D01*
X135894044Y-112290781D02*
X135870223Y-112257708D01*
X136483972Y-106629378D02*
X136514325Y-106670670D01*
X136567450Y-106671207D01*
X136606120Y-106665684D01*
X136544430Y-112802796D02*
X136589293Y-112828473D01*
X136624080Y-112825959D01*
X133683429Y-107457958D02*
X133723359Y-107424773D01*
X133724461Y-107395989D01*
X138521167Y-109774484D02*
X138515483Y-109728179D01*
X139345501Y-107508437D02*
X139445568Y-107409219D01*
X139371754Y-107343073D02*
X139360086Y-107316614D01*
X133201909Y-107444035D02*
X133242516Y-107476571D01*
X133274669Y-107481145D01*
X135619825Y-99551094D02*
X135634266Y-99601867D01*
X135648998Y-99661981D01*
X135663656Y-99729222D01*
X135677872Y-99801373D01*
X135686924Y-99851108D01*
X135695509Y-99901384D01*
X135703518Y-99951545D01*
X135714215Y-100025134D01*
X135723007Y-100094773D01*
X135729528Y-100158245D01*
X135733412Y-100213334D01*
X135734356Y-100244310D01*
X131934886Y-106549323D02*
X131979748Y-106578119D01*
X132020716Y-106611258D01*
X132060331Y-106645028D01*
X132104775Y-106684195D01*
X132152893Y-106727784D01*
X132190699Y-106762791D01*
X132216450Y-106787004D01*
X134812947Y-115366551D02*
X134813807Y-115253356D01*
X134814604Y-115147210D01*
X134815327Y-115047884D01*
X134815970Y-114955152D01*
X134816524Y-114868789D01*
X134816980Y-114788567D01*
X134817332Y-114714260D01*
X134817570Y-114645641D01*
X134817687Y-114582485D01*
X134817674Y-114524563D01*
X134817523Y-114471651D01*
X134816778Y-114379947D01*
X134815384Y-114305560D01*
X134813279Y-114246678D01*
X134808643Y-114183465D01*
X134796437Y-114129965D01*
X134768241Y-114116395D01*
X135541151Y-105312396D02*
X135545279Y-105261701D01*
X135541151Y-105246250D01*
X134918216Y-105524062D02*
X134913712Y-105575407D01*
X134897279Y-105622748D01*
X134895242Y-105623261D01*
X135548187Y-119566824D02*
X135254268Y-119566824D01*
X138758159Y-113983711D02*
X138704004Y-113986487D01*
X138656340Y-114002604D01*
X138652326Y-114017189D01*
X131254299Y-114061444D02*
X131307054Y-114058880D01*
X131362100Y-114056108D01*
X131418993Y-114053153D01*
X131477285Y-114050043D01*
X131536531Y-114046804D01*
X131596286Y-114043461D01*
X131656103Y-114040042D01*
X131715537Y-114036571D01*
X131774143Y-114033077D01*
X131831474Y-114029584D01*
X131887084Y-114026120D01*
X131940528Y-114022711D01*
X131991361Y-114019382D01*
X132061737Y-114014598D01*
X132123730Y-114010145D01*
X134884749Y-105879968D02*
X134887125Y-105938712D01*
X134889795Y-105988858D01*
X134894221Y-106044209D01*
X134901941Y-106098494D01*
X134915866Y-106148370D01*
X134940947Y-106196415D01*
X134960650Y-106223947D01*
X135648176Y-119533751D02*
X135641288Y-119468417D01*
X135641455Y-119393930D01*
X135642108Y-119326126D01*
X135643212Y-119242176D01*
X135644784Y-119140683D01*
X135645750Y-119082922D01*
X135646840Y-119020253D01*
X135648054Y-118952499D01*
X135649396Y-118879487D01*
X135650867Y-118801043D01*
X135652468Y-118716991D01*
X135654203Y-118627158D01*
X135656073Y-118531368D01*
X135658080Y-118429448D01*
X135660226Y-118321222D01*
X135662514Y-118206516D01*
X135664945Y-118085157D01*
X137065138Y-108355104D02*
X137054728Y-108404237D01*
X137029116Y-108407774D01*
X138548306Y-107078489D02*
X138597922Y-107071895D01*
X138631768Y-107053186D01*
X138235607Y-110491614D02*
X138261678Y-110447767D01*
X138279908Y-110438698D01*
X135734356Y-100244310D02*
X135737442Y-100294596D01*
X135750280Y-100345692D01*
X135778429Y-100379583D01*
X135450387Y-105504219D02*
X135440682Y-105553421D01*
X135416524Y-105530677D01*
X135708836Y-102527656D02*
X135728258Y-102477234D01*
X135731679Y-102423780D01*
X135733528Y-102367880D01*
X135734595Y-102300205D01*
X135734889Y-102241667D01*
X130999253Y-113733989D02*
X131075494Y-113730898D01*
X131130931Y-113728248D01*
X131189470Y-113725168D01*
X131250608Y-113721693D01*
X131313844Y-113717859D01*
X131378675Y-113713701D01*
X131444601Y-113709254D01*
X131511119Y-113704554D01*
X131577726Y-113699637D01*
X131643922Y-113694538D01*
X131709205Y-113689292D01*
X131773071Y-113683935D01*
X131835020Y-113678502D01*
X131894550Y-113673030D01*
X131951159Y-113667552D01*
X131978211Y-113664823D01*
X140226596Y-113498084D02*
X140276692Y-113515784D01*
X140227089Y-113543953D01*
X140171172Y-113548364D01*
X140117331Y-113550546D01*
X140053398Y-113551734D01*
X140005220Y-113551963D01*
X133700832Y-110637135D02*
X133669938Y-110585234D01*
X133641337Y-110537815D01*
X133615156Y-110495048D01*
X133580702Y-110439994D01*
X133552412Y-110396366D01*
X133520130Y-110350609D01*
X133536255Y-110406783D01*
X133553161Y-110440012D01*
X136970452Y-108819778D02*
X136968364Y-108870490D01*
X132519605Y-107025129D02*
X132568580Y-107044646D01*
X132614192Y-107075185D01*
X132657503Y-107109989D01*
X132688221Y-107138021D01*
X138393306Y-110488301D02*
X138397113Y-110538975D01*
X138389526Y-110544550D01*
X138634357Y-109448234D02*
X138646579Y-109391016D01*
X138661883Y-109333351D01*
X138677633Y-109279176D01*
X138695325Y-109222144D01*
X138714228Y-109164795D01*
X138725846Y-109131290D01*
X138326030Y-110359751D02*
X138292599Y-110397762D01*
X138292673Y-110374826D01*
X138543668Y-109668504D02*
X138534921Y-109708030D01*
X135965200Y-116570416D02*
X135970112Y-116517827D01*
X135965200Y-116477812D01*
X133419831Y-109217532D02*
X133397882Y-109168999D01*
X133383607Y-109119517D01*
X133380504Y-109092821D01*
X135420924Y-114055901D02*
X135478265Y-114059976D01*
X135533612Y-114061697D01*
X135586494Y-114058459D01*
X135628140Y-114039170D01*
X135435867Y-112444570D02*
X135419882Y-112460555D01*
X135232586Y-106348633D02*
X135283043Y-106366538D01*
X135332702Y-106379582D01*
X135378107Y-106385491D01*
X130474844Y-113831692D02*
X130481057Y-113781844D01*
X130501302Y-113761267D01*
X136393525Y-112947017D02*
X136350305Y-112975130D01*
X136358696Y-113028072D01*
X136363490Y-113045206D01*
X135655290Y-117503074D02*
X135645505Y-117574209D01*
X135636177Y-117648625D01*
X135627313Y-117726196D01*
X135618922Y-117806798D01*
X135611012Y-117890306D01*
X135603591Y-117976594D01*
X135596668Y-118065538D01*
X135590251Y-118157012D01*
X135584348Y-118250892D01*
X135578967Y-118347052D01*
X135574117Y-118445367D01*
X135569807Y-118545712D01*
X135567856Y-118596607D01*
X135566044Y-118647963D01*
X135564370Y-118699764D01*
X135562836Y-118751994D01*
X135561444Y-118804638D01*
X135560193Y-118857680D01*
X135559086Y-118911105D01*
X135558123Y-118964897D01*
X135620527Y-117218646D02*
X135624655Y-117167951D01*
X135620527Y-117152500D01*
X135047066Y-116934220D02*
X135022495Y-116980325D01*
X135014635Y-117034360D01*
X135006687Y-117102555D01*
X135001445Y-117154941D01*
X134996323Y-117212206D01*
X134991385Y-117273783D01*
X134986695Y-117339106D01*
X134982317Y-117407609D01*
X134978314Y-117478725D01*
X134974751Y-117551890D01*
X134973155Y-117589064D01*
X137084669Y-108230988D02*
X137111128Y-108242656D01*
X134930519Y-117714741D02*
X134885838Y-117739573D01*
X134881871Y-117747814D01*
X136823190Y-112698967D02*
X136816984Y-112751706D01*
X136786303Y-112791230D01*
X136780222Y-112798525D01*
X138898508Y-113616034D02*
X138872168Y-113640157D01*
X136129006Y-113080893D02*
X136134280Y-113034839D01*
X135664895Y-113172001D02*
X135619264Y-113146672D01*
X135577459Y-113115561D01*
X135528706Y-113076022D01*
X135476174Y-113030926D01*
X135423030Y-112983142D01*
X135372444Y-112935542D01*
X135327584Y-112890994D01*
X135291618Y-112852369D01*
X135260046Y-112808951D01*
X135259044Y-112804368D01*
X136873003Y-106787448D02*
X136878642Y-106837862D01*
X136897621Y-106866823D01*
X136744018Y-112672383D02*
X136765758Y-112625201D01*
X136767169Y-112606719D01*
X135701687Y-118660035D02*
X135705139Y-118608408D01*
X135705895Y-118558178D01*
X135704155Y-118504655D01*
X135701475Y-118474826D01*
X134346232Y-112899323D02*
X134380400Y-112940778D01*
X134385442Y-112996878D01*
X134385919Y-113031110D01*
X132802455Y-108270810D02*
X132768736Y-108233242D01*
X132734694Y-108192304D01*
X132701803Y-108149984D01*
X132671538Y-108108273D01*
X132640761Y-108061821D01*
X132618436Y-108022545D01*
X134769565Y-113184870D02*
X135034149Y-113177135D01*
X136459639Y-113573400D02*
X136509350Y-113563066D01*
X136565385Y-113549510D01*
X136614803Y-113530417D01*
X136634878Y-113495683D01*
X135844873Y-113094385D02*
X135851098Y-113043362D01*
X135855909Y-112990585D01*
X135859947Y-112937705D01*
X135863061Y-112889877D01*
X136158628Y-112120363D02*
X136185086Y-112132031D01*
X135060607Y-112872835D02*
X135171636Y-113016716D01*
X136529044Y-113979995D02*
X136476365Y-113983629D01*
X136449336Y-114009808D01*
X136902593Y-108930950D02*
X136884841Y-108978457D01*
X136879128Y-109029334D01*
X136899461Y-109036406D01*
X139700505Y-113594506D02*
X139655211Y-113630439D01*
X139602367Y-113647685D01*
X139552592Y-113655910D01*
X139499616Y-113658807D01*
X139446636Y-113656031D01*
X139396850Y-113647235D01*
X139353455Y-113632073D01*
X137802138Y-110612086D02*
X137782315Y-110659281D01*
X137754675Y-110701419D01*
X137750192Y-110703281D01*
X139278401Y-107754605D02*
X139295402Y-107802960D01*
X139295058Y-107813705D01*
X136744018Y-112555364D02*
X136721912Y-112601557D01*
X136720867Y-112621028D01*
X138042943Y-113904739D02*
X138075000Y-113950869D01*
X138130474Y-113969124D01*
X138163000Y-113977684D01*
X137184166Y-108518683D02*
X137188568Y-108463003D01*
X137184426Y-108411926D01*
X137160882Y-108366489D01*
X137142281Y-108347184D01*
X136992188Y-108500378D02*
X136990140Y-108555483D01*
X136978872Y-108605454D01*
X136955137Y-108650694D01*
X132847306Y-108780983D02*
X132877120Y-108824535D01*
X132910956Y-108864855D01*
X132922544Y-108857812D01*
X138373752Y-114002687D02*
X138425478Y-114002496D01*
X138474486Y-113987032D01*
X138479586Y-113984034D01*
X134023090Y-111205687D02*
X133973887Y-111179288D01*
X133938501Y-111125830D01*
X133905044Y-111074206D01*
X133879204Y-111034010D01*
X135748018Y-118982240D02*
X135738623Y-119034213D01*
X135757808Y-119053324D01*
X135945638Y-114009733D02*
X135933732Y-113967502D01*
X134835711Y-103373280D02*
X134836816Y-103322739D01*
X134839267Y-103268866D01*
X134842900Y-103207526D01*
X134846526Y-103155109D01*
X134850682Y-103101392D01*
X134855269Y-103047923D01*
X134860186Y-102996249D01*
X138789308Y-109394781D02*
X138781435Y-109444227D01*
X138761793Y-109508198D01*
X138741361Y-109561572D01*
X138717619Y-109616351D01*
X138691986Y-109669635D01*
X138665879Y-109718525D01*
X138632786Y-109771866D01*
X138598905Y-109809841D01*
X138585091Y-109812165D01*
X137048818Y-111250463D02*
X137004265Y-111276188D01*
X136997282Y-111282470D01*
X137860856Y-110536799D02*
X137820942Y-110570636D01*
X137802138Y-110612086D01*
X132123730Y-114010145D02*
X132180661Y-114005861D01*
X132234470Y-114001702D01*
X132285200Y-113997655D01*
X132377596Y-113989848D01*
X132458198Y-113982345D01*
X132527352Y-113975048D01*
X132585406Y-113967862D01*
X132652437Y-113957081D01*
X132706208Y-113942195D01*
X132679857Y-113897654D01*
X132631966Y-113880921D01*
X132612308Y-113874886D01*
X137415738Y-107078360D02*
X137464678Y-107060495D01*
X137507538Y-107090131D01*
X137508003Y-107131406D01*
X136933842Y-112390000D02*
X136933842Y-112390000D01*
X138323977Y-110027271D02*
X138356864Y-109983815D01*
X138384647Y-109939418D01*
X138409907Y-109893204D01*
X138433110Y-109842773D01*
X138442513Y-109794528D01*
X136955137Y-108650694D02*
X136945763Y-108682205D01*
X135708835Y-119527137D02*
X135671056Y-119494029D01*
X135648176Y-119533751D01*
X136767169Y-112606719D02*
X136751956Y-112558493D01*
X136744018Y-112555364D01*
X135734889Y-119401458D02*
X135727403Y-119350071D01*
X135708836Y-119328698D01*
X135594336Y-105662969D02*
X135588649Y-105715174D01*
X135586135Y-105765274D01*
X135584998Y-105820522D01*
X135585042Y-105848177D01*
X136718341Y-112915078D02*
X136687794Y-112933039D01*
X135990774Y-116319566D02*
X135996152Y-116269146D01*
X135991756Y-116240191D01*
X137831812Y-107242937D02*
X137884300Y-107231599D01*
X137910946Y-107207118D01*
X135965200Y-116570416D02*
X135965200Y-116570416D01*
X134320348Y-111641059D02*
X134370426Y-111655678D01*
X134408173Y-111690035D01*
X134426523Y-111719390D01*
X136502991Y-112709061D02*
X136529044Y-112714114D01*
X135589774Y-114121293D02*
X135647270Y-114121236D01*
X135704606Y-114121471D01*
X135760949Y-114121978D01*
X135815467Y-114122736D01*
X135867328Y-114123726D01*
X135930904Y-114125372D01*
X135986302Y-114127348D01*
X136041045Y-114130210D01*
X136070831Y-114132756D01*
X136308354Y-112456317D02*
X136330770Y-112413446D01*
X136053648Y-117741198D02*
X136053648Y-117741198D01*
X135858650Y-113157292D02*
X135843217Y-113155731D01*
X138886827Y-109013590D02*
X138884076Y-109067052D01*
X138870858Y-109115535D01*
X138861428Y-109136172D01*
X136393084Y-112317239D02*
X136405657Y-112366904D01*
X136403228Y-112383385D01*
X136395098Y-113960334D02*
X136442333Y-113933241D01*
X136492880Y-113917937D01*
X136544832Y-113907394D01*
X136317378Y-113248694D02*
X136368937Y-113264919D01*
X136423483Y-113269075D01*
X136458692Y-113269741D01*
X135647642Y-105908017D02*
X135652765Y-105857955D01*
X135648750Y-105805310D01*
X135648176Y-105802183D01*
X135990776Y-116319566D02*
X135990776Y-116319566D01*
X136983113Y-112317239D02*
X136988404Y-112356927D01*
X135309059Y-112559154D02*
X135289520Y-112606511D01*
X135287997Y-112621510D01*
X135146596Y-114088819D02*
X135201533Y-114103563D01*
X135254670Y-114110527D01*
X135307646Y-114114855D01*
X135369962Y-114118081D01*
X135422850Y-114119780D01*
X135481026Y-114120860D01*
X135544503Y-114121325D01*
X135589774Y-114121293D01*
X138830919Y-113666616D02*
X138875960Y-113690454D01*
X138910294Y-113693074D01*
X137772586Y-111123492D02*
X137799044Y-111113385D01*
X138585091Y-109812165D02*
X138577969Y-109827572D01*
X135320548Y-105980468D02*
X135316777Y-106032691D01*
X135311821Y-106090274D01*
X135306193Y-106147836D01*
X135300405Y-106199994D01*
X135297224Y-106225302D01*
X136449336Y-114009808D02*
X136436107Y-114036731D01*
X137100209Y-111973281D02*
X137063504Y-112013007D01*
X137044263Y-112059738D01*
X137033160Y-112097715D01*
X135073577Y-98486146D02*
X135073836Y-98400156D01*
X135811538Y-118761723D02*
X135787455Y-118733387D01*
X135863061Y-112889877D02*
X135872957Y-112839372D01*
X135905564Y-112828860D01*
X138965478Y-113536756D02*
X139029357Y-113511219D01*
X136939149Y-113921148D02*
X136833315Y-113944322D01*
X138455778Y-114043647D02*
X138408957Y-114073840D01*
X138350554Y-114088322D01*
X138287894Y-114095266D01*
X138221011Y-114099430D01*
X138159242Y-114102026D01*
X138086216Y-114104372D01*
X138059169Y-114105131D01*
X135837118Y-117767657D02*
X135833025Y-117851365D01*
X135829083Y-117926721D01*
X135825241Y-117994089D01*
X135821448Y-118053836D01*
X135817651Y-118106328D01*
X135811838Y-118172263D01*
X135805728Y-118223933D01*
X135794416Y-118281703D01*
X135760976Y-118309574D01*
X135767754Y-118773074D02*
X135766583Y-118826413D01*
X135763125Y-118876500D01*
X135756972Y-118931478D01*
X135748018Y-118982240D01*
X136149692Y-115101979D02*
X136153820Y-115051284D01*
X136149692Y-115035833D01*
X135020819Y-112502448D02*
X135020270Y-112554106D01*
X135022131Y-112557631D01*
X135636135Y-105848177D02*
X135637901Y-105899360D01*
X135647642Y-105908017D01*
X138945158Y-113823297D02*
X138970160Y-113866727D01*
X138951115Y-113886599D01*
X135773653Y-112879920D02*
X135773653Y-112879920D01*
D12*
X178392857Y-101348571D02*
X179321428Y-101348571D01*
X178821428Y-101920000D01*
X179035714Y-101920000D01*
X179178571Y-101991428D01*
X179250000Y-102062857D01*
X179321428Y-102205714D01*
X179321428Y-102562857D01*
X179250000Y-102705714D01*
X179178571Y-102777142D01*
X179035714Y-102848571D01*
X178607142Y-102848571D01*
X178464285Y-102777142D01*
X178392857Y-102705714D01*
X179750000Y-101348571D02*
X180250000Y-102848571D01*
X180750000Y-101348571D01*
X181107142Y-101348571D02*
X182035714Y-101348571D01*
X181535714Y-101920000D01*
X181750000Y-101920000D01*
X181892857Y-101991428D01*
X181964285Y-102062857D01*
X182035714Y-102205714D01*
X182035714Y-102562857D01*
X181964285Y-102705714D01*
X181892857Y-102777142D01*
X181750000Y-102848571D01*
X181321428Y-102848571D01*
X181178571Y-102777142D01*
X181107142Y-102705714D01*
X177821428Y-104692142D02*
X178964285Y-104692142D01*
X179678571Y-104692142D02*
X180821428Y-104692142D01*
X181535714Y-104692142D02*
X182678571Y-104692142D01*
X179321428Y-107678571D02*
X178464285Y-107678571D01*
X178892857Y-107678571D02*
X178892857Y-106178571D01*
X178750000Y-106392857D01*
X178607142Y-106535714D01*
X178464285Y-106607142D01*
X179750000Y-106178571D02*
X180250000Y-107678571D01*
X180750000Y-106178571D01*
X181464285Y-106821428D02*
X181321428Y-106750000D01*
X181250000Y-106678571D01*
X181178571Y-106535714D01*
X181178571Y-106464285D01*
X181250000Y-106321428D01*
X181321428Y-106250000D01*
X181464285Y-106178571D01*
X181750000Y-106178571D01*
X181892857Y-106250000D01*
X181964285Y-106321428D01*
X182035714Y-106464285D01*
X182035714Y-106535714D01*
X181964285Y-106678571D01*
X181892857Y-106750000D01*
X181750000Y-106821428D01*
X181464285Y-106821428D01*
X181321428Y-106892857D01*
X181250000Y-106964285D01*
X181178571Y-107107142D01*
X181178571Y-107392857D01*
X181250000Y-107535714D01*
X181321428Y-107607142D01*
X181464285Y-107678571D01*
X181750000Y-107678571D01*
X181892857Y-107607142D01*
X181964285Y-107535714D01*
X182035714Y-107392857D01*
X182035714Y-107107142D01*
X181964285Y-106964285D01*
X181892857Y-106892857D01*
X181750000Y-106821428D01*
X177821428Y-109522142D02*
X178964285Y-109522142D01*
X179678571Y-109522142D02*
X180821428Y-109522142D01*
X181535714Y-109522142D02*
X182678571Y-109522142D01*
X178642857Y-111722857D02*
X179142857Y-111722857D01*
X179357142Y-112508571D02*
X178642857Y-112508571D01*
X178642857Y-111008571D01*
X179357142Y-111008571D01*
X179857142Y-111008571D02*
X180857142Y-112508571D01*
X180857142Y-111008571D02*
X179857142Y-112508571D01*
X181214285Y-111008571D02*
X182071428Y-111008571D01*
X181642857Y-112508571D02*
X181642857Y-111008571D01*
X134042700Y-140533333D02*
X133967223Y-140666666D01*
X133967223Y-140866666D01*
X134042700Y-141066666D01*
X134193652Y-141200000D01*
X134344604Y-141266666D01*
X134646509Y-141333333D01*
X134872938Y-141333333D01*
X135174842Y-141266666D01*
X135325795Y-141200000D01*
X135476747Y-141066666D01*
X135552223Y-140866666D01*
X135552223Y-140733333D01*
X135476747Y-140533333D01*
X135401271Y-140466666D01*
X134872938Y-140466666D01*
X134872938Y-140733333D01*
X136080557Y-138466666D02*
X133816271Y-138466666D01*
X133967223Y-136133333D02*
X133967223Y-136000000D01*
X134042700Y-135866666D01*
X134118176Y-135800000D01*
X134269128Y-135733333D01*
X134571033Y-135666666D01*
X134948414Y-135666666D01*
X135250319Y-135733333D01*
X135401271Y-135800000D01*
X135476747Y-135866666D01*
X135552223Y-136000000D01*
X135552223Y-136133333D01*
X135476747Y-136266666D01*
X135401271Y-136333333D01*
X135250319Y-136400000D01*
X134948414Y-136466666D01*
X134571033Y-136466666D01*
X134269128Y-136400000D01*
X134118176Y-136333333D01*
X134042700Y-136266666D01*
X133967223Y-136133333D01*
X138104073Y-140500000D02*
X138104073Y-141300000D01*
X138104073Y-140900000D02*
X136519073Y-140900000D01*
X136745502Y-141033333D01*
X136896454Y-141166666D01*
X136971930Y-141300000D01*
X138632407Y-138500000D02*
X136368121Y-138500000D01*
X136670026Y-136500000D02*
X136594550Y-136433333D01*
X136519073Y-136300000D01*
X136519073Y-135966666D01*
X136594550Y-135833333D01*
X136670026Y-135766666D01*
X136820978Y-135700000D01*
X136971930Y-135700000D01*
X137198359Y-135766666D01*
X138104073Y-136566666D01*
X138104073Y-135700000D01*
X139070923Y-141366666D02*
X139070923Y-140500000D01*
X139674733Y-140966666D01*
X139674733Y-140766666D01*
X139750209Y-140633333D01*
X139825685Y-140566666D01*
X139976638Y-140500000D01*
X140354019Y-140500000D01*
X140504971Y-140566666D01*
X140580447Y-140633333D01*
X140655923Y-140766666D01*
X140655923Y-141166666D01*
X140580447Y-141300000D01*
X140504971Y-141366666D01*
X141184257Y-138500000D02*
X138919971Y-138500000D01*
X139599257Y-135833333D02*
X140655923Y-135833333D01*
X138995447Y-136166666D02*
X140127590Y-136500000D01*
X140127590Y-135633333D01*
X141622773Y-140566666D02*
X141622773Y-141233333D01*
X142377535Y-141300000D01*
X142302059Y-141233333D01*
X142226583Y-141100000D01*
X142226583Y-140766666D01*
X142302059Y-140633333D01*
X142377535Y-140566666D01*
X142528488Y-140500000D01*
X142905869Y-140500000D01*
X143056821Y-140566666D01*
X143132297Y-140633333D01*
X143207773Y-140766666D01*
X143207773Y-141100000D01*
X143132297Y-141233333D01*
X143056821Y-141300000D01*
X143736107Y-138500000D02*
X141471821Y-138500000D01*
X141622773Y-135833333D02*
X141622773Y-136100000D01*
X141698250Y-136233333D01*
X141773726Y-136300000D01*
X142000154Y-136433333D01*
X142302059Y-136500000D01*
X142905869Y-136500000D01*
X143056821Y-136433333D01*
X143132297Y-136366666D01*
X143207773Y-136233333D01*
X143207773Y-135966666D01*
X143132297Y-135833333D01*
X143056821Y-135766666D01*
X142905869Y-135700000D01*
X142528488Y-135700000D01*
X142377535Y-135766666D01*
X142302059Y-135833333D01*
X142226583Y-135966666D01*
X142226583Y-136233333D01*
X142302059Y-136366666D01*
X142377535Y-136433333D01*
X142528488Y-136500000D01*
X144174623Y-141400000D02*
X144174623Y-140466666D01*
X145759623Y-141066666D01*
X146287957Y-138533333D02*
X144023671Y-138533333D01*
X144250100Y-135733333D02*
X144174623Y-135866666D01*
X144174623Y-136066666D01*
X144250100Y-136266666D01*
X144401052Y-136400000D01*
X144552004Y-136466666D01*
X144853909Y-136533333D01*
X145080338Y-136533333D01*
X145382242Y-136466666D01*
X145533195Y-136400000D01*
X145684147Y-136266666D01*
X145759623Y-136066666D01*
X145759623Y-135933333D01*
X145684147Y-135733333D01*
X145608671Y-135666666D01*
X145080338Y-135666666D01*
X145080338Y-135933333D01*
X147405759Y-141033333D02*
X147330283Y-141166666D01*
X147254807Y-141233333D01*
X147103854Y-141300000D01*
X147028378Y-141300000D01*
X146877426Y-141233333D01*
X146801950Y-141166666D01*
X146726473Y-141033333D01*
X146726473Y-140766666D01*
X146801950Y-140633333D01*
X146877426Y-140566666D01*
X147028378Y-140500000D01*
X147103854Y-140500000D01*
X147254807Y-140566666D01*
X147330283Y-140633333D01*
X147405759Y-140766666D01*
X147405759Y-141033333D01*
X147481235Y-141166666D01*
X147556711Y-141233333D01*
X147707664Y-141300000D01*
X148009569Y-141300000D01*
X148160521Y-141233333D01*
X148235997Y-141166666D01*
X148311473Y-141033333D01*
X148311473Y-140766666D01*
X148235997Y-140633333D01*
X148160521Y-140566666D01*
X148009569Y-140500000D01*
X147707664Y-140500000D01*
X147556711Y-140566666D01*
X147481235Y-140633333D01*
X147405759Y-140766666D01*
X148839807Y-138500000D02*
X146575521Y-138500000D01*
X148311473Y-136366666D02*
X148311473Y-136100000D01*
X148235997Y-135966666D01*
X148160521Y-135900000D01*
X147934092Y-135766666D01*
X147632188Y-135700000D01*
X147028378Y-135700000D01*
X146877426Y-135766666D01*
X146801950Y-135833333D01*
X146726473Y-135966666D01*
X146726473Y-136233333D01*
X146801950Y-136366666D01*
X146877426Y-136433333D01*
X147028378Y-136500000D01*
X147405759Y-136500000D01*
X147556711Y-136433333D01*
X147632188Y-136366666D01*
X147707664Y-136233333D01*
X147707664Y-135966666D01*
X147632188Y-135833333D01*
X147556711Y-135766666D01*
X147405759Y-135700000D01*
X150863323Y-140766666D02*
X150863323Y-141566666D01*
X150863323Y-141166666D02*
X149278323Y-141166666D01*
X149504752Y-141300000D01*
X149655704Y-141433333D01*
X149731180Y-141566666D01*
X149278323Y-139900000D02*
X149278323Y-139766666D01*
X149353800Y-139633333D01*
X149429276Y-139566666D01*
X149580228Y-139500000D01*
X149882133Y-139433333D01*
X150259514Y-139433333D01*
X150561419Y-139500000D01*
X150712371Y-139566666D01*
X150787847Y-139633333D01*
X150863323Y-139766666D01*
X150863323Y-139900000D01*
X150787847Y-140033333D01*
X150712371Y-140100000D01*
X150561419Y-140166666D01*
X150259514Y-140233333D01*
X149882133Y-140233333D01*
X149580228Y-140166666D01*
X149429276Y-140100000D01*
X149353800Y-140033333D01*
X149278323Y-139900000D01*
X151391657Y-138500000D02*
X149127371Y-138500000D01*
X150863323Y-136766666D02*
X150863323Y-137566666D01*
X150863323Y-137166666D02*
X149278323Y-137166666D01*
X149504752Y-137300000D01*
X149655704Y-137433333D01*
X149731180Y-137566666D01*
X150863323Y-135433333D02*
X150863323Y-136233333D01*
X150863323Y-135833333D02*
X149278323Y-135833333D01*
X149504752Y-135966666D01*
X149655704Y-136100000D01*
X149731180Y-136233333D01*
X153415173Y-140766666D02*
X153415173Y-141566666D01*
X153415173Y-141166666D02*
X151830173Y-141166666D01*
X152056602Y-141300000D01*
X152207554Y-141433333D01*
X152283030Y-141566666D01*
X151981126Y-140233333D02*
X151905650Y-140166666D01*
X151830173Y-140033333D01*
X151830173Y-139700000D01*
X151905650Y-139566666D01*
X151981126Y-139500000D01*
X152132078Y-139433333D01*
X152283030Y-139433333D01*
X152509459Y-139500000D01*
X153415173Y-140300000D01*
X153415173Y-139433333D01*
X153943507Y-138500000D02*
X151679221Y-138500000D01*
X153415173Y-136766666D02*
X153415173Y-137566666D01*
X153415173Y-137166666D02*
X151830173Y-137166666D01*
X152056602Y-137300000D01*
X152207554Y-137433333D01*
X152283030Y-137566666D01*
X151830173Y-136300000D02*
X151830173Y-135433333D01*
X152433983Y-135900000D01*
X152433983Y-135700000D01*
X152509459Y-135566666D01*
X152584935Y-135500000D01*
X152735888Y-135433333D01*
X153113269Y-135433333D01*
X153264221Y-135500000D01*
X153339697Y-135566666D01*
X153415173Y-135700000D01*
X153415173Y-136100000D01*
X153339697Y-136233333D01*
X153264221Y-136300000D01*
X155967023Y-140766666D02*
X155967023Y-141566666D01*
X155967023Y-141166666D02*
X154382023Y-141166666D01*
X154608452Y-141300000D01*
X154759404Y-141433333D01*
X154834880Y-141566666D01*
X154910357Y-139566666D02*
X155967023Y-139566666D01*
X154306547Y-139900000D02*
X155438690Y-140233333D01*
X155438690Y-139366666D01*
X156495357Y-138500000D02*
X154231071Y-138500000D01*
X155967023Y-136766666D02*
X155967023Y-137566666D01*
X155967023Y-137166666D02*
X154382023Y-137166666D01*
X154608452Y-137300000D01*
X154759404Y-137433333D01*
X154834880Y-137566666D01*
X154382023Y-135500000D02*
X154382023Y-136166666D01*
X155136785Y-136233333D01*
X155061309Y-136166666D01*
X154985833Y-136033333D01*
X154985833Y-135700000D01*
X155061309Y-135566666D01*
X155136785Y-135500000D01*
X155287738Y-135433333D01*
X155665119Y-135433333D01*
X155816071Y-135500000D01*
X155891547Y-135566666D01*
X155967023Y-135700000D01*
X155967023Y-136033333D01*
X155891547Y-136166666D01*
X155816071Y-136233333D01*
X157009350Y-140666666D02*
X156933873Y-140800000D01*
X156933873Y-141000000D01*
X157009350Y-141200000D01*
X157160302Y-141333333D01*
X157311254Y-141400000D01*
X157613159Y-141466666D01*
X157839588Y-141466666D01*
X158141492Y-141400000D01*
X158292445Y-141333333D01*
X158443397Y-141200000D01*
X158518873Y-141000000D01*
X158518873Y-140866666D01*
X158443397Y-140666666D01*
X158367921Y-140600000D01*
X157839588Y-140600000D01*
X157839588Y-140866666D01*
X159047207Y-138600000D02*
X156782921Y-138600000D01*
X158518873Y-136866666D02*
X158518873Y-137666666D01*
X158518873Y-137266666D02*
X156933873Y-137266666D01*
X157160302Y-137400000D01*
X157311254Y-137533333D01*
X157386730Y-137666666D01*
X156933873Y-135666666D02*
X156933873Y-135933333D01*
X157009350Y-136066666D01*
X157084826Y-136133333D01*
X157311254Y-136266666D01*
X157613159Y-136333333D01*
X158216969Y-136333333D01*
X158367921Y-136266666D01*
X158443397Y-136200000D01*
X158518873Y-136066666D01*
X158518873Y-135800000D01*
X158443397Y-135666666D01*
X158367921Y-135600000D01*
X158216969Y-135533333D01*
X157839588Y-135533333D01*
X157688635Y-135600000D01*
X157613159Y-135666666D01*
X157537683Y-135800000D01*
X157537683Y-136066666D01*
X157613159Y-136200000D01*
X157688635Y-136266666D01*
X157839588Y-136333333D01*
X161070723Y-140766666D02*
X161070723Y-141566666D01*
X161070723Y-141166666D02*
X159485723Y-141166666D01*
X159712152Y-141300000D01*
X159863104Y-141433333D01*
X159938580Y-141566666D01*
X159485723Y-140300000D02*
X159485723Y-139366666D01*
X161070723Y-139966666D01*
X161599057Y-138500000D02*
X159334771Y-138500000D01*
X161070723Y-136766666D02*
X161070723Y-137566666D01*
X161070723Y-137166666D02*
X159485723Y-137166666D01*
X159712152Y-137300000D01*
X159863104Y-137433333D01*
X159938580Y-137566666D01*
X160165009Y-135966666D02*
X160089533Y-136100000D01*
X160014057Y-136166666D01*
X159863104Y-136233333D01*
X159787628Y-136233333D01*
X159636676Y-136166666D01*
X159561200Y-136100000D01*
X159485723Y-135966666D01*
X159485723Y-135700000D01*
X159561200Y-135566666D01*
X159636676Y-135500000D01*
X159787628Y-135433333D01*
X159863104Y-135433333D01*
X160014057Y-135500000D01*
X160089533Y-135566666D01*
X160165009Y-135700000D01*
X160165009Y-135966666D01*
X160240485Y-136100000D01*
X160315961Y-136166666D01*
X160466914Y-136233333D01*
X160768819Y-136233333D01*
X160919771Y-136166666D01*
X160995247Y-136100000D01*
X161070723Y-135966666D01*
X161070723Y-135700000D01*
X160995247Y-135566666D01*
X160919771Y-135500000D01*
X160768819Y-135433333D01*
X160466914Y-135433333D01*
X160315961Y-135500000D01*
X160240485Y-135566666D01*
X160165009Y-135700000D01*
X163622573Y-140766666D02*
X163622573Y-141566666D01*
X163622573Y-141166666D02*
X162037573Y-141166666D01*
X162264002Y-141300000D01*
X162414954Y-141433333D01*
X162490430Y-141566666D01*
X163622573Y-140100000D02*
X163622573Y-139833333D01*
X163547097Y-139700000D01*
X163471621Y-139633333D01*
X163245192Y-139500000D01*
X162943288Y-139433333D01*
X162339478Y-139433333D01*
X162188526Y-139500000D01*
X162113050Y-139566666D01*
X162037573Y-139700000D01*
X162037573Y-139966666D01*
X162113050Y-140100000D01*
X162188526Y-140166666D01*
X162339478Y-140233333D01*
X162716859Y-140233333D01*
X162867811Y-140166666D01*
X162943288Y-140100000D01*
X163018764Y-139966666D01*
X163018764Y-139700000D01*
X162943288Y-139566666D01*
X162867811Y-139500000D01*
X162716859Y-139433333D01*
X164150907Y-138500000D02*
X161886621Y-138500000D01*
X162188526Y-137566666D02*
X162113050Y-137500000D01*
X162037573Y-137366666D01*
X162037573Y-137033333D01*
X162113050Y-136900000D01*
X162188526Y-136833333D01*
X162339478Y-136766666D01*
X162490430Y-136766666D01*
X162716859Y-136833333D01*
X163622573Y-137633333D01*
X163622573Y-136766666D01*
X162037573Y-135900000D02*
X162037573Y-135766666D01*
X162113050Y-135633333D01*
X162188526Y-135566666D01*
X162339478Y-135500000D01*
X162641383Y-135433333D01*
X163018764Y-135433333D01*
X163320669Y-135500000D01*
X163471621Y-135566666D01*
X163547097Y-135633333D01*
X163622573Y-135766666D01*
X163622573Y-135900000D01*
X163547097Y-136033333D01*
X163471621Y-136100000D01*
X163320669Y-136166666D01*
X163018764Y-136233333D01*
X162641383Y-136233333D01*
X162339478Y-136166666D01*
X162188526Y-136100000D01*
X162113050Y-136033333D01*
X162037573Y-135900000D01*
X164740376Y-141566666D02*
X164664900Y-141500000D01*
X164589423Y-141366666D01*
X164589423Y-141033333D01*
X164664900Y-140900000D01*
X164740376Y-140833333D01*
X164891328Y-140766666D01*
X165042280Y-140766666D01*
X165268709Y-140833333D01*
X166174423Y-141633333D01*
X166174423Y-140766666D01*
X166174423Y-139433333D02*
X166174423Y-140233333D01*
X166174423Y-139833333D02*
X164589423Y-139833333D01*
X164815852Y-139966666D01*
X164966804Y-140100000D01*
X165042280Y-140233333D01*
X166702757Y-138500000D02*
X164438471Y-138500000D01*
X164740376Y-137566666D02*
X164664900Y-137500000D01*
X164589423Y-137366666D01*
X164589423Y-137033333D01*
X164664900Y-136900000D01*
X164740376Y-136833333D01*
X164891328Y-136766666D01*
X165042280Y-136766666D01*
X165268709Y-136833333D01*
X166174423Y-137633333D01*
X166174423Y-136766666D01*
X164740376Y-136233333D02*
X164664900Y-136166666D01*
X164589423Y-136033333D01*
X164589423Y-135700000D01*
X164664900Y-135566666D01*
X164740376Y-135500000D01*
X164891328Y-135433333D01*
X165042280Y-135433333D01*
X165268709Y-135500000D01*
X166174423Y-136300000D01*
X166174423Y-135433333D01*
X167292226Y-141466666D02*
X167216750Y-141400000D01*
X167141273Y-141266666D01*
X167141273Y-140933333D01*
X167216750Y-140800000D01*
X167292226Y-140733333D01*
X167443178Y-140666666D01*
X167594130Y-140666666D01*
X167820559Y-140733333D01*
X168726273Y-141533333D01*
X168726273Y-140666666D01*
X167141273Y-140200000D02*
X167141273Y-139333333D01*
X167745083Y-139800000D01*
X167745083Y-139600000D01*
X167820559Y-139466666D01*
X167896035Y-139400000D01*
X168046988Y-139333333D01*
X168424369Y-139333333D01*
X168575321Y-139400000D01*
X168650797Y-139466666D01*
X168726273Y-139600000D01*
X168726273Y-140000000D01*
X168650797Y-140133333D01*
X168575321Y-140200000D01*
X169254607Y-138400000D02*
X166990321Y-138400000D01*
X167216750Y-135600000D02*
X167141273Y-135733333D01*
X167141273Y-135933333D01*
X167216750Y-136133333D01*
X167367702Y-136266666D01*
X167518654Y-136333333D01*
X167820559Y-136400000D01*
X168046988Y-136400000D01*
X168348892Y-136333333D01*
X168499845Y-136266666D01*
X168650797Y-136133333D01*
X168726273Y-135933333D01*
X168726273Y-135800000D01*
X168650797Y-135600000D01*
X168575321Y-135533333D01*
X168046988Y-135533333D01*
X168046988Y-135800000D01*
X169844076Y-141566666D02*
X169768600Y-141500000D01*
X169693123Y-141366666D01*
X169693123Y-141033333D01*
X169768600Y-140900000D01*
X169844076Y-140833333D01*
X169995028Y-140766666D01*
X170145980Y-140766666D01*
X170372409Y-140833333D01*
X171278123Y-141633333D01*
X171278123Y-140766666D01*
X170221457Y-139566666D02*
X171278123Y-139566666D01*
X169617647Y-139900000D02*
X170749790Y-140233333D01*
X170749790Y-139366666D01*
X171806457Y-138500000D02*
X169542171Y-138500000D01*
X169844076Y-137566666D02*
X169768600Y-137500000D01*
X169693123Y-137366666D01*
X169693123Y-137033333D01*
X169768600Y-136900000D01*
X169844076Y-136833333D01*
X169995028Y-136766666D01*
X170145980Y-136766666D01*
X170372409Y-136833333D01*
X171278123Y-137633333D01*
X171278123Y-136766666D01*
X169693123Y-135500000D02*
X169693123Y-136166666D01*
X170447885Y-136233333D01*
X170372409Y-136166666D01*
X170296933Y-136033333D01*
X170296933Y-135700000D01*
X170372409Y-135566666D01*
X170447885Y-135500000D01*
X170598838Y-135433333D01*
X170976219Y-135433333D01*
X171127171Y-135500000D01*
X171202647Y-135566666D01*
X171278123Y-135700000D01*
X171278123Y-136033333D01*
X171202647Y-136166666D01*
X171127171Y-136233333D01*
X172395926Y-141566666D02*
X172320450Y-141500000D01*
X172244973Y-141366666D01*
X172244973Y-141033333D01*
X172320450Y-140900000D01*
X172395926Y-140833333D01*
X172546878Y-140766666D01*
X172697830Y-140766666D01*
X172924259Y-140833333D01*
X173829973Y-141633333D01*
X173829973Y-140766666D01*
X172244973Y-139566666D02*
X172244973Y-139833333D01*
X172320450Y-139966666D01*
X172395926Y-140033333D01*
X172622354Y-140166666D01*
X172924259Y-140233333D01*
X173528069Y-140233333D01*
X173679021Y-140166666D01*
X173754497Y-140100000D01*
X173829973Y-139966666D01*
X173829973Y-139700000D01*
X173754497Y-139566666D01*
X173679021Y-139500000D01*
X173528069Y-139433333D01*
X173150688Y-139433333D01*
X172999735Y-139500000D01*
X172924259Y-139566666D01*
X172848783Y-139700000D01*
X172848783Y-139966666D01*
X172924259Y-140100000D01*
X172999735Y-140166666D01*
X173150688Y-140233333D01*
X174358307Y-138500000D02*
X172094021Y-138500000D01*
X172395926Y-137566666D02*
X172320450Y-137500000D01*
X172244973Y-137366666D01*
X172244973Y-137033333D01*
X172320450Y-136900000D01*
X172395926Y-136833333D01*
X172546878Y-136766666D01*
X172697830Y-136766666D01*
X172924259Y-136833333D01*
X173829973Y-137633333D01*
X173829973Y-136766666D01*
X172244973Y-136300000D02*
X172244973Y-135366666D01*
X173829973Y-135966666D01*
X174947776Y-141566666D02*
X174872300Y-141500000D01*
X174796823Y-141366666D01*
X174796823Y-141033333D01*
X174872300Y-140900000D01*
X174947776Y-140833333D01*
X175098728Y-140766666D01*
X175249680Y-140766666D01*
X175476109Y-140833333D01*
X176381823Y-141633333D01*
X176381823Y-140766666D01*
X175476109Y-139966666D02*
X175400633Y-140100000D01*
X175325157Y-140166666D01*
X175174204Y-140233333D01*
X175098728Y-140233333D01*
X174947776Y-140166666D01*
X174872300Y-140100000D01*
X174796823Y-139966666D01*
X174796823Y-139700000D01*
X174872300Y-139566666D01*
X174947776Y-139500000D01*
X175098728Y-139433333D01*
X175174204Y-139433333D01*
X175325157Y-139500000D01*
X175400633Y-139566666D01*
X175476109Y-139700000D01*
X175476109Y-139966666D01*
X175551585Y-140100000D01*
X175627061Y-140166666D01*
X175778014Y-140233333D01*
X176079919Y-140233333D01*
X176230871Y-140166666D01*
X176306347Y-140100000D01*
X176381823Y-139966666D01*
X176381823Y-139700000D01*
X176306347Y-139566666D01*
X176230871Y-139500000D01*
X176079919Y-139433333D01*
X175778014Y-139433333D01*
X175627061Y-139500000D01*
X175551585Y-139566666D01*
X175476109Y-139700000D01*
X176910157Y-138500000D02*
X174645871Y-138500000D01*
X174947776Y-137566666D02*
X174872300Y-137500000D01*
X174796823Y-137366666D01*
X174796823Y-137033333D01*
X174872300Y-136900000D01*
X174947776Y-136833333D01*
X175098728Y-136766666D01*
X175249680Y-136766666D01*
X175476109Y-136833333D01*
X176381823Y-137633333D01*
X176381823Y-136766666D01*
X176381823Y-136100000D02*
X176381823Y-135833333D01*
X176306347Y-135700000D01*
X176230871Y-135633333D01*
X176004442Y-135500000D01*
X175702538Y-135433333D01*
X175098728Y-135433333D01*
X174947776Y-135500000D01*
X174872300Y-135566666D01*
X174796823Y-135700000D01*
X174796823Y-135966666D01*
X174872300Y-136100000D01*
X174947776Y-136166666D01*
X175098728Y-136233333D01*
X175476109Y-136233333D01*
X175627061Y-136166666D01*
X175702538Y-136100000D01*
X175778014Y-135966666D01*
X175778014Y-135700000D01*
X175702538Y-135566666D01*
X175627061Y-135500000D01*
X175476109Y-135433333D01*
D13*
X142392857Y-115785714D02*
X142464285Y-115571428D01*
X142535714Y-115500000D01*
X142678571Y-115428571D01*
X142892857Y-115428571D01*
X143035714Y-115500000D01*
X143107142Y-115571428D01*
X143178571Y-115714285D01*
X143178571Y-116285714D01*
X141678571Y-116285714D01*
X141678571Y-115785714D01*
X141750000Y-115642857D01*
X141821428Y-115571428D01*
X141964285Y-115500000D01*
X142107142Y-115500000D01*
X142250000Y-115571428D01*
X142321428Y-115642857D01*
X142392857Y-115785714D01*
X142392857Y-116285714D01*
X141678571Y-114500000D02*
X141678571Y-114214285D01*
X141750000Y-114071428D01*
X141892857Y-113928571D01*
X142178571Y-113857142D01*
X142678571Y-113857142D01*
X142964285Y-113928571D01*
X143107142Y-114071428D01*
X143178571Y-114214285D01*
X143178571Y-114500000D01*
X143107142Y-114642857D01*
X142964285Y-114785714D01*
X142678571Y-114857142D01*
X142178571Y-114857142D01*
X141892857Y-114785714D01*
X141750000Y-114642857D01*
X141678571Y-114500000D01*
X141678571Y-112928571D02*
X141678571Y-112642857D01*
X141750000Y-112500000D01*
X141892857Y-112357142D01*
X142178571Y-112285714D01*
X142678571Y-112285714D01*
X142964285Y-112357142D01*
X143107142Y-112500000D01*
X143178571Y-112642857D01*
X143178571Y-112928571D01*
X143107142Y-113071428D01*
X142964285Y-113214285D01*
X142678571Y-113285714D01*
X142178571Y-113285714D01*
X141892857Y-113214285D01*
X141750000Y-113071428D01*
X141678571Y-112928571D01*
X141678571Y-111857142D02*
X141678571Y-111000000D01*
X143178571Y-111428571D02*
X141678571Y-111428571D01*
X143107142Y-110571428D02*
X143178571Y-110357142D01*
X143178571Y-110000000D01*
X143107142Y-109857142D01*
X143035714Y-109785714D01*
X142892857Y-109714285D01*
X142750000Y-109714285D01*
X142607142Y-109785714D01*
X142535714Y-109857142D01*
X142464285Y-110000000D01*
X142392857Y-110285714D01*
X142321428Y-110428571D01*
X142250000Y-110500000D01*
X142107142Y-110571428D01*
X141964285Y-110571428D01*
X141821428Y-110500000D01*
X141750000Y-110428571D01*
X141678571Y-110285714D01*
X141678571Y-109928571D01*
X141750000Y-109714285D01*
X142392857Y-109071428D02*
X142392857Y-108571428D01*
X143178571Y-108357142D02*
X143178571Y-109071428D01*
X141678571Y-109071428D01*
X141678571Y-108357142D01*
X143178571Y-107000000D02*
X143178571Y-107714285D01*
X141678571Y-107714285D01*
D12*
X170035714Y-99928571D02*
X170035714Y-98428571D01*
X171035714Y-98428571D02*
X171321428Y-98428571D01*
X171464285Y-98500000D01*
X171607142Y-98642857D01*
X171678571Y-98928571D01*
X171678571Y-99428571D01*
X171607142Y-99714285D01*
X171464285Y-99857142D01*
X171321428Y-99928571D01*
X171035714Y-99928571D01*
X170892857Y-99857142D01*
X170750000Y-99714285D01*
X170678571Y-99428571D01*
X170678571Y-98928571D01*
X170750000Y-98642857D01*
X170892857Y-98500000D01*
X171035714Y-98428571D01*
X172107142Y-98428571D02*
X172607142Y-99928571D01*
X173107142Y-98428571D01*
X173607142Y-99928571D02*
X173607142Y-98428571D01*
X173964285Y-98428571D01*
X174178571Y-98500000D01*
X174321428Y-98642857D01*
X174392857Y-98785714D01*
X174464285Y-99071428D01*
X174464285Y-99285714D01*
X174392857Y-99571428D01*
X174321428Y-99714285D01*
X174178571Y-99857142D01*
X173964285Y-99928571D01*
X173607142Y-99928571D01*
X175107142Y-99928571D02*
X175107142Y-98428571D01*
X175464285Y-98428571D01*
X175678571Y-98500000D01*
X175821428Y-98642857D01*
X175892857Y-98785714D01*
X175964285Y-99071428D01*
X175964285Y-99285714D01*
X175892857Y-99571428D01*
X175821428Y-99714285D01*
X175678571Y-99857142D01*
X175464285Y-99928571D01*
X175107142Y-99928571D01*
X177678571Y-99857142D02*
X177892857Y-99928571D01*
X178250000Y-99928571D01*
X178392857Y-99857142D01*
X178464285Y-99785714D01*
X178535714Y-99642857D01*
X178535714Y-99500000D01*
X178464285Y-99357142D01*
X178392857Y-99285714D01*
X178250000Y-99214285D01*
X177964285Y-99142857D01*
X177821428Y-99071428D01*
X177750000Y-99000000D01*
X177678571Y-98857142D01*
X177678571Y-98714285D01*
X177750000Y-98571428D01*
X177821428Y-98500000D01*
X177964285Y-98428571D01*
X178321428Y-98428571D01*
X178535714Y-98500000D01*
X179750000Y-99857142D02*
X179607142Y-99928571D01*
X179321428Y-99928571D01*
X179178571Y-99857142D01*
X179107142Y-99714285D01*
X179107142Y-99142857D01*
X179178571Y-99000000D01*
X179321428Y-98928571D01*
X179607142Y-98928571D01*
X179750000Y-99000000D01*
X179821428Y-99142857D01*
X179821428Y-99285714D01*
X179107142Y-99428571D01*
X180678571Y-99928571D02*
X180535714Y-99857142D01*
X180464285Y-99714285D01*
X180464285Y-98428571D01*
X181821428Y-99857142D02*
X181678571Y-99928571D01*
X181392857Y-99928571D01*
X181250000Y-99857142D01*
X181178571Y-99714285D01*
X181178571Y-99142857D01*
X181250000Y-99000000D01*
X181392857Y-98928571D01*
X181678571Y-98928571D01*
X181821428Y-99000000D01*
X181892857Y-99142857D01*
X181892857Y-99285714D01*
X181178571Y-99428571D01*
X183178571Y-99857142D02*
X183035714Y-99928571D01*
X182750000Y-99928571D01*
X182607142Y-99857142D01*
X182535714Y-99785714D01*
X182464285Y-99642857D01*
X182464285Y-99214285D01*
X182535714Y-99071428D01*
X182607142Y-99000000D01*
X182750000Y-98928571D01*
X183035714Y-98928571D01*
X183178571Y-99000000D01*
X183607142Y-98928571D02*
X184178571Y-98928571D01*
X183821428Y-98428571D02*
X183821428Y-99714285D01*
X183892857Y-99857142D01*
X184035714Y-99928571D01*
X184178571Y-99928571D01*
X177405650Y-140800000D02*
X177330173Y-140933333D01*
X177330173Y-141133333D01*
X177405650Y-141333333D01*
X177556602Y-141466666D01*
X177707554Y-141533333D01*
X178009459Y-141600000D01*
X178235888Y-141600000D01*
X178537792Y-141533333D01*
X178688745Y-141466666D01*
X178839697Y-141333333D01*
X178915173Y-141133333D01*
X178915173Y-141000000D01*
X178839697Y-140800000D01*
X178764221Y-140733333D01*
X178235888Y-140733333D01*
X178235888Y-141000000D01*
X178915173Y-140133333D02*
X177330173Y-140133333D01*
X178915173Y-139333333D01*
X177330173Y-139333333D01*
X178915173Y-138666666D02*
X177330173Y-138666666D01*
X177330173Y-138333333D01*
X177405650Y-138133333D01*
X177556602Y-138000000D01*
X177707554Y-137933333D01*
X178009459Y-137866666D01*
X178235888Y-137866666D01*
X178537792Y-137933333D01*
X178688745Y-138000000D01*
X178839697Y-138133333D01*
X178915173Y-138333333D01*
X178915173Y-138666666D01*
X179443507Y-135866666D02*
X177179221Y-135866666D01*
X177330173Y-134000000D02*
X178915173Y-133533333D01*
X177330173Y-133066666D01*
X178764221Y-131800000D02*
X178839697Y-131866666D01*
X178915173Y-132066666D01*
X178915173Y-132200000D01*
X178839697Y-132400000D01*
X178688745Y-132533333D01*
X178537792Y-132600000D01*
X178235888Y-132666666D01*
X178009459Y-132666666D01*
X177707554Y-132600000D01*
X177556602Y-132533333D01*
X177405650Y-132400000D01*
X177330173Y-132200000D01*
X177330173Y-132066666D01*
X177405650Y-131866666D01*
X177481126Y-131800000D01*
X178764221Y-130400000D02*
X178839697Y-130466666D01*
X178915173Y-130666666D01*
X178915173Y-130800000D01*
X178839697Y-131000000D01*
X178688745Y-131133333D01*
X178537792Y-131200000D01*
X178235888Y-131266666D01*
X178009459Y-131266666D01*
X177707554Y-131200000D01*
X177556602Y-131133333D01*
X177405650Y-131000000D01*
X177330173Y-130800000D01*
X177330173Y-130666666D01*
X177405650Y-130466666D01*
X177481126Y-130400000D01*
X180636785Y-141166666D02*
X180636785Y-140700000D01*
X181467023Y-140500000D02*
X181467023Y-141166666D01*
X179882023Y-141166666D01*
X179882023Y-140500000D01*
X179882023Y-140033333D02*
X181467023Y-139100000D01*
X179882023Y-139100000D02*
X181467023Y-140033333D01*
X179882023Y-138766666D02*
X179882023Y-137966666D01*
X181467023Y-138366666D02*
X179882023Y-138366666D01*
X181995357Y-136100000D02*
X179731071Y-136100000D01*
X181467023Y-133300000D02*
X181467023Y-134100000D01*
X181467023Y-133700000D02*
X179882023Y-133700000D01*
X180108452Y-133833333D01*
X180259404Y-133966666D01*
X180334880Y-134100000D01*
X179882023Y-132900000D02*
X181467023Y-132433333D01*
X179882023Y-131966666D01*
X180561309Y-131300000D02*
X180485833Y-131433333D01*
X180410357Y-131500000D01*
X180259404Y-131566666D01*
X180183928Y-131566666D01*
X180032976Y-131500000D01*
X179957500Y-131433333D01*
X179882023Y-131300000D01*
X179882023Y-131033333D01*
X179957500Y-130900000D01*
X180032976Y-130833333D01*
X180183928Y-130766666D01*
X180259404Y-130766666D01*
X180410357Y-130833333D01*
X180485833Y-130900000D01*
X180561309Y-131033333D01*
X180561309Y-131300000D01*
X180636785Y-131433333D01*
X180712261Y-131500000D01*
X180863214Y-131566666D01*
X181165119Y-131566666D01*
X181316071Y-131500000D01*
X181391547Y-131433333D01*
X181467023Y-131300000D01*
X181467023Y-131033333D01*
X181391547Y-130900000D01*
X181316071Y-130833333D01*
X181165119Y-130766666D01*
X180863214Y-130766666D01*
X180712261Y-130833333D01*
X180636785Y-130900000D01*
X180561309Y-131033333D01*
X182433873Y-141133333D02*
X182433873Y-140266666D01*
X183037683Y-140733333D01*
X183037683Y-140533333D01*
X183113159Y-140400000D01*
X183188635Y-140333333D01*
X183339588Y-140266666D01*
X183716969Y-140266666D01*
X183867921Y-140333333D01*
X183943397Y-140400000D01*
X184018873Y-140533333D01*
X184018873Y-140933333D01*
X183943397Y-141066666D01*
X183867921Y-141133333D01*
X182433873Y-139866666D02*
X184018873Y-139400000D01*
X182433873Y-138933333D01*
X182433873Y-138600000D02*
X182433873Y-137733333D01*
X183037683Y-138200000D01*
X183037683Y-138000000D01*
X183113159Y-137866666D01*
X183188635Y-137800000D01*
X183339588Y-137733333D01*
X183716969Y-137733333D01*
X183867921Y-137800000D01*
X183943397Y-137866666D01*
X184018873Y-138000000D01*
X184018873Y-138400000D01*
X183943397Y-138533333D01*
X183867921Y-138600000D01*
X184547207Y-135733333D02*
X182282921Y-135733333D01*
X184018873Y-133666666D02*
X182433873Y-133666666D01*
X182433873Y-132733333D02*
X182433873Y-132466666D01*
X182509350Y-132333333D01*
X182660302Y-132200000D01*
X182962207Y-132133333D01*
X183490540Y-132133333D01*
X183792445Y-132200000D01*
X183943397Y-132333333D01*
X184018873Y-132466666D01*
X184018873Y-132733333D01*
X183943397Y-132866666D01*
X183792445Y-133000000D01*
X183490540Y-133066666D01*
X182962207Y-133066666D01*
X182660302Y-133000000D01*
X182509350Y-132866666D01*
X182433873Y-132733333D01*
X182433873Y-131733333D02*
X184018873Y-131266666D01*
X182433873Y-130800000D01*
D13*
X133071428Y-133607142D02*
X133285714Y-133678571D01*
X133642857Y-133678571D01*
X133785714Y-133607142D01*
X133857142Y-133535714D01*
X133928571Y-133392857D01*
X133928571Y-133250000D01*
X133857142Y-133107142D01*
X133785714Y-133035714D01*
X133642857Y-132964285D01*
X133357142Y-132892857D01*
X133214285Y-132821428D01*
X133142857Y-132750000D01*
X133071428Y-132607142D01*
X133071428Y-132464285D01*
X133142857Y-132321428D01*
X133214285Y-132250000D01*
X133357142Y-132178571D01*
X133714285Y-132178571D01*
X133928571Y-132250000D01*
X134428571Y-132178571D02*
X134785714Y-133678571D01*
X135071428Y-132607142D01*
X135357142Y-133678571D01*
X135714285Y-132178571D01*
X137142857Y-133535714D02*
X137071428Y-133607142D01*
X136857142Y-133678571D01*
X136714285Y-133678571D01*
X136500000Y-133607142D01*
X136357142Y-133464285D01*
X136285714Y-133321428D01*
X136214285Y-133035714D01*
X136214285Y-132821428D01*
X136285714Y-132535714D01*
X136357142Y-132392857D01*
X136500000Y-132250000D01*
X136714285Y-132178571D01*
X136857142Y-132178571D01*
X137071428Y-132250000D01*
X137142857Y-132321428D01*
X138500000Y-133678571D02*
X137785714Y-133678571D01*
X137785714Y-132178571D01*
X139000000Y-133678571D02*
X139000000Y-132178571D01*
X139857142Y-133678571D02*
X139214285Y-132821428D01*
X139857142Y-132178571D02*
X139000000Y-133035714D01*
X140857142Y-134178571D02*
X140857142Y-132035714D01*
X141857142Y-133607142D02*
X142071428Y-133678571D01*
X142428571Y-133678571D01*
X142571428Y-133607142D01*
X142642857Y-133535714D01*
X142714285Y-133392857D01*
X142714285Y-133250000D01*
X142642857Y-133107142D01*
X142571428Y-133035714D01*
X142428571Y-132964285D01*
X142142857Y-132892857D01*
X142000000Y-132821428D01*
X141928571Y-132750000D01*
X141857142Y-132607142D01*
X141857142Y-132464285D01*
X141928571Y-132321428D01*
X142000000Y-132250000D01*
X142142857Y-132178571D01*
X142500000Y-132178571D01*
X142714285Y-132250000D01*
X143214285Y-132178571D02*
X143571428Y-133678571D01*
X143857142Y-132607142D01*
X144142857Y-133678571D01*
X144500000Y-132178571D01*
X145071428Y-133678571D02*
X145071428Y-132178571D01*
X145428571Y-132178571D01*
X145642857Y-132250000D01*
X145785714Y-132392857D01*
X145857142Y-132535714D01*
X145928571Y-132821428D01*
X145928571Y-133035714D01*
X145857142Y-133321428D01*
X145785714Y-133464285D01*
X145642857Y-133607142D01*
X145428571Y-133678571D01*
X145071428Y-133678571D01*
X146928571Y-134178571D02*
X146928571Y-132035714D01*
X148785714Y-132250000D02*
X148642857Y-132178571D01*
X148428571Y-132178571D01*
X148214285Y-132250000D01*
X148071428Y-132392857D01*
X148000000Y-132535714D01*
X147928571Y-132821428D01*
X147928571Y-133035714D01*
X148000000Y-133321428D01*
X148071428Y-133464285D01*
X148214285Y-133607142D01*
X148428571Y-133678571D01*
X148571428Y-133678571D01*
X148785714Y-133607142D01*
X148857142Y-133535714D01*
X148857142Y-133035714D01*
X148571428Y-133035714D01*
X149500000Y-133678571D02*
X149500000Y-132178571D01*
X150357142Y-133678571D01*
X150357142Y-132178571D01*
X151071428Y-133678571D02*
X151071428Y-132178571D01*
X151428571Y-132178571D01*
X151642857Y-132250000D01*
X151785714Y-132392857D01*
X151857142Y-132535714D01*
X151928571Y-132821428D01*
X151928571Y-133035714D01*
X151857142Y-133321428D01*
X151785714Y-133464285D01*
X151642857Y-133607142D01*
X151428571Y-133678571D01*
X151071428Y-133678571D01*
X166821428Y-132178571D02*
X166321428Y-131464285D01*
X165964285Y-132178571D02*
X165964285Y-130678571D01*
X166535714Y-130678571D01*
X166678571Y-130750000D01*
X166750000Y-130821428D01*
X166821428Y-130964285D01*
X166821428Y-131178571D01*
X166750000Y-131321428D01*
X166678571Y-131392857D01*
X166535714Y-131464285D01*
X165964285Y-131464285D01*
X167464285Y-131392857D02*
X167964285Y-131392857D01*
X168178571Y-132178571D02*
X167464285Y-132178571D01*
X167464285Y-130678571D01*
X168178571Y-130678571D01*
X168750000Y-132107142D02*
X168964285Y-132178571D01*
X169321428Y-132178571D01*
X169464285Y-132107142D01*
X169535714Y-132035714D01*
X169607142Y-131892857D01*
X169607142Y-131750000D01*
X169535714Y-131607142D01*
X169464285Y-131535714D01*
X169321428Y-131464285D01*
X169035714Y-131392857D01*
X168892857Y-131321428D01*
X168821428Y-131250000D01*
X168750000Y-131107142D01*
X168750000Y-130964285D01*
X168821428Y-130821428D01*
X168892857Y-130750000D01*
X169035714Y-130678571D01*
X169392857Y-130678571D01*
X169607142Y-130750000D01*
X170250000Y-131392857D02*
X170750000Y-131392857D01*
X170964285Y-132178571D02*
X170250000Y-132178571D01*
X170250000Y-130678571D01*
X170964285Y-130678571D01*
X171392857Y-130678571D02*
X172250000Y-130678571D01*
X171821428Y-132178571D02*
X171821428Y-130678571D01*
%TO.C,C7*%
X151875714Y-128633333D02*
X151913809Y-128671428D01*
X151951904Y-128785714D01*
X151951904Y-128861904D01*
X151913809Y-128976190D01*
X151837619Y-129052380D01*
X151761428Y-129090476D01*
X151609047Y-129128571D01*
X151494761Y-129128571D01*
X151342380Y-129090476D01*
X151266190Y-129052380D01*
X151190000Y-128976190D01*
X151151904Y-128861904D01*
X151151904Y-128785714D01*
X151190000Y-128671428D01*
X151228095Y-128633333D01*
X151151904Y-128366666D02*
X151151904Y-127833333D01*
X151951904Y-128176190D01*
%TO.C,U3*%
X154988095Y-106702380D02*
X154988095Y-107511904D01*
X155035714Y-107607142D01*
X155083333Y-107654761D01*
X155178571Y-107702380D01*
X155369047Y-107702380D01*
X155464285Y-107654761D01*
X155511904Y-107607142D01*
X155559523Y-107511904D01*
X155559523Y-106702380D01*
X155940476Y-106702380D02*
X156559523Y-106702380D01*
X156226190Y-107083333D01*
X156369047Y-107083333D01*
X156464285Y-107130952D01*
X156511904Y-107178571D01*
X156559523Y-107273809D01*
X156559523Y-107511904D01*
X156511904Y-107607142D01*
X156464285Y-107654761D01*
X156369047Y-107702380D01*
X156083333Y-107702380D01*
X155988095Y-107654761D01*
X155940476Y-107607142D01*
%TO.C,C13*%
X162785714Y-112514285D02*
X162823809Y-112552380D01*
X162861904Y-112666666D01*
X162861904Y-112742857D01*
X162823809Y-112857142D01*
X162747619Y-112933333D01*
X162671428Y-112971428D01*
X162519047Y-113009523D01*
X162404761Y-113009523D01*
X162252380Y-112971428D01*
X162176190Y-112933333D01*
X162100000Y-112857142D01*
X162061904Y-112742857D01*
X162061904Y-112666666D01*
X162100000Y-112552380D01*
X162138095Y-112514285D01*
X162861904Y-111752380D02*
X162861904Y-112209523D01*
X162861904Y-111980952D02*
X162061904Y-111980952D01*
X162176190Y-112057142D01*
X162252380Y-112133333D01*
X162290476Y-112209523D01*
X162061904Y-111485714D02*
X162061904Y-110990476D01*
X162366666Y-111257142D01*
X162366666Y-111142857D01*
X162404761Y-111066666D01*
X162442857Y-111028571D01*
X162519047Y-110990476D01*
X162709523Y-110990476D01*
X162785714Y-111028571D01*
X162823809Y-111066666D01*
X162861904Y-111142857D01*
X162861904Y-111371428D01*
X162823809Y-111447619D01*
X162785714Y-111485714D01*
%TO.C,C8*%
X158535714Y-130383333D02*
X158573809Y-130421428D01*
X158611904Y-130535714D01*
X158611904Y-130611904D01*
X158573809Y-130726190D01*
X158497619Y-130802380D01*
X158421428Y-130840476D01*
X158269047Y-130878571D01*
X158154761Y-130878571D01*
X158002380Y-130840476D01*
X157926190Y-130802380D01*
X157850000Y-130726190D01*
X157811904Y-130611904D01*
X157811904Y-130535714D01*
X157850000Y-130421428D01*
X157888095Y-130383333D01*
X158154761Y-129926190D02*
X158116666Y-130002380D01*
X158078571Y-130040476D01*
X158002380Y-130078571D01*
X157964285Y-130078571D01*
X157888095Y-130040476D01*
X157850000Y-130002380D01*
X157811904Y-129926190D01*
X157811904Y-129773809D01*
X157850000Y-129697619D01*
X157888095Y-129659523D01*
X157964285Y-129621428D01*
X158002380Y-129621428D01*
X158078571Y-129659523D01*
X158116666Y-129697619D01*
X158154761Y-129773809D01*
X158154761Y-129926190D01*
X158192857Y-130002380D01*
X158230952Y-130040476D01*
X158307142Y-130078571D01*
X158459523Y-130078571D01*
X158535714Y-130040476D01*
X158573809Y-130002380D01*
X158611904Y-129926190D01*
X158611904Y-129773809D01*
X158573809Y-129697619D01*
X158535714Y-129659523D01*
X158459523Y-129621428D01*
X158307142Y-129621428D01*
X158230952Y-129659523D01*
X158192857Y-129697619D01*
X158154761Y-129773809D01*
%TO.C,U4*%
X162988095Y-115702380D02*
X162988095Y-116511904D01*
X163035714Y-116607142D01*
X163083333Y-116654761D01*
X163178571Y-116702380D01*
X163369047Y-116702380D01*
X163464285Y-116654761D01*
X163511904Y-116607142D01*
X163559523Y-116511904D01*
X163559523Y-115702380D01*
X164464285Y-116035714D02*
X164464285Y-116702380D01*
X164226190Y-115654761D02*
X163988095Y-116369047D01*
X164607142Y-116369047D01*
%TO.C,U1*%
X166988095Y-106052380D02*
X166988095Y-106861904D01*
X167035714Y-106957142D01*
X167083333Y-107004761D01*
X167178571Y-107052380D01*
X167369047Y-107052380D01*
X167464285Y-107004761D01*
X167511904Y-106957142D01*
X167559523Y-106861904D01*
X167559523Y-106052380D01*
X168559523Y-107052380D02*
X167988095Y-107052380D01*
X168273809Y-107052380D02*
X168273809Y-106052380D01*
X168178571Y-106195238D01*
X168083333Y-106290476D01*
X167988095Y-106338095D01*
%TO.C,C6*%
X170785714Y-111883333D02*
X170823809Y-111921428D01*
X170861904Y-112035714D01*
X170861904Y-112111904D01*
X170823809Y-112226190D01*
X170747619Y-112302380D01*
X170671428Y-112340476D01*
X170519047Y-112378571D01*
X170404761Y-112378571D01*
X170252380Y-112340476D01*
X170176190Y-112302380D01*
X170100000Y-112226190D01*
X170061904Y-112111904D01*
X170061904Y-112035714D01*
X170100000Y-111921428D01*
X170138095Y-111883333D01*
X170061904Y-111197619D02*
X170061904Y-111350000D01*
X170100000Y-111426190D01*
X170138095Y-111464285D01*
X170252380Y-111540476D01*
X170404761Y-111578571D01*
X170709523Y-111578571D01*
X170785714Y-111540476D01*
X170823809Y-111502380D01*
X170861904Y-111426190D01*
X170861904Y-111273809D01*
X170823809Y-111197619D01*
X170785714Y-111159523D01*
X170709523Y-111121428D01*
X170519047Y-111121428D01*
X170442857Y-111159523D01*
X170404761Y-111197619D01*
X170366666Y-111273809D01*
X170366666Y-111426190D01*
X170404761Y-111502380D01*
X170442857Y-111540476D01*
X170519047Y-111578571D01*
%TO.C,C15*%
X152485714Y-123445714D02*
X152447619Y-123483809D01*
X152333333Y-123521904D01*
X152257142Y-123521904D01*
X152142857Y-123483809D01*
X152066666Y-123407619D01*
X152028571Y-123331428D01*
X151990476Y-123179047D01*
X151990476Y-123064761D01*
X152028571Y-122912380D01*
X152066666Y-122836190D01*
X152142857Y-122760000D01*
X152257142Y-122721904D01*
X152333333Y-122721904D01*
X152447619Y-122760000D01*
X152485714Y-122798095D01*
X153247619Y-123521904D02*
X152790476Y-123521904D01*
X153019047Y-123521904D02*
X153019047Y-122721904D01*
X152942857Y-122836190D01*
X152866666Y-122912380D01*
X152790476Y-122950476D01*
X153971428Y-122721904D02*
X153590476Y-122721904D01*
X153552380Y-123102857D01*
X153590476Y-123064761D01*
X153666666Y-123026666D01*
X153857142Y-123026666D01*
X153933333Y-123064761D01*
X153971428Y-123102857D01*
X154009523Y-123179047D01*
X154009523Y-123369523D01*
X153971428Y-123445714D01*
X153933333Y-123483809D01*
X153857142Y-123521904D01*
X153666666Y-123521904D01*
X153590476Y-123483809D01*
X153552380Y-123445714D01*
%TO.C,D2*%
X163202380Y-103988095D02*
X162202380Y-103988095D01*
X162202380Y-103750000D01*
X162250000Y-103607142D01*
X162345238Y-103511904D01*
X162440476Y-103464285D01*
X162630952Y-103416666D01*
X162773809Y-103416666D01*
X162964285Y-103464285D01*
X163059523Y-103511904D01*
X163154761Y-103607142D01*
X163202380Y-103750000D01*
X163202380Y-103988095D01*
X162297619Y-103035714D02*
X162250000Y-102988095D01*
X162202380Y-102892857D01*
X162202380Y-102654761D01*
X162250000Y-102559523D01*
X162297619Y-102511904D01*
X162392857Y-102464285D01*
X162488095Y-102464285D01*
X162630952Y-102511904D01*
X163202380Y-103083333D01*
X163202380Y-102464285D01*
%TO.C,R2*%
X154616666Y-100111904D02*
X154350000Y-99730952D01*
X154159523Y-100111904D02*
X154159523Y-99311904D01*
X154464285Y-99311904D01*
X154540476Y-99350000D01*
X154578571Y-99388095D01*
X154616666Y-99464285D01*
X154616666Y-99578571D01*
X154578571Y-99654761D01*
X154540476Y-99692857D01*
X154464285Y-99730952D01*
X154159523Y-99730952D01*
X154921428Y-99388095D02*
X154959523Y-99350000D01*
X155035714Y-99311904D01*
X155226190Y-99311904D01*
X155302380Y-99350000D01*
X155340476Y-99388095D01*
X155378571Y-99464285D01*
X155378571Y-99540476D01*
X155340476Y-99654761D01*
X154883333Y-100111904D01*
X155378571Y-100111904D01*
%TO.C,C2*%
X165285714Y-111883333D02*
X165323809Y-111921428D01*
X165361904Y-112035714D01*
X165361904Y-112111904D01*
X165323809Y-112226190D01*
X165247619Y-112302380D01*
X165171428Y-112340476D01*
X165019047Y-112378571D01*
X164904761Y-112378571D01*
X164752380Y-112340476D01*
X164676190Y-112302380D01*
X164600000Y-112226190D01*
X164561904Y-112111904D01*
X164561904Y-112035714D01*
X164600000Y-111921428D01*
X164638095Y-111883333D01*
X164638095Y-111578571D02*
X164600000Y-111540476D01*
X164561904Y-111464285D01*
X164561904Y-111273809D01*
X164600000Y-111197619D01*
X164638095Y-111159523D01*
X164714285Y-111121428D01*
X164790476Y-111121428D01*
X164904761Y-111159523D01*
X165361904Y-111616666D01*
X165361904Y-111121428D01*
%TO.C,R10*%
X173441904Y-115514285D02*
X173060952Y-115780952D01*
X173441904Y-115971428D02*
X172641904Y-115971428D01*
X172641904Y-115666666D01*
X172680000Y-115590476D01*
X172718095Y-115552380D01*
X172794285Y-115514285D01*
X172908571Y-115514285D01*
X172984761Y-115552380D01*
X173022857Y-115590476D01*
X173060952Y-115666666D01*
X173060952Y-115971428D01*
X173441904Y-114752380D02*
X173441904Y-115209523D01*
X173441904Y-114980952D02*
X172641904Y-114980952D01*
X172756190Y-115057142D01*
X172832380Y-115133333D01*
X172870476Y-115209523D01*
X172641904Y-114257142D02*
X172641904Y-114180952D01*
X172680000Y-114104761D01*
X172718095Y-114066666D01*
X172794285Y-114028571D01*
X172946666Y-113990476D01*
X173137142Y-113990476D01*
X173289523Y-114028571D01*
X173365714Y-114066666D01*
X173403809Y-114104761D01*
X173441904Y-114180952D01*
X173441904Y-114257142D01*
X173403809Y-114333333D01*
X173365714Y-114371428D01*
X173289523Y-114409523D01*
X173137142Y-114447619D01*
X172946666Y-114447619D01*
X172794285Y-114409523D01*
X172718095Y-114371428D01*
X172680000Y-114333333D01*
X172641904Y-114257142D01*
%TO.C,C14*%
X152485714Y-118945714D02*
X152447619Y-118983809D01*
X152333333Y-119021904D01*
X152257142Y-119021904D01*
X152142857Y-118983809D01*
X152066666Y-118907619D01*
X152028571Y-118831428D01*
X151990476Y-118679047D01*
X151990476Y-118564761D01*
X152028571Y-118412380D01*
X152066666Y-118336190D01*
X152142857Y-118260000D01*
X152257142Y-118221904D01*
X152333333Y-118221904D01*
X152447619Y-118260000D01*
X152485714Y-118298095D01*
X153247619Y-119021904D02*
X152790476Y-119021904D01*
X153019047Y-119021904D02*
X153019047Y-118221904D01*
X152942857Y-118336190D01*
X152866666Y-118412380D01*
X152790476Y-118450476D01*
X153933333Y-118488571D02*
X153933333Y-119021904D01*
X153742857Y-118183809D02*
X153552380Y-118755238D01*
X154047619Y-118755238D01*
%TO.C,R8*%
X149441904Y-114633333D02*
X149060952Y-114900000D01*
X149441904Y-115090476D02*
X148641904Y-115090476D01*
X148641904Y-114785714D01*
X148680000Y-114709523D01*
X148718095Y-114671428D01*
X148794285Y-114633333D01*
X148908571Y-114633333D01*
X148984761Y-114671428D01*
X149022857Y-114709523D01*
X149060952Y-114785714D01*
X149060952Y-115090476D01*
X148984761Y-114176190D02*
X148946666Y-114252380D01*
X148908571Y-114290476D01*
X148832380Y-114328571D01*
X148794285Y-114328571D01*
X148718095Y-114290476D01*
X148680000Y-114252380D01*
X148641904Y-114176190D01*
X148641904Y-114023809D01*
X148680000Y-113947619D01*
X148718095Y-113909523D01*
X148794285Y-113871428D01*
X148832380Y-113871428D01*
X148908571Y-113909523D01*
X148946666Y-113947619D01*
X148984761Y-114023809D01*
X148984761Y-114176190D01*
X149022857Y-114252380D01*
X149060952Y-114290476D01*
X149137142Y-114328571D01*
X149289523Y-114328571D01*
X149365714Y-114290476D01*
X149403809Y-114252380D01*
X149441904Y-114176190D01*
X149441904Y-114023809D01*
X149403809Y-113947619D01*
X149365714Y-113909523D01*
X149289523Y-113871428D01*
X149137142Y-113871428D01*
X149060952Y-113909523D01*
X149022857Y-113947619D01*
X148984761Y-114023809D01*
%TO.C,R6*%
X149616666Y-111941904D02*
X149350000Y-111560952D01*
X149159523Y-111941904D02*
X149159523Y-111141904D01*
X149464285Y-111141904D01*
X149540476Y-111180000D01*
X149578571Y-111218095D01*
X149616666Y-111294285D01*
X149616666Y-111408571D01*
X149578571Y-111484761D01*
X149540476Y-111522857D01*
X149464285Y-111560952D01*
X149159523Y-111560952D01*
X150302380Y-111141904D02*
X150150000Y-111141904D01*
X150073809Y-111180000D01*
X150035714Y-111218095D01*
X149959523Y-111332380D01*
X149921428Y-111484761D01*
X149921428Y-111789523D01*
X149959523Y-111865714D01*
X149997619Y-111903809D01*
X150073809Y-111941904D01*
X150226190Y-111941904D01*
X150302380Y-111903809D01*
X150340476Y-111865714D01*
X150378571Y-111789523D01*
X150378571Y-111599047D01*
X150340476Y-111522857D01*
X150302380Y-111484761D01*
X150226190Y-111446666D01*
X150073809Y-111446666D01*
X149997619Y-111484761D01*
X149959523Y-111522857D01*
X149921428Y-111599047D01*
%TO.C,D1*%
X173202380Y-118488095D02*
X172202380Y-118488095D01*
X172202380Y-118250000D01*
X172250000Y-118107142D01*
X172345238Y-118011904D01*
X172440476Y-117964285D01*
X172630952Y-117916666D01*
X172773809Y-117916666D01*
X172964285Y-117964285D01*
X173059523Y-118011904D01*
X173154761Y-118107142D01*
X173202380Y-118250000D01*
X173202380Y-118488095D01*
X173202380Y-116964285D02*
X173202380Y-117535714D01*
X173202380Y-117250000D02*
X172202380Y-117250000D01*
X172345238Y-117345238D01*
X172440476Y-117440476D01*
X172488095Y-117535714D01*
%TO.C,C17*%
X164485714Y-123285714D02*
X164447619Y-123323809D01*
X164333333Y-123361904D01*
X164257142Y-123361904D01*
X164142857Y-123323809D01*
X164066666Y-123247619D01*
X164028571Y-123171428D01*
X163990476Y-123019047D01*
X163990476Y-122904761D01*
X164028571Y-122752380D01*
X164066666Y-122676190D01*
X164142857Y-122600000D01*
X164257142Y-122561904D01*
X164333333Y-122561904D01*
X164447619Y-122600000D01*
X164485714Y-122638095D01*
X165247619Y-123361904D02*
X164790476Y-123361904D01*
X165019047Y-123361904D02*
X165019047Y-122561904D01*
X164942857Y-122676190D01*
X164866666Y-122752380D01*
X164790476Y-122790476D01*
X165514285Y-122561904D02*
X166047619Y-122561904D01*
X165704761Y-123361904D01*
%TO.C,R9*%
X176366666Y-121611904D02*
X176100000Y-121230952D01*
X175909523Y-121611904D02*
X175909523Y-120811904D01*
X176214285Y-120811904D01*
X176290476Y-120850000D01*
X176328571Y-120888095D01*
X176366666Y-120964285D01*
X176366666Y-121078571D01*
X176328571Y-121154761D01*
X176290476Y-121192857D01*
X176214285Y-121230952D01*
X175909523Y-121230952D01*
X176747619Y-121611904D02*
X176900000Y-121611904D01*
X176976190Y-121573809D01*
X177014285Y-121535714D01*
X177090476Y-121421428D01*
X177128571Y-121269047D01*
X177128571Y-120964285D01*
X177090476Y-120888095D01*
X177052380Y-120850000D01*
X176976190Y-120811904D01*
X176823809Y-120811904D01*
X176747619Y-120850000D01*
X176709523Y-120888095D01*
X176671428Y-120964285D01*
X176671428Y-121154761D01*
X176709523Y-121230952D01*
X176747619Y-121269047D01*
X176823809Y-121307142D01*
X176976190Y-121307142D01*
X177052380Y-121269047D01*
X177090476Y-121230952D01*
X177128571Y-121154761D01*
%TO.C,C18*%
X164485714Y-118535714D02*
X164447619Y-118573809D01*
X164333333Y-118611904D01*
X164257142Y-118611904D01*
X164142857Y-118573809D01*
X164066666Y-118497619D01*
X164028571Y-118421428D01*
X163990476Y-118269047D01*
X163990476Y-118154761D01*
X164028571Y-118002380D01*
X164066666Y-117926190D01*
X164142857Y-117850000D01*
X164257142Y-117811904D01*
X164333333Y-117811904D01*
X164447619Y-117850000D01*
X164485714Y-117888095D01*
X165247619Y-118611904D02*
X164790476Y-118611904D01*
X165019047Y-118611904D02*
X165019047Y-117811904D01*
X164942857Y-117926190D01*
X164866666Y-118002380D01*
X164790476Y-118040476D01*
X165704761Y-118154761D02*
X165628571Y-118116666D01*
X165590476Y-118078571D01*
X165552380Y-118002380D01*
X165552380Y-117964285D01*
X165590476Y-117888095D01*
X165628571Y-117850000D01*
X165704761Y-117811904D01*
X165857142Y-117811904D01*
X165933333Y-117850000D01*
X165971428Y-117888095D01*
X166009523Y-117964285D01*
X166009523Y-118002380D01*
X165971428Y-118078571D01*
X165933333Y-118116666D01*
X165857142Y-118154761D01*
X165704761Y-118154761D01*
X165628571Y-118192857D01*
X165590476Y-118230952D01*
X165552380Y-118307142D01*
X165552380Y-118459523D01*
X165590476Y-118535714D01*
X165628571Y-118573809D01*
X165704761Y-118611904D01*
X165857142Y-118611904D01*
X165933333Y-118573809D01*
X165971428Y-118535714D01*
X166009523Y-118459523D01*
X166009523Y-118307142D01*
X165971428Y-118230952D01*
X165933333Y-118192857D01*
X165857142Y-118154761D01*
%TO.C,U2*%
X168238095Y-111052380D02*
X168238095Y-111861904D01*
X168285714Y-111957142D01*
X168333333Y-112004761D01*
X168428571Y-112052380D01*
X168619047Y-112052380D01*
X168714285Y-112004761D01*
X168761904Y-111957142D01*
X168809523Y-111861904D01*
X168809523Y-111052380D01*
X169238095Y-111147619D02*
X169285714Y-111100000D01*
X169380952Y-111052380D01*
X169619047Y-111052380D01*
X169714285Y-111100000D01*
X169761904Y-111147619D01*
X169809523Y-111242857D01*
X169809523Y-111338095D01*
X169761904Y-111480952D01*
X169190476Y-112052380D01*
X169809523Y-112052380D01*
%TO.C,C19*%
X159285714Y-112764285D02*
X159323809Y-112802380D01*
X159361904Y-112916666D01*
X159361904Y-112992857D01*
X159323809Y-113107142D01*
X159247619Y-113183333D01*
X159171428Y-113221428D01*
X159019047Y-113259523D01*
X158904761Y-113259523D01*
X158752380Y-113221428D01*
X158676190Y-113183333D01*
X158600000Y-113107142D01*
X158561904Y-112992857D01*
X158561904Y-112916666D01*
X158600000Y-112802380D01*
X158638095Y-112764285D01*
X159361904Y-112002380D02*
X159361904Y-112459523D01*
X159361904Y-112230952D02*
X158561904Y-112230952D01*
X158676190Y-112307142D01*
X158752380Y-112383333D01*
X158790476Y-112459523D01*
X159361904Y-111621428D02*
X159361904Y-111469047D01*
X159323809Y-111392857D01*
X159285714Y-111354761D01*
X159171428Y-111278571D01*
X159019047Y-111240476D01*
X158714285Y-111240476D01*
X158638095Y-111278571D01*
X158600000Y-111316666D01*
X158561904Y-111392857D01*
X158561904Y-111545238D01*
X158600000Y-111621428D01*
X158638095Y-111659523D01*
X158714285Y-111697619D01*
X158904761Y-111697619D01*
X158980952Y-111659523D01*
X159019047Y-111621428D01*
X159057142Y-111545238D01*
X159057142Y-111392857D01*
X159019047Y-111316666D01*
X158980952Y-111278571D01*
X158904761Y-111240476D01*
%TO.C,C3*%
X149285714Y-108133333D02*
X149323809Y-108171428D01*
X149361904Y-108285714D01*
X149361904Y-108361904D01*
X149323809Y-108476190D01*
X149247619Y-108552380D01*
X149171428Y-108590476D01*
X149019047Y-108628571D01*
X148904761Y-108628571D01*
X148752380Y-108590476D01*
X148676190Y-108552380D01*
X148600000Y-108476190D01*
X148561904Y-108361904D01*
X148561904Y-108285714D01*
X148600000Y-108171428D01*
X148638095Y-108133333D01*
X148561904Y-107866666D02*
X148561904Y-107371428D01*
X148866666Y-107638095D01*
X148866666Y-107523809D01*
X148904761Y-107447619D01*
X148942857Y-107409523D01*
X149019047Y-107371428D01*
X149209523Y-107371428D01*
X149285714Y-107409523D01*
X149323809Y-107447619D01*
X149361904Y-107523809D01*
X149361904Y-107752380D01*
X149323809Y-107828571D01*
X149285714Y-107866666D01*
%TO.C,Y1*%
X155023809Y-130476190D02*
X155023809Y-130952380D01*
X154690476Y-129952380D02*
X155023809Y-130476190D01*
X155357142Y-129952380D01*
X156214285Y-130952380D02*
X155642857Y-130952380D01*
X155928571Y-130952380D02*
X155928571Y-129952380D01*
X155833333Y-130095238D01*
X155738095Y-130190476D01*
X155642857Y-130238095D01*
%TO.C,R5*%
X163861904Y-110133333D02*
X163480952Y-110400000D01*
X163861904Y-110590476D02*
X163061904Y-110590476D01*
X163061904Y-110285714D01*
X163100000Y-110209523D01*
X163138095Y-110171428D01*
X163214285Y-110133333D01*
X163328571Y-110133333D01*
X163404761Y-110171428D01*
X163442857Y-110209523D01*
X163480952Y-110285714D01*
X163480952Y-110590476D01*
X163061904Y-109409523D02*
X163061904Y-109790476D01*
X163442857Y-109828571D01*
X163404761Y-109790476D01*
X163366666Y-109714285D01*
X163366666Y-109523809D01*
X163404761Y-109447619D01*
X163442857Y-109409523D01*
X163519047Y-109371428D01*
X163709523Y-109371428D01*
X163785714Y-109409523D01*
X163823809Y-109447619D01*
X163861904Y-109523809D01*
X163861904Y-109714285D01*
X163823809Y-109790476D01*
X163785714Y-109828571D01*
%TO.C,C12*%
X160285714Y-110764285D02*
X160323809Y-110802380D01*
X160361904Y-110916666D01*
X160361904Y-110992857D01*
X160323809Y-111107142D01*
X160247619Y-111183333D01*
X160171428Y-111221428D01*
X160019047Y-111259523D01*
X159904761Y-111259523D01*
X159752380Y-111221428D01*
X159676190Y-111183333D01*
X159600000Y-111107142D01*
X159561904Y-110992857D01*
X159561904Y-110916666D01*
X159600000Y-110802380D01*
X159638095Y-110764285D01*
X160361904Y-110002380D02*
X160361904Y-110459523D01*
X160361904Y-110230952D02*
X159561904Y-110230952D01*
X159676190Y-110307142D01*
X159752380Y-110383333D01*
X159790476Y-110459523D01*
X159638095Y-109697619D02*
X159600000Y-109659523D01*
X159561904Y-109583333D01*
X159561904Y-109392857D01*
X159600000Y-109316666D01*
X159638095Y-109278571D01*
X159714285Y-109240476D01*
X159790476Y-109240476D01*
X159904761Y-109278571D01*
X160361904Y-109735714D01*
X160361904Y-109240476D01*
%TO.C,C11*%
X158285714Y-112764285D02*
X158323809Y-112802380D01*
X158361904Y-112916666D01*
X158361904Y-112992857D01*
X158323809Y-113107142D01*
X158247619Y-113183333D01*
X158171428Y-113221428D01*
X158019047Y-113259523D01*
X157904761Y-113259523D01*
X157752380Y-113221428D01*
X157676190Y-113183333D01*
X157600000Y-113107142D01*
X157561904Y-112992857D01*
X157561904Y-112916666D01*
X157600000Y-112802380D01*
X157638095Y-112764285D01*
X158361904Y-112002380D02*
X158361904Y-112459523D01*
X158361904Y-112230952D02*
X157561904Y-112230952D01*
X157676190Y-112307142D01*
X157752380Y-112383333D01*
X157790476Y-112459523D01*
X158361904Y-111240476D02*
X158361904Y-111697619D01*
X158361904Y-111469047D02*
X157561904Y-111469047D01*
X157676190Y-111545238D01*
X157752380Y-111621428D01*
X157790476Y-111697619D01*
%TO.C,R7*%
X160361904Y-130383333D02*
X159980952Y-130650000D01*
X160361904Y-130840476D02*
X159561904Y-130840476D01*
X159561904Y-130535714D01*
X159600000Y-130459523D01*
X159638095Y-130421428D01*
X159714285Y-130383333D01*
X159828571Y-130383333D01*
X159904761Y-130421428D01*
X159942857Y-130459523D01*
X159980952Y-130535714D01*
X159980952Y-130840476D01*
X159561904Y-130116666D02*
X159561904Y-129583333D01*
X160361904Y-129926190D01*
%TO.C,C4*%
X150285714Y-108133333D02*
X150323809Y-108171428D01*
X150361904Y-108285714D01*
X150361904Y-108361904D01*
X150323809Y-108476190D01*
X150247619Y-108552380D01*
X150171428Y-108590476D01*
X150019047Y-108628571D01*
X149904761Y-108628571D01*
X149752380Y-108590476D01*
X149676190Y-108552380D01*
X149600000Y-108476190D01*
X149561904Y-108361904D01*
X149561904Y-108285714D01*
X149600000Y-108171428D01*
X149638095Y-108133333D01*
X149828571Y-107447619D02*
X150361904Y-107447619D01*
X149523809Y-107638095D02*
X150095238Y-107828571D01*
X150095238Y-107333333D01*
%TO.C,C5*%
X170785714Y-106883333D02*
X170823809Y-106921428D01*
X170861904Y-107035714D01*
X170861904Y-107111904D01*
X170823809Y-107226190D01*
X170747619Y-107302380D01*
X170671428Y-107340476D01*
X170519047Y-107378571D01*
X170404761Y-107378571D01*
X170252380Y-107340476D01*
X170176190Y-107302380D01*
X170100000Y-107226190D01*
X170061904Y-107111904D01*
X170061904Y-107035714D01*
X170100000Y-106921428D01*
X170138095Y-106883333D01*
X170061904Y-106159523D02*
X170061904Y-106540476D01*
X170442857Y-106578571D01*
X170404761Y-106540476D01*
X170366666Y-106464285D01*
X170366666Y-106273809D01*
X170404761Y-106197619D01*
X170442857Y-106159523D01*
X170519047Y-106121428D01*
X170709523Y-106121428D01*
X170785714Y-106159523D01*
X170823809Y-106197619D01*
X170861904Y-106273809D01*
X170861904Y-106464285D01*
X170823809Y-106540476D01*
X170785714Y-106578571D01*
%TO.C,C1*%
X165285714Y-106883333D02*
X165323809Y-106921428D01*
X165361904Y-107035714D01*
X165361904Y-107111904D01*
X165323809Y-107226190D01*
X165247619Y-107302380D01*
X165171428Y-107340476D01*
X165019047Y-107378571D01*
X164904761Y-107378571D01*
X164752380Y-107340476D01*
X164676190Y-107302380D01*
X164600000Y-107226190D01*
X164561904Y-107111904D01*
X164561904Y-107035714D01*
X164600000Y-106921428D01*
X164638095Y-106883333D01*
X165361904Y-106121428D02*
X165361904Y-106578571D01*
X165361904Y-106350000D02*
X164561904Y-106350000D01*
X164676190Y-106426190D01*
X164752380Y-106502380D01*
X164790476Y-106578571D01*
%TO.C,R1*%
X163116666Y-100111904D02*
X162850000Y-99730952D01*
X162659523Y-100111904D02*
X162659523Y-99311904D01*
X162964285Y-99311904D01*
X163040476Y-99350000D01*
X163078571Y-99388095D01*
X163116666Y-99464285D01*
X163116666Y-99578571D01*
X163078571Y-99654761D01*
X163040476Y-99692857D01*
X162964285Y-99730952D01*
X162659523Y-99730952D01*
X163878571Y-100111904D02*
X163421428Y-100111904D01*
X163650000Y-100111904D02*
X163650000Y-99311904D01*
X163573809Y-99426190D01*
X163497619Y-99502380D01*
X163421428Y-99540476D01*
%TO.C,R4*%
X162861904Y-110133333D02*
X162480952Y-110400000D01*
X162861904Y-110590476D02*
X162061904Y-110590476D01*
X162061904Y-110285714D01*
X162100000Y-110209523D01*
X162138095Y-110171428D01*
X162214285Y-110133333D01*
X162328571Y-110133333D01*
X162404761Y-110171428D01*
X162442857Y-110209523D01*
X162480952Y-110285714D01*
X162480952Y-110590476D01*
X162328571Y-109447619D02*
X162861904Y-109447619D01*
X162023809Y-109638095D02*
X162595238Y-109828571D01*
X162595238Y-109333333D01*
%TO.C,R3*%
X161861904Y-126633333D02*
X161480952Y-126900000D01*
X161861904Y-127090476D02*
X161061904Y-127090476D01*
X161061904Y-126785714D01*
X161100000Y-126709523D01*
X161138095Y-126671428D01*
X161214285Y-126633333D01*
X161328571Y-126633333D01*
X161404761Y-126671428D01*
X161442857Y-126709523D01*
X161480952Y-126785714D01*
X161480952Y-127090476D01*
X161061904Y-126366666D02*
X161061904Y-125871428D01*
X161366666Y-126138095D01*
X161366666Y-126023809D01*
X161404761Y-125947619D01*
X161442857Y-125909523D01*
X161519047Y-125871428D01*
X161709523Y-125871428D01*
X161785714Y-125909523D01*
X161823809Y-125947619D01*
X161861904Y-126023809D01*
X161861904Y-126252380D01*
X161823809Y-126328571D01*
X161785714Y-126366666D01*
%TO.C,C9*%
X163785714Y-112133333D02*
X163823809Y-112171428D01*
X163861904Y-112285714D01*
X163861904Y-112361904D01*
X163823809Y-112476190D01*
X163747619Y-112552380D01*
X163671428Y-112590476D01*
X163519047Y-112628571D01*
X163404761Y-112628571D01*
X163252380Y-112590476D01*
X163176190Y-112552380D01*
X163100000Y-112476190D01*
X163061904Y-112361904D01*
X163061904Y-112285714D01*
X163100000Y-112171428D01*
X163138095Y-112133333D01*
X163861904Y-111752380D02*
X163861904Y-111600000D01*
X163823809Y-111523809D01*
X163785714Y-111485714D01*
X163671428Y-111409523D01*
X163519047Y-111371428D01*
X163214285Y-111371428D01*
X163138095Y-111409523D01*
X163100000Y-111447619D01*
X163061904Y-111523809D01*
X163061904Y-111676190D01*
X163100000Y-111752380D01*
X163138095Y-111790476D01*
X163214285Y-111828571D01*
X163404761Y-111828571D01*
X163480952Y-111790476D01*
X163519047Y-111752380D01*
X163557142Y-111676190D01*
X163557142Y-111523809D01*
X163519047Y-111447619D01*
X163480952Y-111409523D01*
X163404761Y-111371428D01*
%TO.C,C10*%
X163785714Y-127014285D02*
X163823809Y-127052380D01*
X163861904Y-127166666D01*
X163861904Y-127242857D01*
X163823809Y-127357142D01*
X163747619Y-127433333D01*
X163671428Y-127471428D01*
X163519047Y-127509523D01*
X163404761Y-127509523D01*
X163252380Y-127471428D01*
X163176190Y-127433333D01*
X163100000Y-127357142D01*
X163061904Y-127242857D01*
X163061904Y-127166666D01*
X163100000Y-127052380D01*
X163138095Y-127014285D01*
X163861904Y-126252380D02*
X163861904Y-126709523D01*
X163861904Y-126480952D02*
X163061904Y-126480952D01*
X163176190Y-126557142D01*
X163252380Y-126633333D01*
X163290476Y-126709523D01*
X163061904Y-125757142D02*
X163061904Y-125680952D01*
X163100000Y-125604761D01*
X163138095Y-125566666D01*
X163214285Y-125528571D01*
X163366666Y-125490476D01*
X163557142Y-125490476D01*
X163709523Y-125528571D01*
X163785714Y-125566666D01*
X163823809Y-125604761D01*
X163861904Y-125680952D01*
X163861904Y-125757142D01*
X163823809Y-125833333D01*
X163785714Y-125871428D01*
X163709523Y-125909523D01*
X163557142Y-125947619D01*
X163366666Y-125947619D01*
X163214285Y-125909523D01*
X163138095Y-125871428D01*
X163100000Y-125833333D01*
X163061904Y-125757142D01*
%TO.C,Q1*%
X176154761Y-116797619D02*
X176059523Y-116750000D01*
X175964285Y-116654761D01*
X175821428Y-116511904D01*
X175726190Y-116464285D01*
X175630952Y-116464285D01*
X175678571Y-116702380D02*
X175583333Y-116654761D01*
X175488095Y-116559523D01*
X175440476Y-116369047D01*
X175440476Y-116035714D01*
X175488095Y-115845238D01*
X175583333Y-115750000D01*
X175678571Y-115702380D01*
X175869047Y-115702380D01*
X175964285Y-115750000D01*
X176059523Y-115845238D01*
X176107142Y-116035714D01*
X176107142Y-116369047D01*
X176059523Y-116559523D01*
X175964285Y-116654761D01*
X175869047Y-116702380D01*
X175678571Y-116702380D01*
X177059523Y-116702380D02*
X176488095Y-116702380D01*
X176773809Y-116702380D02*
X176773809Y-115702380D01*
X176678571Y-115845238D01*
X176583333Y-115940476D01*
X176488095Y-115988095D01*
%TO.C,C16*%
X162785714Y-127014285D02*
X162823809Y-127052380D01*
X162861904Y-127166666D01*
X162861904Y-127242857D01*
X162823809Y-127357142D01*
X162747619Y-127433333D01*
X162671428Y-127471428D01*
X162519047Y-127509523D01*
X162404761Y-127509523D01*
X162252380Y-127471428D01*
X162176190Y-127433333D01*
X162100000Y-127357142D01*
X162061904Y-127242857D01*
X162061904Y-127166666D01*
X162100000Y-127052380D01*
X162138095Y-127014285D01*
X162861904Y-126252380D02*
X162861904Y-126709523D01*
X162861904Y-126480952D02*
X162061904Y-126480952D01*
X162176190Y-126557142D01*
X162252380Y-126633333D01*
X162290476Y-126709523D01*
X162061904Y-125566666D02*
X162061904Y-125719047D01*
X162100000Y-125795238D01*
X162138095Y-125833333D01*
X162252380Y-125909523D01*
X162404761Y-125947619D01*
X162709523Y-125947619D01*
X162785714Y-125909523D01*
X162823809Y-125871428D01*
X162861904Y-125795238D01*
X162861904Y-125642857D01*
X162823809Y-125566666D01*
X162785714Y-125528571D01*
X162709523Y-125490476D01*
X162519047Y-125490476D01*
X162442857Y-125528571D01*
X162404761Y-125566666D01*
X162366666Y-125642857D01*
X162366666Y-125795238D01*
X162404761Y-125871428D01*
X162442857Y-125909523D01*
X162519047Y-125947619D01*
D14*
%TO.C,C7*%
X153110000Y-128607836D02*
X153110000Y-128392164D01*
X152390000Y-128607836D02*
X152390000Y-128392164D01*
%TO.C,U3*%
X151190000Y-111750000D02*
X151190000Y-109800000D01*
X151190000Y-111750000D02*
X151190000Y-115200000D01*
X156310000Y-111750000D02*
X156310000Y-109800000D01*
X156310000Y-111750000D02*
X156310000Y-113700000D01*
%TO.C,C13*%
X162530000Y-114607836D02*
X162530000Y-114392164D01*
X163250000Y-114607836D02*
X163250000Y-114392164D01*
%TO.C,C8*%
X157890000Y-128372164D02*
X157890000Y-128587836D01*
X158610000Y-128372164D02*
X158610000Y-128587836D01*
%TO.C,SW2*%
X143890000Y-109290000D02*
X144140000Y-109290000D01*
X143890000Y-114210000D02*
X144140000Y-114210000D01*
X147610000Y-114210000D02*
X147610000Y-109290000D01*
X143890000Y-109290000D02*
X143890000Y-114210000D01*
X147360000Y-114210000D02*
X147610000Y-114210000D01*
X147360000Y-109290000D02*
X147610000Y-109290000D01*
%TO.C,U4*%
X161960000Y-116890000D02*
X162610000Y-116890000D01*
X162610000Y-116890000D02*
X162610000Y-117540000D01*
X161960000Y-124110000D02*
X162610000Y-124110000D01*
X156040000Y-116890000D02*
X155390000Y-116890000D01*
X162610000Y-124110000D02*
X162610000Y-123460000D01*
X155390000Y-124110000D02*
X155390000Y-123460000D01*
X156040000Y-124110000D02*
X155390000Y-124110000D01*
%TO.C,J2*%
X160605000Y-131670000D02*
X160605000Y-133000000D01*
X158005000Y-131670000D02*
X152865000Y-131670000D01*
X159275000Y-131670000D02*
X160605000Y-131670000D01*
X152865000Y-131670000D02*
X152865000Y-134330000D01*
X158005000Y-131670000D02*
X158005000Y-134330000D01*
X158005000Y-134330000D02*
X152865000Y-134330000D01*
%TO.C,U1*%
X167750000Y-107440000D02*
X165950000Y-107440000D01*
X167750000Y-110560000D02*
X168550000Y-110560000D01*
X167750000Y-107440000D02*
X168550000Y-107440000D01*
X167750000Y-110560000D02*
X166950000Y-110560000D01*
%TO.C,C6*%
X170860000Y-113392164D02*
X170860000Y-113607836D01*
X170140000Y-113392164D02*
X170140000Y-113607836D01*
%TO.C,C15*%
X153107836Y-121640000D02*
X152892164Y-121640000D01*
X153107836Y-122360000D02*
X152892164Y-122360000D01*
%TO.C,D2*%
X163750000Y-108950000D02*
X163750000Y-105100000D01*
X161750000Y-108950000D02*
X163750000Y-108950000D01*
X161750000Y-108950000D02*
X161750000Y-105100000D01*
%TO.C,R2*%
X156653641Y-100130000D02*
X156346359Y-100130000D01*
X156653641Y-99370000D02*
X156346359Y-99370000D01*
%TO.C,C2*%
X164640000Y-113392164D02*
X164640000Y-113607836D01*
X165360000Y-113392164D02*
X165360000Y-113607836D01*
%TO.C,R10*%
X173870000Y-115153641D02*
X173870000Y-114846359D01*
X174630000Y-115153641D02*
X174630000Y-114846359D01*
%TO.C,C14*%
X153107836Y-117860000D02*
X152892164Y-117860000D01*
X153107836Y-117140000D02*
X152892164Y-117140000D01*
%TO.C,R8*%
X150630000Y-114653641D02*
X150630000Y-114346359D01*
X149870000Y-114653641D02*
X149870000Y-114346359D01*
%TO.C,R6*%
X149596359Y-113130000D02*
X149903641Y-113130000D01*
X149596359Y-112370000D02*
X149903641Y-112370000D01*
%TO.C,D1*%
X173515000Y-116950000D02*
X173515000Y-119235000D01*
X173515000Y-119235000D02*
X174985000Y-119235000D01*
X174985000Y-119235000D02*
X174985000Y-116950000D01*
%TO.C,C17*%
X164892164Y-121640000D02*
X165107836Y-121640000D01*
X164892164Y-122360000D02*
X165107836Y-122360000D01*
%TO.C,R9*%
X178096359Y-120870000D02*
X178403641Y-120870000D01*
X178096359Y-121630000D02*
X178403641Y-121630000D01*
%TO.C,J1*%
X163475000Y-98705000D02*
X154525000Y-98705000D01*
X154405000Y-95625000D02*
X154405000Y-94725000D01*
X163595000Y-89295000D02*
X154405000Y-89295000D01*
X163595000Y-92025000D02*
X163595000Y-89295000D01*
X154405000Y-92025000D02*
X154405000Y-89295000D01*
X163595000Y-95625000D02*
X163595000Y-94725000D01*
%TO.C,C18*%
X164892164Y-117610000D02*
X165107836Y-117610000D01*
X164892164Y-116890000D02*
X165107836Y-116890000D01*
%TO.C,SW1*%
X176500000Y-112750000D02*
X173000000Y-112750000D01*
X173000000Y-112750000D02*
X173000000Y-100750000D01*
X173000000Y-100750000D02*
X176500000Y-100750000D01*
X176500000Y-100750000D02*
X176500000Y-112750000D01*
%TO.C,U2*%
X167750000Y-115560000D02*
X166950000Y-115560000D01*
X167750000Y-115560000D02*
X168550000Y-115560000D01*
X167750000Y-112440000D02*
X165950000Y-112440000D01*
X167750000Y-112440000D02*
X168550000Y-112440000D01*
%TO.C,C19*%
X158640000Y-114627836D02*
X158640000Y-114412164D01*
X159360000Y-114627836D02*
X159360000Y-114412164D01*
%TO.C,C3*%
X148640000Y-109662164D02*
X148640000Y-109877836D01*
X149360000Y-109662164D02*
X149360000Y-109877836D01*
%TO.C,SW3*%
X161640000Y-129040000D02*
X161890000Y-129040000D01*
X161640000Y-133960000D02*
X161890000Y-133960000D01*
X161640000Y-129040000D02*
X161640000Y-133960000D01*
X165110000Y-133960000D02*
X165360000Y-133960000D01*
X165360000Y-133960000D02*
X165360000Y-129040000D01*
X165110000Y-129040000D02*
X165360000Y-129040000D01*
%TO.C,Y1*%
X153500000Y-126350000D02*
X153500000Y-129650000D01*
X153500000Y-129650000D02*
X157500000Y-129650000D01*
%TO.C,R5*%
X161120000Y-112096359D02*
X161120000Y-112403641D01*
X161880000Y-112096359D02*
X161880000Y-112403641D01*
%TO.C,C12*%
X159640000Y-114627836D02*
X159640000Y-114412164D01*
X160360000Y-114627836D02*
X160360000Y-114412164D01*
%TO.C,C11*%
X158360000Y-114627836D02*
X158360000Y-114412164D01*
X157640000Y-114627836D02*
X157640000Y-114412164D01*
%TO.C,R7*%
X160620000Y-130096359D02*
X160620000Y-130403641D01*
X161380000Y-130096359D02*
X161380000Y-130403641D01*
%TO.C,C4*%
X150360000Y-109642164D02*
X150360000Y-109857836D01*
X149640000Y-109642164D02*
X149640000Y-109857836D01*
%TO.C,C5*%
X170140000Y-108392164D02*
X170140000Y-108607836D01*
X170860000Y-108392164D02*
X170860000Y-108607836D01*
%TO.C,C1*%
X164640000Y-108412164D02*
X164640000Y-108627836D01*
X165360000Y-108412164D02*
X165360000Y-108627836D01*
%TO.C,R1*%
X161346359Y-99370000D02*
X161653641Y-99370000D01*
X161346359Y-100130000D02*
X161653641Y-100130000D01*
%TO.C,R4*%
X160120000Y-112096359D02*
X160120000Y-112403641D01*
X160880000Y-112096359D02*
X160880000Y-112403641D01*
%TO.C,R3*%
X158630000Y-126346359D02*
X158630000Y-126653641D01*
X157870000Y-126346359D02*
X157870000Y-126653641D01*
%TO.C,C9*%
X162250000Y-114607836D02*
X162250000Y-114392164D01*
X161530000Y-114607836D02*
X161530000Y-114392164D01*
%TO.C,J3*%
X134870000Y-151932500D02*
X134370000Y-152932500D01*
X188340000Y-151542500D02*
X129660000Y-151542500D01*
X156950000Y-151542500D02*
X156950000Y-150232500D01*
X129660000Y-151542500D02*
X129660000Y-142422500D01*
X188340000Y-142422500D02*
X188340000Y-151542500D01*
X187040000Y-143732500D02*
X187040000Y-150232500D01*
X187040000Y-150232500D02*
X161050000Y-150232500D01*
X134370000Y-152932500D02*
X135370000Y-152932500D01*
X161050000Y-150232500D02*
X161050000Y-151542500D01*
X135370000Y-152932500D02*
X134870000Y-151932500D01*
X156950000Y-150232500D02*
X130960000Y-150232500D01*
X130960000Y-143732500D02*
X187040000Y-143732500D01*
X130960000Y-150232500D02*
X130960000Y-143732500D01*
X129660000Y-142422500D02*
X188340000Y-142422500D01*
X161050000Y-150232500D02*
X161050000Y-150232500D01*
%TO.C,C10*%
X160610000Y-126392164D02*
X160610000Y-126607836D01*
X159890000Y-126392164D02*
X159890000Y-126607836D01*
%TO.C,Q1*%
X177250000Y-120310000D02*
X178925000Y-120310000D01*
X177250000Y-117190000D02*
X177900000Y-117190000D01*
X177250000Y-120310000D02*
X176600000Y-120310000D01*
X177250000Y-117190000D02*
X176600000Y-117190000D01*
%TO.C,C16*%
X159610000Y-126392164D02*
X159610000Y-126607836D01*
X158890000Y-126392164D02*
X158890000Y-126607836D01*
%TD*%
M02*
