%TF.GenerationSoftware,KiCad,Pcbnew,6.0.7+dfsg-1~bpo11+1*%
%TF.CreationDate,2022-08-19T21:28:34-04:00*%
%TF.ProjectId,iov-rp2040,696f762d-7270-4323-9034-302e6b696361,rev?*%
%TF.SameCoordinates,Original*%
%TF.FileFunction,Copper,L2,Bot*%
%TF.FilePolarity,Positive*%
%FSLAX46Y46*%
G04 Gerber Fmt 4.6, Leading zero omitted, Abs format (unit mm)*
G04 Created by KiCad (PCBNEW 6.0.7+dfsg-1~bpo11+1) date 2022-08-19 21:28:34*
%MOMM*%
%LPD*%
G01*
G04 APERTURE LIST*
G04 Aperture macros list*
%AMRoundRect*
0 Rectangle with rounded corners*
0 $1 Rounding radius*
0 $2 $3 $4 $5 $6 $7 $8 $9 X,Y pos of 4 corners*
0 Add a 4 corners polygon primitive as box body*
4,1,4,$2,$3,$4,$5,$6,$7,$8,$9,$2,$3,0*
0 Add four circle primitives for the rounded corners*
1,1,$1+$1,$2,$3*
1,1,$1+$1,$4,$5*
1,1,$1+$1,$6,$7*
1,1,$1+$1,$8,$9*
0 Add four rect primitives between the rounded corners*
20,1,$1+$1,$2,$3,$4,$5,0*
20,1,$1+$1,$4,$5,$6,$7,0*
20,1,$1+$1,$6,$7,$8,$9,0*
20,1,$1+$1,$8,$9,$2,$3,0*%
G04 Aperture macros list end*
%TA.AperFunction,ComponentPad*%
%ADD10R,1.700000X1.700000*%
%TD*%
%TA.AperFunction,ComponentPad*%
%ADD11O,1.700000X1.700000*%
%TD*%
%TA.AperFunction,ComponentPad*%
%ADD12C,0.700000*%
%TD*%
%TA.AperFunction,ComponentPad*%
%ADD13O,0.900000X1.700000*%
%TD*%
%TA.AperFunction,ComponentPad*%
%ADD14O,0.900000X2.400000*%
%TD*%
%TA.AperFunction,ComponentPad*%
%ADD15RoundRect,0.250000X0.600000X-0.600000X0.600000X0.600000X-0.600000X0.600000X-0.600000X-0.600000X0*%
%TD*%
%TA.AperFunction,ComponentPad*%
%ADD16C,1.700000*%
%TD*%
%TA.AperFunction,ViaPad*%
%ADD17C,0.800000*%
%TD*%
%TA.AperFunction,Conductor*%
%ADD18C,0.500000*%
%TD*%
%TA.AperFunction,Conductor*%
%ADD19C,0.400000*%
%TD*%
%TA.AperFunction,Conductor*%
%ADD20C,0.200000*%
%TD*%
G04 APERTURE END LIST*
D10*
%TO.P,J2,1,Pin_1*%
%TO.N,GND*%
X159275000Y-133000000D03*
D11*
%TO.P,J2,2,Pin_2*%
%TO.N,Net-(J2-Pad2)*%
X156735000Y-133000000D03*
%TO.P,J2,3,Pin_3*%
%TO.N,Net-(J2-Pad3)*%
X154195000Y-133000000D03*
%TD*%
D12*
%TO.P,J1,A1,GND*%
%TO.N,GND*%
X161975000Y-98025000D03*
%TO.P,J1,A4,VBUS*%
%TO.N,VBUS*%
X161125000Y-98025000D03*
%TO.P,J1,A5,CC1*%
%TO.N,Net-(J1-PadA5)*%
X160275000Y-98025000D03*
%TO.P,J1,A6,D+*%
%TO.N,/USB_DP*%
X159425000Y-98025000D03*
%TO.P,J1,A7,D-*%
%TO.N,/USB_DN*%
X158575000Y-98025000D03*
%TO.P,J1,A8,SBU1*%
%TO.N,unconnected-(J1-PadA8)*%
X157725000Y-98025000D03*
%TO.P,J1,A9,VBUS*%
%TO.N,VBUS*%
X156875000Y-98025000D03*
%TO.P,J1,A12,GND*%
%TO.N,GND*%
X156025000Y-98025000D03*
%TO.P,J1,B1,GND*%
X156025000Y-96675000D03*
%TO.P,J1,B4,VBUS*%
%TO.N,VBUS*%
X156875000Y-96675000D03*
%TO.P,J1,B5,CC2*%
%TO.N,Net-(J1-PadB5)*%
X157725000Y-96675000D03*
%TO.P,J1,B6,D+*%
%TO.N,/USB_DP*%
X158575000Y-96675000D03*
%TO.P,J1,B7,D-*%
%TO.N,/USB_DN*%
X159425000Y-96675000D03*
%TO.P,J1,B8,SBU2*%
%TO.N,unconnected-(J1-PadB8)*%
X160275000Y-96675000D03*
%TO.P,J1,B9,VBUS*%
%TO.N,VBUS*%
X161125000Y-96675000D03*
%TO.P,J1,B12,GND*%
%TO.N,GND*%
X161975000Y-96675000D03*
D13*
%TO.P,J1,S1,SHIELD*%
X154675000Y-93665000D03*
D14*
X163325000Y-97045000D03*
D13*
X163325000Y-93665000D03*
D14*
X154675000Y-97045000D03*
%TD*%
D15*
%TO.P,J3,1,Pin_1*%
%TO.N,GND*%
X134870000Y-148252500D03*
D16*
%TO.P,J3,2,Pin_2*%
%TO.N,/GPIO0*%
X134870000Y-145712500D03*
%TO.P,J3,3,Pin_3*%
%TO.N,/GPIO1*%
X137410000Y-148252500D03*
%TO.P,J3,4,Pin_4*%
%TO.N,/GPIO2*%
X137410000Y-145712500D03*
%TO.P,J3,5,Pin_5*%
%TO.N,/GPIO3*%
X139950000Y-148252500D03*
%TO.P,J3,6,Pin_6*%
%TO.N,/GPIO4*%
X139950000Y-145712500D03*
%TO.P,J3,7,Pin_7*%
%TO.N,/GPIO5*%
X142490000Y-148252500D03*
%TO.P,J3,8,Pin_8*%
%TO.N,/GPIO6*%
X142490000Y-145712500D03*
%TO.P,J3,9,Pin_9*%
%TO.N,/GPIO7*%
X145030000Y-148252500D03*
%TO.P,J3,10,Pin_10*%
%TO.N,GND*%
X145030000Y-145712500D03*
%TO.P,J3,11,Pin_11*%
%TO.N,/GPIO8*%
X147570000Y-148252500D03*
%TO.P,J3,12,Pin_12*%
%TO.N,/GPIO9*%
X147570000Y-145712500D03*
%TO.P,J3,13,Pin_13*%
%TO.N,/GPIO10*%
X150110000Y-148252500D03*
%TO.P,J3,14,Pin_14*%
%TO.N,/GPIO11*%
X150110000Y-145712500D03*
%TO.P,J3,15,Pin_15*%
%TO.N,/GPIO12*%
X152650000Y-148252500D03*
%TO.P,J3,16,Pin_16*%
%TO.N,/GPIO13*%
X152650000Y-145712500D03*
%TO.P,J3,17,Pin_17*%
%TO.N,/GPIO14*%
X155190000Y-148252500D03*
%TO.P,J3,18,Pin_18*%
%TO.N,/GPIO15*%
X155190000Y-145712500D03*
%TO.P,J3,19,Pin_19*%
%TO.N,GND*%
X157730000Y-148252500D03*
%TO.P,J3,20,Pin_20*%
%TO.N,/GPIO16*%
X157730000Y-145712500D03*
%TO.P,J3,21,Pin_21*%
%TO.N,/GPIO17*%
X160270000Y-148252500D03*
%TO.P,J3,22,Pin_22*%
%TO.N,/GPIO18*%
X160270000Y-145712500D03*
%TO.P,J3,23,Pin_23*%
%TO.N,/GPIO19*%
X162810000Y-148252500D03*
%TO.P,J3,24,Pin_24*%
%TO.N,/GPIO20*%
X162810000Y-145712500D03*
%TO.P,J3,25,Pin_25*%
%TO.N,/GPIO21*%
X165350000Y-148252500D03*
%TO.P,J3,26,Pin_26*%
%TO.N,/GPIO22*%
X165350000Y-145712500D03*
%TO.P,J3,27,Pin_27*%
%TO.N,/GPIO23*%
X167890000Y-148252500D03*
%TO.P,J3,28,Pin_28*%
%TO.N,GND*%
X167890000Y-145712500D03*
%TO.P,J3,29,Pin_29*%
%TO.N,/GPIO24*%
X170430000Y-148252500D03*
%TO.P,J3,30,Pin_30*%
%TO.N,/GPIO25*%
X170430000Y-145712500D03*
%TO.P,J3,31,Pin_31*%
%TO.N,/GPIO26*%
X172970000Y-148252500D03*
%TO.P,J3,32,Pin_32*%
%TO.N,/GPIO27*%
X172970000Y-145712500D03*
%TO.P,J3,33,Pin_33*%
%TO.N,/GPIO28*%
X175510000Y-148252500D03*
%TO.P,J3,34,Pin_34*%
%TO.N,/GPIO29*%
X175510000Y-145712500D03*
%TO.P,J3,35,Pin_35*%
%TO.N,GND*%
X178050000Y-148252500D03*
%TO.P,J3,36,Pin_36*%
%TO.N,VCC*%
X178050000Y-145712500D03*
%TO.P,J3,37,Pin_37*%
%TO.N,/EXT_IOVDD*%
X180590000Y-148252500D03*
%TO.P,J3,38,Pin_38*%
%TO.N,+1V8*%
X180590000Y-145712500D03*
%TO.P,J3,39,Pin_39*%
%TO.N,+3V3*%
X183130000Y-148252500D03*
%TO.P,J3,40,Pin_40*%
%TO.N,IOVDD*%
X183130000Y-145712500D03*
%TD*%
D17*
%TO.N,GND*%
X159000000Y-108000000D03*
X175250000Y-120250000D03*
X165650000Y-114000000D03*
X160000000Y-119500000D03*
X164750000Y-115250000D03*
X158000000Y-121500000D03*
X158000000Y-113500000D03*
X162500000Y-112750000D03*
X160000000Y-120500000D03*
X152000000Y-122000000D03*
X150000000Y-110750000D03*
X152500000Y-126750000D03*
X174250000Y-106750000D03*
X166000000Y-117250000D03*
X170500000Y-115250000D03*
X163250000Y-127000000D03*
X160000000Y-121500000D03*
X161500000Y-136250000D03*
X162900000Y-113550000D03*
X158000000Y-120500000D03*
X175250000Y-110250000D03*
X156750000Y-122750000D03*
X178250000Y-116500000D03*
X165650000Y-109000000D03*
X158000000Y-119500000D03*
X177000000Y-106000000D03*
X166000000Y-122000000D03*
X149000000Y-110750000D03*
X160000000Y-108750000D03*
X160250000Y-127500000D03*
X158000000Y-108750000D03*
X152000000Y-117500000D03*
X154000000Y-130500000D03*
X159000000Y-113500000D03*
X156750000Y-138250000D03*
X144900000Y-111750000D03*
X159250000Y-127500000D03*
X170500000Y-110000000D03*
X155250000Y-112500000D03*
X171500000Y-117250000D03*
%TO.N,IOVDD*%
X162500000Y-106750000D03*
X171750000Y-110250000D03*
X156589024Y-119266186D03*
X176500000Y-108500000D03*
X154000000Y-117500000D03*
X162250000Y-130249502D03*
X169250000Y-106750000D03*
X161250000Y-121500000D03*
X171750000Y-115500000D03*
X159500000Y-106750000D03*
X151750000Y-111000000D03*
X178000000Y-107000000D03*
X151010000Y-115740000D03*
X172500000Y-107500000D03*
%TO.N,+3V3*%
X167500000Y-111500000D03*
X171750000Y-113000000D03*
X176000000Y-104500000D03*
X165750000Y-111500000D03*
%TO.N,+1V1*%
X161610463Y-115876719D03*
X158639971Y-118179789D03*
X160075073Y-125536867D03*
%TO.N,VBUS*%
X162750000Y-104250000D03*
%TO.N,/USB_DP*%
X158475000Y-99500000D03*
%TO.N,Net-(J2-Pad2)*%
X161375758Y-122912791D03*
%TO.N,Net-(J2-Pad3)*%
X161250000Y-126250000D03*
%TO.N,/GPIO25*%
X175000000Y-127000000D03*
X178000000Y-123500000D03*
%TO.N,/QSPI_IO0*%
X156587955Y-118084681D03*
X156150500Y-111750000D03*
%TO.N,/USB_DN*%
X159525000Y-99500000D03*
%TD*%
D18*
%TO.N,GND*%
X161975000Y-98025000D02*
X161975000Y-96675000D01*
X154675000Y-97045000D02*
X155655000Y-97045000D01*
X156025000Y-96675000D02*
X156025000Y-95525000D01*
X155655000Y-97045000D02*
X156025000Y-96675000D01*
X156025000Y-98025000D02*
X156025000Y-96675000D01*
X163325000Y-97045000D02*
X162345000Y-97045000D01*
X162345000Y-97045000D02*
X161975000Y-96675000D01*
D19*
%TO.N,IOVDD*%
X176500000Y-108500000D02*
X178000000Y-107000000D01*
D20*
X156589024Y-119266186D02*
X156589024Y-119089024D01*
X162150000Y-125594364D02*
X162350000Y-125794365D01*
D19*
X171750000Y-115368629D02*
X171750000Y-115500000D01*
X171750000Y-110250000D02*
X170750000Y-111250000D01*
D20*
X161250000Y-121500000D02*
X162150000Y-122400000D01*
X162350000Y-126705635D02*
X162150000Y-126905635D01*
D19*
X170750000Y-114368629D02*
X171750000Y-115368629D01*
D18*
X162500000Y-106750000D02*
X159500000Y-106750000D01*
X170000000Y-107500000D02*
X169250000Y-106750000D01*
D20*
X162150000Y-126905635D02*
X162150000Y-130149502D01*
D19*
X151010000Y-111740000D02*
X151010000Y-115740000D01*
D20*
X162150000Y-122400000D02*
X162150000Y-125594364D01*
X155000000Y-117500000D02*
X154000000Y-117500000D01*
X162150000Y-130149502D02*
X162250000Y-130249502D01*
D18*
X172500000Y-107500000D02*
X170000000Y-107500000D01*
D20*
X162350000Y-125794365D02*
X162350000Y-126705635D01*
X156589024Y-119089024D02*
X155000000Y-117500000D01*
D19*
X170750000Y-111250000D02*
X170750000Y-114368629D01*
X151750000Y-111000000D02*
X151010000Y-111740000D01*
D18*
%TO.N,+3V3*%
X171750000Y-113000000D02*
X171750000Y-112047918D01*
X176000000Y-107797918D02*
X176000000Y-104500000D01*
D19*
X165750000Y-111500000D02*
X165800000Y-111450000D01*
D18*
X171750000Y-112047918D02*
X176000000Y-107797918D01*
D19*
X167450000Y-111450000D02*
X167500000Y-111500000D01*
X165800000Y-111450000D02*
X167450000Y-111450000D01*
D18*
%TO.N,+1V1*%
X158639971Y-118179789D02*
X159000000Y-118539818D01*
X159307393Y-118179789D02*
X161610463Y-115876719D01*
X159000000Y-118539818D02*
X159000000Y-124461794D01*
X159000000Y-124461794D02*
X160075073Y-125536867D01*
X158639971Y-118179789D02*
X159307393Y-118179789D01*
%TO.N,VBUS*%
X160750000Y-95750000D02*
X161250000Y-95250000D01*
X156875000Y-98025000D02*
X156875000Y-96675000D01*
X164000000Y-95250000D02*
X164450000Y-95700000D01*
X164450000Y-102550000D02*
X162750000Y-104250000D01*
X164450000Y-95700000D02*
X164450000Y-102550000D01*
X156875000Y-96125000D02*
X157250000Y-95750000D01*
X161250000Y-95250000D02*
X164000000Y-95250000D01*
X157250000Y-95750000D02*
X160750000Y-95750000D01*
X160750000Y-95750000D02*
X161125000Y-96125000D01*
X156875000Y-96675000D02*
X156875000Y-96125000D01*
X161125000Y-96125000D02*
X161125000Y-96675000D01*
X161125000Y-96675000D02*
X161125000Y-98025000D01*
D20*
%TO.N,Net-(J2-Pad2)*%
X161950000Y-126539950D02*
X161750000Y-126739950D01*
X161750000Y-123287033D02*
X161750000Y-125760050D01*
X161750000Y-126739950D02*
X161750000Y-129250000D01*
X157250000Y-130750000D02*
X156735000Y-131265000D01*
X161375758Y-122912791D02*
X161750000Y-123287033D01*
X160250000Y-130750000D02*
X157250000Y-130750000D01*
X156735000Y-131265000D02*
X156735000Y-133000000D01*
X161750000Y-129250000D02*
X160250000Y-130750000D01*
X161950000Y-125960050D02*
X161950000Y-126539950D01*
X161750000Y-125760050D02*
X161950000Y-125960050D01*
%TO.N,Net-(J2-Pad3)*%
X154250000Y-133000000D02*
X154195000Y-133000000D01*
X161250000Y-129000000D02*
X160000000Y-130250000D01*
X161250000Y-126250000D02*
X161250000Y-129000000D01*
X160000000Y-130250000D02*
X157000000Y-130250000D01*
X157000000Y-130250000D02*
X154250000Y-133000000D01*
%TO.N,/GPIO25*%
X178000000Y-123500000D02*
X178000000Y-125000000D01*
X176000000Y-127000000D02*
X175000000Y-127000000D01*
X178000000Y-125000000D02*
X176000000Y-127000000D01*
%TO.N,/QSPI_IO0*%
X156150500Y-117647226D02*
X156150500Y-111750000D01*
X156587955Y-118084681D02*
X156150500Y-117647226D01*
%TO.N,/USB_DN*%
X159525000Y-99500000D02*
X158575000Y-98025000D01*
X158575000Y-98025000D02*
X159425000Y-96675000D01*
%TD*%
%TA.AperFunction,Conductor*%
%TO.N,GND*%
G36*
X154203858Y-92269407D02*
G01*
X154239822Y-92318907D01*
X154239822Y-92380093D01*
X154203858Y-92429593D01*
X154197836Y-92433639D01*
X154091730Y-92499428D01*
X154083822Y-92505518D01*
X153949701Y-92632350D01*
X153943181Y-92639903D01*
X153837303Y-92791114D01*
X153832438Y-92799818D01*
X153759123Y-92969240D01*
X153756109Y-92978740D01*
X153718112Y-93160620D01*
X153717135Y-93168149D01*
X153717069Y-93169411D01*
X153717000Y-93172021D01*
X153717000Y-93395320D01*
X153721122Y-93408005D01*
X153725243Y-93411000D01*
X155617320Y-93411000D01*
X155630005Y-93406878D01*
X155633000Y-93402757D01*
X155633000Y-93218861D01*
X155632747Y-93213864D01*
X155618780Y-93076361D01*
X155616774Y-93066592D01*
X155561572Y-92890440D01*
X155557641Y-92881270D01*
X155468150Y-92719825D01*
X155462454Y-92711628D01*
X155342327Y-92571473D01*
X155335101Y-92564592D01*
X155189241Y-92451452D01*
X155180783Y-92446166D01*
X155164854Y-92438328D01*
X155120990Y-92395672D01*
X155110576Y-92335379D01*
X155137590Y-92280480D01*
X155191714Y-92251945D01*
X155208564Y-92250500D01*
X162795667Y-92250500D01*
X162853858Y-92269407D01*
X162889822Y-92318907D01*
X162889822Y-92380093D01*
X162853858Y-92429593D01*
X162847836Y-92433639D01*
X162741730Y-92499428D01*
X162733822Y-92505518D01*
X162599701Y-92632350D01*
X162593181Y-92639903D01*
X162487303Y-92791114D01*
X162482438Y-92799818D01*
X162409123Y-92969240D01*
X162406109Y-92978740D01*
X162368112Y-93160620D01*
X162367135Y-93168149D01*
X162367069Y-93169411D01*
X162367000Y-93172021D01*
X162367000Y-93395320D01*
X162371122Y-93408005D01*
X162375243Y-93411000D01*
X164267320Y-93411000D01*
X164280005Y-93406878D01*
X164283000Y-93402757D01*
X164283000Y-93218861D01*
X164282747Y-93213864D01*
X164268780Y-93076361D01*
X164266774Y-93066592D01*
X164211572Y-92890440D01*
X164207641Y-92881270D01*
X164118150Y-92719825D01*
X164112454Y-92711628D01*
X163992327Y-92571473D01*
X163985101Y-92564592D01*
X163839241Y-92451452D01*
X163830783Y-92446166D01*
X163814854Y-92438328D01*
X163770990Y-92395672D01*
X163760576Y-92335379D01*
X163787590Y-92280480D01*
X163841714Y-92251945D01*
X163858564Y-92250500D01*
X188650500Y-92250500D01*
X188708691Y-92269407D01*
X188744655Y-92318907D01*
X188749500Y-92349500D01*
X188749500Y-151650500D01*
X188730593Y-151708691D01*
X188681093Y-151744655D01*
X188650500Y-151749500D01*
X129349500Y-151749500D01*
X129291309Y-151730593D01*
X129255345Y-151681093D01*
X129250500Y-151650500D01*
X129250500Y-148900292D01*
X133512001Y-148900292D01*
X133512267Y-148905422D01*
X133522409Y-149003173D01*
X133524682Y-149013700D01*
X133577086Y-149170777D01*
X133581933Y-149181124D01*
X133668891Y-149321645D01*
X133675987Y-149330598D01*
X133792939Y-149447347D01*
X133801904Y-149454427D01*
X133942580Y-149541141D01*
X133952934Y-149545969D01*
X134110110Y-149598102D01*
X134120621Y-149600355D01*
X134217112Y-149610241D01*
X134222170Y-149610500D01*
X134600320Y-149610500D01*
X134613005Y-149606378D01*
X134616000Y-149602257D01*
X134616000Y-148522180D01*
X134611878Y-148509495D01*
X134607757Y-148506500D01*
X133527681Y-148506500D01*
X133514996Y-148510622D01*
X133512001Y-148514743D01*
X133512001Y-148900292D01*
X129250500Y-148900292D01*
X129250500Y-147982820D01*
X133512000Y-147982820D01*
X133516122Y-147995505D01*
X133520243Y-147998500D01*
X135025000Y-147998500D01*
X135083191Y-148017407D01*
X135119155Y-148066907D01*
X135124000Y-148097500D01*
X135124000Y-149594819D01*
X135128122Y-149607504D01*
X135132243Y-149610499D01*
X135517792Y-149610499D01*
X135522922Y-149610233D01*
X135620673Y-149600091D01*
X135631200Y-149597818D01*
X135788277Y-149545414D01*
X135798624Y-149540567D01*
X135939145Y-149453609D01*
X135948098Y-149446513D01*
X136016754Y-149377738D01*
X156969387Y-149377738D01*
X156976207Y-149384962D01*
X157137713Y-149479338D01*
X157145008Y-149482834D01*
X157346038Y-149559599D01*
X157353808Y-149561857D01*
X157564674Y-149604758D01*
X157572717Y-149605717D01*
X157787761Y-149613602D01*
X157795838Y-149613236D01*
X158009280Y-149585894D01*
X158017210Y-149584208D01*
X158223304Y-149522376D01*
X158230852Y-149519418D01*
X158424090Y-149424752D01*
X158431045Y-149420605D01*
X158481229Y-149384809D01*
X158486461Y-149377738D01*
X177289387Y-149377738D01*
X177296207Y-149384962D01*
X177457713Y-149479338D01*
X177465008Y-149482834D01*
X177666038Y-149559599D01*
X177673808Y-149561857D01*
X177884674Y-149604758D01*
X177892717Y-149605717D01*
X178107761Y-149613602D01*
X178115838Y-149613236D01*
X178329280Y-149585894D01*
X178337210Y-149584208D01*
X178543304Y-149522376D01*
X178550852Y-149519418D01*
X178744090Y-149424752D01*
X178751045Y-149420605D01*
X178801229Y-149384809D01*
X178809163Y-149374087D01*
X178809170Y-149373224D01*
X178805554Y-149367264D01*
X178061086Y-148622796D01*
X178049203Y-148616742D01*
X178044172Y-148617538D01*
X177295011Y-149366699D01*
X177289387Y-149377738D01*
X158486461Y-149377738D01*
X158489163Y-149374087D01*
X158489170Y-149373224D01*
X158485554Y-149367264D01*
X157741086Y-148622796D01*
X157729203Y-148616742D01*
X157724172Y-148617538D01*
X156975011Y-149366699D01*
X156969387Y-149377738D01*
X136016754Y-149377738D01*
X136064847Y-149329561D01*
X136071927Y-149320596D01*
X136158641Y-149179920D01*
X136163469Y-149169566D01*
X136215602Y-149012390D01*
X136217855Y-149001879D01*
X136227741Y-148905388D01*
X136228000Y-148900330D01*
X136228000Y-148768574D01*
X136246907Y-148710383D01*
X136296407Y-148674419D01*
X136357593Y-148674419D01*
X136407093Y-148710383D01*
X136416906Y-148727125D01*
X136452856Y-148805107D01*
X136569588Y-148970280D01*
X136714466Y-149111413D01*
X136882637Y-149223782D01*
X137068470Y-149303622D01*
X137265740Y-149348260D01*
X137467842Y-149356200D01*
X137521377Y-149348438D01*
X137663519Y-149327829D01*
X137663522Y-149327828D01*
X137668007Y-149327178D01*
X137763769Y-149294671D01*
X137855234Y-149263623D01*
X137855237Y-149263621D01*
X137859531Y-149262164D01*
X138036001Y-149163337D01*
X138191505Y-149034005D01*
X138320837Y-148878501D01*
X138419664Y-148702031D01*
X138435282Y-148656024D01*
X138465736Y-148566307D01*
X138484678Y-148510507D01*
X138513700Y-148310342D01*
X138514925Y-148263586D01*
X138515139Y-148255413D01*
X138515139Y-148255408D01*
X138515215Y-148252500D01*
X138514680Y-148246672D01*
X138512557Y-148223569D01*
X138845164Y-148223569D01*
X138858392Y-148425394D01*
X138859508Y-148429787D01*
X138859508Y-148429789D01*
X138881099Y-148514804D01*
X138908178Y-148621428D01*
X138992856Y-148805107D01*
X139109588Y-148970280D01*
X139254466Y-149111413D01*
X139422637Y-149223782D01*
X139608470Y-149303622D01*
X139805740Y-149348260D01*
X140007842Y-149356200D01*
X140061377Y-149348438D01*
X140203519Y-149327829D01*
X140203522Y-149327828D01*
X140208007Y-149327178D01*
X140303769Y-149294671D01*
X140395234Y-149263623D01*
X140395237Y-149263621D01*
X140399531Y-149262164D01*
X140576001Y-149163337D01*
X140731505Y-149034005D01*
X140860837Y-148878501D01*
X140959664Y-148702031D01*
X140975282Y-148656024D01*
X141005736Y-148566307D01*
X141024678Y-148510507D01*
X141053700Y-148310342D01*
X141054925Y-148263586D01*
X141055139Y-148255413D01*
X141055139Y-148255408D01*
X141055215Y-148252500D01*
X141054680Y-148246672D01*
X141052557Y-148223569D01*
X141385164Y-148223569D01*
X141398392Y-148425394D01*
X141399508Y-148429787D01*
X141399508Y-148429789D01*
X141421099Y-148514804D01*
X141448178Y-148621428D01*
X141532856Y-148805107D01*
X141649588Y-148970280D01*
X141794466Y-149111413D01*
X141962637Y-149223782D01*
X142148470Y-149303622D01*
X142345740Y-149348260D01*
X142547842Y-149356200D01*
X142601377Y-149348438D01*
X142743519Y-149327829D01*
X142743522Y-149327828D01*
X142748007Y-149327178D01*
X142843769Y-149294671D01*
X142935234Y-149263623D01*
X142935237Y-149263621D01*
X142939531Y-149262164D01*
X143116001Y-149163337D01*
X143271505Y-149034005D01*
X143400837Y-148878501D01*
X143499664Y-148702031D01*
X143515282Y-148656024D01*
X143545736Y-148566307D01*
X143564678Y-148510507D01*
X143593700Y-148310342D01*
X143594925Y-148263586D01*
X143595139Y-148255413D01*
X143595139Y-148255408D01*
X143595215Y-148252500D01*
X143594680Y-148246672D01*
X143592557Y-148223569D01*
X143925164Y-148223569D01*
X143938392Y-148425394D01*
X143939508Y-148429787D01*
X143939508Y-148429789D01*
X143961099Y-148514804D01*
X143988178Y-148621428D01*
X144072856Y-148805107D01*
X144189588Y-148970280D01*
X144334466Y-149111413D01*
X144502637Y-149223782D01*
X144688470Y-149303622D01*
X144885740Y-149348260D01*
X145087842Y-149356200D01*
X145141377Y-149348438D01*
X145283519Y-149327829D01*
X145283522Y-149327828D01*
X145288007Y-149327178D01*
X145383769Y-149294671D01*
X145475234Y-149263623D01*
X145475237Y-149263621D01*
X145479531Y-149262164D01*
X145656001Y-149163337D01*
X145811505Y-149034005D01*
X145940837Y-148878501D01*
X146039664Y-148702031D01*
X146055282Y-148656024D01*
X146085736Y-148566307D01*
X146104678Y-148510507D01*
X146133700Y-148310342D01*
X146134925Y-148263586D01*
X146135139Y-148255413D01*
X146135139Y-148255408D01*
X146135215Y-148252500D01*
X146134680Y-148246672D01*
X146132557Y-148223569D01*
X146465164Y-148223569D01*
X146478392Y-148425394D01*
X146479508Y-148429787D01*
X146479508Y-148429789D01*
X146501099Y-148514804D01*
X146528178Y-148621428D01*
X146612856Y-148805107D01*
X146729588Y-148970280D01*
X146874466Y-149111413D01*
X147042637Y-149223782D01*
X147228470Y-149303622D01*
X147425740Y-149348260D01*
X147627842Y-149356200D01*
X147681377Y-149348438D01*
X147823519Y-149327829D01*
X147823522Y-149327828D01*
X147828007Y-149327178D01*
X147923769Y-149294671D01*
X148015234Y-149263623D01*
X148015237Y-149263621D01*
X148019531Y-149262164D01*
X148196001Y-149163337D01*
X148351505Y-149034005D01*
X148480837Y-148878501D01*
X148579664Y-148702031D01*
X148595282Y-148656024D01*
X148625736Y-148566307D01*
X148644678Y-148510507D01*
X148673700Y-148310342D01*
X148674925Y-148263586D01*
X148675139Y-148255413D01*
X148675139Y-148255408D01*
X148675215Y-148252500D01*
X148674680Y-148246672D01*
X148672557Y-148223569D01*
X149005164Y-148223569D01*
X149018392Y-148425394D01*
X149019508Y-148429787D01*
X149019508Y-148429789D01*
X149041099Y-148514804D01*
X149068178Y-148621428D01*
X149152856Y-148805107D01*
X149269588Y-148970280D01*
X149414466Y-149111413D01*
X149582637Y-149223782D01*
X149768470Y-149303622D01*
X149965740Y-149348260D01*
X150167842Y-149356200D01*
X150221377Y-149348438D01*
X150363519Y-149327829D01*
X150363522Y-149327828D01*
X150368007Y-149327178D01*
X150463769Y-149294671D01*
X150555234Y-149263623D01*
X150555237Y-149263621D01*
X150559531Y-149262164D01*
X150736001Y-149163337D01*
X150891505Y-149034005D01*
X151020837Y-148878501D01*
X151119664Y-148702031D01*
X151135282Y-148656024D01*
X151165736Y-148566307D01*
X151184678Y-148510507D01*
X151213700Y-148310342D01*
X151214925Y-148263586D01*
X151215139Y-148255413D01*
X151215139Y-148255408D01*
X151215215Y-148252500D01*
X151214680Y-148246672D01*
X151212557Y-148223569D01*
X151545164Y-148223569D01*
X151558392Y-148425394D01*
X151559508Y-148429787D01*
X151559508Y-148429789D01*
X151581099Y-148514804D01*
X151608178Y-148621428D01*
X151692856Y-148805107D01*
X151809588Y-148970280D01*
X151954466Y-149111413D01*
X152122637Y-149223782D01*
X152308470Y-149303622D01*
X152505740Y-149348260D01*
X152707842Y-149356200D01*
X152761377Y-149348438D01*
X152903519Y-149327829D01*
X152903522Y-149327828D01*
X152908007Y-149327178D01*
X153003769Y-149294671D01*
X153095234Y-149263623D01*
X153095237Y-149263621D01*
X153099531Y-149262164D01*
X153276001Y-149163337D01*
X153431505Y-149034005D01*
X153560837Y-148878501D01*
X153659664Y-148702031D01*
X153675282Y-148656024D01*
X153705736Y-148566307D01*
X153724678Y-148510507D01*
X153753700Y-148310342D01*
X153754925Y-148263586D01*
X153755139Y-148255413D01*
X153755139Y-148255408D01*
X153755215Y-148252500D01*
X153754680Y-148246672D01*
X153752557Y-148223569D01*
X154085164Y-148223569D01*
X154098392Y-148425394D01*
X154099508Y-148429787D01*
X154099508Y-148429789D01*
X154121099Y-148514804D01*
X154148178Y-148621428D01*
X154232856Y-148805107D01*
X154349588Y-148970280D01*
X154494466Y-149111413D01*
X154662637Y-149223782D01*
X154848470Y-149303622D01*
X155045740Y-149348260D01*
X155247842Y-149356200D01*
X155301377Y-149348438D01*
X155443519Y-149327829D01*
X155443522Y-149327828D01*
X155448007Y-149327178D01*
X155543769Y-149294671D01*
X155635234Y-149263623D01*
X155635237Y-149263621D01*
X155639531Y-149262164D01*
X155816001Y-149163337D01*
X155971505Y-149034005D01*
X156100837Y-148878501D01*
X156199664Y-148702031D01*
X156230588Y-148610932D01*
X156267197Y-148561907D01*
X156325630Y-148543763D01*
X156383568Y-148563431D01*
X156418881Y-148613397D01*
X156420912Y-148620990D01*
X156428807Y-148656024D01*
X156431231Y-148663758D01*
X156512183Y-148863120D01*
X156515840Y-148870360D01*
X156597732Y-149003996D01*
X156607419Y-149012269D01*
X156615605Y-149007685D01*
X157359704Y-148263586D01*
X157364946Y-148253297D01*
X158094242Y-148253297D01*
X158095038Y-148258328D01*
X158842200Y-149005490D01*
X158854083Y-149011544D01*
X158855028Y-149011395D01*
X158860201Y-149006953D01*
X158895649Y-148957621D01*
X158899822Y-148950676D01*
X158995164Y-148757768D01*
X158998144Y-148750244D01*
X159038103Y-148618722D01*
X159073110Y-148568541D01*
X159130928Y-148548520D01*
X159189471Y-148566307D01*
X159226150Y-148614456D01*
X159227060Y-148617025D01*
X159228178Y-148621428D01*
X159312856Y-148805107D01*
X159429588Y-148970280D01*
X159574466Y-149111413D01*
X159742637Y-149223782D01*
X159928470Y-149303622D01*
X160125740Y-149348260D01*
X160327842Y-149356200D01*
X160381377Y-149348438D01*
X160523519Y-149327829D01*
X160523522Y-149327828D01*
X160528007Y-149327178D01*
X160623769Y-149294671D01*
X160715234Y-149263623D01*
X160715237Y-149263621D01*
X160719531Y-149262164D01*
X160896001Y-149163337D01*
X161051505Y-149034005D01*
X161180837Y-148878501D01*
X161279664Y-148702031D01*
X161295282Y-148656024D01*
X161325736Y-148566307D01*
X161344678Y-148510507D01*
X161373700Y-148310342D01*
X161374925Y-148263586D01*
X161375139Y-148255413D01*
X161375139Y-148255408D01*
X161375215Y-148252500D01*
X161374680Y-148246672D01*
X161372557Y-148223569D01*
X161705164Y-148223569D01*
X161718392Y-148425394D01*
X161719508Y-148429787D01*
X161719508Y-148429789D01*
X161741099Y-148514804D01*
X161768178Y-148621428D01*
X161852856Y-148805107D01*
X161969588Y-148970280D01*
X162114466Y-149111413D01*
X162282637Y-149223782D01*
X162468470Y-149303622D01*
X162665740Y-149348260D01*
X162867842Y-149356200D01*
X162921377Y-149348438D01*
X163063519Y-149327829D01*
X163063522Y-149327828D01*
X163068007Y-149327178D01*
X163163769Y-149294671D01*
X163255234Y-149263623D01*
X163255237Y-149263621D01*
X163259531Y-149262164D01*
X163436001Y-149163337D01*
X163591505Y-149034005D01*
X163720837Y-148878501D01*
X163819664Y-148702031D01*
X163835282Y-148656024D01*
X163865736Y-148566307D01*
X163884678Y-148510507D01*
X163913700Y-148310342D01*
X163914925Y-148263586D01*
X163915139Y-148255413D01*
X163915139Y-148255408D01*
X163915215Y-148252500D01*
X163914680Y-148246672D01*
X163912557Y-148223569D01*
X164245164Y-148223569D01*
X164258392Y-148425394D01*
X164259508Y-148429787D01*
X164259508Y-148429789D01*
X164281099Y-148514804D01*
X164308178Y-148621428D01*
X164392856Y-148805107D01*
X164509588Y-148970280D01*
X164654466Y-149111413D01*
X164822637Y-149223782D01*
X165008470Y-149303622D01*
X165205740Y-149348260D01*
X165407842Y-149356200D01*
X165461377Y-149348438D01*
X165603519Y-149327829D01*
X165603522Y-149327828D01*
X165608007Y-149327178D01*
X165703769Y-149294671D01*
X165795234Y-149263623D01*
X165795237Y-149263621D01*
X165799531Y-149262164D01*
X165976001Y-149163337D01*
X166131505Y-149034005D01*
X166260837Y-148878501D01*
X166359664Y-148702031D01*
X166375282Y-148656024D01*
X166405736Y-148566307D01*
X166424678Y-148510507D01*
X166453700Y-148310342D01*
X166454925Y-148263586D01*
X166455139Y-148255413D01*
X166455139Y-148255408D01*
X166455215Y-148252500D01*
X166454680Y-148246672D01*
X166452557Y-148223569D01*
X166785164Y-148223569D01*
X166798392Y-148425394D01*
X166799508Y-148429787D01*
X166799508Y-148429789D01*
X166821099Y-148514804D01*
X166848178Y-148621428D01*
X166932856Y-148805107D01*
X167049588Y-148970280D01*
X167194466Y-149111413D01*
X167362637Y-149223782D01*
X167548470Y-149303622D01*
X167745740Y-149348260D01*
X167947842Y-149356200D01*
X168001377Y-149348438D01*
X168143519Y-149327829D01*
X168143522Y-149327828D01*
X168148007Y-149327178D01*
X168243769Y-149294671D01*
X168335234Y-149263623D01*
X168335237Y-149263621D01*
X168339531Y-149262164D01*
X168516001Y-149163337D01*
X168671505Y-149034005D01*
X168800837Y-148878501D01*
X168899664Y-148702031D01*
X168915282Y-148656024D01*
X168945736Y-148566307D01*
X168964678Y-148510507D01*
X168993700Y-148310342D01*
X168994925Y-148263586D01*
X168995139Y-148255413D01*
X168995139Y-148255408D01*
X168995215Y-148252500D01*
X168994680Y-148246672D01*
X168992557Y-148223569D01*
X169325164Y-148223569D01*
X169338392Y-148425394D01*
X169339508Y-148429787D01*
X169339508Y-148429789D01*
X169361099Y-148514804D01*
X169388178Y-148621428D01*
X169472856Y-148805107D01*
X169589588Y-148970280D01*
X169734466Y-149111413D01*
X169902637Y-149223782D01*
X170088470Y-149303622D01*
X170285740Y-149348260D01*
X170487842Y-149356200D01*
X170541377Y-149348438D01*
X170683519Y-149327829D01*
X170683522Y-149327828D01*
X170688007Y-149327178D01*
X170783769Y-149294671D01*
X170875234Y-149263623D01*
X170875237Y-149263621D01*
X170879531Y-149262164D01*
X171056001Y-149163337D01*
X171211505Y-149034005D01*
X171340837Y-148878501D01*
X171439664Y-148702031D01*
X171455282Y-148656024D01*
X171485736Y-148566307D01*
X171504678Y-148510507D01*
X171533700Y-148310342D01*
X171534925Y-148263586D01*
X171535139Y-148255413D01*
X171535139Y-148255408D01*
X171535215Y-148252500D01*
X171534680Y-148246672D01*
X171532557Y-148223569D01*
X171865164Y-148223569D01*
X171878392Y-148425394D01*
X171879508Y-148429787D01*
X171879508Y-148429789D01*
X171901099Y-148514804D01*
X171928178Y-148621428D01*
X172012856Y-148805107D01*
X172129588Y-148970280D01*
X172274466Y-149111413D01*
X172442637Y-149223782D01*
X172628470Y-149303622D01*
X172825740Y-149348260D01*
X173027842Y-149356200D01*
X173081377Y-149348438D01*
X173223519Y-149327829D01*
X173223522Y-149327828D01*
X173228007Y-149327178D01*
X173323769Y-149294671D01*
X173415234Y-149263623D01*
X173415237Y-149263621D01*
X173419531Y-149262164D01*
X173596001Y-149163337D01*
X173751505Y-149034005D01*
X173880837Y-148878501D01*
X173979664Y-148702031D01*
X173995282Y-148656024D01*
X174025736Y-148566307D01*
X174044678Y-148510507D01*
X174073700Y-148310342D01*
X174074925Y-148263586D01*
X174075139Y-148255413D01*
X174075139Y-148255408D01*
X174075215Y-148252500D01*
X174074680Y-148246672D01*
X174072557Y-148223569D01*
X174405164Y-148223569D01*
X174418392Y-148425394D01*
X174419508Y-148429787D01*
X174419508Y-148429789D01*
X174441099Y-148514804D01*
X174468178Y-148621428D01*
X174552856Y-148805107D01*
X174669588Y-148970280D01*
X174814466Y-149111413D01*
X174982637Y-149223782D01*
X175168470Y-149303622D01*
X175365740Y-149348260D01*
X175567842Y-149356200D01*
X175621377Y-149348438D01*
X175763519Y-149327829D01*
X175763522Y-149327828D01*
X175768007Y-149327178D01*
X175863769Y-149294671D01*
X175955234Y-149263623D01*
X175955237Y-149263621D01*
X175959531Y-149262164D01*
X176136001Y-149163337D01*
X176291505Y-149034005D01*
X176420837Y-148878501D01*
X176519664Y-148702031D01*
X176550588Y-148610932D01*
X176587197Y-148561907D01*
X176645630Y-148543763D01*
X176703568Y-148563431D01*
X176738881Y-148613397D01*
X176740912Y-148620990D01*
X176748807Y-148656024D01*
X176751231Y-148663758D01*
X176832183Y-148863120D01*
X176835840Y-148870360D01*
X176917732Y-149003996D01*
X176927419Y-149012269D01*
X176935605Y-149007685D01*
X177679704Y-148263586D01*
X177684946Y-148253297D01*
X178414242Y-148253297D01*
X178415038Y-148258328D01*
X179162200Y-149005490D01*
X179174083Y-149011544D01*
X179175028Y-149011395D01*
X179180201Y-149006953D01*
X179215649Y-148957621D01*
X179219822Y-148950676D01*
X179315164Y-148757768D01*
X179318144Y-148750244D01*
X179358103Y-148618722D01*
X179393110Y-148568541D01*
X179450928Y-148548520D01*
X179509471Y-148566307D01*
X179546150Y-148614456D01*
X179547060Y-148617025D01*
X179548178Y-148621428D01*
X179632856Y-148805107D01*
X179749588Y-148970280D01*
X179894466Y-149111413D01*
X180062637Y-149223782D01*
X180248470Y-149303622D01*
X180445740Y-149348260D01*
X180647842Y-149356200D01*
X180701377Y-149348438D01*
X180843519Y-149327829D01*
X180843522Y-149327828D01*
X180848007Y-149327178D01*
X180943769Y-149294671D01*
X181035234Y-149263623D01*
X181035237Y-149263621D01*
X181039531Y-149262164D01*
X181216001Y-149163337D01*
X181371505Y-149034005D01*
X181500837Y-148878501D01*
X181599664Y-148702031D01*
X181615282Y-148656024D01*
X181645736Y-148566307D01*
X181664678Y-148510507D01*
X181693700Y-148310342D01*
X181694925Y-148263586D01*
X181695139Y-148255413D01*
X181695139Y-148255408D01*
X181695215Y-148252500D01*
X181694680Y-148246672D01*
X181692557Y-148223569D01*
X182025164Y-148223569D01*
X182038392Y-148425394D01*
X182039508Y-148429787D01*
X182039508Y-148429789D01*
X182061099Y-148514804D01*
X182088178Y-148621428D01*
X182172856Y-148805107D01*
X182289588Y-148970280D01*
X182434466Y-149111413D01*
X182602637Y-149223782D01*
X182788470Y-149303622D01*
X182985740Y-149348260D01*
X183187842Y-149356200D01*
X183241377Y-149348438D01*
X183383519Y-149327829D01*
X183383522Y-149327828D01*
X183388007Y-149327178D01*
X183483769Y-149294671D01*
X183575234Y-149263623D01*
X183575237Y-149263621D01*
X183579531Y-149262164D01*
X183756001Y-149163337D01*
X183911505Y-149034005D01*
X184040837Y-148878501D01*
X184139664Y-148702031D01*
X184155282Y-148656024D01*
X184185736Y-148566307D01*
X184204678Y-148510507D01*
X184233700Y-148310342D01*
X184234925Y-148263586D01*
X184235139Y-148255413D01*
X184235139Y-148255408D01*
X184235215Y-148252500D01*
X184234680Y-148246672D01*
X184217123Y-148055609D01*
X184216708Y-148051091D01*
X184161807Y-147856426D01*
X184135802Y-147803692D01*
X184074359Y-147679099D01*
X184072351Y-147675027D01*
X183951335Y-147512967D01*
X183802812Y-147375674D01*
X183780125Y-147361359D01*
X183635594Y-147270167D01*
X183631757Y-147267746D01*
X183443898Y-147192798D01*
X183245526Y-147153339D01*
X183145930Y-147152035D01*
X183047826Y-147150751D01*
X183047821Y-147150751D01*
X183043286Y-147150692D01*
X183038813Y-147151461D01*
X183038808Y-147151461D01*
X182942494Y-147168011D01*
X182843949Y-147184944D01*
X182654193Y-147254949D01*
X182480371Y-147358362D01*
X182476956Y-147361357D01*
X182476953Y-147361359D01*
X182460630Y-147375674D01*
X182328305Y-147491720D01*
X182325497Y-147495282D01*
X182233250Y-147612298D01*
X182203089Y-147650557D01*
X182108914Y-147829553D01*
X182107569Y-147833884D01*
X182107568Y-147833887D01*
X182050585Y-148017407D01*
X182048937Y-148022713D01*
X182025164Y-148223569D01*
X181692557Y-148223569D01*
X181677123Y-148055609D01*
X181676708Y-148051091D01*
X181621807Y-147856426D01*
X181595802Y-147803692D01*
X181534359Y-147679099D01*
X181532351Y-147675027D01*
X181411335Y-147512967D01*
X181262812Y-147375674D01*
X181240125Y-147361359D01*
X181095594Y-147270167D01*
X181091757Y-147267746D01*
X180903898Y-147192798D01*
X180705526Y-147153339D01*
X180605930Y-147152035D01*
X180507826Y-147150751D01*
X180507821Y-147150751D01*
X180503286Y-147150692D01*
X180498813Y-147151461D01*
X180498808Y-147151461D01*
X180402494Y-147168011D01*
X180303949Y-147184944D01*
X180114193Y-147254949D01*
X179940371Y-147358362D01*
X179936956Y-147361357D01*
X179936953Y-147361359D01*
X179920630Y-147375674D01*
X179788305Y-147491720D01*
X179785497Y-147495282D01*
X179693250Y-147612298D01*
X179663089Y-147650557D01*
X179568914Y-147829553D01*
X179550501Y-147888855D01*
X179549210Y-147893012D01*
X179513898Y-147942979D01*
X179455960Y-147962647D01*
X179397526Y-147944503D01*
X179360917Y-147895478D01*
X179358646Y-147887773D01*
X179340946Y-147817309D01*
X179338333Y-147809633D01*
X179252530Y-147612298D01*
X179248710Y-147605172D01*
X179181740Y-147501653D01*
X179171549Y-147493371D01*
X179163975Y-147497735D01*
X178420296Y-148241414D01*
X178414242Y-148253297D01*
X177684946Y-148253297D01*
X177685758Y-148251703D01*
X177684962Y-148246672D01*
X176938123Y-147499833D01*
X176926240Y-147493779D01*
X176925941Y-147493826D01*
X176920015Y-147499042D01*
X176867466Y-147576075D01*
X176863468Y-147583113D01*
X176772871Y-147778290D01*
X176770073Y-147785894D01*
X176741635Y-147888438D01*
X176707865Y-147939459D01*
X176650554Y-147960887D01*
X176591594Y-147944536D01*
X176553505Y-147896652D01*
X176550953Y-147888855D01*
X176543039Y-147860794D01*
X176543039Y-147860793D01*
X176541807Y-147856426D01*
X176515802Y-147803692D01*
X176454359Y-147679099D01*
X176452351Y-147675027D01*
X176331335Y-147512967D01*
X176182812Y-147375674D01*
X176160125Y-147361359D01*
X176015594Y-147270167D01*
X176011757Y-147267746D01*
X175823898Y-147192798D01*
X175625526Y-147153339D01*
X175525930Y-147152035D01*
X175427826Y-147150751D01*
X175427821Y-147150751D01*
X175423286Y-147150692D01*
X175418813Y-147151461D01*
X175418808Y-147151461D01*
X175322494Y-147168011D01*
X175223949Y-147184944D01*
X175034193Y-147254949D01*
X174860371Y-147358362D01*
X174856956Y-147361357D01*
X174856953Y-147361359D01*
X174840630Y-147375674D01*
X174708305Y-147491720D01*
X174705497Y-147495282D01*
X174613250Y-147612298D01*
X174583089Y-147650557D01*
X174488914Y-147829553D01*
X174487569Y-147833884D01*
X174487568Y-147833887D01*
X174430585Y-148017407D01*
X174428937Y-148022713D01*
X174405164Y-148223569D01*
X174072557Y-148223569D01*
X174057123Y-148055609D01*
X174056708Y-148051091D01*
X174001807Y-147856426D01*
X173975802Y-147803692D01*
X173914359Y-147679099D01*
X173912351Y-147675027D01*
X173791335Y-147512967D01*
X173642812Y-147375674D01*
X173620125Y-147361359D01*
X173475594Y-147270167D01*
X173471757Y-147267746D01*
X173283898Y-147192798D01*
X173085526Y-147153339D01*
X172985930Y-147152035D01*
X172887826Y-147150751D01*
X172887821Y-147150751D01*
X172883286Y-147150692D01*
X172878813Y-147151461D01*
X172878808Y-147151461D01*
X172782494Y-147168011D01*
X172683949Y-147184944D01*
X172494193Y-147254949D01*
X172320371Y-147358362D01*
X172316956Y-147361357D01*
X172316953Y-147361359D01*
X172300630Y-147375674D01*
X172168305Y-147491720D01*
X172165497Y-147495282D01*
X172073250Y-147612298D01*
X172043089Y-147650557D01*
X171948914Y-147829553D01*
X171947569Y-147833884D01*
X171947568Y-147833887D01*
X171890585Y-148017407D01*
X171888937Y-148022713D01*
X171865164Y-148223569D01*
X171532557Y-148223569D01*
X171517123Y-148055609D01*
X171516708Y-148051091D01*
X171461807Y-147856426D01*
X171435802Y-147803692D01*
X171374359Y-147679099D01*
X171372351Y-147675027D01*
X171251335Y-147512967D01*
X171102812Y-147375674D01*
X171080125Y-147361359D01*
X170935594Y-147270167D01*
X170931757Y-147267746D01*
X170743898Y-147192798D01*
X170545526Y-147153339D01*
X170445930Y-147152035D01*
X170347826Y-147150751D01*
X170347821Y-147150751D01*
X170343286Y-147150692D01*
X170338813Y-147151461D01*
X170338808Y-147151461D01*
X170242494Y-147168011D01*
X170143949Y-147184944D01*
X169954193Y-147254949D01*
X169780371Y-147358362D01*
X169776956Y-147361357D01*
X169776953Y-147361359D01*
X169760630Y-147375674D01*
X169628305Y-147491720D01*
X169625497Y-147495282D01*
X169533250Y-147612298D01*
X169503089Y-147650557D01*
X169408914Y-147829553D01*
X169407569Y-147833884D01*
X169407568Y-147833887D01*
X169350585Y-148017407D01*
X169348937Y-148022713D01*
X169325164Y-148223569D01*
X168992557Y-148223569D01*
X168977123Y-148055609D01*
X168976708Y-148051091D01*
X168921807Y-147856426D01*
X168895802Y-147803692D01*
X168834359Y-147679099D01*
X168832351Y-147675027D01*
X168711335Y-147512967D01*
X168562812Y-147375674D01*
X168540125Y-147361359D01*
X168395594Y-147270167D01*
X168391757Y-147267746D01*
X168252374Y-147212138D01*
X168243539Y-147208613D01*
X168196497Y-147169489D01*
X168181436Y-147110186D01*
X168204109Y-147053357D01*
X168251775Y-147021837D01*
X168383304Y-146982376D01*
X168390852Y-146979418D01*
X168584090Y-146884752D01*
X168591045Y-146880605D01*
X168641229Y-146844809D01*
X168649163Y-146834087D01*
X168649170Y-146833224D01*
X168645554Y-146827264D01*
X167901086Y-146082796D01*
X167889203Y-146076742D01*
X167884172Y-146077538D01*
X167135011Y-146826699D01*
X167129387Y-146837738D01*
X167136207Y-146844962D01*
X167297713Y-146939338D01*
X167305008Y-146942834D01*
X167506038Y-147019599D01*
X167513811Y-147021858D01*
X167515714Y-147022245D01*
X167516316Y-147022586D01*
X167517718Y-147022993D01*
X167517622Y-147023324D01*
X167568966Y-147052377D01*
X167594336Y-147108055D01*
X167582135Y-147168011D01*
X167537022Y-147209345D01*
X167530237Y-147212138D01*
X167418455Y-147253376D01*
X167418451Y-147253378D01*
X167414193Y-147254949D01*
X167240371Y-147358362D01*
X167236956Y-147361357D01*
X167236953Y-147361359D01*
X167220630Y-147375674D01*
X167088305Y-147491720D01*
X167085497Y-147495282D01*
X166993250Y-147612298D01*
X166963089Y-147650557D01*
X166868914Y-147829553D01*
X166867569Y-147833884D01*
X166867568Y-147833887D01*
X166810585Y-148017407D01*
X166808937Y-148022713D01*
X166785164Y-148223569D01*
X166452557Y-148223569D01*
X166437123Y-148055609D01*
X166436708Y-148051091D01*
X166381807Y-147856426D01*
X166355802Y-147803692D01*
X166294359Y-147679099D01*
X166292351Y-147675027D01*
X166171335Y-147512967D01*
X166022812Y-147375674D01*
X166000125Y-147361359D01*
X165855594Y-147270167D01*
X165851757Y-147267746D01*
X165663898Y-147192798D01*
X165465526Y-147153339D01*
X165365930Y-147152035D01*
X165267826Y-147150751D01*
X165267821Y-147150751D01*
X165263286Y-147150692D01*
X165258813Y-147151461D01*
X165258808Y-147151461D01*
X165162494Y-147168011D01*
X165063949Y-147184944D01*
X164874193Y-147254949D01*
X164700371Y-147358362D01*
X164696956Y-147361357D01*
X164696953Y-147361359D01*
X164680630Y-147375674D01*
X164548305Y-147491720D01*
X164545497Y-147495282D01*
X164453250Y-147612298D01*
X164423089Y-147650557D01*
X164328914Y-147829553D01*
X164327569Y-147833884D01*
X164327568Y-147833887D01*
X164270585Y-148017407D01*
X164268937Y-148022713D01*
X164245164Y-148223569D01*
X163912557Y-148223569D01*
X163897123Y-148055609D01*
X163896708Y-148051091D01*
X163841807Y-147856426D01*
X163815802Y-147803692D01*
X163754359Y-147679099D01*
X163752351Y-147675027D01*
X163631335Y-147512967D01*
X163482812Y-147375674D01*
X163460125Y-147361359D01*
X163315594Y-147270167D01*
X163311757Y-147267746D01*
X163123898Y-147192798D01*
X162925526Y-147153339D01*
X162825930Y-147152035D01*
X162727826Y-147150751D01*
X162727821Y-147150751D01*
X162723286Y-147150692D01*
X162718813Y-147151461D01*
X162718808Y-147151461D01*
X162622494Y-147168011D01*
X162523949Y-147184944D01*
X162334193Y-147254949D01*
X162160371Y-147358362D01*
X162156956Y-147361357D01*
X162156953Y-147361359D01*
X162140630Y-147375674D01*
X162008305Y-147491720D01*
X162005497Y-147495282D01*
X161913250Y-147612298D01*
X161883089Y-147650557D01*
X161788914Y-147829553D01*
X161787569Y-147833884D01*
X161787568Y-147833887D01*
X161730585Y-148017407D01*
X161728937Y-148022713D01*
X161705164Y-148223569D01*
X161372557Y-148223569D01*
X161357123Y-148055609D01*
X161356708Y-148051091D01*
X161301807Y-147856426D01*
X161275802Y-147803692D01*
X161214359Y-147679099D01*
X161212351Y-147675027D01*
X161091335Y-147512967D01*
X160942812Y-147375674D01*
X160920125Y-147361359D01*
X160775594Y-147270167D01*
X160771757Y-147267746D01*
X160583898Y-147192798D01*
X160385526Y-147153339D01*
X160285930Y-147152035D01*
X160187826Y-147150751D01*
X160187821Y-147150751D01*
X160183286Y-147150692D01*
X160178813Y-147151461D01*
X160178808Y-147151461D01*
X160082494Y-147168011D01*
X159983949Y-147184944D01*
X159794193Y-147254949D01*
X159620371Y-147358362D01*
X159616956Y-147361357D01*
X159616953Y-147361359D01*
X159600630Y-147375674D01*
X159468305Y-147491720D01*
X159465497Y-147495282D01*
X159373250Y-147612298D01*
X159343089Y-147650557D01*
X159248914Y-147829553D01*
X159230501Y-147888855D01*
X159229210Y-147893012D01*
X159193898Y-147942979D01*
X159135960Y-147962647D01*
X159077526Y-147944503D01*
X159040917Y-147895478D01*
X159038646Y-147887773D01*
X159020946Y-147817309D01*
X159018333Y-147809633D01*
X158932530Y-147612298D01*
X158928710Y-147605172D01*
X158861740Y-147501653D01*
X158851549Y-147493371D01*
X158843975Y-147497735D01*
X158100296Y-148241414D01*
X158094242Y-148253297D01*
X157364946Y-148253297D01*
X157365758Y-148251703D01*
X157364962Y-148246672D01*
X156618123Y-147499833D01*
X156606240Y-147493779D01*
X156605941Y-147493826D01*
X156600015Y-147499042D01*
X156547466Y-147576075D01*
X156543468Y-147583113D01*
X156452871Y-147778290D01*
X156450073Y-147785894D01*
X156421635Y-147888438D01*
X156387865Y-147939459D01*
X156330554Y-147960887D01*
X156271594Y-147944536D01*
X156233505Y-147896652D01*
X156230953Y-147888855D01*
X156223039Y-147860794D01*
X156223039Y-147860793D01*
X156221807Y-147856426D01*
X156195802Y-147803692D01*
X156134359Y-147679099D01*
X156132351Y-147675027D01*
X156011335Y-147512967D01*
X155862812Y-147375674D01*
X155840125Y-147361359D01*
X155695594Y-147270167D01*
X155691757Y-147267746D01*
X155503898Y-147192798D01*
X155305526Y-147153339D01*
X155205930Y-147152035D01*
X155107826Y-147150751D01*
X155107821Y-147150751D01*
X155103286Y-147150692D01*
X155098813Y-147151461D01*
X155098808Y-147151461D01*
X155002494Y-147168011D01*
X154903949Y-147184944D01*
X154714193Y-147254949D01*
X154540371Y-147358362D01*
X154536956Y-147361357D01*
X154536953Y-147361359D01*
X154520630Y-147375674D01*
X154388305Y-147491720D01*
X154385497Y-147495282D01*
X154293250Y-147612298D01*
X154263089Y-147650557D01*
X154168914Y-147829553D01*
X154167569Y-147833884D01*
X154167568Y-147833887D01*
X154110585Y-148017407D01*
X154108937Y-148022713D01*
X154085164Y-148223569D01*
X153752557Y-148223569D01*
X153737123Y-148055609D01*
X153736708Y-148051091D01*
X153681807Y-147856426D01*
X153655802Y-147803692D01*
X153594359Y-147679099D01*
X153592351Y-147675027D01*
X153471335Y-147512967D01*
X153322812Y-147375674D01*
X153300125Y-147361359D01*
X153155594Y-147270167D01*
X153151757Y-147267746D01*
X152963898Y-147192798D01*
X152765526Y-147153339D01*
X152665930Y-147152035D01*
X152567826Y-147150751D01*
X152567821Y-147150751D01*
X152563286Y-147150692D01*
X152558813Y-147151461D01*
X152558808Y-147151461D01*
X152462494Y-147168011D01*
X152363949Y-147184944D01*
X152174193Y-147254949D01*
X152000371Y-147358362D01*
X151996956Y-147361357D01*
X151996953Y-147361359D01*
X151980630Y-147375674D01*
X151848305Y-147491720D01*
X151845497Y-147495282D01*
X151753250Y-147612298D01*
X151723089Y-147650557D01*
X151628914Y-147829553D01*
X151627569Y-147833884D01*
X151627568Y-147833887D01*
X151570585Y-148017407D01*
X151568937Y-148022713D01*
X151545164Y-148223569D01*
X151212557Y-148223569D01*
X151197123Y-148055609D01*
X151196708Y-148051091D01*
X151141807Y-147856426D01*
X151115802Y-147803692D01*
X151054359Y-147679099D01*
X151052351Y-147675027D01*
X150931335Y-147512967D01*
X150782812Y-147375674D01*
X150760125Y-147361359D01*
X150615594Y-147270167D01*
X150611757Y-147267746D01*
X150423898Y-147192798D01*
X150225526Y-147153339D01*
X150125930Y-147152035D01*
X150027826Y-147150751D01*
X150027821Y-147150751D01*
X150023286Y-147150692D01*
X150018813Y-147151461D01*
X150018808Y-147151461D01*
X149922494Y-147168011D01*
X149823949Y-147184944D01*
X149634193Y-147254949D01*
X149460371Y-147358362D01*
X149456956Y-147361357D01*
X149456953Y-147361359D01*
X149440630Y-147375674D01*
X149308305Y-147491720D01*
X149305497Y-147495282D01*
X149213250Y-147612298D01*
X149183089Y-147650557D01*
X149088914Y-147829553D01*
X149087569Y-147833884D01*
X149087568Y-147833887D01*
X149030585Y-148017407D01*
X149028937Y-148022713D01*
X149005164Y-148223569D01*
X148672557Y-148223569D01*
X148657123Y-148055609D01*
X148656708Y-148051091D01*
X148601807Y-147856426D01*
X148575802Y-147803692D01*
X148514359Y-147679099D01*
X148512351Y-147675027D01*
X148391335Y-147512967D01*
X148242812Y-147375674D01*
X148220125Y-147361359D01*
X148075594Y-147270167D01*
X148071757Y-147267746D01*
X147883898Y-147192798D01*
X147685526Y-147153339D01*
X147585930Y-147152035D01*
X147487826Y-147150751D01*
X147487821Y-147150751D01*
X147483286Y-147150692D01*
X147478813Y-147151461D01*
X147478808Y-147151461D01*
X147382494Y-147168011D01*
X147283949Y-147184944D01*
X147094193Y-147254949D01*
X146920371Y-147358362D01*
X146916956Y-147361357D01*
X146916953Y-147361359D01*
X146900630Y-147375674D01*
X146768305Y-147491720D01*
X146765497Y-147495282D01*
X146673250Y-147612298D01*
X146643089Y-147650557D01*
X146548914Y-147829553D01*
X146547569Y-147833884D01*
X146547568Y-147833887D01*
X146490585Y-148017407D01*
X146488937Y-148022713D01*
X146465164Y-148223569D01*
X146132557Y-148223569D01*
X146117123Y-148055609D01*
X146116708Y-148051091D01*
X146061807Y-147856426D01*
X146035802Y-147803692D01*
X145974359Y-147679099D01*
X145972351Y-147675027D01*
X145851335Y-147512967D01*
X145702812Y-147375674D01*
X145680125Y-147361359D01*
X145535594Y-147270167D01*
X145531757Y-147267746D01*
X145392374Y-147212138D01*
X145383539Y-147208613D01*
X145336497Y-147169489D01*
X145321436Y-147110186D01*
X145344109Y-147053357D01*
X145391775Y-147021837D01*
X145523304Y-146982376D01*
X145530852Y-146979418D01*
X145724090Y-146884752D01*
X145731045Y-146880605D01*
X145781229Y-146844809D01*
X145789163Y-146834087D01*
X145789170Y-146833224D01*
X145785554Y-146827264D01*
X145041086Y-146082796D01*
X145029203Y-146076742D01*
X145024172Y-146077538D01*
X144275011Y-146826699D01*
X144269387Y-146837738D01*
X144276207Y-146844962D01*
X144437713Y-146939338D01*
X144445008Y-146942834D01*
X144646038Y-147019599D01*
X144653811Y-147021858D01*
X144655714Y-147022245D01*
X144656316Y-147022586D01*
X144657718Y-147022993D01*
X144657622Y-147023324D01*
X144708966Y-147052377D01*
X144734336Y-147108055D01*
X144722135Y-147168011D01*
X144677022Y-147209345D01*
X144670237Y-147212138D01*
X144558455Y-147253376D01*
X144558451Y-147253378D01*
X144554193Y-147254949D01*
X144380371Y-147358362D01*
X144376956Y-147361357D01*
X144376953Y-147361359D01*
X144360630Y-147375674D01*
X144228305Y-147491720D01*
X144225497Y-147495282D01*
X144133250Y-147612298D01*
X144103089Y-147650557D01*
X144008914Y-147829553D01*
X144007569Y-147833884D01*
X144007568Y-147833887D01*
X143950585Y-148017407D01*
X143948937Y-148022713D01*
X143925164Y-148223569D01*
X143592557Y-148223569D01*
X143577123Y-148055609D01*
X143576708Y-148051091D01*
X143521807Y-147856426D01*
X143495802Y-147803692D01*
X143434359Y-147679099D01*
X143432351Y-147675027D01*
X143311335Y-147512967D01*
X143162812Y-147375674D01*
X143140125Y-147361359D01*
X142995594Y-147270167D01*
X142991757Y-147267746D01*
X142803898Y-147192798D01*
X142605526Y-147153339D01*
X142505930Y-147152035D01*
X142407826Y-147150751D01*
X142407821Y-147150751D01*
X142403286Y-147150692D01*
X142398813Y-147151461D01*
X142398808Y-147151461D01*
X142302494Y-147168011D01*
X142203949Y-147184944D01*
X142014193Y-147254949D01*
X141840371Y-147358362D01*
X141836956Y-147361357D01*
X141836953Y-147361359D01*
X141820630Y-147375674D01*
X141688305Y-147491720D01*
X141685497Y-147495282D01*
X141593250Y-147612298D01*
X141563089Y-147650557D01*
X141468914Y-147829553D01*
X141467569Y-147833884D01*
X141467568Y-147833887D01*
X141410585Y-148017407D01*
X141408937Y-148022713D01*
X141385164Y-148223569D01*
X141052557Y-148223569D01*
X141037123Y-148055609D01*
X141036708Y-148051091D01*
X140981807Y-147856426D01*
X140955802Y-147803692D01*
X140894359Y-147679099D01*
X140892351Y-147675027D01*
X140771335Y-147512967D01*
X140622812Y-147375674D01*
X140600125Y-147361359D01*
X140455594Y-147270167D01*
X140451757Y-147267746D01*
X140263898Y-147192798D01*
X140065526Y-147153339D01*
X139965930Y-147152035D01*
X139867826Y-147150751D01*
X139867821Y-147150751D01*
X139863286Y-147150692D01*
X139858813Y-147151461D01*
X139858808Y-147151461D01*
X139762494Y-147168011D01*
X139663949Y-147184944D01*
X139474193Y-147254949D01*
X139300371Y-147358362D01*
X139296956Y-147361357D01*
X139296953Y-147361359D01*
X139280630Y-147375674D01*
X139148305Y-147491720D01*
X139145497Y-147495282D01*
X139053250Y-147612298D01*
X139023089Y-147650557D01*
X138928914Y-147829553D01*
X138927569Y-147833884D01*
X138927568Y-147833887D01*
X138870585Y-148017407D01*
X138868937Y-148022713D01*
X138845164Y-148223569D01*
X138512557Y-148223569D01*
X138497123Y-148055609D01*
X138496708Y-148051091D01*
X138441807Y-147856426D01*
X138415802Y-147803692D01*
X138354359Y-147679099D01*
X138352351Y-147675027D01*
X138231335Y-147512967D01*
X138082812Y-147375674D01*
X138060125Y-147361359D01*
X137915594Y-147270167D01*
X137911757Y-147267746D01*
X137723898Y-147192798D01*
X137525526Y-147153339D01*
X137425930Y-147152035D01*
X137327826Y-147150751D01*
X137327821Y-147150751D01*
X137323286Y-147150692D01*
X137318813Y-147151461D01*
X137318808Y-147151461D01*
X137222494Y-147168011D01*
X137123949Y-147184944D01*
X136934193Y-147254949D01*
X136760371Y-147358362D01*
X136756956Y-147361357D01*
X136756953Y-147361359D01*
X136740630Y-147375674D01*
X136608305Y-147491720D01*
X136605497Y-147495282D01*
X136513250Y-147612298D01*
X136483089Y-147650557D01*
X136480975Y-147654575D01*
X136414613Y-147780707D01*
X136370785Y-147823402D01*
X136310233Y-147832181D01*
X136256085Y-147803692D01*
X136229023Y-147748816D01*
X136227999Y-147734611D01*
X136227999Y-147604708D01*
X136227733Y-147599578D01*
X136217591Y-147501827D01*
X136215318Y-147491300D01*
X136162914Y-147334223D01*
X136158067Y-147323876D01*
X136071109Y-147183355D01*
X136064013Y-147174402D01*
X135947061Y-147057653D01*
X135938096Y-147050573D01*
X135797420Y-146963859D01*
X135787066Y-146959031D01*
X135629890Y-146906898D01*
X135619379Y-146904645D01*
X135522888Y-146894759D01*
X135517830Y-146894500D01*
X135391190Y-146894500D01*
X135332999Y-146875593D01*
X135297035Y-146826093D01*
X135297035Y-146764907D01*
X135332999Y-146715407D01*
X135342813Y-146709126D01*
X135496001Y-146623337D01*
X135651505Y-146494005D01*
X135780837Y-146338501D01*
X135879664Y-146162031D01*
X135895282Y-146116024D01*
X135925736Y-146026307D01*
X135944678Y-145970507D01*
X135973700Y-145770342D01*
X135974925Y-145723586D01*
X135975139Y-145715413D01*
X135975139Y-145715408D01*
X135975215Y-145712500D01*
X135974680Y-145706672D01*
X135972557Y-145683569D01*
X136305164Y-145683569D01*
X136318392Y-145885394D01*
X136368178Y-146081428D01*
X136452856Y-146265107D01*
X136569588Y-146430280D01*
X136714466Y-146571413D01*
X136882637Y-146683782D01*
X137068470Y-146763622D01*
X137265740Y-146808260D01*
X137467842Y-146816200D01*
X137521377Y-146808438D01*
X137663519Y-146787829D01*
X137663522Y-146787828D01*
X137668007Y-146787178D01*
X137771128Y-146752173D01*
X137855234Y-146723623D01*
X137855237Y-146723621D01*
X137859531Y-146722164D01*
X138036001Y-146623337D01*
X138191505Y-146494005D01*
X138320837Y-146338501D01*
X138419664Y-146162031D01*
X138435282Y-146116024D01*
X138465736Y-146026307D01*
X138484678Y-145970507D01*
X138513700Y-145770342D01*
X138514925Y-145723586D01*
X138515139Y-145715413D01*
X138515139Y-145715408D01*
X138515215Y-145712500D01*
X138514680Y-145706672D01*
X138512557Y-145683569D01*
X138845164Y-145683569D01*
X138858392Y-145885394D01*
X138908178Y-146081428D01*
X138992856Y-146265107D01*
X139109588Y-146430280D01*
X139254466Y-146571413D01*
X139422637Y-146683782D01*
X139608470Y-146763622D01*
X139805740Y-146808260D01*
X140007842Y-146816200D01*
X140061377Y-146808438D01*
X140203519Y-146787829D01*
X140203522Y-146787828D01*
X140208007Y-146787178D01*
X140311128Y-146752173D01*
X140395234Y-146723623D01*
X140395237Y-146723621D01*
X140399531Y-146722164D01*
X140576001Y-146623337D01*
X140731505Y-146494005D01*
X140860837Y-146338501D01*
X140959664Y-146162031D01*
X140975282Y-146116024D01*
X141005736Y-146026307D01*
X141024678Y-145970507D01*
X141053700Y-145770342D01*
X141054925Y-145723586D01*
X141055139Y-145715413D01*
X141055139Y-145715408D01*
X141055215Y-145712500D01*
X141054680Y-145706672D01*
X141052557Y-145683569D01*
X141385164Y-145683569D01*
X141398392Y-145885394D01*
X141448178Y-146081428D01*
X141532856Y-146265107D01*
X141649588Y-146430280D01*
X141794466Y-146571413D01*
X141962637Y-146683782D01*
X142148470Y-146763622D01*
X142345740Y-146808260D01*
X142547842Y-146816200D01*
X142601377Y-146808438D01*
X142743519Y-146787829D01*
X142743522Y-146787828D01*
X142748007Y-146787178D01*
X142851128Y-146752173D01*
X142935234Y-146723623D01*
X142935237Y-146723621D01*
X142939531Y-146722164D01*
X143116001Y-146623337D01*
X143271505Y-146494005D01*
X143400837Y-146338501D01*
X143499664Y-146162031D01*
X143530588Y-146070932D01*
X143567197Y-146021907D01*
X143625630Y-146003763D01*
X143683568Y-146023431D01*
X143718881Y-146073397D01*
X143720912Y-146080990D01*
X143728807Y-146116024D01*
X143731231Y-146123758D01*
X143812183Y-146323120D01*
X143815840Y-146330360D01*
X143897732Y-146463996D01*
X143907419Y-146472269D01*
X143915605Y-146467685D01*
X144659704Y-145723586D01*
X144664946Y-145713297D01*
X145394242Y-145713297D01*
X145395038Y-145718328D01*
X146142200Y-146465490D01*
X146154083Y-146471544D01*
X146155028Y-146471395D01*
X146160201Y-146466953D01*
X146195649Y-146417621D01*
X146199822Y-146410676D01*
X146295164Y-146217768D01*
X146298144Y-146210244D01*
X146338103Y-146078722D01*
X146373110Y-146028541D01*
X146430928Y-146008520D01*
X146489471Y-146026307D01*
X146526150Y-146074456D01*
X146527060Y-146077025D01*
X146528178Y-146081428D01*
X146612856Y-146265107D01*
X146729588Y-146430280D01*
X146874466Y-146571413D01*
X147042637Y-146683782D01*
X147228470Y-146763622D01*
X147425740Y-146808260D01*
X147627842Y-146816200D01*
X147681377Y-146808438D01*
X147823519Y-146787829D01*
X147823522Y-146787828D01*
X147828007Y-146787178D01*
X147931128Y-146752173D01*
X148015234Y-146723623D01*
X148015237Y-146723621D01*
X148019531Y-146722164D01*
X148196001Y-146623337D01*
X148351505Y-146494005D01*
X148480837Y-146338501D01*
X148579664Y-146162031D01*
X148595282Y-146116024D01*
X148625736Y-146026307D01*
X148644678Y-145970507D01*
X148673700Y-145770342D01*
X148674925Y-145723586D01*
X148675139Y-145715413D01*
X148675139Y-145715408D01*
X148675215Y-145712500D01*
X148674680Y-145706672D01*
X148672557Y-145683569D01*
X149005164Y-145683569D01*
X149018392Y-145885394D01*
X149068178Y-146081428D01*
X149152856Y-146265107D01*
X149269588Y-146430280D01*
X149414466Y-146571413D01*
X149582637Y-146683782D01*
X149768470Y-146763622D01*
X149965740Y-146808260D01*
X150167842Y-146816200D01*
X150221377Y-146808438D01*
X150363519Y-146787829D01*
X150363522Y-146787828D01*
X150368007Y-146787178D01*
X150471128Y-146752173D01*
X150555234Y-146723623D01*
X150555237Y-146723621D01*
X150559531Y-146722164D01*
X150736001Y-146623337D01*
X150891505Y-146494005D01*
X151020837Y-146338501D01*
X151119664Y-146162031D01*
X151135282Y-146116024D01*
X151165736Y-146026307D01*
X151184678Y-145970507D01*
X151213700Y-145770342D01*
X151214925Y-145723586D01*
X151215139Y-145715413D01*
X151215139Y-145715408D01*
X151215215Y-145712500D01*
X151214680Y-145706672D01*
X151212557Y-145683569D01*
X151545164Y-145683569D01*
X151558392Y-145885394D01*
X151608178Y-146081428D01*
X151692856Y-146265107D01*
X151809588Y-146430280D01*
X151954466Y-146571413D01*
X152122637Y-146683782D01*
X152308470Y-146763622D01*
X152505740Y-146808260D01*
X152707842Y-146816200D01*
X152761377Y-146808438D01*
X152903519Y-146787829D01*
X152903522Y-146787828D01*
X152908007Y-146787178D01*
X153011128Y-146752173D01*
X153095234Y-146723623D01*
X153095237Y-146723621D01*
X153099531Y-146722164D01*
X153276001Y-146623337D01*
X153431505Y-146494005D01*
X153560837Y-146338501D01*
X153659664Y-146162031D01*
X153675282Y-146116024D01*
X153705736Y-146026307D01*
X153724678Y-145970507D01*
X153753700Y-145770342D01*
X153754925Y-145723586D01*
X153755139Y-145715413D01*
X153755139Y-145715408D01*
X153755215Y-145712500D01*
X153754680Y-145706672D01*
X153752557Y-145683569D01*
X154085164Y-145683569D01*
X154098392Y-145885394D01*
X154148178Y-146081428D01*
X154232856Y-146265107D01*
X154349588Y-146430280D01*
X154494466Y-146571413D01*
X154662637Y-146683782D01*
X154848470Y-146763622D01*
X155045740Y-146808260D01*
X155247842Y-146816200D01*
X155301377Y-146808438D01*
X155443519Y-146787829D01*
X155443522Y-146787828D01*
X155448007Y-146787178D01*
X155551128Y-146752173D01*
X155635234Y-146723623D01*
X155635237Y-146723621D01*
X155639531Y-146722164D01*
X155816001Y-146623337D01*
X155971505Y-146494005D01*
X156100837Y-146338501D01*
X156199664Y-146162031D01*
X156215282Y-146116024D01*
X156245736Y-146026307D01*
X156264678Y-145970507D01*
X156293700Y-145770342D01*
X156294925Y-145723586D01*
X156295139Y-145715413D01*
X156295139Y-145715408D01*
X156295215Y-145712500D01*
X156294680Y-145706672D01*
X156292557Y-145683569D01*
X156625164Y-145683569D01*
X156638392Y-145885394D01*
X156688178Y-146081428D01*
X156772856Y-146265107D01*
X156889588Y-146430280D01*
X157034466Y-146571413D01*
X157202637Y-146683782D01*
X157250955Y-146704541D01*
X157374448Y-146757598D01*
X157420449Y-146797940D01*
X157433953Y-146857617D01*
X157409800Y-146913833D01*
X157366125Y-146942659D01*
X157205807Y-146995058D01*
X157198350Y-146998193D01*
X157007482Y-147097553D01*
X157000623Y-147101872D01*
X156977726Y-147119064D01*
X156970058Y-147129975D01*
X156970082Y-147131494D01*
X156973193Y-147136483D01*
X157718914Y-147882204D01*
X157730797Y-147888258D01*
X157735828Y-147887462D01*
X158485115Y-147138175D01*
X158491169Y-147126292D01*
X158490830Y-147124152D01*
X158487796Y-147120451D01*
X158487268Y-147120034D01*
X158480527Y-147115555D01*
X158292141Y-147011560D01*
X158284749Y-147008238D01*
X158089904Y-146939240D01*
X158041362Y-146901993D01*
X158023985Y-146843327D01*
X158044409Y-146785652D01*
X158091128Y-146752173D01*
X158175234Y-146723623D01*
X158175237Y-146723621D01*
X158179531Y-146722164D01*
X158356001Y-146623337D01*
X158511505Y-146494005D01*
X158640837Y-146338501D01*
X158739664Y-146162031D01*
X158755282Y-146116024D01*
X158785736Y-146026307D01*
X158804678Y-145970507D01*
X158833700Y-145770342D01*
X158834925Y-145723586D01*
X158835139Y-145715413D01*
X158835139Y-145715408D01*
X158835215Y-145712500D01*
X158834680Y-145706672D01*
X158832557Y-145683569D01*
X159165164Y-145683569D01*
X159178392Y-145885394D01*
X159228178Y-146081428D01*
X159312856Y-146265107D01*
X159429588Y-146430280D01*
X159574466Y-146571413D01*
X159742637Y-146683782D01*
X159928470Y-146763622D01*
X160125740Y-146808260D01*
X160327842Y-146816200D01*
X160381377Y-146808438D01*
X160523519Y-146787829D01*
X160523522Y-146787828D01*
X160528007Y-146787178D01*
X160631128Y-146752173D01*
X160715234Y-146723623D01*
X160715237Y-146723621D01*
X160719531Y-146722164D01*
X160896001Y-146623337D01*
X161051505Y-146494005D01*
X161180837Y-146338501D01*
X161279664Y-146162031D01*
X161295282Y-146116024D01*
X161325736Y-146026307D01*
X161344678Y-145970507D01*
X161373700Y-145770342D01*
X161374925Y-145723586D01*
X161375139Y-145715413D01*
X161375139Y-145715408D01*
X161375215Y-145712500D01*
X161374680Y-145706672D01*
X161372557Y-145683569D01*
X161705164Y-145683569D01*
X161718392Y-145885394D01*
X161768178Y-146081428D01*
X161852856Y-146265107D01*
X161969588Y-146430280D01*
X162114466Y-146571413D01*
X162282637Y-146683782D01*
X162468470Y-146763622D01*
X162665740Y-146808260D01*
X162867842Y-146816200D01*
X162921377Y-146808438D01*
X163063519Y-146787829D01*
X163063522Y-146787828D01*
X163068007Y-146787178D01*
X163171128Y-146752173D01*
X163255234Y-146723623D01*
X163255237Y-146723621D01*
X163259531Y-146722164D01*
X163436001Y-146623337D01*
X163591505Y-146494005D01*
X163720837Y-146338501D01*
X163819664Y-146162031D01*
X163835282Y-146116024D01*
X163865736Y-146026307D01*
X163884678Y-145970507D01*
X163913700Y-145770342D01*
X163914925Y-145723586D01*
X163915139Y-145715413D01*
X163915139Y-145715408D01*
X163915215Y-145712500D01*
X163914680Y-145706672D01*
X163912557Y-145683569D01*
X164245164Y-145683569D01*
X164258392Y-145885394D01*
X164308178Y-146081428D01*
X164392856Y-146265107D01*
X164509588Y-146430280D01*
X164654466Y-146571413D01*
X164822637Y-146683782D01*
X165008470Y-146763622D01*
X165205740Y-146808260D01*
X165407842Y-146816200D01*
X165461377Y-146808438D01*
X165603519Y-146787829D01*
X165603522Y-146787828D01*
X165608007Y-146787178D01*
X165711128Y-146752173D01*
X165795234Y-146723623D01*
X165795237Y-146723621D01*
X165799531Y-146722164D01*
X165976001Y-146623337D01*
X166131505Y-146494005D01*
X166260837Y-146338501D01*
X166359664Y-146162031D01*
X166390588Y-146070932D01*
X166427197Y-146021907D01*
X166485630Y-146003763D01*
X166543568Y-146023431D01*
X166578881Y-146073397D01*
X166580912Y-146080990D01*
X166588807Y-146116024D01*
X166591231Y-146123758D01*
X166672183Y-146323120D01*
X166675840Y-146330360D01*
X166757732Y-146463996D01*
X166767419Y-146472269D01*
X166775605Y-146467685D01*
X167519704Y-145723586D01*
X167524946Y-145713297D01*
X168254242Y-145713297D01*
X168255038Y-145718328D01*
X169002200Y-146465490D01*
X169014083Y-146471544D01*
X169015028Y-146471395D01*
X169020201Y-146466953D01*
X169055649Y-146417621D01*
X169059822Y-146410676D01*
X169155164Y-146217768D01*
X169158144Y-146210244D01*
X169198103Y-146078722D01*
X169233110Y-146028541D01*
X169290928Y-146008520D01*
X169349471Y-146026307D01*
X169386150Y-146074456D01*
X169387060Y-146077025D01*
X169388178Y-146081428D01*
X169472856Y-146265107D01*
X169589588Y-146430280D01*
X169734466Y-146571413D01*
X169902637Y-146683782D01*
X170088470Y-146763622D01*
X170285740Y-146808260D01*
X170487842Y-146816200D01*
X170541377Y-146808438D01*
X170683519Y-146787829D01*
X170683522Y-146787828D01*
X170688007Y-146787178D01*
X170791128Y-146752173D01*
X170875234Y-146723623D01*
X170875237Y-146723621D01*
X170879531Y-146722164D01*
X171056001Y-146623337D01*
X171211505Y-146494005D01*
X171340837Y-146338501D01*
X171439664Y-146162031D01*
X171455282Y-146116024D01*
X171485736Y-146026307D01*
X171504678Y-145970507D01*
X171533700Y-145770342D01*
X171534925Y-145723586D01*
X171535139Y-145715413D01*
X171535139Y-145715408D01*
X171535215Y-145712500D01*
X171534680Y-145706672D01*
X171532557Y-145683569D01*
X171865164Y-145683569D01*
X171878392Y-145885394D01*
X171928178Y-146081428D01*
X172012856Y-146265107D01*
X172129588Y-146430280D01*
X172274466Y-146571413D01*
X172442637Y-146683782D01*
X172628470Y-146763622D01*
X172825740Y-146808260D01*
X173027842Y-146816200D01*
X173081377Y-146808438D01*
X173223519Y-146787829D01*
X173223522Y-146787828D01*
X173228007Y-146787178D01*
X173331128Y-146752173D01*
X173415234Y-146723623D01*
X173415237Y-146723621D01*
X173419531Y-146722164D01*
X173596001Y-146623337D01*
X173751505Y-146494005D01*
X173880837Y-146338501D01*
X173979664Y-146162031D01*
X173995282Y-146116024D01*
X174025736Y-146026307D01*
X174044678Y-145970507D01*
X174073700Y-145770342D01*
X174074925Y-145723586D01*
X174075139Y-145715413D01*
X174075139Y-145715408D01*
X174075215Y-145712500D01*
X174074680Y-145706672D01*
X174072557Y-145683569D01*
X174405164Y-145683569D01*
X174418392Y-145885394D01*
X174468178Y-146081428D01*
X174552856Y-146265107D01*
X174669588Y-146430280D01*
X174814466Y-146571413D01*
X174982637Y-146683782D01*
X175168470Y-146763622D01*
X175365740Y-146808260D01*
X175567842Y-146816200D01*
X175621377Y-146808438D01*
X175763519Y-146787829D01*
X175763522Y-146787828D01*
X175768007Y-146787178D01*
X175871128Y-146752173D01*
X175955234Y-146723623D01*
X175955237Y-146723621D01*
X175959531Y-146722164D01*
X176136001Y-146623337D01*
X176291505Y-146494005D01*
X176420837Y-146338501D01*
X176519664Y-146162031D01*
X176535282Y-146116024D01*
X176565736Y-146026307D01*
X176584678Y-145970507D01*
X176613700Y-145770342D01*
X176614925Y-145723586D01*
X176615139Y-145715413D01*
X176615139Y-145715408D01*
X176615215Y-145712500D01*
X176614680Y-145706672D01*
X176612557Y-145683569D01*
X176945164Y-145683569D01*
X176958392Y-145885394D01*
X177008178Y-146081428D01*
X177092856Y-146265107D01*
X177209588Y-146430280D01*
X177354466Y-146571413D01*
X177522637Y-146683782D01*
X177570955Y-146704541D01*
X177694448Y-146757598D01*
X177740449Y-146797940D01*
X177753953Y-146857617D01*
X177729800Y-146913833D01*
X177686125Y-146942659D01*
X177525807Y-146995058D01*
X177518350Y-146998193D01*
X177327482Y-147097553D01*
X177320623Y-147101872D01*
X177297726Y-147119064D01*
X177290058Y-147129975D01*
X177290082Y-147131494D01*
X177293193Y-147136483D01*
X178038914Y-147882204D01*
X178050797Y-147888258D01*
X178055828Y-147887462D01*
X178805115Y-147138175D01*
X178811169Y-147126292D01*
X178810830Y-147124152D01*
X178807796Y-147120451D01*
X178807268Y-147120034D01*
X178800527Y-147115555D01*
X178612141Y-147011560D01*
X178604749Y-147008238D01*
X178409904Y-146939240D01*
X178361362Y-146901993D01*
X178343985Y-146843327D01*
X178364409Y-146785652D01*
X178411128Y-146752173D01*
X178495234Y-146723623D01*
X178495237Y-146723621D01*
X178499531Y-146722164D01*
X178676001Y-146623337D01*
X178831505Y-146494005D01*
X178960837Y-146338501D01*
X179059664Y-146162031D01*
X179075282Y-146116024D01*
X179105736Y-146026307D01*
X179124678Y-145970507D01*
X179153700Y-145770342D01*
X179154925Y-145723586D01*
X179155139Y-145715413D01*
X179155139Y-145715408D01*
X179155215Y-145712500D01*
X179154680Y-145706672D01*
X179152557Y-145683569D01*
X179485164Y-145683569D01*
X179498392Y-145885394D01*
X179548178Y-146081428D01*
X179632856Y-146265107D01*
X179749588Y-146430280D01*
X179894466Y-146571413D01*
X180062637Y-146683782D01*
X180248470Y-146763622D01*
X180445740Y-146808260D01*
X180647842Y-146816200D01*
X180701377Y-146808438D01*
X180843519Y-146787829D01*
X180843522Y-146787828D01*
X180848007Y-146787178D01*
X180951128Y-146752173D01*
X181035234Y-146723623D01*
X181035237Y-146723621D01*
X181039531Y-146722164D01*
X181216001Y-146623337D01*
X181371505Y-146494005D01*
X181500837Y-146338501D01*
X181599664Y-146162031D01*
X181615282Y-146116024D01*
X181645736Y-146026307D01*
X181664678Y-145970507D01*
X181693700Y-145770342D01*
X181694925Y-145723586D01*
X181695139Y-145715413D01*
X181695139Y-145715408D01*
X181695215Y-145712500D01*
X181694680Y-145706672D01*
X181692557Y-145683569D01*
X182025164Y-145683569D01*
X182038392Y-145885394D01*
X182088178Y-146081428D01*
X182172856Y-146265107D01*
X182289588Y-146430280D01*
X182434466Y-146571413D01*
X182602637Y-146683782D01*
X182788470Y-146763622D01*
X182985740Y-146808260D01*
X183187842Y-146816200D01*
X183241377Y-146808438D01*
X183383519Y-146787829D01*
X183383522Y-146787828D01*
X183388007Y-146787178D01*
X183491128Y-146752173D01*
X183575234Y-146723623D01*
X183575237Y-146723621D01*
X183579531Y-146722164D01*
X183756001Y-146623337D01*
X183911505Y-146494005D01*
X184040837Y-146338501D01*
X184139664Y-146162031D01*
X184155282Y-146116024D01*
X184185736Y-146026307D01*
X184204678Y-145970507D01*
X184233700Y-145770342D01*
X184234925Y-145723586D01*
X184235139Y-145715413D01*
X184235139Y-145715408D01*
X184235215Y-145712500D01*
X184234680Y-145706672D01*
X184217123Y-145515609D01*
X184216708Y-145511091D01*
X184161807Y-145316426D01*
X184072351Y-145135027D01*
X183951335Y-144972967D01*
X183802812Y-144835674D01*
X183780125Y-144821359D01*
X183635594Y-144730167D01*
X183631757Y-144727746D01*
X183443898Y-144652798D01*
X183245526Y-144613339D01*
X183145930Y-144612035D01*
X183047826Y-144610751D01*
X183047821Y-144610751D01*
X183043286Y-144610692D01*
X183038813Y-144611461D01*
X183038808Y-144611461D01*
X182940245Y-144628398D01*
X182843949Y-144644944D01*
X182654193Y-144714949D01*
X182480371Y-144818362D01*
X182476956Y-144821357D01*
X182476953Y-144821359D01*
X182460630Y-144835674D01*
X182328305Y-144951720D01*
X182325497Y-144955282D01*
X182233250Y-145072298D01*
X182203089Y-145110557D01*
X182108914Y-145289553D01*
X182107569Y-145293884D01*
X182107568Y-145293887D01*
X182067588Y-145422647D01*
X182048937Y-145482713D01*
X182025164Y-145683569D01*
X181692557Y-145683569D01*
X181677123Y-145515609D01*
X181676708Y-145511091D01*
X181621807Y-145316426D01*
X181532351Y-145135027D01*
X181411335Y-144972967D01*
X181262812Y-144835674D01*
X181240125Y-144821359D01*
X181095594Y-144730167D01*
X181091757Y-144727746D01*
X180903898Y-144652798D01*
X180705526Y-144613339D01*
X180605930Y-144612035D01*
X180507826Y-144610751D01*
X180507821Y-144610751D01*
X180503286Y-144610692D01*
X180498813Y-144611461D01*
X180498808Y-144611461D01*
X180400245Y-144628398D01*
X180303949Y-144644944D01*
X180114193Y-144714949D01*
X179940371Y-144818362D01*
X179936956Y-144821357D01*
X179936953Y-144821359D01*
X179920630Y-144835674D01*
X179788305Y-144951720D01*
X179785497Y-144955282D01*
X179693250Y-145072298D01*
X179663089Y-145110557D01*
X179568914Y-145289553D01*
X179567569Y-145293884D01*
X179567568Y-145293887D01*
X179527588Y-145422647D01*
X179508937Y-145482713D01*
X179485164Y-145683569D01*
X179152557Y-145683569D01*
X179137123Y-145515609D01*
X179136708Y-145511091D01*
X179081807Y-145316426D01*
X178992351Y-145135027D01*
X178871335Y-144972967D01*
X178722812Y-144835674D01*
X178700125Y-144821359D01*
X178555594Y-144730167D01*
X178551757Y-144727746D01*
X178363898Y-144652798D01*
X178165526Y-144613339D01*
X178065930Y-144612035D01*
X177967826Y-144610751D01*
X177967821Y-144610751D01*
X177963286Y-144610692D01*
X177958813Y-144611461D01*
X177958808Y-144611461D01*
X177860245Y-144628398D01*
X177763949Y-144644944D01*
X177574193Y-144714949D01*
X177400371Y-144818362D01*
X177396956Y-144821357D01*
X177396953Y-144821359D01*
X177380630Y-144835674D01*
X177248305Y-144951720D01*
X177245497Y-144955282D01*
X177153250Y-145072298D01*
X177123089Y-145110557D01*
X177028914Y-145289553D01*
X177027569Y-145293884D01*
X177027568Y-145293887D01*
X176987588Y-145422647D01*
X176968937Y-145482713D01*
X176945164Y-145683569D01*
X176612557Y-145683569D01*
X176597123Y-145515609D01*
X176596708Y-145511091D01*
X176541807Y-145316426D01*
X176452351Y-145135027D01*
X176331335Y-144972967D01*
X176182812Y-144835674D01*
X176160125Y-144821359D01*
X176015594Y-144730167D01*
X176011757Y-144727746D01*
X175823898Y-144652798D01*
X175625526Y-144613339D01*
X175525930Y-144612035D01*
X175427826Y-144610751D01*
X175427821Y-144610751D01*
X175423286Y-144610692D01*
X175418813Y-144611461D01*
X175418808Y-144611461D01*
X175320245Y-144628398D01*
X175223949Y-144644944D01*
X175034193Y-144714949D01*
X174860371Y-144818362D01*
X174856956Y-144821357D01*
X174856953Y-144821359D01*
X174840630Y-144835674D01*
X174708305Y-144951720D01*
X174705497Y-144955282D01*
X174613250Y-145072298D01*
X174583089Y-145110557D01*
X174488914Y-145289553D01*
X174487569Y-145293884D01*
X174487568Y-145293887D01*
X174447588Y-145422647D01*
X174428937Y-145482713D01*
X174405164Y-145683569D01*
X174072557Y-145683569D01*
X174057123Y-145515609D01*
X174056708Y-145511091D01*
X174001807Y-145316426D01*
X173912351Y-145135027D01*
X173791335Y-144972967D01*
X173642812Y-144835674D01*
X173620125Y-144821359D01*
X173475594Y-144730167D01*
X173471757Y-144727746D01*
X173283898Y-144652798D01*
X173085526Y-144613339D01*
X172985930Y-144612035D01*
X172887826Y-144610751D01*
X172887821Y-144610751D01*
X172883286Y-144610692D01*
X172878813Y-144611461D01*
X172878808Y-144611461D01*
X172780245Y-144628398D01*
X172683949Y-144644944D01*
X172494193Y-144714949D01*
X172320371Y-144818362D01*
X172316956Y-144821357D01*
X172316953Y-144821359D01*
X172300630Y-144835674D01*
X172168305Y-144951720D01*
X172165497Y-144955282D01*
X172073250Y-145072298D01*
X172043089Y-145110557D01*
X171948914Y-145289553D01*
X171947569Y-145293884D01*
X171947568Y-145293887D01*
X171907588Y-145422647D01*
X171888937Y-145482713D01*
X171865164Y-145683569D01*
X171532557Y-145683569D01*
X171517123Y-145515609D01*
X171516708Y-145511091D01*
X171461807Y-145316426D01*
X171372351Y-145135027D01*
X171251335Y-144972967D01*
X171102812Y-144835674D01*
X171080125Y-144821359D01*
X170935594Y-144730167D01*
X170931757Y-144727746D01*
X170743898Y-144652798D01*
X170545526Y-144613339D01*
X170445930Y-144612035D01*
X170347826Y-144610751D01*
X170347821Y-144610751D01*
X170343286Y-144610692D01*
X170338813Y-144611461D01*
X170338808Y-144611461D01*
X170240245Y-144628398D01*
X170143949Y-144644944D01*
X169954193Y-144714949D01*
X169780371Y-144818362D01*
X169776956Y-144821357D01*
X169776953Y-144821359D01*
X169760630Y-144835674D01*
X169628305Y-144951720D01*
X169625497Y-144955282D01*
X169533250Y-145072298D01*
X169503089Y-145110557D01*
X169408914Y-145289553D01*
X169390501Y-145348855D01*
X169389210Y-145353012D01*
X169353898Y-145402979D01*
X169295960Y-145422647D01*
X169237526Y-145404503D01*
X169200917Y-145355478D01*
X169198646Y-145347773D01*
X169180946Y-145277309D01*
X169178333Y-145269633D01*
X169092530Y-145072298D01*
X169088710Y-145065172D01*
X169021740Y-144961653D01*
X169011549Y-144953371D01*
X169003975Y-144957735D01*
X168260296Y-145701414D01*
X168254242Y-145713297D01*
X167524946Y-145713297D01*
X167525758Y-145711703D01*
X167524962Y-145706672D01*
X166778123Y-144959833D01*
X166766240Y-144953779D01*
X166765941Y-144953826D01*
X166760015Y-144959042D01*
X166707466Y-145036075D01*
X166703468Y-145043113D01*
X166612871Y-145238290D01*
X166610073Y-145245894D01*
X166581635Y-145348438D01*
X166547865Y-145399459D01*
X166490554Y-145420887D01*
X166431594Y-145404536D01*
X166393505Y-145356652D01*
X166390953Y-145348855D01*
X166383039Y-145320794D01*
X166383039Y-145320793D01*
X166381807Y-145316426D01*
X166292351Y-145135027D01*
X166171335Y-144972967D01*
X166022812Y-144835674D01*
X166000125Y-144821359D01*
X165855594Y-144730167D01*
X165851757Y-144727746D01*
X165663898Y-144652798D01*
X165465526Y-144613339D01*
X165365930Y-144612035D01*
X165267826Y-144610751D01*
X165267821Y-144610751D01*
X165263286Y-144610692D01*
X165258813Y-144611461D01*
X165258808Y-144611461D01*
X165160245Y-144628398D01*
X165063949Y-144644944D01*
X164874193Y-144714949D01*
X164700371Y-144818362D01*
X164696956Y-144821357D01*
X164696953Y-144821359D01*
X164680630Y-144835674D01*
X164548305Y-144951720D01*
X164545497Y-144955282D01*
X164453250Y-145072298D01*
X164423089Y-145110557D01*
X164328914Y-145289553D01*
X164327569Y-145293884D01*
X164327568Y-145293887D01*
X164287588Y-145422647D01*
X164268937Y-145482713D01*
X164245164Y-145683569D01*
X163912557Y-145683569D01*
X163897123Y-145515609D01*
X163896708Y-145511091D01*
X163841807Y-145316426D01*
X163752351Y-145135027D01*
X163631335Y-144972967D01*
X163482812Y-144835674D01*
X163460125Y-144821359D01*
X163315594Y-144730167D01*
X163311757Y-144727746D01*
X163123898Y-144652798D01*
X162925526Y-144613339D01*
X162825930Y-144612035D01*
X162727826Y-144610751D01*
X162727821Y-144610751D01*
X162723286Y-144610692D01*
X162718813Y-144611461D01*
X162718808Y-144611461D01*
X162620245Y-144628398D01*
X162523949Y-144644944D01*
X162334193Y-144714949D01*
X162160371Y-144818362D01*
X162156956Y-144821357D01*
X162156953Y-144821359D01*
X162140630Y-144835674D01*
X162008305Y-144951720D01*
X162005497Y-144955282D01*
X161913250Y-145072298D01*
X161883089Y-145110557D01*
X161788914Y-145289553D01*
X161787569Y-145293884D01*
X161787568Y-145293887D01*
X161747588Y-145422647D01*
X161728937Y-145482713D01*
X161705164Y-145683569D01*
X161372557Y-145683569D01*
X161357123Y-145515609D01*
X161356708Y-145511091D01*
X161301807Y-145316426D01*
X161212351Y-145135027D01*
X161091335Y-144972967D01*
X160942812Y-144835674D01*
X160920125Y-144821359D01*
X160775594Y-144730167D01*
X160771757Y-144727746D01*
X160583898Y-144652798D01*
X160385526Y-144613339D01*
X160285930Y-144612035D01*
X160187826Y-144610751D01*
X160187821Y-144610751D01*
X160183286Y-144610692D01*
X160178813Y-144611461D01*
X160178808Y-144611461D01*
X160080245Y-144628398D01*
X159983949Y-144644944D01*
X159794193Y-144714949D01*
X159620371Y-144818362D01*
X159616956Y-144821357D01*
X159616953Y-144821359D01*
X159600630Y-144835674D01*
X159468305Y-144951720D01*
X159465497Y-144955282D01*
X159373250Y-145072298D01*
X159343089Y-145110557D01*
X159248914Y-145289553D01*
X159247569Y-145293884D01*
X159247568Y-145293887D01*
X159207588Y-145422647D01*
X159188937Y-145482713D01*
X159165164Y-145683569D01*
X158832557Y-145683569D01*
X158817123Y-145515609D01*
X158816708Y-145511091D01*
X158761807Y-145316426D01*
X158672351Y-145135027D01*
X158551335Y-144972967D01*
X158402812Y-144835674D01*
X158380125Y-144821359D01*
X158235594Y-144730167D01*
X158231757Y-144727746D01*
X158043898Y-144652798D01*
X157845526Y-144613339D01*
X157745930Y-144612035D01*
X157647826Y-144610751D01*
X157647821Y-144610751D01*
X157643286Y-144610692D01*
X157638813Y-144611461D01*
X157638808Y-144611461D01*
X157540245Y-144628398D01*
X157443949Y-144644944D01*
X157254193Y-144714949D01*
X157080371Y-144818362D01*
X157076956Y-144821357D01*
X157076953Y-144821359D01*
X157060630Y-144835674D01*
X156928305Y-144951720D01*
X156925497Y-144955282D01*
X156833250Y-145072298D01*
X156803089Y-145110557D01*
X156708914Y-145289553D01*
X156707569Y-145293884D01*
X156707568Y-145293887D01*
X156667588Y-145422647D01*
X156648937Y-145482713D01*
X156625164Y-145683569D01*
X156292557Y-145683569D01*
X156277123Y-145515609D01*
X156276708Y-145511091D01*
X156221807Y-145316426D01*
X156132351Y-145135027D01*
X156011335Y-144972967D01*
X155862812Y-144835674D01*
X155840125Y-144821359D01*
X155695594Y-144730167D01*
X155691757Y-144727746D01*
X155503898Y-144652798D01*
X155305526Y-144613339D01*
X155205930Y-144612035D01*
X155107826Y-144610751D01*
X155107821Y-144610751D01*
X155103286Y-144610692D01*
X155098813Y-144611461D01*
X155098808Y-144611461D01*
X155000245Y-144628398D01*
X154903949Y-144644944D01*
X154714193Y-144714949D01*
X154540371Y-144818362D01*
X154536956Y-144821357D01*
X154536953Y-144821359D01*
X154520630Y-144835674D01*
X154388305Y-144951720D01*
X154385497Y-144955282D01*
X154293250Y-145072298D01*
X154263089Y-145110557D01*
X154168914Y-145289553D01*
X154167569Y-145293884D01*
X154167568Y-145293887D01*
X154127588Y-145422647D01*
X154108937Y-145482713D01*
X154085164Y-145683569D01*
X153752557Y-145683569D01*
X153737123Y-145515609D01*
X153736708Y-145511091D01*
X153681807Y-145316426D01*
X153592351Y-145135027D01*
X153471335Y-144972967D01*
X153322812Y-144835674D01*
X153300125Y-144821359D01*
X153155594Y-144730167D01*
X153151757Y-144727746D01*
X152963898Y-144652798D01*
X152765526Y-144613339D01*
X152665930Y-144612035D01*
X152567826Y-144610751D01*
X152567821Y-144610751D01*
X152563286Y-144610692D01*
X152558813Y-144611461D01*
X152558808Y-144611461D01*
X152460245Y-144628398D01*
X152363949Y-144644944D01*
X152174193Y-144714949D01*
X152000371Y-144818362D01*
X151996956Y-144821357D01*
X151996953Y-144821359D01*
X151980630Y-144835674D01*
X151848305Y-144951720D01*
X151845497Y-144955282D01*
X151753250Y-145072298D01*
X151723089Y-145110557D01*
X151628914Y-145289553D01*
X151627569Y-145293884D01*
X151627568Y-145293887D01*
X151587588Y-145422647D01*
X151568937Y-145482713D01*
X151545164Y-145683569D01*
X151212557Y-145683569D01*
X151197123Y-145515609D01*
X151196708Y-145511091D01*
X151141807Y-145316426D01*
X151052351Y-145135027D01*
X150931335Y-144972967D01*
X150782812Y-144835674D01*
X150760125Y-144821359D01*
X150615594Y-144730167D01*
X150611757Y-144727746D01*
X150423898Y-144652798D01*
X150225526Y-144613339D01*
X150125930Y-144612035D01*
X150027826Y-144610751D01*
X150027821Y-144610751D01*
X150023286Y-144610692D01*
X150018813Y-144611461D01*
X150018808Y-144611461D01*
X149920245Y-144628398D01*
X149823949Y-144644944D01*
X149634193Y-144714949D01*
X149460371Y-144818362D01*
X149456956Y-144821357D01*
X149456953Y-144821359D01*
X149440630Y-144835674D01*
X149308305Y-144951720D01*
X149305497Y-144955282D01*
X149213250Y-145072298D01*
X149183089Y-145110557D01*
X149088914Y-145289553D01*
X149087569Y-145293884D01*
X149087568Y-145293887D01*
X149047588Y-145422647D01*
X149028937Y-145482713D01*
X149005164Y-145683569D01*
X148672557Y-145683569D01*
X148657123Y-145515609D01*
X148656708Y-145511091D01*
X148601807Y-145316426D01*
X148512351Y-145135027D01*
X148391335Y-144972967D01*
X148242812Y-144835674D01*
X148220125Y-144821359D01*
X148075594Y-144730167D01*
X148071757Y-144727746D01*
X147883898Y-144652798D01*
X147685526Y-144613339D01*
X147585930Y-144612035D01*
X147487826Y-144610751D01*
X147487821Y-144610751D01*
X147483286Y-144610692D01*
X147478813Y-144611461D01*
X147478808Y-144611461D01*
X147380245Y-144628398D01*
X147283949Y-144644944D01*
X147094193Y-144714949D01*
X146920371Y-144818362D01*
X146916956Y-144821357D01*
X146916953Y-144821359D01*
X146900630Y-144835674D01*
X146768305Y-144951720D01*
X146765497Y-144955282D01*
X146673250Y-145072298D01*
X146643089Y-145110557D01*
X146548914Y-145289553D01*
X146530501Y-145348855D01*
X146529210Y-145353012D01*
X146493898Y-145402979D01*
X146435960Y-145422647D01*
X146377526Y-145404503D01*
X146340917Y-145355478D01*
X146338646Y-145347773D01*
X146320946Y-145277309D01*
X146318333Y-145269633D01*
X146232530Y-145072298D01*
X146228710Y-145065172D01*
X146161740Y-144961653D01*
X146151549Y-144953371D01*
X146143975Y-144957735D01*
X145400296Y-145701414D01*
X145394242Y-145713297D01*
X144664946Y-145713297D01*
X144665758Y-145711703D01*
X144664962Y-145706672D01*
X143918123Y-144959833D01*
X143906240Y-144953779D01*
X143905941Y-144953826D01*
X143900015Y-144959042D01*
X143847466Y-145036075D01*
X143843468Y-145043113D01*
X143752871Y-145238290D01*
X143750073Y-145245894D01*
X143721635Y-145348438D01*
X143687865Y-145399459D01*
X143630554Y-145420887D01*
X143571594Y-145404536D01*
X143533505Y-145356652D01*
X143530953Y-145348855D01*
X143523039Y-145320794D01*
X143523039Y-145320793D01*
X143521807Y-145316426D01*
X143432351Y-145135027D01*
X143311335Y-144972967D01*
X143162812Y-144835674D01*
X143140125Y-144821359D01*
X142995594Y-144730167D01*
X142991757Y-144727746D01*
X142803898Y-144652798D01*
X142605526Y-144613339D01*
X142505930Y-144612035D01*
X142407826Y-144610751D01*
X142407821Y-144610751D01*
X142403286Y-144610692D01*
X142398813Y-144611461D01*
X142398808Y-144611461D01*
X142300245Y-144628398D01*
X142203949Y-144644944D01*
X142014193Y-144714949D01*
X141840371Y-144818362D01*
X141836956Y-144821357D01*
X141836953Y-144821359D01*
X141820630Y-144835674D01*
X141688305Y-144951720D01*
X141685497Y-144955282D01*
X141593250Y-145072298D01*
X141563089Y-145110557D01*
X141468914Y-145289553D01*
X141467569Y-145293884D01*
X141467568Y-145293887D01*
X141427588Y-145422647D01*
X141408937Y-145482713D01*
X141385164Y-145683569D01*
X141052557Y-145683569D01*
X141037123Y-145515609D01*
X141036708Y-145511091D01*
X140981807Y-145316426D01*
X140892351Y-145135027D01*
X140771335Y-144972967D01*
X140622812Y-144835674D01*
X140600125Y-144821359D01*
X140455594Y-144730167D01*
X140451757Y-144727746D01*
X140263898Y-144652798D01*
X140065526Y-144613339D01*
X139965930Y-144612035D01*
X139867826Y-144610751D01*
X139867821Y-144610751D01*
X139863286Y-144610692D01*
X139858813Y-144611461D01*
X139858808Y-144611461D01*
X139760245Y-144628398D01*
X139663949Y-144644944D01*
X139474193Y-144714949D01*
X139300371Y-144818362D01*
X139296956Y-144821357D01*
X139296953Y-144821359D01*
X139280630Y-144835674D01*
X139148305Y-144951720D01*
X139145497Y-144955282D01*
X139053250Y-145072298D01*
X139023089Y-145110557D01*
X138928914Y-145289553D01*
X138927569Y-145293884D01*
X138927568Y-145293887D01*
X138887588Y-145422647D01*
X138868937Y-145482713D01*
X138845164Y-145683569D01*
X138512557Y-145683569D01*
X138497123Y-145515609D01*
X138496708Y-145511091D01*
X138441807Y-145316426D01*
X138352351Y-145135027D01*
X138231335Y-144972967D01*
X138082812Y-144835674D01*
X138060125Y-144821359D01*
X137915594Y-144730167D01*
X137911757Y-144727746D01*
X137723898Y-144652798D01*
X137525526Y-144613339D01*
X137425930Y-144612035D01*
X137327826Y-144610751D01*
X137327821Y-144610751D01*
X137323286Y-144610692D01*
X137318813Y-144611461D01*
X137318808Y-144611461D01*
X137220245Y-144628398D01*
X137123949Y-144644944D01*
X136934193Y-144714949D01*
X136760371Y-144818362D01*
X136756956Y-144821357D01*
X136756953Y-144821359D01*
X136740630Y-144835674D01*
X136608305Y-144951720D01*
X136605497Y-144955282D01*
X136513250Y-145072298D01*
X136483089Y-145110557D01*
X136388914Y-145289553D01*
X136387569Y-145293884D01*
X136387568Y-145293887D01*
X136347588Y-145422647D01*
X136328937Y-145482713D01*
X136305164Y-145683569D01*
X135972557Y-145683569D01*
X135957123Y-145515609D01*
X135956708Y-145511091D01*
X135901807Y-145316426D01*
X135812351Y-145135027D01*
X135691335Y-144972967D01*
X135542812Y-144835674D01*
X135520125Y-144821359D01*
X135375594Y-144730167D01*
X135371757Y-144727746D01*
X135183898Y-144652798D01*
X134985526Y-144613339D01*
X134885930Y-144612035D01*
X134787826Y-144610751D01*
X134787821Y-144610751D01*
X134783286Y-144610692D01*
X134778813Y-144611461D01*
X134778808Y-144611461D01*
X134680245Y-144628398D01*
X134583949Y-144644944D01*
X134394193Y-144714949D01*
X134220371Y-144818362D01*
X134216956Y-144821357D01*
X134216953Y-144821359D01*
X134200630Y-144835674D01*
X134068305Y-144951720D01*
X134065497Y-144955282D01*
X133973250Y-145072298D01*
X133943089Y-145110557D01*
X133848914Y-145289553D01*
X133847569Y-145293884D01*
X133847568Y-145293887D01*
X133807588Y-145422647D01*
X133788937Y-145482713D01*
X133765164Y-145683569D01*
X133778392Y-145885394D01*
X133828178Y-146081428D01*
X133912856Y-146265107D01*
X134029588Y-146430280D01*
X134174466Y-146571413D01*
X134342637Y-146683782D01*
X134390955Y-146704541D01*
X134436956Y-146744883D01*
X134450460Y-146804560D01*
X134426307Y-146860776D01*
X134373724Y-146892060D01*
X134351875Y-146894501D01*
X134222208Y-146894501D01*
X134217078Y-146894767D01*
X134119327Y-146904909D01*
X134108800Y-146907182D01*
X133951723Y-146959586D01*
X133941376Y-146964433D01*
X133800855Y-147051391D01*
X133791902Y-147058487D01*
X133675153Y-147175439D01*
X133668073Y-147184404D01*
X133581359Y-147325080D01*
X133576531Y-147335434D01*
X133524398Y-147492610D01*
X133522145Y-147503121D01*
X133512259Y-147599612D01*
X133512000Y-147604671D01*
X133512000Y-147982820D01*
X129250500Y-147982820D01*
X129250500Y-144589975D01*
X144270058Y-144589975D01*
X144270082Y-144591494D01*
X144273193Y-144596483D01*
X145018914Y-145342204D01*
X145030797Y-145348258D01*
X145035828Y-145347462D01*
X145785115Y-144598175D01*
X145789293Y-144589975D01*
X167130058Y-144589975D01*
X167130082Y-144591494D01*
X167133193Y-144596483D01*
X167878914Y-145342204D01*
X167890797Y-145348258D01*
X167895828Y-145347462D01*
X168645115Y-144598175D01*
X168651169Y-144586292D01*
X168650830Y-144584152D01*
X168647796Y-144580451D01*
X168647268Y-144580034D01*
X168640527Y-144575555D01*
X168452141Y-144471560D01*
X168444749Y-144468238D01*
X168241920Y-144396412D01*
X168234081Y-144394341D01*
X168022228Y-144356605D01*
X168014185Y-144355844D01*
X167799008Y-144353215D01*
X167790929Y-144353780D01*
X167578228Y-144386328D01*
X167570341Y-144388207D01*
X167365807Y-144455058D01*
X167358350Y-144458193D01*
X167167482Y-144557553D01*
X167160623Y-144561872D01*
X167137726Y-144579064D01*
X167130058Y-144589975D01*
X145789293Y-144589975D01*
X145791169Y-144586292D01*
X145790830Y-144584152D01*
X145787796Y-144580451D01*
X145787268Y-144580034D01*
X145780527Y-144575555D01*
X145592141Y-144471560D01*
X145584749Y-144468238D01*
X145381920Y-144396412D01*
X145374081Y-144394341D01*
X145162228Y-144356605D01*
X145154185Y-144355844D01*
X144939008Y-144353215D01*
X144930929Y-144353780D01*
X144718228Y-144386328D01*
X144710341Y-144388207D01*
X144505807Y-144455058D01*
X144498350Y-144458193D01*
X144307482Y-144557553D01*
X144300623Y-144561872D01*
X144277726Y-144579064D01*
X144270058Y-144589975D01*
X129250500Y-144589975D01*
X129250500Y-132971069D01*
X153090164Y-132971069D01*
X153103392Y-133172894D01*
X153104508Y-133177287D01*
X153104508Y-133177289D01*
X153126099Y-133262304D01*
X153153178Y-133368928D01*
X153237856Y-133552607D01*
X153354588Y-133717780D01*
X153499466Y-133858913D01*
X153667637Y-133971282D01*
X153853470Y-134051122D01*
X154050740Y-134095760D01*
X154252842Y-134103700D01*
X154306377Y-134095938D01*
X154448519Y-134075329D01*
X154448522Y-134075328D01*
X154453007Y-134074678D01*
X154548769Y-134042171D01*
X154640234Y-134011123D01*
X154640237Y-134011121D01*
X154644531Y-134009664D01*
X154821001Y-133910837D01*
X154976505Y-133781505D01*
X155105837Y-133626001D01*
X155204664Y-133449531D01*
X155210859Y-133431283D01*
X155237171Y-133353769D01*
X155269678Y-133258007D01*
X155298700Y-133057842D01*
X155300215Y-133000000D01*
X155281708Y-132798591D01*
X155226807Y-132603926D01*
X155225896Y-132602080D01*
X155222730Y-132541713D01*
X155248354Y-132497328D01*
X156215496Y-131530186D01*
X156270013Y-131502409D01*
X156330445Y-131511980D01*
X156373710Y-131555245D01*
X156384500Y-131600190D01*
X156384500Y-131887222D01*
X156365593Y-131945413D01*
X156319765Y-131980103D01*
X156263456Y-132000876D01*
X156263453Y-132000877D01*
X156259193Y-132002449D01*
X156255290Y-132004771D01*
X156255288Y-132004772D01*
X156206197Y-132033978D01*
X156085371Y-132105862D01*
X156081956Y-132108857D01*
X156081953Y-132108859D01*
X156065630Y-132123174D01*
X155933305Y-132239220D01*
X155808089Y-132398057D01*
X155713914Y-132577053D01*
X155712569Y-132581384D01*
X155712568Y-132581387D01*
X155664015Y-132737757D01*
X155653937Y-132770213D01*
X155630164Y-132971069D01*
X155643392Y-133172894D01*
X155644508Y-133177287D01*
X155644508Y-133177289D01*
X155666099Y-133262304D01*
X155693178Y-133368928D01*
X155777856Y-133552607D01*
X155894588Y-133717780D01*
X156039466Y-133858913D01*
X156207637Y-133971282D01*
X156393470Y-134051122D01*
X156590740Y-134095760D01*
X156792842Y-134103700D01*
X156846377Y-134095938D01*
X156988519Y-134075329D01*
X156988522Y-134075328D01*
X156993007Y-134074678D01*
X157088769Y-134042171D01*
X157180234Y-134011123D01*
X157180237Y-134011121D01*
X157184531Y-134009664D01*
X157361001Y-133910837D01*
X157516505Y-133781505D01*
X157645837Y-133626001D01*
X157731624Y-133472816D01*
X157776553Y-133431283D01*
X157837315Y-133424091D01*
X157890699Y-133453987D01*
X157916315Y-133509552D01*
X157917001Y-133521189D01*
X157917001Y-133895411D01*
X157917290Y-133900751D01*
X157923078Y-133954035D01*
X157925927Y-133966020D01*
X157972351Y-134089855D01*
X157979059Y-134102108D01*
X158057863Y-134207256D01*
X158067744Y-134217137D01*
X158172892Y-134295941D01*
X158185145Y-134302649D01*
X158308978Y-134349072D01*
X158320967Y-134351923D01*
X158374252Y-134357711D01*
X158379586Y-134358000D01*
X159005320Y-134358000D01*
X159018005Y-134353878D01*
X159021000Y-134349757D01*
X159021000Y-134342319D01*
X159529000Y-134342319D01*
X159533122Y-134355004D01*
X159537243Y-134357999D01*
X160170411Y-134357999D01*
X160175751Y-134357710D01*
X160229035Y-134351922D01*
X160241020Y-134349073D01*
X160364855Y-134302649D01*
X160377108Y-134295941D01*
X160482256Y-134217137D01*
X160492137Y-134207256D01*
X160570941Y-134102108D01*
X160577649Y-134089855D01*
X160624072Y-133966022D01*
X160626923Y-133954033D01*
X160632711Y-133900748D01*
X160633000Y-133895414D01*
X160633000Y-133269680D01*
X160628878Y-133256995D01*
X160624757Y-133254000D01*
X159544680Y-133254000D01*
X159531995Y-133258122D01*
X159529000Y-133262243D01*
X159529000Y-134342319D01*
X159021000Y-134342319D01*
X159021000Y-132730320D01*
X159529000Y-132730320D01*
X159533122Y-132743005D01*
X159537243Y-132746000D01*
X160617319Y-132746000D01*
X160630004Y-132741878D01*
X160632999Y-132737757D01*
X160632999Y-132104589D01*
X160632710Y-132099249D01*
X160626922Y-132045965D01*
X160624073Y-132033980D01*
X160577649Y-131910145D01*
X160570941Y-131897892D01*
X160492137Y-131792744D01*
X160482256Y-131782863D01*
X160377108Y-131704059D01*
X160364855Y-131697351D01*
X160241022Y-131650928D01*
X160229033Y-131648077D01*
X160175748Y-131642289D01*
X160170414Y-131642000D01*
X159544680Y-131642000D01*
X159531995Y-131646122D01*
X159529000Y-131650243D01*
X159529000Y-132730320D01*
X159021000Y-132730320D01*
X159021000Y-131657681D01*
X159016878Y-131644996D01*
X159012757Y-131642001D01*
X158379589Y-131642001D01*
X158374249Y-131642290D01*
X158320965Y-131648078D01*
X158308980Y-131650927D01*
X158185145Y-131697351D01*
X158172892Y-131704059D01*
X158067744Y-131782863D01*
X158057863Y-131792744D01*
X157979059Y-131897892D01*
X157972351Y-131910145D01*
X157925928Y-132033978D01*
X157923077Y-132045967D01*
X157917289Y-132099252D01*
X157917000Y-132104586D01*
X157917000Y-132483900D01*
X157898093Y-132542091D01*
X157848593Y-132578055D01*
X157787407Y-132578055D01*
X157737907Y-132542091D01*
X157729210Y-132527686D01*
X157679362Y-132426603D01*
X157679357Y-132426595D01*
X157677351Y-132422527D01*
X157556335Y-132260467D01*
X157407812Y-132123174D01*
X157385125Y-132108859D01*
X157240594Y-132017667D01*
X157236757Y-132015246D01*
X157147815Y-131979762D01*
X157100773Y-131940638D01*
X157085500Y-131887810D01*
X157085500Y-131451190D01*
X157104407Y-131392999D01*
X157114496Y-131381186D01*
X157366186Y-131129496D01*
X157420703Y-131101719D01*
X157436190Y-131100500D01*
X160202052Y-131100500D01*
X160222888Y-131102718D01*
X160224170Y-131102994D01*
X160233261Y-131104951D01*
X160265071Y-131101186D01*
X160270963Y-131100839D01*
X160270963Y-131100836D01*
X160275030Y-131100500D01*
X160279115Y-131100500D01*
X160283141Y-131099830D01*
X160283152Y-131099829D01*
X160297119Y-131097504D01*
X160301726Y-131096848D01*
X160324689Y-131094130D01*
X160341012Y-131092198D01*
X160341013Y-131092198D01*
X160349138Y-131091236D01*
X160356122Y-131087882D01*
X160357454Y-131087461D01*
X160365103Y-131086188D01*
X160407160Y-131063495D01*
X160411283Y-131061395D01*
X160448717Y-131043420D01*
X160448721Y-131043418D01*
X160454326Y-131040726D01*
X160458274Y-131037408D01*
X160459782Y-131035900D01*
X160461071Y-131034718D01*
X160462097Y-131033852D01*
X160467794Y-131030778D01*
X160473345Y-131024773D01*
X160473350Y-131024769D01*
X160501809Y-130993982D01*
X160504503Y-130991179D01*
X161440342Y-130055340D01*
X161494859Y-130027563D01*
X161555291Y-130037134D01*
X161598556Y-130080399D01*
X161608499Y-130138266D01*
X161594758Y-130242640D01*
X161595413Y-130248573D01*
X161595413Y-130248577D01*
X161611330Y-130392753D01*
X161612035Y-130399135D01*
X161666143Y-130546992D01*
X161669472Y-130551946D01*
X161750629Y-130672721D01*
X161750632Y-130672725D01*
X161753958Y-130677674D01*
X161758369Y-130681688D01*
X161758371Y-130681690D01*
X161770849Y-130693044D01*
X161870410Y-130783637D01*
X161891885Y-130795297D01*
X162003530Y-130855916D01*
X162003532Y-130855917D01*
X162008776Y-130858764D01*
X162088534Y-130879688D01*
X162155300Y-130897204D01*
X162155304Y-130897204D01*
X162161069Y-130898717D01*
X162167030Y-130898811D01*
X162167033Y-130898811D01*
X162239782Y-130899953D01*
X162318495Y-130901190D01*
X162335899Y-130897204D01*
X162466149Y-130867373D01*
X162466151Y-130867372D01*
X162471968Y-130866040D01*
X162477299Y-130863359D01*
X162607299Y-130797976D01*
X162607301Y-130797975D01*
X162612625Y-130795297D01*
X162626277Y-130783637D01*
X162727810Y-130696920D01*
X162727811Y-130696919D01*
X162732348Y-130693044D01*
X162824224Y-130565185D01*
X162882950Y-130419100D01*
X162884994Y-130404742D01*
X162904678Y-130266431D01*
X162904678Y-130266427D01*
X162905134Y-130263225D01*
X162905278Y-130249502D01*
X162886363Y-130093196D01*
X162881528Y-130080399D01*
X162832820Y-129951498D01*
X162830710Y-129945914D01*
X162741531Y-129816159D01*
X162737078Y-129812192D01*
X162737075Y-129812188D01*
X162628431Y-129715390D01*
X162628430Y-129715389D01*
X162623976Y-129711421D01*
X162618709Y-129708632D01*
X162618703Y-129708628D01*
X162553175Y-129673933D01*
X162510595Y-129629994D01*
X162500500Y-129586440D01*
X162500500Y-127091825D01*
X162519407Y-127033634D01*
X162529496Y-127021821D01*
X162558179Y-126993138D01*
X174344758Y-126993138D01*
X174345413Y-126999071D01*
X174345413Y-126999075D01*
X174355653Y-127091825D01*
X174362035Y-127149633D01*
X174364087Y-127155240D01*
X174413668Y-127290726D01*
X174416143Y-127297490D01*
X174419472Y-127302444D01*
X174500629Y-127423219D01*
X174500632Y-127423223D01*
X174503958Y-127428172D01*
X174508369Y-127432186D01*
X174508371Y-127432188D01*
X174520849Y-127443542D01*
X174620410Y-127534135D01*
X174641885Y-127545795D01*
X174753530Y-127606414D01*
X174753532Y-127606415D01*
X174758776Y-127609262D01*
X174838534Y-127630186D01*
X174905300Y-127647702D01*
X174905304Y-127647702D01*
X174911069Y-127649215D01*
X174917030Y-127649309D01*
X174917033Y-127649309D01*
X174989782Y-127650452D01*
X175068495Y-127651688D01*
X175085899Y-127647702D01*
X175216149Y-127617871D01*
X175216151Y-127617870D01*
X175221968Y-127616538D01*
X175227299Y-127613857D01*
X175357299Y-127548474D01*
X175357301Y-127548473D01*
X175362625Y-127545795D01*
X175482348Y-127443542D01*
X175519580Y-127391728D01*
X175568888Y-127355507D01*
X175599974Y-127350500D01*
X175952052Y-127350500D01*
X175972888Y-127352718D01*
X175974170Y-127352994D01*
X175983261Y-127354951D01*
X176015071Y-127351186D01*
X176020963Y-127350839D01*
X176020963Y-127350836D01*
X176025030Y-127350500D01*
X176029115Y-127350500D01*
X176033141Y-127349830D01*
X176033152Y-127349829D01*
X176047119Y-127347504D01*
X176051726Y-127346848D01*
X176074689Y-127344130D01*
X176091012Y-127342198D01*
X176091013Y-127342198D01*
X176099138Y-127341236D01*
X176106122Y-127337882D01*
X176107454Y-127337461D01*
X176115103Y-127336188D01*
X176157160Y-127313495D01*
X176161283Y-127311395D01*
X176198717Y-127293420D01*
X176198721Y-127293418D01*
X176204326Y-127290726D01*
X176208274Y-127287408D01*
X176209782Y-127285900D01*
X176211071Y-127284718D01*
X176212097Y-127283852D01*
X176217794Y-127280778D01*
X176223345Y-127274773D01*
X176223350Y-127274769D01*
X176251809Y-127243982D01*
X176254503Y-127241179D01*
X178213937Y-125281745D01*
X178230240Y-125268580D01*
X178232274Y-125267267D01*
X178232278Y-125267264D01*
X178239152Y-125262825D01*
X178258985Y-125237668D01*
X178262899Y-125233263D01*
X178262898Y-125233262D01*
X178265551Y-125230131D01*
X178268428Y-125227254D01*
X178279044Y-125212399D01*
X178281835Y-125208681D01*
X178306327Y-125177614D01*
X178306327Y-125177613D01*
X178311392Y-125171189D01*
X178313958Y-125163882D01*
X178314605Y-125162637D01*
X178319111Y-125156331D01*
X178332793Y-125110583D01*
X178334234Y-125106149D01*
X178347992Y-125066970D01*
X178347993Y-125066967D01*
X178350055Y-125061094D01*
X178350500Y-125055956D01*
X178350500Y-125053818D01*
X178350574Y-125052100D01*
X178350689Y-125050739D01*
X178352544Y-125044537D01*
X178350747Y-124998786D01*
X178350576Y-124994446D01*
X178350500Y-124990559D01*
X178350500Y-124101790D01*
X178369407Y-124043599D01*
X178385205Y-124026510D01*
X178477810Y-123947418D01*
X178477811Y-123947417D01*
X178482348Y-123943542D01*
X178574224Y-123815683D01*
X178632950Y-123669598D01*
X178634141Y-123661233D01*
X178654678Y-123516929D01*
X178654678Y-123516925D01*
X178655134Y-123513723D01*
X178655278Y-123500000D01*
X178636363Y-123343694D01*
X178633460Y-123336010D01*
X178582820Y-123201996D01*
X178580710Y-123196412D01*
X178491531Y-123066657D01*
X178487078Y-123062690D01*
X178487075Y-123062686D01*
X178419557Y-123002531D01*
X178373976Y-122961919D01*
X178361462Y-122955293D01*
X178240105Y-122891037D01*
X178240102Y-122891036D01*
X178234831Y-122888245D01*
X178158480Y-122869067D01*
X178087918Y-122851343D01*
X178087915Y-122851343D01*
X178082128Y-122849889D01*
X178002564Y-122849473D01*
X177930650Y-122849096D01*
X177930648Y-122849096D01*
X177924684Y-122849065D01*
X177771588Y-122885820D01*
X177721125Y-122911866D01*
X177636985Y-122955293D01*
X177636983Y-122955295D01*
X177631679Y-122958032D01*
X177513034Y-123061533D01*
X177422501Y-123190348D01*
X177420334Y-123195906D01*
X177412798Y-123215235D01*
X177365309Y-123337039D01*
X177364531Y-123342950D01*
X177364530Y-123342953D01*
X177363653Y-123349616D01*
X177344758Y-123493138D01*
X177345413Y-123499071D01*
X177345413Y-123499075D01*
X177347950Y-123522053D01*
X177362035Y-123649633D01*
X177416143Y-123797490D01*
X177419472Y-123802444D01*
X177500629Y-123923219D01*
X177500632Y-123923223D01*
X177503958Y-123928172D01*
X177508368Y-123932184D01*
X177508375Y-123932193D01*
X177617128Y-124031150D01*
X177647443Y-124084297D01*
X177649500Y-124104373D01*
X177649500Y-124813810D01*
X177630593Y-124872001D01*
X177620504Y-124883814D01*
X175883814Y-126620504D01*
X175829297Y-126648281D01*
X175813810Y-126649500D01*
X175600554Y-126649500D01*
X175542363Y-126630593D01*
X175518966Y-126606574D01*
X175494915Y-126571579D01*
X175494910Y-126571573D01*
X175491531Y-126566657D01*
X175487078Y-126562690D01*
X175487075Y-126562686D01*
X175419557Y-126502531D01*
X175373976Y-126461919D01*
X175266929Y-126405240D01*
X175240105Y-126391037D01*
X175240102Y-126391036D01*
X175234831Y-126388245D01*
X175158480Y-126369067D01*
X175087918Y-126351343D01*
X175087915Y-126351343D01*
X175082128Y-126349889D01*
X175002564Y-126349473D01*
X174930650Y-126349096D01*
X174930648Y-126349096D01*
X174924684Y-126349065D01*
X174771588Y-126385820D01*
X174699035Y-126423267D01*
X174636985Y-126455293D01*
X174636983Y-126455295D01*
X174631679Y-126458032D01*
X174513034Y-126561533D01*
X174422501Y-126690348D01*
X174365309Y-126837039D01*
X174344758Y-126993138D01*
X162558179Y-126993138D01*
X162563937Y-126987380D01*
X162580240Y-126974215D01*
X162582274Y-126972902D01*
X162582278Y-126972899D01*
X162589152Y-126968460D01*
X162608984Y-126943303D01*
X162612900Y-126938897D01*
X162612899Y-126938896D01*
X162615550Y-126935767D01*
X162618429Y-126932888D01*
X162620798Y-126929573D01*
X162629037Y-126918044D01*
X162631836Y-126914316D01*
X162642669Y-126900574D01*
X162661392Y-126876824D01*
X162663957Y-126869521D01*
X162664609Y-126868266D01*
X162669111Y-126861965D01*
X162682791Y-126816223D01*
X162684232Y-126811789D01*
X162697992Y-126772605D01*
X162697993Y-126772601D01*
X162700055Y-126766729D01*
X162700500Y-126761591D01*
X162700500Y-126759453D01*
X162700574Y-126757734D01*
X162700689Y-126756373D01*
X162702544Y-126750171D01*
X162700576Y-126700081D01*
X162700500Y-126696194D01*
X162700500Y-125842314D01*
X162702718Y-125821476D01*
X162703229Y-125819105D01*
X162703229Y-125819102D01*
X162704951Y-125811105D01*
X162701186Y-125779295D01*
X162700839Y-125773403D01*
X162700836Y-125773403D01*
X162700500Y-125769335D01*
X162700500Y-125765250D01*
X162697502Y-125747238D01*
X162696847Y-125742632D01*
X162695472Y-125731014D01*
X162691236Y-125695227D01*
X162687882Y-125688242D01*
X162687461Y-125686911D01*
X162686188Y-125679262D01*
X162663495Y-125637205D01*
X162661395Y-125633082D01*
X162643420Y-125595648D01*
X162643418Y-125595644D01*
X162640726Y-125590039D01*
X162637408Y-125586091D01*
X162635902Y-125584585D01*
X162634711Y-125583286D01*
X162633852Y-125582268D01*
X162630778Y-125576571D01*
X162593982Y-125542557D01*
X162591180Y-125539863D01*
X162529496Y-125478178D01*
X162501719Y-125423661D01*
X162500500Y-125408175D01*
X162500500Y-122447948D01*
X162502718Y-122427112D01*
X162503228Y-122424741D01*
X162504951Y-122416739D01*
X162501186Y-122384929D01*
X162500839Y-122379037D01*
X162500836Y-122379037D01*
X162500500Y-122374970D01*
X162500500Y-122370885D01*
X162499830Y-122366859D01*
X162499829Y-122366848D01*
X162497504Y-122352881D01*
X162496846Y-122348262D01*
X162492197Y-122308983D01*
X162491236Y-122300861D01*
X162487883Y-122293878D01*
X162487461Y-122292544D01*
X162486188Y-122284897D01*
X162463506Y-122242861D01*
X162461388Y-122238703D01*
X162443422Y-122201288D01*
X162443421Y-122201287D01*
X162440726Y-122195674D01*
X162437408Y-122191726D01*
X162435898Y-122190216D01*
X162434718Y-122188929D01*
X162433852Y-122187903D01*
X162430778Y-122182206D01*
X162424773Y-122176655D01*
X162424769Y-122176650D01*
X162393982Y-122148191D01*
X162391179Y-122145497D01*
X161921956Y-121676274D01*
X161894179Y-121621757D01*
X161893948Y-121592321D01*
X161904678Y-121516929D01*
X161904678Y-121516925D01*
X161905134Y-121513723D01*
X161905278Y-121500000D01*
X161886363Y-121343694D01*
X161830710Y-121196412D01*
X161741531Y-121066657D01*
X161737078Y-121062690D01*
X161737075Y-121062686D01*
X161669557Y-121002531D01*
X161623976Y-120961919D01*
X161611462Y-120955293D01*
X161490105Y-120891037D01*
X161490102Y-120891036D01*
X161484831Y-120888245D01*
X161408480Y-120869067D01*
X161337918Y-120851343D01*
X161337915Y-120851343D01*
X161332128Y-120849889D01*
X161252564Y-120849473D01*
X161180650Y-120849096D01*
X161180648Y-120849096D01*
X161174684Y-120849065D01*
X161021588Y-120885820D01*
X160949035Y-120923267D01*
X160886985Y-120955293D01*
X160886983Y-120955295D01*
X160881679Y-120958032D01*
X160763034Y-121061533D01*
X160672501Y-121190348D01*
X160615309Y-121337039D01*
X160614531Y-121342950D01*
X160614530Y-121342953D01*
X160613653Y-121349616D01*
X160594758Y-121493138D01*
X160595413Y-121499071D01*
X160595413Y-121499075D01*
X160605708Y-121592321D01*
X160612035Y-121649633D01*
X160666143Y-121797490D01*
X160669472Y-121802444D01*
X160750629Y-121923219D01*
X160750632Y-121923223D01*
X160753958Y-121928172D01*
X160758369Y-121932186D01*
X160758371Y-121932188D01*
X160865995Y-122030118D01*
X160870410Y-122034135D01*
X160939593Y-122071698D01*
X161003530Y-122106414D01*
X161003532Y-122106415D01*
X161008776Y-122109262D01*
X161014547Y-122110776D01*
X161014557Y-122110780D01*
X161094414Y-122131730D01*
X161145902Y-122164785D01*
X161168128Y-122221790D01*
X161152601Y-122280973D01*
X161114699Y-122315462D01*
X161007437Y-122370823D01*
X160888792Y-122474324D01*
X160798259Y-122603139D01*
X160741067Y-122749830D01*
X160720516Y-122905929D01*
X160721171Y-122911862D01*
X160721171Y-122911866D01*
X160726268Y-122958032D01*
X160737793Y-123062424D01*
X160739845Y-123068031D01*
X160786826Y-123196412D01*
X160791901Y-123210281D01*
X160795230Y-123215235D01*
X160876387Y-123336010D01*
X160876390Y-123336014D01*
X160879716Y-123340963D01*
X160884127Y-123344977D01*
X160884129Y-123344979D01*
X160991753Y-123442909D01*
X160996168Y-123446926D01*
X161065351Y-123484489D01*
X161129288Y-123519205D01*
X161129290Y-123519206D01*
X161134534Y-123522053D01*
X161214292Y-123542977D01*
X161281058Y-123560493D01*
X161281062Y-123560493D01*
X161286827Y-123562006D01*
X161292788Y-123562100D01*
X161292791Y-123562100D01*
X161298385Y-123562188D01*
X161302055Y-123562245D01*
X161359940Y-123582063D01*
X161395123Y-123632122D01*
X161399500Y-123661233D01*
X161399500Y-125500722D01*
X161380593Y-125558913D01*
X161331093Y-125594877D01*
X161299983Y-125599721D01*
X161238277Y-125599398D01*
X161180650Y-125599096D01*
X161180648Y-125599096D01*
X161174684Y-125599065D01*
X161095339Y-125618114D01*
X161032993Y-125633082D01*
X161021588Y-125635820D01*
X160881679Y-125708032D01*
X160877180Y-125711957D01*
X160874254Y-125713945D01*
X160815498Y-125731014D01*
X160757930Y-125710287D01*
X160723539Y-125659681D01*
X160720597Y-125618114D01*
X160729751Y-125553796D01*
X160729751Y-125553792D01*
X160730207Y-125550590D01*
X160730351Y-125536867D01*
X160711436Y-125380561D01*
X160655783Y-125233279D01*
X160566604Y-125103524D01*
X160562151Y-125099557D01*
X160562148Y-125099553D01*
X160491228Y-125036366D01*
X160449049Y-124998786D01*
X160433511Y-124990559D01*
X160315178Y-124927904D01*
X160315175Y-124927903D01*
X160309904Y-124925112D01*
X160157201Y-124886756D01*
X160157568Y-124885295D01*
X160106105Y-124860085D01*
X159529496Y-124283476D01*
X159501719Y-124228959D01*
X159500500Y-124213472D01*
X159500500Y-118708146D01*
X159519407Y-118649955D01*
X159545515Y-118627259D01*
X159544778Y-118626250D01*
X159544779Y-118626249D01*
X159544780Y-118626249D01*
X159553065Y-118620197D01*
X159570479Y-118610021D01*
X159579821Y-118605773D01*
X159595734Y-118592061D01*
X159615888Y-118574696D01*
X159622109Y-118569756D01*
X159622539Y-118569442D01*
X159633729Y-118561267D01*
X159645193Y-118549803D01*
X159650574Y-118544808D01*
X159683086Y-118516794D01*
X159683087Y-118516793D01*
X159688430Y-118512189D01*
X159693104Y-118504978D01*
X159706175Y-118488821D01*
X161642775Y-116552220D01*
X161690677Y-116525723D01*
X161826612Y-116494590D01*
X161826614Y-116494589D01*
X161832431Y-116493257D01*
X161837762Y-116490576D01*
X161967762Y-116425193D01*
X161967764Y-116425192D01*
X161973088Y-116422514D01*
X162053475Y-116353857D01*
X162088273Y-116324137D01*
X162088274Y-116324136D01*
X162092811Y-116320261D01*
X162184687Y-116192402D01*
X162190197Y-116178697D01*
X162241189Y-116051850D01*
X162241190Y-116051848D01*
X162243413Y-116046317D01*
X162244670Y-116037490D01*
X162265141Y-115893648D01*
X162265141Y-115893644D01*
X162265597Y-115890442D01*
X162265741Y-115876719D01*
X162250466Y-115750491D01*
X162247543Y-115726335D01*
X162247542Y-115726332D01*
X162246826Y-115720413D01*
X162229716Y-115675131D01*
X162193283Y-115578715D01*
X162191173Y-115573131D01*
X162101994Y-115443376D01*
X162097541Y-115439409D01*
X162097538Y-115439405D01*
X161996760Y-115349616D01*
X161984439Y-115338638D01*
X161977098Y-115334751D01*
X161850568Y-115267756D01*
X161850565Y-115267755D01*
X161845294Y-115264964D01*
X161768943Y-115245786D01*
X161698381Y-115228062D01*
X161698378Y-115228062D01*
X161692591Y-115226608D01*
X161613027Y-115226192D01*
X161541113Y-115225815D01*
X161541111Y-115225815D01*
X161535147Y-115225784D01*
X161382051Y-115262539D01*
X161310194Y-115299627D01*
X161247448Y-115332012D01*
X161247446Y-115332014D01*
X161242142Y-115334751D01*
X161123497Y-115438252D01*
X161032964Y-115567067D01*
X160975772Y-115713758D01*
X160974994Y-115719669D01*
X160974993Y-115719672D01*
X160966538Y-115783897D01*
X160938389Y-115840979D01*
X159144950Y-117634418D01*
X159090433Y-117662195D01*
X159030001Y-117652624D01*
X159018444Y-117645707D01*
X159018405Y-117645680D01*
X159013947Y-117641708D01*
X158979560Y-117623501D01*
X158880076Y-117570826D01*
X158880073Y-117570825D01*
X158874802Y-117568034D01*
X158789469Y-117546600D01*
X158727889Y-117531132D01*
X158727886Y-117531132D01*
X158722099Y-117529678D01*
X158642535Y-117529262D01*
X158570621Y-117528885D01*
X158570619Y-117528885D01*
X158564655Y-117528854D01*
X158411559Y-117565609D01*
X158339006Y-117603056D01*
X158276956Y-117635082D01*
X158276954Y-117635084D01*
X158271650Y-117637821D01*
X158153005Y-117741322D01*
X158062472Y-117870137D01*
X158005280Y-118016828D01*
X158004502Y-118022739D01*
X158004501Y-118022742D01*
X157996770Y-118081469D01*
X157984729Y-118172927D01*
X158002006Y-118329422D01*
X158004058Y-118335029D01*
X158029742Y-118405213D01*
X158056114Y-118477279D01*
X158059443Y-118482233D01*
X158140600Y-118603008D01*
X158140603Y-118603012D01*
X158143929Y-118607961D01*
X158148340Y-118611975D01*
X158148342Y-118611977D01*
X158217420Y-118674833D01*
X158260381Y-118713924D01*
X158286499Y-118728105D01*
X158393501Y-118786203D01*
X158393503Y-118786204D01*
X158398747Y-118789051D01*
X158404521Y-118790566D01*
X158404524Y-118790567D01*
X158425624Y-118796103D01*
X158477111Y-118829159D01*
X158499500Y-118891862D01*
X158499500Y-124394628D01*
X158498081Y-124407329D01*
X158498103Y-124407331D01*
X158497537Y-124414363D01*
X158495981Y-124421241D01*
X158496418Y-124428279D01*
X158499310Y-124474896D01*
X158499500Y-124481027D01*
X158499500Y-124497734D01*
X158499999Y-124501221D01*
X158500000Y-124501229D01*
X158501101Y-124508915D01*
X158501911Y-124516818D01*
X158504859Y-124564332D01*
X158507252Y-124570961D01*
X158507253Y-124570965D01*
X158508342Y-124573981D01*
X158513223Y-124593557D01*
X158514677Y-124603712D01*
X158517596Y-124610131D01*
X158517597Y-124610136D01*
X158534381Y-124647051D01*
X158537377Y-124654409D01*
X158553540Y-124699181D01*
X158559592Y-124707466D01*
X158569768Y-124724880D01*
X158574016Y-124734222D01*
X158578621Y-124739566D01*
X158605093Y-124770289D01*
X158610033Y-124776510D01*
X158618522Y-124788130D01*
X158629986Y-124799594D01*
X158634981Y-124804975D01*
X158667600Y-124842831D01*
X158673520Y-124846668D01*
X158674811Y-124847505D01*
X158690968Y-124860576D01*
X159054335Y-125223942D01*
X159402624Y-125572231D01*
X159431022Y-125631372D01*
X159437108Y-125686500D01*
X159439158Y-125692102D01*
X159439159Y-125692106D01*
X159486502Y-125821476D01*
X159491216Y-125834357D01*
X159494545Y-125839311D01*
X159575702Y-125960086D01*
X159575705Y-125960090D01*
X159579031Y-125965039D01*
X159583442Y-125969053D01*
X159583444Y-125969055D01*
X159595922Y-125980409D01*
X159695483Y-126071002D01*
X159764666Y-126108565D01*
X159828603Y-126143281D01*
X159828605Y-126143282D01*
X159833849Y-126146129D01*
X159912997Y-126166893D01*
X159980373Y-126184569D01*
X159980377Y-126184569D01*
X159986142Y-126186082D01*
X159992103Y-126186176D01*
X159992106Y-126186176D01*
X160064855Y-126187318D01*
X160143568Y-126188555D01*
X160160972Y-126184569D01*
X160291222Y-126154738D01*
X160291224Y-126154737D01*
X160297041Y-126153405D01*
X160302372Y-126150724D01*
X160432372Y-126085341D01*
X160432374Y-126085340D01*
X160437698Y-126082662D01*
X160442352Y-126078687D01*
X160442442Y-126078650D01*
X160447205Y-126075485D01*
X160447826Y-126076420D01*
X160498881Y-126055276D01*
X160558375Y-126069563D01*
X160598109Y-126116091D01*
X160604796Y-126166893D01*
X160594758Y-126243138D01*
X160612035Y-126399633D01*
X160614087Y-126405240D01*
X160636281Y-126465887D01*
X160666143Y-126547490D01*
X160669472Y-126552444D01*
X160750629Y-126673219D01*
X160750632Y-126673223D01*
X160753958Y-126678172D01*
X160758368Y-126682184D01*
X160758375Y-126682193D01*
X160867128Y-126781150D01*
X160897443Y-126834297D01*
X160899500Y-126854373D01*
X160899500Y-128813810D01*
X160880593Y-128872001D01*
X160870504Y-128883814D01*
X159883814Y-129870504D01*
X159829297Y-129898281D01*
X159813810Y-129899500D01*
X157047948Y-129899500D01*
X157027112Y-129897282D01*
X157025830Y-129897006D01*
X157016739Y-129895049D01*
X156984929Y-129898814D01*
X156979037Y-129899161D01*
X156979037Y-129899164D01*
X156974970Y-129899500D01*
X156970885Y-129899500D01*
X156966859Y-129900170D01*
X156966848Y-129900171D01*
X156952881Y-129902496D01*
X156948269Y-129903153D01*
X156900861Y-129908764D01*
X156893878Y-129912117D01*
X156892544Y-129912539D01*
X156884897Y-129913812D01*
X156877696Y-129917698D01*
X156877695Y-129917698D01*
X156842861Y-129936494D01*
X156838703Y-129938612D01*
X156801288Y-129956578D01*
X156801287Y-129956579D01*
X156795674Y-129959274D01*
X156791726Y-129962592D01*
X156790216Y-129964102D01*
X156788929Y-129965282D01*
X156787903Y-129966148D01*
X156782206Y-129969222D01*
X156776655Y-129975227D01*
X156776650Y-129975231D01*
X156748191Y-130006018D01*
X156745497Y-130008821D01*
X154773119Y-131981199D01*
X154718602Y-132008976D01*
X154666431Y-132003147D01*
X154508898Y-131940298D01*
X154310526Y-131900839D01*
X154210930Y-131899535D01*
X154112826Y-131898251D01*
X154112821Y-131898251D01*
X154108286Y-131898192D01*
X154103813Y-131898961D01*
X154103808Y-131898961D01*
X154005245Y-131915898D01*
X153908949Y-131932444D01*
X153719193Y-132002449D01*
X153545371Y-132105862D01*
X153541956Y-132108857D01*
X153541953Y-132108859D01*
X153525630Y-132123174D01*
X153393305Y-132239220D01*
X153268089Y-132398057D01*
X153173914Y-132577053D01*
X153172569Y-132581384D01*
X153172568Y-132581387D01*
X153124015Y-132737757D01*
X153113937Y-132770213D01*
X153090164Y-132971069D01*
X129250500Y-132971069D01*
X129250500Y-117493138D01*
X153344758Y-117493138D01*
X153345413Y-117499071D01*
X153345413Y-117499075D01*
X153350352Y-117543809D01*
X153362035Y-117649633D01*
X153364087Y-117655240D01*
X153410143Y-117781093D01*
X153416143Y-117797490D01*
X153419472Y-117802444D01*
X153500629Y-117923219D01*
X153500632Y-117923223D01*
X153503958Y-117928172D01*
X153508369Y-117932186D01*
X153508371Y-117932188D01*
X153607889Y-118022742D01*
X153620410Y-118034135D01*
X153641885Y-118045795D01*
X153753530Y-118106414D01*
X153753532Y-118106415D01*
X153758776Y-118109262D01*
X153838534Y-118130186D01*
X153905300Y-118147702D01*
X153905304Y-118147702D01*
X153911069Y-118149215D01*
X153917030Y-118149309D01*
X153917033Y-118149309D01*
X153989782Y-118150452D01*
X154068495Y-118151688D01*
X154085899Y-118147702D01*
X154216149Y-118117871D01*
X154216151Y-118117870D01*
X154221968Y-118116538D01*
X154227299Y-118113857D01*
X154357299Y-118048474D01*
X154357301Y-118048473D01*
X154362625Y-118045795D01*
X154482348Y-117943542D01*
X154519580Y-117891728D01*
X154568888Y-117855507D01*
X154599974Y-117850500D01*
X154813810Y-117850500D01*
X154872001Y-117869407D01*
X154883814Y-117879496D01*
X155951589Y-118947271D01*
X155979366Y-119001788D01*
X155973823Y-119053236D01*
X155954333Y-119103225D01*
X155933782Y-119259324D01*
X155934437Y-119265257D01*
X155934437Y-119265261D01*
X155950354Y-119409437D01*
X155951059Y-119415819D01*
X156005167Y-119563676D01*
X156008496Y-119568630D01*
X156089653Y-119689405D01*
X156089656Y-119689409D01*
X156092982Y-119694358D01*
X156097393Y-119698372D01*
X156097395Y-119698374D01*
X156109873Y-119709728D01*
X156209434Y-119800321D01*
X156230909Y-119811981D01*
X156342554Y-119872600D01*
X156342556Y-119872601D01*
X156347800Y-119875448D01*
X156427558Y-119896372D01*
X156494324Y-119913888D01*
X156494328Y-119913888D01*
X156500093Y-119915401D01*
X156506054Y-119915495D01*
X156506057Y-119915495D01*
X156578806Y-119916637D01*
X156657519Y-119917874D01*
X156674923Y-119913888D01*
X156805173Y-119884057D01*
X156805175Y-119884056D01*
X156810992Y-119882724D01*
X156816323Y-119880043D01*
X156946323Y-119814660D01*
X156946325Y-119814659D01*
X156951649Y-119811981D01*
X156965301Y-119800321D01*
X157066834Y-119713604D01*
X157066835Y-119713603D01*
X157071372Y-119709728D01*
X157163248Y-119581869D01*
X157221974Y-119435784D01*
X157224018Y-119421426D01*
X157243702Y-119283115D01*
X157243702Y-119283111D01*
X157244158Y-119279909D01*
X157244302Y-119266186D01*
X157225387Y-119109880D01*
X157220773Y-119097668D01*
X157171844Y-118968182D01*
X157169734Y-118962598D01*
X157080555Y-118832843D01*
X156985706Y-118748335D01*
X156954838Y-118695510D01*
X156960914Y-118634627D01*
X156987270Y-118599140D01*
X157065765Y-118532099D01*
X157065766Y-118532098D01*
X157070303Y-118528223D01*
X157162179Y-118400364D01*
X157220905Y-118254279D01*
X157235696Y-118150356D01*
X157242633Y-118101610D01*
X157242633Y-118101606D01*
X157243089Y-118098404D01*
X157243233Y-118084681D01*
X157226623Y-117947419D01*
X157225035Y-117934297D01*
X157225034Y-117934294D01*
X157224318Y-117928375D01*
X157168665Y-117781093D01*
X157079486Y-117651338D01*
X157075033Y-117647371D01*
X157075030Y-117647367D01*
X157007512Y-117587212D01*
X156961931Y-117546600D01*
X156956660Y-117543809D01*
X156828060Y-117475718D01*
X156828057Y-117475717D01*
X156822786Y-117472926D01*
X156746435Y-117453748D01*
X156675873Y-117436024D01*
X156675870Y-117436024D01*
X156670083Y-117434570D01*
X156599481Y-117434200D01*
X156541391Y-117414989D01*
X156505687Y-117365302D01*
X156501000Y-117335202D01*
X156501000Y-114382939D01*
X170294636Y-114382939D01*
X170295965Y-114390215D01*
X170295965Y-114390218D01*
X170305248Y-114441043D01*
X170305758Y-114444105D01*
X170314551Y-114502591D01*
X170317679Y-114509104D01*
X170318975Y-114516202D01*
X170322386Y-114522768D01*
X170346198Y-114568609D01*
X170347588Y-114571391D01*
X170369987Y-114618037D01*
X170369989Y-114618040D01*
X170373191Y-114624708D01*
X170377297Y-114629150D01*
X170378820Y-114631410D01*
X170381421Y-114636417D01*
X170385725Y-114641457D01*
X170423357Y-114679089D01*
X170426051Y-114681892D01*
X170460124Y-114718753D01*
X170460127Y-114718755D01*
X170465146Y-114724185D01*
X170471210Y-114727707D01*
X170478535Y-114734267D01*
X171076832Y-115332564D01*
X171104609Y-115387081D01*
X171104981Y-115415486D01*
X171094758Y-115493138D01*
X171095413Y-115499071D01*
X171095413Y-115499075D01*
X171104755Y-115583694D01*
X171112035Y-115649633D01*
X171119341Y-115669598D01*
X171161169Y-115783897D01*
X171166143Y-115797490D01*
X171169472Y-115802444D01*
X171250629Y-115923219D01*
X171250632Y-115923223D01*
X171253958Y-115928172D01*
X171258369Y-115932186D01*
X171258371Y-115932188D01*
X171270849Y-115943542D01*
X171370410Y-116034135D01*
X171419027Y-116060532D01*
X171503530Y-116106414D01*
X171503532Y-116106415D01*
X171508776Y-116109262D01*
X171588534Y-116130186D01*
X171655300Y-116147702D01*
X171655304Y-116147702D01*
X171661069Y-116149215D01*
X171667030Y-116149309D01*
X171667033Y-116149309D01*
X171739782Y-116150452D01*
X171818495Y-116151688D01*
X171835899Y-116147702D01*
X171966149Y-116117871D01*
X171966151Y-116117870D01*
X171971968Y-116116538D01*
X171977299Y-116113857D01*
X172107299Y-116048474D01*
X172107301Y-116048473D01*
X172112625Y-116045795D01*
X172128913Y-116031884D01*
X172227810Y-115947418D01*
X172227811Y-115947417D01*
X172232348Y-115943542D01*
X172324224Y-115815683D01*
X172354649Y-115740000D01*
X172380726Y-115675131D01*
X172380727Y-115675129D01*
X172382950Y-115669598D01*
X172384994Y-115655240D01*
X172404678Y-115516929D01*
X172404678Y-115516925D01*
X172405134Y-115513723D01*
X172405278Y-115500000D01*
X172395051Y-115415491D01*
X172387080Y-115349616D01*
X172387079Y-115349613D01*
X172386363Y-115343694D01*
X172370868Y-115302686D01*
X172332820Y-115201996D01*
X172330710Y-115196412D01*
X172241531Y-115066657D01*
X172237078Y-115062690D01*
X172237075Y-115062686D01*
X172169557Y-115002531D01*
X172123976Y-114961919D01*
X172118705Y-114959128D01*
X171990105Y-114891037D01*
X171990102Y-114891036D01*
X171984831Y-114888245D01*
X171907058Y-114868710D01*
X171861172Y-114842697D01*
X171587084Y-114568609D01*
X171229496Y-114211022D01*
X171201719Y-114156505D01*
X171200500Y-114141018D01*
X171200500Y-113603463D01*
X171219407Y-113545272D01*
X171268907Y-113509308D01*
X171330093Y-113509308D01*
X171360791Y-113527139D01*
X171361131Y-113526661D01*
X171365994Y-113530117D01*
X171370410Y-113534135D01*
X171390922Y-113545272D01*
X171503530Y-113606414D01*
X171503532Y-113606415D01*
X171508776Y-113609262D01*
X171588534Y-113630186D01*
X171655300Y-113647702D01*
X171655304Y-113647702D01*
X171661069Y-113649215D01*
X171667030Y-113649309D01*
X171667033Y-113649309D01*
X171739782Y-113650452D01*
X171818495Y-113651688D01*
X171835899Y-113647702D01*
X171966149Y-113617871D01*
X171966151Y-113617870D01*
X171971968Y-113616538D01*
X171977299Y-113613857D01*
X172107299Y-113548474D01*
X172107301Y-113548473D01*
X172112625Y-113545795D01*
X172126277Y-113534135D01*
X172227810Y-113447418D01*
X172227811Y-113447417D01*
X172232348Y-113443542D01*
X172324224Y-113315683D01*
X172382950Y-113169598D01*
X172405134Y-113013723D01*
X172405278Y-113000000D01*
X172386363Y-112843694D01*
X172330710Y-112696412D01*
X172327326Y-112691488D01*
X172267912Y-112605040D01*
X172250500Y-112548966D01*
X172250500Y-112296240D01*
X172269407Y-112238049D01*
X172279496Y-112226236D01*
X172714870Y-111790862D01*
X173995497Y-111790862D01*
X174025134Y-111963340D01*
X174027387Y-111968635D01*
X174070745Y-112070532D01*
X174093654Y-112124373D01*
X174197383Y-112265324D01*
X174201765Y-112269047D01*
X174201767Y-112269049D01*
X174273131Y-112329677D01*
X174330755Y-112378632D01*
X174410337Y-112419269D01*
X174481492Y-112455603D01*
X174481495Y-112455604D01*
X174486616Y-112458219D01*
X174492201Y-112459586D01*
X174492202Y-112459586D01*
X174652326Y-112498768D01*
X174652329Y-112498768D01*
X174656606Y-112499815D01*
X174661004Y-112500088D01*
X174661005Y-112500088D01*
X174666132Y-112500406D01*
X174666133Y-112500406D01*
X174667648Y-112500500D01*
X174793822Y-112500500D01*
X174799698Y-112499815D01*
X174808678Y-112498768D01*
X174923828Y-112485343D01*
X174929234Y-112483381D01*
X174929237Y-112483380D01*
X175082923Y-112427594D01*
X175088331Y-112425631D01*
X175093140Y-112422478D01*
X175093144Y-112422476D01*
X175229877Y-112332829D01*
X175234685Y-112329677D01*
X175238634Y-112325508D01*
X175238638Y-112325505D01*
X175351084Y-112206804D01*
X175355040Y-112202628D01*
X175358067Y-112197418D01*
X175440050Y-112056272D01*
X175440050Y-112056271D01*
X175442939Y-112051298D01*
X175476848Y-111939338D01*
X175492000Y-111889312D01*
X175492000Y-111889310D01*
X175493667Y-111883807D01*
X175504503Y-111709138D01*
X175474866Y-111536660D01*
X175470677Y-111526816D01*
X175408597Y-111380917D01*
X175408597Y-111380916D01*
X175406346Y-111375627D01*
X175302617Y-111234676D01*
X175298235Y-111230953D01*
X175298233Y-111230951D01*
X175173631Y-111125094D01*
X175173630Y-111125093D01*
X175169245Y-111121368D01*
X175083382Y-111077524D01*
X175018508Y-111044397D01*
X175018505Y-111044396D01*
X175013384Y-111041781D01*
X175007799Y-111040414D01*
X175007798Y-111040414D01*
X174847674Y-111001232D01*
X174847671Y-111001232D01*
X174843394Y-111000185D01*
X174838996Y-110999912D01*
X174838995Y-110999912D01*
X174833868Y-110999594D01*
X174833867Y-110999594D01*
X174832352Y-110999500D01*
X174706178Y-110999500D01*
X174703331Y-110999832D01*
X174703330Y-110999832D01*
X174692662Y-111001076D01*
X174576172Y-111014657D01*
X174570766Y-111016619D01*
X174570763Y-111016620D01*
X174447031Y-111061533D01*
X174411669Y-111074369D01*
X174406860Y-111077522D01*
X174406856Y-111077524D01*
X174320065Y-111134427D01*
X174265315Y-111170323D01*
X174261366Y-111174492D01*
X174261362Y-111174495D01*
X174198841Y-111240494D01*
X174144960Y-111297372D01*
X174142073Y-111302342D01*
X174142071Y-111302345D01*
X174062872Y-111438697D01*
X174057061Y-111448702D01*
X174048183Y-111478014D01*
X174011354Y-111599616D01*
X174006333Y-111616193D01*
X173995497Y-111790862D01*
X172714870Y-111790862D01*
X175750773Y-108754959D01*
X175805290Y-108727182D01*
X175865722Y-108736753D01*
X175908987Y-108780018D01*
X175913744Y-108790933D01*
X175916143Y-108797490D01*
X175919472Y-108802444D01*
X176000629Y-108923219D01*
X176000632Y-108923223D01*
X176003958Y-108928172D01*
X176008369Y-108932186D01*
X176008371Y-108932188D01*
X176020849Y-108943542D01*
X176120410Y-109034135D01*
X176141885Y-109045795D01*
X176253530Y-109106414D01*
X176253532Y-109106415D01*
X176258776Y-109109262D01*
X176338534Y-109130186D01*
X176405300Y-109147702D01*
X176405304Y-109147702D01*
X176411069Y-109149215D01*
X176417030Y-109149309D01*
X176417033Y-109149309D01*
X176489782Y-109150452D01*
X176568495Y-109151688D01*
X176585899Y-109147702D01*
X176716149Y-109117871D01*
X176716151Y-109117870D01*
X176721968Y-109116538D01*
X176727299Y-109113857D01*
X176857299Y-109048474D01*
X176857301Y-109048473D01*
X176862625Y-109045795D01*
X176876277Y-109034135D01*
X176977810Y-108947418D01*
X176977811Y-108947417D01*
X176982348Y-108943542D01*
X177074224Y-108815683D01*
X177084168Y-108790948D01*
X177130726Y-108675131D01*
X177130727Y-108675129D01*
X177132950Y-108669598D01*
X177135792Y-108649633D01*
X177154679Y-108516921D01*
X177154679Y-108516919D01*
X177155134Y-108513723D01*
X177155697Y-108513803D01*
X177178015Y-108459547D01*
X177183448Y-108453655D01*
X177957057Y-107680046D01*
X178011574Y-107652269D01*
X178028615Y-107651062D01*
X178050318Y-107651402D01*
X178068495Y-107651688D01*
X178074311Y-107650356D01*
X178216149Y-107617871D01*
X178216151Y-107617870D01*
X178221968Y-107616538D01*
X178227299Y-107613857D01*
X178357299Y-107548474D01*
X178357301Y-107548473D01*
X178362625Y-107545795D01*
X178482348Y-107443542D01*
X178537681Y-107366538D01*
X178570740Y-107320532D01*
X178570741Y-107320530D01*
X178574224Y-107315683D01*
X178583777Y-107291921D01*
X178630726Y-107175131D01*
X178630727Y-107175129D01*
X178632950Y-107169598D01*
X178646901Y-107071576D01*
X178654678Y-107016929D01*
X178654678Y-107016925D01*
X178655134Y-107013723D01*
X178655278Y-107000000D01*
X178643132Y-106899633D01*
X178637080Y-106849616D01*
X178637079Y-106849613D01*
X178636363Y-106843694D01*
X178580710Y-106696412D01*
X178505539Y-106587039D01*
X178494912Y-106571576D01*
X178494911Y-106571575D01*
X178491531Y-106566657D01*
X178487078Y-106562690D01*
X178487075Y-106562686D01*
X178419557Y-106502531D01*
X178373976Y-106461919D01*
X178343733Y-106445906D01*
X178240105Y-106391037D01*
X178240102Y-106391036D01*
X178234831Y-106388245D01*
X178158480Y-106369067D01*
X178087918Y-106351343D01*
X178087915Y-106351343D01*
X178082128Y-106349889D01*
X178002564Y-106349473D01*
X177930650Y-106349096D01*
X177930648Y-106349096D01*
X177924684Y-106349065D01*
X177771588Y-106385820D01*
X177699035Y-106423267D01*
X177636985Y-106455293D01*
X177636983Y-106455295D01*
X177631679Y-106458032D01*
X177513034Y-106561533D01*
X177422501Y-106690348D01*
X177365309Y-106837039D01*
X177364531Y-106842950D01*
X177364530Y-106842953D01*
X177345354Y-106988610D01*
X177317205Y-107045692D01*
X176669504Y-107693393D01*
X176614987Y-107721170D01*
X176554555Y-107711599D01*
X176511290Y-107668334D01*
X176500500Y-107623389D01*
X176500500Y-104950162D01*
X176519104Y-104892392D01*
X176570737Y-104820536D01*
X176570738Y-104820535D01*
X176574224Y-104815683D01*
X176583777Y-104791921D01*
X176630726Y-104675131D01*
X176630727Y-104675129D01*
X176632950Y-104669598D01*
X176634994Y-104655240D01*
X176654678Y-104516929D01*
X176654678Y-104516925D01*
X176655134Y-104513723D01*
X176655278Y-104500000D01*
X176643132Y-104399633D01*
X176637080Y-104349616D01*
X176637079Y-104349613D01*
X176636363Y-104343694D01*
X176580710Y-104196412D01*
X176505539Y-104087039D01*
X176494912Y-104071576D01*
X176494911Y-104071575D01*
X176491531Y-104066657D01*
X176487078Y-104062690D01*
X176487075Y-104062686D01*
X176418147Y-104001274D01*
X176373976Y-103961919D01*
X176333236Y-103940348D01*
X176240105Y-103891037D01*
X176240102Y-103891036D01*
X176234831Y-103888245D01*
X176158480Y-103869067D01*
X176087918Y-103851343D01*
X176087915Y-103851343D01*
X176082128Y-103849889D01*
X176002564Y-103849473D01*
X175930650Y-103849096D01*
X175930648Y-103849096D01*
X175924684Y-103849065D01*
X175771588Y-103885820D01*
X175699035Y-103923267D01*
X175636985Y-103955293D01*
X175636983Y-103955295D01*
X175631679Y-103958032D01*
X175627180Y-103961956D01*
X175627181Y-103961956D01*
X175598712Y-103986791D01*
X175542433Y-104010796D01*
X175482791Y-103997136D01*
X175442570Y-103951029D01*
X175437615Y-103888070D01*
X175448627Y-103844231D01*
X175448627Y-103844228D01*
X175450081Y-103838441D01*
X175450529Y-103752841D01*
X175450938Y-103674861D01*
X175450938Y-103674859D01*
X175450969Y-103668895D01*
X175443029Y-103635820D01*
X175412781Y-103509835D01*
X175411388Y-103504032D01*
X175333625Y-103353369D01*
X175222169Y-103225604D01*
X175083453Y-103128113D01*
X174925487Y-103066524D01*
X174919572Y-103065745D01*
X174919571Y-103065745D01*
X174799387Y-103049923D01*
X174796174Y-103049500D01*
X174707484Y-103049500D01*
X174703989Y-103049923D01*
X174587602Y-103064007D01*
X174587599Y-103064008D01*
X174581680Y-103064724D01*
X174423077Y-103124655D01*
X174418160Y-103128035D01*
X174418157Y-103128036D01*
X174305769Y-103205279D01*
X174283349Y-103220688D01*
X174170560Y-103347279D01*
X174167770Y-103352549D01*
X174167769Y-103352550D01*
X174164526Y-103358675D01*
X174091224Y-103497119D01*
X174089770Y-103502909D01*
X174055697Y-103638558D01*
X174049919Y-103661559D01*
X174049690Y-103705293D01*
X174049134Y-103811533D01*
X174049031Y-103831105D01*
X174050423Y-103836901D01*
X174050423Y-103836905D01*
X174076207Y-103944297D01*
X174088612Y-103995968D01*
X174166375Y-104146631D01*
X174277831Y-104274396D01*
X174282713Y-104277827D01*
X174282714Y-104277828D01*
X174373801Y-104341845D01*
X174416547Y-104371887D01*
X174441693Y-104381691D01*
X174523768Y-104413691D01*
X174574513Y-104433476D01*
X174580428Y-104434255D01*
X174580429Y-104434255D01*
X174693624Y-104449157D01*
X174703826Y-104450500D01*
X174792516Y-104450500D01*
X174815443Y-104447726D01*
X174912398Y-104435993D01*
X174912401Y-104435992D01*
X174918320Y-104435276D01*
X175076923Y-104375345D01*
X175205205Y-104287179D01*
X175263870Y-104269802D01*
X175321545Y-104290226D01*
X175356201Y-104340651D01*
X175359431Y-104381688D01*
X175344758Y-104493138D01*
X175345413Y-104499071D01*
X175345413Y-104499075D01*
X175350758Y-104547490D01*
X175362035Y-104649633D01*
X175369341Y-104669598D01*
X175411256Y-104784135D01*
X175416143Y-104797490D01*
X175419472Y-104802444D01*
X175482671Y-104896494D01*
X175499500Y-104951711D01*
X175499500Y-107549596D01*
X175480593Y-107607787D01*
X175470504Y-107619600D01*
X172532195Y-110557909D01*
X172477678Y-110585686D01*
X172417246Y-110576115D01*
X172373981Y-110532850D01*
X172364410Y-110472418D01*
X172370335Y-110450979D01*
X172380726Y-110425131D01*
X172380727Y-110425129D01*
X172382950Y-110419598D01*
X172387758Y-110385820D01*
X172404678Y-110266929D01*
X172404678Y-110266925D01*
X172405134Y-110263723D01*
X172405278Y-110250000D01*
X172386363Y-110093694D01*
X172330710Y-109946412D01*
X172241531Y-109816657D01*
X172237078Y-109812690D01*
X172237075Y-109812686D01*
X172169557Y-109752531D01*
X172123976Y-109711919D01*
X172111462Y-109705293D01*
X171990105Y-109641037D01*
X171990102Y-109641036D01*
X171984831Y-109638245D01*
X171908479Y-109619067D01*
X171837918Y-109601343D01*
X171837915Y-109601343D01*
X171832128Y-109599889D01*
X171752564Y-109599473D01*
X171680650Y-109599096D01*
X171680648Y-109599096D01*
X171674684Y-109599065D01*
X171521588Y-109635820D01*
X171449035Y-109673267D01*
X171386985Y-109705293D01*
X171386983Y-109705295D01*
X171381679Y-109708032D01*
X171263034Y-109811533D01*
X171172501Y-109940348D01*
X171115309Y-110087039D01*
X171114531Y-110092950D01*
X171114530Y-110092953D01*
X171095354Y-110238610D01*
X171067205Y-110295692D01*
X170454512Y-110908385D01*
X170445797Y-110916127D01*
X170417890Y-110938128D01*
X170392810Y-110974416D01*
X170384292Y-110986741D01*
X170382488Y-110989264D01*
X170347366Y-111036816D01*
X170344973Y-111043632D01*
X170340869Y-111049569D01*
X170338636Y-111056628D01*
X170338636Y-111056629D01*
X170335542Y-111066412D01*
X170324965Y-111099858D01*
X170323049Y-111105915D01*
X170322082Y-111108814D01*
X170302481Y-111164631D01*
X170302244Y-111170673D01*
X170301723Y-111173347D01*
X170300020Y-111178730D01*
X170299500Y-111185337D01*
X170299500Y-111238541D01*
X170299424Y-111242428D01*
X170297162Y-111299994D01*
X170298959Y-111306772D01*
X170299500Y-111316597D01*
X170299500Y-114336002D01*
X170298814Y-114347638D01*
X170294636Y-114382939D01*
X156501000Y-114382939D01*
X156501000Y-112351790D01*
X156519907Y-112293599D01*
X156535705Y-112276510D01*
X156628310Y-112197418D01*
X156628311Y-112197417D01*
X156632848Y-112193542D01*
X156688181Y-112116538D01*
X156721240Y-112070532D01*
X156721241Y-112070530D01*
X156724724Y-112065683D01*
X156728508Y-112056272D01*
X156781226Y-111925131D01*
X156781227Y-111925129D01*
X156783450Y-111919598D01*
X156785494Y-111905240D01*
X156805178Y-111766929D01*
X156805178Y-111766925D01*
X156805634Y-111763723D01*
X156805778Y-111750000D01*
X156793632Y-111649633D01*
X156787580Y-111599616D01*
X156787579Y-111599613D01*
X156786863Y-111593694D01*
X156748866Y-111493138D01*
X165094758Y-111493138D01*
X165095413Y-111499071D01*
X165095413Y-111499075D01*
X165106268Y-111597394D01*
X165112035Y-111649633D01*
X165118806Y-111668136D01*
X165163400Y-111789994D01*
X165166143Y-111797490D01*
X165169472Y-111802444D01*
X165250629Y-111923219D01*
X165250632Y-111923223D01*
X165253958Y-111928172D01*
X165258369Y-111932186D01*
X165258371Y-111932188D01*
X165364550Y-112028803D01*
X165370410Y-112034135D01*
X165428514Y-112065683D01*
X165503530Y-112106414D01*
X165503532Y-112106415D01*
X165508776Y-112109262D01*
X165584021Y-112129002D01*
X165655300Y-112147702D01*
X165655304Y-112147702D01*
X165661069Y-112149215D01*
X165667030Y-112149309D01*
X165667033Y-112149309D01*
X165739782Y-112150451D01*
X165818495Y-112151688D01*
X165835899Y-112147702D01*
X165966149Y-112117871D01*
X165966151Y-112117870D01*
X165971968Y-112116538D01*
X165977299Y-112113857D01*
X166107299Y-112048474D01*
X166107301Y-112048473D01*
X166112625Y-112045795D01*
X166126277Y-112034135D01*
X166227810Y-111947418D01*
X166227811Y-111947417D01*
X166232348Y-111943542D01*
X166235829Y-111938697D01*
X166239872Y-111934301D01*
X166241599Y-111935889D01*
X166282970Y-111905504D01*
X166314047Y-111900500D01*
X166935693Y-111900500D01*
X166993884Y-111919407D01*
X167003711Y-111928443D01*
X167003958Y-111928172D01*
X167092707Y-112008927D01*
X167120410Y-112034135D01*
X167178514Y-112065683D01*
X167253530Y-112106414D01*
X167253532Y-112106415D01*
X167258776Y-112109262D01*
X167334021Y-112129002D01*
X167405300Y-112147702D01*
X167405304Y-112147702D01*
X167411069Y-112149215D01*
X167417030Y-112149309D01*
X167417033Y-112149309D01*
X167489782Y-112150451D01*
X167568495Y-112151688D01*
X167585899Y-112147702D01*
X167716149Y-112117871D01*
X167716151Y-112117870D01*
X167721968Y-112116538D01*
X167727299Y-112113857D01*
X167857299Y-112048474D01*
X167857301Y-112048473D01*
X167862625Y-112045795D01*
X167876277Y-112034135D01*
X167977810Y-111947418D01*
X167977811Y-111947417D01*
X167982348Y-111943542D01*
X168074224Y-111815683D01*
X168081924Y-111796530D01*
X168130726Y-111675131D01*
X168130727Y-111675129D01*
X168132950Y-111669598D01*
X168134054Y-111661845D01*
X168154678Y-111516929D01*
X168154678Y-111516925D01*
X168155134Y-111513723D01*
X168155278Y-111500000D01*
X168142981Y-111398381D01*
X168137080Y-111349616D01*
X168137079Y-111349613D01*
X168136363Y-111343694D01*
X168124211Y-111311533D01*
X168082820Y-111201996D01*
X168080710Y-111196412D01*
X167999000Y-111077524D01*
X167994912Y-111071576D01*
X167994911Y-111071575D01*
X167991531Y-111066657D01*
X167987078Y-111062690D01*
X167987075Y-111062686D01*
X167903264Y-110988014D01*
X167873976Y-110961919D01*
X167829043Y-110938128D01*
X167740105Y-110891037D01*
X167740102Y-110891036D01*
X167734831Y-110888245D01*
X167648411Y-110866538D01*
X167587918Y-110851343D01*
X167587915Y-110851343D01*
X167582128Y-110849889D01*
X167502564Y-110849473D01*
X167430650Y-110849096D01*
X167430648Y-110849096D01*
X167424684Y-110849065D01*
X167271588Y-110885820D01*
X167227869Y-110908385D01*
X167136983Y-110955294D01*
X167136980Y-110955296D01*
X167131679Y-110958032D01*
X167113465Y-110973922D01*
X167112112Y-110975102D01*
X167055833Y-110999108D01*
X167047031Y-110999500D01*
X166203861Y-110999500D01*
X166145670Y-110980593D01*
X166138002Y-110974416D01*
X166137448Y-110973922D01*
X166123976Y-110961919D01*
X166079043Y-110938128D01*
X165990105Y-110891037D01*
X165990102Y-110891036D01*
X165984831Y-110888245D01*
X165898411Y-110866538D01*
X165837918Y-110851343D01*
X165837915Y-110851343D01*
X165832128Y-110849889D01*
X165752564Y-110849473D01*
X165680650Y-110849096D01*
X165680648Y-110849096D01*
X165674684Y-110849065D01*
X165521588Y-110885820D01*
X165477869Y-110908385D01*
X165386985Y-110955293D01*
X165386984Y-110955294D01*
X165381679Y-110958032D01*
X165263034Y-111061533D01*
X165172501Y-111190348D01*
X165115309Y-111337039D01*
X165114531Y-111342950D01*
X165114530Y-111342953D01*
X165113653Y-111349616D01*
X165094758Y-111493138D01*
X156748866Y-111493138D01*
X156731210Y-111446412D01*
X156656039Y-111337039D01*
X156645412Y-111321576D01*
X156645411Y-111321575D01*
X156642031Y-111316657D01*
X156637578Y-111312690D01*
X156637575Y-111312686D01*
X156556548Y-111240494D01*
X156524476Y-111211919D01*
X156494233Y-111195906D01*
X156390605Y-111141037D01*
X156390602Y-111141036D01*
X156385331Y-111138245D01*
X156307721Y-111118751D01*
X156238418Y-111101343D01*
X156238415Y-111101343D01*
X156232628Y-111099889D01*
X156153064Y-111099473D01*
X156081150Y-111099096D01*
X156081148Y-111099096D01*
X156075184Y-111099065D01*
X155922088Y-111135820D01*
X155863836Y-111165886D01*
X155787485Y-111205293D01*
X155787483Y-111205295D01*
X155782179Y-111208032D01*
X155663534Y-111311533D01*
X155573001Y-111440348D01*
X155515809Y-111587039D01*
X155515031Y-111592950D01*
X155515030Y-111592953D01*
X155508349Y-111643700D01*
X155495258Y-111743138D01*
X155495913Y-111749071D01*
X155495913Y-111749075D01*
X155501152Y-111796530D01*
X155512535Y-111899633D01*
X155519771Y-111919407D01*
X155561756Y-112034135D01*
X155566643Y-112047490D01*
X155569972Y-112052444D01*
X155651129Y-112173219D01*
X155651132Y-112173223D01*
X155654458Y-112178172D01*
X155658868Y-112182184D01*
X155658875Y-112182193D01*
X155767628Y-112281150D01*
X155797943Y-112334297D01*
X155800000Y-112354373D01*
X155800000Y-117565310D01*
X155781093Y-117623501D01*
X155731593Y-117659465D01*
X155670407Y-117659465D01*
X155630996Y-117635314D01*
X155281745Y-117286063D01*
X155268580Y-117269760D01*
X155267267Y-117267726D01*
X155267264Y-117267722D01*
X155262825Y-117260848D01*
X155237668Y-117241015D01*
X155233263Y-117237101D01*
X155233262Y-117237102D01*
X155230131Y-117234449D01*
X155227254Y-117231572D01*
X155212399Y-117220956D01*
X155208681Y-117218165D01*
X155177614Y-117193673D01*
X155177613Y-117193673D01*
X155171189Y-117188608D01*
X155163882Y-117186042D01*
X155162637Y-117185395D01*
X155156331Y-117180889D01*
X155124542Y-117171382D01*
X155110585Y-117167208D01*
X155106149Y-117165767D01*
X155066967Y-117152007D01*
X155066964Y-117152006D01*
X155061094Y-117149945D01*
X155055956Y-117149500D01*
X155053818Y-117149500D01*
X155052099Y-117149426D01*
X155050738Y-117149311D01*
X155044536Y-117147456D01*
X155036365Y-117147777D01*
X154994446Y-117149424D01*
X154990559Y-117149500D01*
X154600554Y-117149500D01*
X154542363Y-117130593D01*
X154518966Y-117106574D01*
X154494915Y-117071579D01*
X154494910Y-117071573D01*
X154491531Y-117066657D01*
X154487078Y-117062690D01*
X154487075Y-117062686D01*
X154419557Y-117002531D01*
X154373976Y-116961919D01*
X154361462Y-116955293D01*
X154240105Y-116891037D01*
X154240102Y-116891036D01*
X154234831Y-116888245D01*
X154158479Y-116869067D01*
X154087918Y-116851343D01*
X154087915Y-116851343D01*
X154082128Y-116849889D01*
X154002564Y-116849473D01*
X153930650Y-116849096D01*
X153930648Y-116849096D01*
X153924684Y-116849065D01*
X153771588Y-116885820D01*
X153699035Y-116923267D01*
X153636985Y-116955293D01*
X153636983Y-116955295D01*
X153631679Y-116958032D01*
X153513034Y-117061533D01*
X153422501Y-117190348D01*
X153365309Y-117337039D01*
X153344758Y-117493138D01*
X129250500Y-117493138D01*
X129250500Y-115733138D01*
X150354758Y-115733138D01*
X150355413Y-115739071D01*
X150355413Y-115739075D01*
X150370255Y-115873507D01*
X150372035Y-115889633D01*
X150426143Y-116037490D01*
X150429472Y-116042444D01*
X150510629Y-116163219D01*
X150510632Y-116163223D01*
X150513958Y-116168172D01*
X150518369Y-116172186D01*
X150518371Y-116172188D01*
X150530849Y-116183542D01*
X150630410Y-116274135D01*
X150651885Y-116285795D01*
X150763530Y-116346414D01*
X150763532Y-116346415D01*
X150768776Y-116349262D01*
X150848534Y-116370186D01*
X150915300Y-116387702D01*
X150915304Y-116387702D01*
X150921069Y-116389215D01*
X150927030Y-116389309D01*
X150927033Y-116389309D01*
X150999782Y-116390451D01*
X151078495Y-116391688D01*
X151095899Y-116387702D01*
X151226149Y-116357871D01*
X151226151Y-116357870D01*
X151231968Y-116356538D01*
X151237299Y-116353857D01*
X151367299Y-116288474D01*
X151367301Y-116288473D01*
X151372625Y-116285795D01*
X151386277Y-116274135D01*
X151487810Y-116187418D01*
X151487811Y-116187417D01*
X151492348Y-116183542D01*
X151584224Y-116055683D01*
X151589757Y-116041921D01*
X151640726Y-115915131D01*
X151640727Y-115915129D01*
X151642950Y-115909598D01*
X151644994Y-115895240D01*
X151664678Y-115756929D01*
X151664678Y-115756925D01*
X151665134Y-115753723D01*
X151665278Y-115740000D01*
X151655021Y-115655240D01*
X151647080Y-115589616D01*
X151647079Y-115589613D01*
X151646363Y-115583694D01*
X151642181Y-115572625D01*
X151592820Y-115441996D01*
X151590710Y-115436412D01*
X151501531Y-115306657D01*
X151493641Y-115299627D01*
X151462772Y-115246800D01*
X151460500Y-115225711D01*
X151460500Y-111967611D01*
X151479407Y-111909420D01*
X151489496Y-111897607D01*
X151707057Y-111680046D01*
X151761574Y-111652269D01*
X151778615Y-111651062D01*
X151800318Y-111651402D01*
X151818495Y-111651688D01*
X151841047Y-111646523D01*
X151966149Y-111617871D01*
X151966151Y-111617870D01*
X151971968Y-111616538D01*
X151977299Y-111613857D01*
X152107299Y-111548474D01*
X152107301Y-111548473D01*
X152112625Y-111545795D01*
X152126866Y-111533632D01*
X152227810Y-111447418D01*
X152227811Y-111447417D01*
X152232348Y-111443542D01*
X152312870Y-111331484D01*
X152320740Y-111320532D01*
X152320741Y-111320530D01*
X152324224Y-111315683D01*
X152328224Y-111305734D01*
X152380726Y-111175131D01*
X152380727Y-111175129D01*
X152382950Y-111169598D01*
X152384651Y-111157650D01*
X152404678Y-111016929D01*
X152404678Y-111016925D01*
X152405134Y-111013723D01*
X152405278Y-111000000D01*
X152394690Y-110912507D01*
X152387080Y-110849616D01*
X152387079Y-110849613D01*
X152386363Y-110843694D01*
X152330710Y-110696412D01*
X152269546Y-110607419D01*
X152244912Y-110571576D01*
X152244911Y-110571575D01*
X152241531Y-110566657D01*
X152237078Y-110562690D01*
X152237075Y-110562686D01*
X152169557Y-110502531D01*
X152123976Y-110461919D01*
X152103314Y-110450979D01*
X151990105Y-110391037D01*
X151990102Y-110391036D01*
X151984831Y-110388245D01*
X151908480Y-110369067D01*
X151837918Y-110351343D01*
X151837915Y-110351343D01*
X151832128Y-110349889D01*
X151752564Y-110349473D01*
X151680650Y-110349096D01*
X151680648Y-110349096D01*
X151674684Y-110349065D01*
X151521588Y-110385820D01*
X151467589Y-110413691D01*
X151386985Y-110455293D01*
X151386983Y-110455295D01*
X151381679Y-110458032D01*
X151263034Y-110561533D01*
X151172501Y-110690348D01*
X151115309Y-110837039D01*
X151114531Y-110842950D01*
X151114530Y-110842953D01*
X151095354Y-110988610D01*
X151067205Y-111045692D01*
X150714516Y-111398381D01*
X150705804Y-111406122D01*
X150677890Y-111428128D01*
X150673683Y-111434215D01*
X150644292Y-111476741D01*
X150642483Y-111479272D01*
X150614669Y-111516929D01*
X150607366Y-111526816D01*
X150604973Y-111533632D01*
X150600869Y-111539569D01*
X150598636Y-111546628D01*
X150598636Y-111546629D01*
X150583049Y-111595915D01*
X150582082Y-111598814D01*
X150562481Y-111654631D01*
X150562244Y-111660673D01*
X150561723Y-111663347D01*
X150560020Y-111668730D01*
X150559500Y-111675337D01*
X150559500Y-111728541D01*
X150559424Y-111732428D01*
X150557936Y-111770306D01*
X150557162Y-111789994D01*
X150558959Y-111796772D01*
X150559500Y-111806597D01*
X150559500Y-115224709D01*
X150540593Y-115282900D01*
X150531343Y-115293012D01*
X150531524Y-115293175D01*
X150527529Y-115297612D01*
X150523034Y-115301533D01*
X150432501Y-115430348D01*
X150375309Y-115577039D01*
X150374531Y-115582950D01*
X150374530Y-115582953D01*
X150373653Y-115589616D01*
X150354758Y-115733138D01*
X129250500Y-115733138D01*
X129250500Y-106743138D01*
X158844758Y-106743138D01*
X158845413Y-106749071D01*
X158845413Y-106749075D01*
X158855859Y-106843694D01*
X158862035Y-106899633D01*
X158869341Y-106919598D01*
X158898438Y-106999108D01*
X158916143Y-107047490D01*
X158919472Y-107052444D01*
X159000629Y-107173219D01*
X159000632Y-107173223D01*
X159003958Y-107178172D01*
X159008369Y-107182186D01*
X159008371Y-107182188D01*
X159111773Y-107276276D01*
X159120410Y-107284135D01*
X159178514Y-107315683D01*
X159253530Y-107356414D01*
X159253532Y-107356415D01*
X159258776Y-107359262D01*
X159338534Y-107380186D01*
X159405300Y-107397702D01*
X159405304Y-107397702D01*
X159411069Y-107399215D01*
X159417030Y-107399309D01*
X159417033Y-107399309D01*
X159489782Y-107400451D01*
X159568495Y-107401688D01*
X159574311Y-107400356D01*
X159716149Y-107367871D01*
X159716151Y-107367870D01*
X159721968Y-107366538D01*
X159727299Y-107363857D01*
X159857299Y-107298474D01*
X159857301Y-107298473D01*
X159862625Y-107295795D01*
X159887886Y-107274220D01*
X159944413Y-107250805D01*
X159952181Y-107250500D01*
X162045145Y-107250500D01*
X162103336Y-107269407D01*
X162111773Y-107276276D01*
X162120410Y-107284135D01*
X162125654Y-107286982D01*
X162125655Y-107286983D01*
X162253530Y-107356414D01*
X162253532Y-107356415D01*
X162258776Y-107359262D01*
X162338534Y-107380186D01*
X162405300Y-107397702D01*
X162405304Y-107397702D01*
X162411069Y-107399215D01*
X162417030Y-107399309D01*
X162417033Y-107399309D01*
X162489782Y-107400451D01*
X162568495Y-107401688D01*
X162574311Y-107400356D01*
X162716149Y-107367871D01*
X162716151Y-107367870D01*
X162721968Y-107366538D01*
X162727299Y-107363857D01*
X162857299Y-107298474D01*
X162857301Y-107298473D01*
X162862625Y-107295795D01*
X162876277Y-107284135D01*
X162977810Y-107197418D01*
X162977811Y-107197417D01*
X162982348Y-107193542D01*
X163034602Y-107120822D01*
X163070740Y-107070532D01*
X163070741Y-107070530D01*
X163074224Y-107065683D01*
X163082261Y-107045692D01*
X163130726Y-106925131D01*
X163130727Y-106925129D01*
X163132950Y-106919598D01*
X163134994Y-106905240D01*
X163154678Y-106766929D01*
X163154678Y-106766925D01*
X163155134Y-106763723D01*
X163155278Y-106750000D01*
X163154448Y-106743138D01*
X168594758Y-106743138D01*
X168595413Y-106749071D01*
X168595413Y-106749075D01*
X168605859Y-106843694D01*
X168612035Y-106899633D01*
X168619341Y-106919598D01*
X168648438Y-106999108D01*
X168666143Y-107047490D01*
X168669472Y-107052444D01*
X168750629Y-107173219D01*
X168750632Y-107173223D01*
X168753958Y-107178172D01*
X168758369Y-107182186D01*
X168758371Y-107182188D01*
X168861773Y-107276276D01*
X168870410Y-107284135D01*
X168928514Y-107315683D01*
X169003530Y-107356414D01*
X169003532Y-107356415D01*
X169008776Y-107359262D01*
X169161069Y-107399215D01*
X169163546Y-107399254D01*
X169218936Y-107426750D01*
X169598605Y-107806419D01*
X169606579Y-107816399D01*
X169606596Y-107816384D01*
X169611166Y-107821754D01*
X169614930Y-107827720D01*
X169620215Y-107832388D01*
X169620218Y-107832391D01*
X169655208Y-107863292D01*
X169659678Y-107867492D01*
X169671506Y-107879320D01*
X169680550Y-107886098D01*
X169686699Y-107891104D01*
X169722388Y-107922623D01*
X169731671Y-107926982D01*
X169748966Y-107937373D01*
X169757176Y-107943526D01*
X169763782Y-107946002D01*
X169763783Y-107946003D01*
X169801752Y-107960237D01*
X169809074Y-107963323D01*
X169845775Y-107980554D01*
X169845776Y-107980554D01*
X169852163Y-107983553D01*
X169862300Y-107985131D01*
X169881816Y-107990252D01*
X169884816Y-107991377D01*
X169884818Y-107991377D01*
X169891419Y-107993852D01*
X169938904Y-107997381D01*
X169946792Y-107998287D01*
X169957228Y-107999912D01*
X169957236Y-107999913D01*
X169961009Y-108000500D01*
X169977208Y-108000500D01*
X169984545Y-108000772D01*
X170034391Y-108004476D01*
X170041286Y-108003004D01*
X170041288Y-108003004D01*
X170042800Y-108002681D01*
X170063467Y-108000500D01*
X172045145Y-108000500D01*
X172103336Y-108019407D01*
X172111773Y-108026276D01*
X172120410Y-108034135D01*
X172125654Y-108036982D01*
X172125655Y-108036983D01*
X172253530Y-108106414D01*
X172253532Y-108106415D01*
X172258776Y-108109262D01*
X172338534Y-108130186D01*
X172405300Y-108147702D01*
X172405304Y-108147702D01*
X172411069Y-108149215D01*
X172417030Y-108149309D01*
X172417033Y-108149309D01*
X172489782Y-108150452D01*
X172568495Y-108151688D01*
X172585899Y-108147702D01*
X172716149Y-108117871D01*
X172716151Y-108117870D01*
X172721968Y-108116538D01*
X172727299Y-108113857D01*
X172857299Y-108048474D01*
X172857301Y-108048473D01*
X172862625Y-108045795D01*
X172876277Y-108034135D01*
X172977810Y-107947418D01*
X172977811Y-107947417D01*
X172982348Y-107943542D01*
X173038547Y-107865333D01*
X173070740Y-107820532D01*
X173070741Y-107820530D01*
X173074224Y-107815683D01*
X173123385Y-107693393D01*
X173130726Y-107675131D01*
X173130727Y-107675129D01*
X173132950Y-107669598D01*
X173135417Y-107652269D01*
X173154678Y-107516929D01*
X173154678Y-107516925D01*
X173155134Y-107513723D01*
X173155278Y-107500000D01*
X173139289Y-107367871D01*
X173137080Y-107349616D01*
X173137079Y-107349613D01*
X173136363Y-107343694D01*
X173080710Y-107196412D01*
X172991531Y-107066657D01*
X172987078Y-107062690D01*
X172987075Y-107062686D01*
X172888772Y-106975102D01*
X172873976Y-106961919D01*
X172861464Y-106955294D01*
X172740105Y-106891037D01*
X172740102Y-106891036D01*
X172734831Y-106888245D01*
X172658479Y-106869067D01*
X172587918Y-106851343D01*
X172587915Y-106851343D01*
X172582128Y-106849889D01*
X172502564Y-106849473D01*
X172430650Y-106849096D01*
X172430648Y-106849096D01*
X172424684Y-106849065D01*
X172271588Y-106885820D01*
X172217589Y-106913691D01*
X172136983Y-106955294D01*
X172136980Y-106955296D01*
X172131679Y-106958032D01*
X172117383Y-106970504D01*
X172112112Y-106975102D01*
X172055833Y-106999108D01*
X172047031Y-106999500D01*
X170248322Y-106999500D01*
X170190131Y-106980593D01*
X170178318Y-106970504D01*
X169922217Y-106714403D01*
X169893938Y-106656292D01*
X169887080Y-106599616D01*
X169887079Y-106599613D01*
X169886363Y-106593694D01*
X169874211Y-106561533D01*
X169832820Y-106451996D01*
X169830710Y-106446412D01*
X169741531Y-106316657D01*
X169737078Y-106312690D01*
X169737075Y-106312686D01*
X169638002Y-106224416D01*
X169623976Y-106211919D01*
X169611462Y-106205293D01*
X169490105Y-106141037D01*
X169490102Y-106141036D01*
X169484831Y-106138245D01*
X169408479Y-106119067D01*
X169337918Y-106101343D01*
X169337915Y-106101343D01*
X169332128Y-106099889D01*
X169252564Y-106099473D01*
X169180650Y-106099096D01*
X169180648Y-106099096D01*
X169174684Y-106099065D01*
X169021588Y-106135820D01*
X168949035Y-106173267D01*
X168886985Y-106205293D01*
X168886984Y-106205294D01*
X168881679Y-106208032D01*
X168763034Y-106311533D01*
X168672501Y-106440348D01*
X168615309Y-106587039D01*
X168614531Y-106592950D01*
X168614530Y-106592953D01*
X168613653Y-106599616D01*
X168594758Y-106743138D01*
X163154448Y-106743138D01*
X163136363Y-106593694D01*
X163124211Y-106561533D01*
X163082820Y-106451996D01*
X163080710Y-106446412D01*
X162991531Y-106316657D01*
X162987078Y-106312690D01*
X162987075Y-106312686D01*
X162888002Y-106224416D01*
X162873976Y-106211919D01*
X162861462Y-106205293D01*
X162740105Y-106141037D01*
X162740102Y-106141036D01*
X162734831Y-106138245D01*
X162658479Y-106119067D01*
X162587918Y-106101343D01*
X162587915Y-106101343D01*
X162582128Y-106099889D01*
X162502564Y-106099473D01*
X162430650Y-106099096D01*
X162430648Y-106099096D01*
X162424684Y-106099065D01*
X162271588Y-106135820D01*
X162201634Y-106171926D01*
X162136983Y-106205294D01*
X162136980Y-106205296D01*
X162131679Y-106208032D01*
X162127182Y-106211955D01*
X162112112Y-106225102D01*
X162055833Y-106249108D01*
X162047031Y-106249500D01*
X159953861Y-106249500D01*
X159895670Y-106230593D01*
X159888002Y-106224416D01*
X159873976Y-106211919D01*
X159861462Y-106205293D01*
X159740105Y-106141037D01*
X159740102Y-106141036D01*
X159734831Y-106138245D01*
X159658479Y-106119067D01*
X159587918Y-106101343D01*
X159587915Y-106101343D01*
X159582128Y-106099889D01*
X159502564Y-106099473D01*
X159430650Y-106099096D01*
X159430648Y-106099096D01*
X159424684Y-106099065D01*
X159271588Y-106135820D01*
X159199035Y-106173267D01*
X159136985Y-106205293D01*
X159136984Y-106205294D01*
X159131679Y-106208032D01*
X159013034Y-106311533D01*
X158922501Y-106440348D01*
X158865309Y-106587039D01*
X158864531Y-106592950D01*
X158864530Y-106592953D01*
X158863653Y-106599616D01*
X158844758Y-106743138D01*
X129250500Y-106743138D01*
X129250500Y-98783724D01*
X155630042Y-98783724D01*
X155639228Y-98792441D01*
X155753665Y-98843392D01*
X155763474Y-98846579D01*
X155929747Y-98881921D01*
X155940010Y-98883000D01*
X156109990Y-98883000D01*
X156120253Y-98881921D01*
X156286526Y-98846579D01*
X156296335Y-98843392D01*
X156411986Y-98791900D01*
X156419736Y-98784923D01*
X156414285Y-98773495D01*
X156036086Y-98395296D01*
X156024203Y-98389242D01*
X156019172Y-98390038D01*
X155634774Y-98774436D01*
X155630042Y-98783724D01*
X129250500Y-98783724D01*
X129250500Y-97841139D01*
X153717000Y-97841139D01*
X153717253Y-97846136D01*
X153731220Y-97983639D01*
X153733226Y-97993408D01*
X153788428Y-98169560D01*
X153792359Y-98178730D01*
X153881850Y-98340175D01*
X153887546Y-98348372D01*
X154007673Y-98488527D01*
X154014899Y-98495408D01*
X154160759Y-98608548D01*
X154169213Y-98613831D01*
X154334850Y-98695335D01*
X154344196Y-98698810D01*
X154405826Y-98714864D01*
X154418225Y-98714128D01*
X154420408Y-98706664D01*
X154929000Y-98706664D01*
X154932303Y-98716830D01*
X154944631Y-98716593D01*
X155092423Y-98662216D01*
X155101386Y-98657845D01*
X155258271Y-98560571D01*
X155264537Y-98555746D01*
X155270597Y-98544631D01*
X155270015Y-98540149D01*
X155268692Y-98538274D01*
X155250600Y-98479824D01*
X155270319Y-98421903D01*
X155279586Y-98411204D01*
X155954996Y-97735794D01*
X156009513Y-97708017D01*
X156069945Y-97717588D01*
X156095004Y-97735794D01*
X156248162Y-97888952D01*
X156275939Y-97943469D01*
X156276311Y-97971877D01*
X156274763Y-97983639D01*
X156269318Y-98025000D01*
X156289956Y-98181762D01*
X156350464Y-98327841D01*
X156446718Y-98453282D01*
X156572159Y-98549536D01*
X156718238Y-98610044D01*
X156875000Y-98630682D01*
X157031762Y-98610044D01*
X157177841Y-98549536D01*
X157192518Y-98538274D01*
X157239733Y-98502045D01*
X157297409Y-98481621D01*
X157360267Y-98502045D01*
X157407482Y-98538274D01*
X157422159Y-98549536D01*
X157568238Y-98610044D01*
X157725000Y-98630682D01*
X157881762Y-98610044D01*
X158027841Y-98549536D01*
X158042518Y-98538274D01*
X158089733Y-98502045D01*
X158147409Y-98481621D01*
X158210267Y-98502045D01*
X158257482Y-98538274D01*
X158272159Y-98549536D01*
X158418238Y-98610044D01*
X158500237Y-98620839D01*
X158555461Y-98647180D01*
X158570542Y-98665383D01*
X158585921Y-98689260D01*
X158590921Y-98697023D01*
X158606534Y-98756183D01*
X158584392Y-98813222D01*
X158532952Y-98846352D01*
X158507174Y-98849628D01*
X158439097Y-98849271D01*
X158405650Y-98849096D01*
X158405648Y-98849096D01*
X158399684Y-98849065D01*
X158277670Y-98878358D01*
X158262829Y-98881921D01*
X158246588Y-98885820D01*
X158174035Y-98923267D01*
X158111985Y-98955293D01*
X158111983Y-98955295D01*
X158106679Y-98958032D01*
X157988034Y-99061533D01*
X157897501Y-99190348D01*
X157840309Y-99337039D01*
X157839531Y-99342950D01*
X157839530Y-99342953D01*
X157838653Y-99349616D01*
X157819758Y-99493138D01*
X157820413Y-99499071D01*
X157820413Y-99499075D01*
X157836330Y-99643251D01*
X157837035Y-99649633D01*
X157891143Y-99797490D01*
X157894472Y-99802444D01*
X157975629Y-99923219D01*
X157975632Y-99923223D01*
X157978958Y-99928172D01*
X157983369Y-99932186D01*
X157983371Y-99932188D01*
X158017554Y-99963292D01*
X158095410Y-100034135D01*
X158116885Y-100045795D01*
X158228530Y-100106414D01*
X158228532Y-100106415D01*
X158233776Y-100109262D01*
X158313534Y-100130186D01*
X158380300Y-100147702D01*
X158380304Y-100147702D01*
X158386069Y-100149215D01*
X158392030Y-100149309D01*
X158392033Y-100149309D01*
X158464782Y-100150452D01*
X158543495Y-100151688D01*
X158560899Y-100147702D01*
X158691149Y-100117871D01*
X158691151Y-100117870D01*
X158696968Y-100116538D01*
X158702299Y-100113857D01*
X158832299Y-100048474D01*
X158832301Y-100048473D01*
X158837625Y-100045795D01*
X158855981Y-100030118D01*
X158936631Y-99961236D01*
X158993159Y-99937821D01*
X159052653Y-99952105D01*
X159067554Y-99963292D01*
X159145410Y-100034135D01*
X159166885Y-100045795D01*
X159278530Y-100106414D01*
X159278532Y-100106415D01*
X159283776Y-100109262D01*
X159363534Y-100130186D01*
X159430300Y-100147702D01*
X159430304Y-100147702D01*
X159436069Y-100149215D01*
X159442030Y-100149309D01*
X159442033Y-100149309D01*
X159514782Y-100150452D01*
X159593495Y-100151688D01*
X159610899Y-100147702D01*
X159741149Y-100117871D01*
X159741151Y-100117870D01*
X159746968Y-100116538D01*
X159752299Y-100113857D01*
X159882299Y-100048474D01*
X159882301Y-100048473D01*
X159887625Y-100045795D01*
X159901277Y-100034135D01*
X160002810Y-99947418D01*
X160002811Y-99947417D01*
X160007348Y-99943542D01*
X160099224Y-99815683D01*
X160157950Y-99669598D01*
X160159994Y-99655240D01*
X160179678Y-99516929D01*
X160179678Y-99516925D01*
X160180134Y-99513723D01*
X160180278Y-99500000D01*
X160161363Y-99343694D01*
X160105710Y-99196412D01*
X160016531Y-99066657D01*
X160012078Y-99062690D01*
X160012075Y-99062686D01*
X159944557Y-99002531D01*
X159898976Y-98961919D01*
X159886462Y-98955293D01*
X159765105Y-98891037D01*
X159765102Y-98891036D01*
X159759831Y-98888245D01*
X159683480Y-98869067D01*
X159612918Y-98851343D01*
X159612915Y-98851343D01*
X159607128Y-98849889D01*
X159576566Y-98849729D01*
X159518475Y-98830517D01*
X159493853Y-98804336D01*
X159480577Y-98783724D01*
X161580042Y-98783724D01*
X161589228Y-98792441D01*
X161703665Y-98843392D01*
X161713474Y-98846579D01*
X161879747Y-98881921D01*
X161890010Y-98883000D01*
X162059990Y-98883000D01*
X162070253Y-98881921D01*
X162236526Y-98846579D01*
X162246335Y-98843392D01*
X162361986Y-98791900D01*
X162369736Y-98784923D01*
X162364285Y-98773495D01*
X161986086Y-98395296D01*
X161974203Y-98389242D01*
X161969172Y-98390038D01*
X161584774Y-98774436D01*
X161580042Y-98783724D01*
X159480577Y-98783724D01*
X159469976Y-98767264D01*
X159454363Y-98708105D01*
X159476505Y-98651066D01*
X159527944Y-98617936D01*
X159540284Y-98615505D01*
X159558751Y-98613073D01*
X159581762Y-98610044D01*
X159727841Y-98549536D01*
X159742518Y-98538274D01*
X159789733Y-98502045D01*
X159847409Y-98481621D01*
X159910267Y-98502045D01*
X159957482Y-98538274D01*
X159972159Y-98549536D01*
X160118238Y-98610044D01*
X160275000Y-98630682D01*
X160431762Y-98610044D01*
X160577841Y-98549536D01*
X160592518Y-98538274D01*
X160639733Y-98502045D01*
X160697409Y-98481621D01*
X160760267Y-98502045D01*
X160807482Y-98538274D01*
X160822159Y-98549536D01*
X160968238Y-98610044D01*
X161125000Y-98630682D01*
X161281762Y-98610044D01*
X161427841Y-98549536D01*
X161553282Y-98453282D01*
X161649536Y-98327841D01*
X161710044Y-98181762D01*
X161730682Y-98025000D01*
X161725237Y-97983639D01*
X161723689Y-97971877D01*
X161734840Y-97911716D01*
X161751838Y-97888952D01*
X161904996Y-97735794D01*
X161959513Y-97708017D01*
X162019945Y-97717588D01*
X162045004Y-97735794D01*
X162721881Y-98412671D01*
X162749658Y-98467188D01*
X162740087Y-98527620D01*
X162731686Y-98544108D01*
X162731988Y-98546018D01*
X162735290Y-98550009D01*
X162810759Y-98608548D01*
X162819213Y-98613831D01*
X162984850Y-98695335D01*
X162994196Y-98698810D01*
X163055826Y-98714864D01*
X163068225Y-98714128D01*
X163071000Y-98704640D01*
X163071000Y-97314680D01*
X163066878Y-97301995D01*
X163062757Y-97299000D01*
X162426000Y-97299000D01*
X162367809Y-97280093D01*
X162331845Y-97230593D01*
X162327000Y-97200000D01*
X162327000Y-96890000D01*
X162345907Y-96831809D01*
X162395407Y-96795845D01*
X162426000Y-96791000D01*
X163480000Y-96791000D01*
X163538191Y-96809907D01*
X163574155Y-96859407D01*
X163579000Y-96890000D01*
X163579000Y-98706664D01*
X163582303Y-98716830D01*
X163594631Y-98716593D01*
X163742423Y-98662216D01*
X163751386Y-98657845D01*
X163798331Y-98628737D01*
X163857750Y-98614142D01*
X163914400Y-98637260D01*
X163946642Y-98689260D01*
X163949500Y-98712876D01*
X163949500Y-102301678D01*
X163930593Y-102359869D01*
X163920504Y-102371682D01*
X162718689Y-103573497D01*
X162671796Y-103599758D01*
X162527390Y-103634427D01*
X162521588Y-103635820D01*
X162457506Y-103668895D01*
X162386985Y-103705293D01*
X162386983Y-103705295D01*
X162381679Y-103708032D01*
X162263034Y-103811533D01*
X162172501Y-103940348D01*
X162115309Y-104087039D01*
X162094758Y-104243138D01*
X162095413Y-104249071D01*
X162095413Y-104249075D01*
X162105243Y-104338115D01*
X162112035Y-104399633D01*
X162119341Y-104419598D01*
X162148426Y-104499075D01*
X162166143Y-104547490D01*
X162169472Y-104552444D01*
X162250629Y-104673219D01*
X162250632Y-104673223D01*
X162253958Y-104678172D01*
X162258369Y-104682186D01*
X162258371Y-104682188D01*
X162270849Y-104693542D01*
X162370410Y-104784135D01*
X162428514Y-104815683D01*
X162503530Y-104856414D01*
X162503532Y-104856415D01*
X162508776Y-104859262D01*
X162588534Y-104880186D01*
X162655300Y-104897702D01*
X162655304Y-104897702D01*
X162661069Y-104899215D01*
X162667030Y-104899309D01*
X162667033Y-104899309D01*
X162739782Y-104900452D01*
X162818495Y-104901688D01*
X162835899Y-104897702D01*
X162966149Y-104867871D01*
X162966151Y-104867870D01*
X162971968Y-104866538D01*
X162977299Y-104863857D01*
X163107299Y-104798474D01*
X163107301Y-104798473D01*
X163112625Y-104795795D01*
X163126277Y-104784135D01*
X163227810Y-104697418D01*
X163227811Y-104697417D01*
X163232348Y-104693542D01*
X163324224Y-104565683D01*
X163350629Y-104500000D01*
X163380726Y-104425131D01*
X163380727Y-104425129D01*
X163382950Y-104419598D01*
X163384994Y-104405240D01*
X163394016Y-104341845D01*
X163422024Y-104285790D01*
X164756419Y-102951395D01*
X164766399Y-102943421D01*
X164766384Y-102943404D01*
X164771754Y-102938834D01*
X164777720Y-102935070D01*
X164782388Y-102929785D01*
X164782391Y-102929782D01*
X164813292Y-102894792D01*
X164817492Y-102890322D01*
X164829320Y-102878494D01*
X164836100Y-102869447D01*
X164841104Y-102863301D01*
X164872623Y-102827612D01*
X164876982Y-102818329D01*
X164887373Y-102801034D01*
X164893526Y-102792824D01*
X164910237Y-102748248D01*
X164913323Y-102740926D01*
X164930554Y-102704225D01*
X164930554Y-102704224D01*
X164933553Y-102697837D01*
X164935131Y-102687700D01*
X164940252Y-102668184D01*
X164941377Y-102665184D01*
X164941377Y-102665182D01*
X164943852Y-102658581D01*
X164947381Y-102611096D01*
X164948287Y-102603208D01*
X164949912Y-102592772D01*
X164949913Y-102592764D01*
X164950500Y-102588991D01*
X164950500Y-102572791D01*
X164950772Y-102565455D01*
X164953953Y-102522641D01*
X164954476Y-102515608D01*
X164952681Y-102507199D01*
X164950500Y-102486532D01*
X164950500Y-95767166D01*
X164951919Y-95754465D01*
X164951897Y-95754463D01*
X164952463Y-95747431D01*
X164954019Y-95740553D01*
X164950690Y-95686898D01*
X164950500Y-95680767D01*
X164950500Y-95664060D01*
X164950001Y-95660573D01*
X164950000Y-95660565D01*
X164948899Y-95652879D01*
X164948089Y-95644976D01*
X164945578Y-95604499D01*
X164945577Y-95604496D01*
X164945141Y-95597462D01*
X164942748Y-95590833D01*
X164942747Y-95590829D01*
X164941658Y-95587813D01*
X164936777Y-95568236D01*
X164936323Y-95565064D01*
X164936323Y-95565063D01*
X164935323Y-95558082D01*
X164932404Y-95551663D01*
X164932403Y-95551658D01*
X164915619Y-95514743D01*
X164912623Y-95507385D01*
X164898855Y-95469248D01*
X164896460Y-95462613D01*
X164890408Y-95454328D01*
X164880232Y-95436914D01*
X164875984Y-95427572D01*
X164862272Y-95411659D01*
X164844907Y-95391505D01*
X164839967Y-95385284D01*
X164837989Y-95382577D01*
X164831478Y-95373664D01*
X164820014Y-95362200D01*
X164815019Y-95356819D01*
X164787005Y-95324307D01*
X164787004Y-95324306D01*
X164782400Y-95318963D01*
X164775189Y-95314289D01*
X164759032Y-95301218D01*
X164401395Y-94943581D01*
X164393421Y-94933601D01*
X164393404Y-94933616D01*
X164388834Y-94928246D01*
X164385070Y-94922280D01*
X164379785Y-94917612D01*
X164379782Y-94917609D01*
X164344792Y-94886708D01*
X164340322Y-94882508D01*
X164328494Y-94870680D01*
X164319447Y-94863900D01*
X164313301Y-94858896D01*
X164277612Y-94827377D01*
X164268329Y-94823018D01*
X164251034Y-94812627D01*
X164242824Y-94806474D01*
X164221047Y-94798310D01*
X164198254Y-94789765D01*
X164190934Y-94786680D01*
X164147838Y-94766447D01*
X164148961Y-94764056D01*
X164108425Y-94735679D01*
X164088498Y-94677829D01*
X164106387Y-94619306D01*
X164162697Y-94538886D01*
X164167562Y-94530182D01*
X164240877Y-94360760D01*
X164243891Y-94351260D01*
X164281888Y-94169380D01*
X164282865Y-94161851D01*
X164282931Y-94160589D01*
X164283000Y-94157979D01*
X164283000Y-93934680D01*
X164278878Y-93921995D01*
X164274757Y-93919000D01*
X162382680Y-93919000D01*
X162369995Y-93923122D01*
X162367000Y-93927243D01*
X162367000Y-94111139D01*
X162367253Y-94116136D01*
X162381220Y-94253639D01*
X162383226Y-94263408D01*
X162438428Y-94439560D01*
X162442357Y-94448725D01*
X162527598Y-94602503D01*
X162539273Y-94662565D01*
X162513415Y-94718018D01*
X162459902Y-94747681D01*
X162441011Y-94749500D01*
X161317166Y-94749500D01*
X161304465Y-94748081D01*
X161304463Y-94748103D01*
X161297431Y-94747537D01*
X161290553Y-94745981D01*
X161239393Y-94749155D01*
X161236898Y-94749310D01*
X161230767Y-94749500D01*
X161214060Y-94749500D01*
X161210573Y-94749999D01*
X161210565Y-94750000D01*
X161202879Y-94751101D01*
X161194976Y-94751911D01*
X161154499Y-94754422D01*
X161154496Y-94754423D01*
X161147462Y-94754859D01*
X161140833Y-94757252D01*
X161140829Y-94757253D01*
X161137813Y-94758342D01*
X161118237Y-94763223D01*
X161117635Y-94763309D01*
X161115064Y-94763677D01*
X161115063Y-94763677D01*
X161108082Y-94764677D01*
X161101663Y-94767596D01*
X161101658Y-94767597D01*
X161064743Y-94784381D01*
X161057385Y-94787377D01*
X161043190Y-94792502D01*
X161012613Y-94803540D01*
X161004328Y-94809592D01*
X160986914Y-94819768D01*
X160977572Y-94824016D01*
X160961659Y-94837728D01*
X160941505Y-94855093D01*
X160935284Y-94860033D01*
X160923664Y-94868522D01*
X160912200Y-94879986D01*
X160906819Y-94884981D01*
X160868963Y-94917600D01*
X160865126Y-94923520D01*
X160864289Y-94924811D01*
X160851218Y-94940968D01*
X160571682Y-95220504D01*
X160517165Y-95248281D01*
X160501678Y-95249500D01*
X157317166Y-95249500D01*
X157304465Y-95248081D01*
X157304463Y-95248103D01*
X157297431Y-95247537D01*
X157290553Y-95245981D01*
X157239393Y-95249155D01*
X157236898Y-95249310D01*
X157230767Y-95249500D01*
X157214060Y-95249500D01*
X157210573Y-95249999D01*
X157210565Y-95250000D01*
X157202879Y-95251101D01*
X157194976Y-95251911D01*
X157154499Y-95254422D01*
X157154496Y-95254423D01*
X157147462Y-95254859D01*
X157140833Y-95257252D01*
X157140829Y-95257253D01*
X157137813Y-95258342D01*
X157118237Y-95263223D01*
X157117045Y-95263394D01*
X157115064Y-95263677D01*
X157115063Y-95263677D01*
X157108082Y-95264677D01*
X157101663Y-95267596D01*
X157101658Y-95267597D01*
X157064743Y-95284381D01*
X157057385Y-95287377D01*
X157012613Y-95303540D01*
X157004328Y-95309592D01*
X156986914Y-95319768D01*
X156977572Y-95324016D01*
X156972228Y-95328621D01*
X156941505Y-95355093D01*
X156935284Y-95360033D01*
X156923664Y-95368522D01*
X156912200Y-95379986D01*
X156906819Y-95384981D01*
X156899248Y-95391505D01*
X156868963Y-95417600D01*
X156865126Y-95423520D01*
X156864289Y-95424811D01*
X156851218Y-95440968D01*
X156568581Y-95723605D01*
X156558601Y-95731579D01*
X156558616Y-95731596D01*
X156553246Y-95736166D01*
X156547280Y-95739930D01*
X156542612Y-95745215D01*
X156542609Y-95745218D01*
X156511708Y-95780208D01*
X156507508Y-95784678D01*
X156495680Y-95796506D01*
X156488902Y-95805550D01*
X156483896Y-95811699D01*
X156452377Y-95847388D01*
X156450416Y-95845655D01*
X156411732Y-95876646D01*
X156350614Y-95879528D01*
X156336473Y-95874478D01*
X156296339Y-95856610D01*
X156286526Y-95853421D01*
X156120253Y-95818079D01*
X156109990Y-95817000D01*
X155940010Y-95817000D01*
X155929747Y-95818079D01*
X155763474Y-95853421D01*
X155753661Y-95856610D01*
X155655013Y-95900530D01*
X155594163Y-95906925D01*
X155541175Y-95876332D01*
X155528160Y-95858085D01*
X155468150Y-95749825D01*
X155462454Y-95741628D01*
X155342327Y-95601473D01*
X155335101Y-95594592D01*
X155189241Y-95481452D01*
X155180787Y-95476169D01*
X155015150Y-95394665D01*
X155005804Y-95391190D01*
X154944174Y-95375136D01*
X154931775Y-95375872D01*
X154929000Y-95385360D01*
X154929000Y-96775320D01*
X154933122Y-96788005D01*
X154937243Y-96791000D01*
X155574000Y-96791000D01*
X155632191Y-96809907D01*
X155668155Y-96859407D01*
X155673000Y-96890000D01*
X155673000Y-97200000D01*
X155654093Y-97258191D01*
X155604593Y-97294155D01*
X155574000Y-97299000D01*
X154944680Y-97299000D01*
X154931995Y-97303122D01*
X154929000Y-97307243D01*
X154929000Y-98706664D01*
X154420408Y-98706664D01*
X154421000Y-98704640D01*
X154421000Y-97314680D01*
X154416878Y-97301995D01*
X154412757Y-97299000D01*
X153732680Y-97299000D01*
X153719995Y-97303122D01*
X153717000Y-97307243D01*
X153717000Y-97841139D01*
X129250500Y-97841139D01*
X129250500Y-96775320D01*
X153717000Y-96775320D01*
X153721122Y-96788005D01*
X153725243Y-96791000D01*
X154405320Y-96791000D01*
X154418005Y-96786878D01*
X154421000Y-96782757D01*
X154421000Y-95383336D01*
X154417697Y-95373170D01*
X154405369Y-95373407D01*
X154257577Y-95427784D01*
X154248614Y-95432155D01*
X154091730Y-95529428D01*
X154083822Y-95535518D01*
X153949701Y-95662350D01*
X153943181Y-95669903D01*
X153837303Y-95821114D01*
X153832438Y-95829818D01*
X153759123Y-95999240D01*
X153756109Y-96008740D01*
X153718112Y-96190620D01*
X153717135Y-96198149D01*
X153717069Y-96199411D01*
X153717000Y-96202021D01*
X153717000Y-96775320D01*
X129250500Y-96775320D01*
X129250500Y-94111139D01*
X153717000Y-94111139D01*
X153717253Y-94116136D01*
X153731220Y-94253639D01*
X153733226Y-94263408D01*
X153788428Y-94439560D01*
X153792359Y-94448730D01*
X153881850Y-94610175D01*
X153887546Y-94618372D01*
X154007673Y-94758527D01*
X154014899Y-94765408D01*
X154160759Y-94878548D01*
X154169213Y-94883831D01*
X154334850Y-94965335D01*
X154344196Y-94968810D01*
X154405826Y-94984864D01*
X154418225Y-94984128D01*
X154420408Y-94976664D01*
X154929000Y-94976664D01*
X154932303Y-94986830D01*
X154944631Y-94986593D01*
X155092423Y-94932216D01*
X155101386Y-94927845D01*
X155258270Y-94830572D01*
X155266178Y-94824482D01*
X155400299Y-94697650D01*
X155406819Y-94690097D01*
X155512697Y-94538886D01*
X155517562Y-94530182D01*
X155590877Y-94360760D01*
X155593891Y-94351260D01*
X155631888Y-94169380D01*
X155632865Y-94161851D01*
X155632931Y-94160589D01*
X155633000Y-94157979D01*
X155633000Y-93934680D01*
X155628878Y-93921995D01*
X155624757Y-93919000D01*
X154944680Y-93919000D01*
X154931995Y-93923122D01*
X154929000Y-93927243D01*
X154929000Y-94976664D01*
X154420408Y-94976664D01*
X154421000Y-94974640D01*
X154421000Y-93934680D01*
X154416878Y-93921995D01*
X154412757Y-93919000D01*
X153732680Y-93919000D01*
X153719995Y-93923122D01*
X153717000Y-93927243D01*
X153717000Y-94111139D01*
X129250500Y-94111139D01*
X129250500Y-92349500D01*
X129269407Y-92291309D01*
X129318907Y-92255345D01*
X129349500Y-92250500D01*
X154145667Y-92250500D01*
X154203858Y-92269407D01*
G37*
%TD.AperFunction*%
%TD*%
M02*
