%TF.GenerationSoftware,KiCad,Pcbnew,6.0.7+dfsg-1~bpo11+1*%
%TF.CreationDate,2022-08-19T21:28:34-04:00*%
%TF.ProjectId,iov-rp2040,696f762d-7270-4323-9034-302e6b696361,rev?*%
%TF.SameCoordinates,Original*%
%TF.FileFunction,Soldermask,Bot*%
%TF.FilePolarity,Negative*%
%FSLAX46Y46*%
G04 Gerber Fmt 4.6, Leading zero omitted, Abs format (unit mm)*
G04 Created by KiCad (PCBNEW 6.0.7+dfsg-1~bpo11+1) date 2022-08-19 21:28:34*
%MOMM*%
%LPD*%
G01*
G04 APERTURE LIST*
G04 Aperture macros list*
%AMRoundRect*
0 Rectangle with rounded corners*
0 $1 Rounding radius*
0 $2 $3 $4 $5 $6 $7 $8 $9 X,Y pos of 4 corners*
0 Add a 4 corners polygon primitive as box body*
4,1,4,$2,$3,$4,$5,$6,$7,$8,$9,$2,$3,0*
0 Add four circle primitives for the rounded corners*
1,1,$1+$1,$2,$3*
1,1,$1+$1,$4,$5*
1,1,$1+$1,$6,$7*
1,1,$1+$1,$8,$9*
0 Add four rect primitives between the rounded corners*
20,1,$1+$1,$2,$3,$4,$5,0*
20,1,$1+$1,$4,$5,$6,$7,0*
20,1,$1+$1,$6,$7,$8,$9,0*
20,1,$1+$1,$8,$9,$2,$3,0*%
G04 Aperture macros list end*
%ADD10R,1.700000X1.700000*%
%ADD11O,1.700000X1.700000*%
%ADD12C,0.700000*%
%ADD13O,0.900000X1.700000*%
%ADD14O,0.900000X2.400000*%
%ADD15RoundRect,0.250000X0.600000X-0.600000X0.600000X0.600000X-0.600000X0.600000X-0.600000X-0.600000X0*%
%ADD16C,1.700000*%
G04 APERTURE END LIST*
D10*
%TO.C,J2*%
X159275000Y-133000000D03*
D11*
X156735000Y-133000000D03*
X154195000Y-133000000D03*
%TD*%
D12*
%TO.C,J1*%
X161975000Y-98025000D03*
X161125000Y-98025000D03*
X160275000Y-98025000D03*
X159425000Y-98025000D03*
X158575000Y-98025000D03*
X157725000Y-98025000D03*
X156875000Y-98025000D03*
X156025000Y-98025000D03*
X156025000Y-96675000D03*
X156875000Y-96675000D03*
X157725000Y-96675000D03*
X158575000Y-96675000D03*
X159425000Y-96675000D03*
X160275000Y-96675000D03*
X161125000Y-96675000D03*
X161975000Y-96675000D03*
D13*
X154675000Y-93665000D03*
D14*
X163325000Y-97045000D03*
D13*
X163325000Y-93665000D03*
D14*
X154675000Y-97045000D03*
%TD*%
D15*
%TO.C,J3*%
X134870000Y-148252500D03*
D16*
X134870000Y-145712500D03*
X137410000Y-148252500D03*
X137410000Y-145712500D03*
X139950000Y-148252500D03*
X139950000Y-145712500D03*
X142490000Y-148252500D03*
X142490000Y-145712500D03*
X145030000Y-148252500D03*
X145030000Y-145712500D03*
X147570000Y-148252500D03*
X147570000Y-145712500D03*
X150110000Y-148252500D03*
X150110000Y-145712500D03*
X152650000Y-148252500D03*
X152650000Y-145712500D03*
X155190000Y-148252500D03*
X155190000Y-145712500D03*
X157730000Y-148252500D03*
X157730000Y-145712500D03*
X160270000Y-148252500D03*
X160270000Y-145712500D03*
X162810000Y-148252500D03*
X162810000Y-145712500D03*
X165350000Y-148252500D03*
X165350000Y-145712500D03*
X167890000Y-148252500D03*
X167890000Y-145712500D03*
X170430000Y-148252500D03*
X170430000Y-145712500D03*
X172970000Y-148252500D03*
X172970000Y-145712500D03*
X175510000Y-148252500D03*
X175510000Y-145712500D03*
X178050000Y-148252500D03*
X178050000Y-145712500D03*
X180590000Y-148252500D03*
X180590000Y-145712500D03*
X183130000Y-148252500D03*
X183130000Y-145712500D03*
%TD*%
M02*
