%TF.GenerationSoftware,KiCad,Pcbnew,6.0.7+dfsg-1~bpo11+1*%
%TF.CreationDate,2022-08-19T21:34:26-04:00*%
%TF.ProjectId,iov-rp2040,696f762d-7270-4323-9034-302e6b696361,rev?*%
%TF.SameCoordinates,Original*%
%TF.FileFunction,Drillmap*%
%TF.FilePolarity,Positive*%
%FSLAX45Y45*%
G04 Gerber Fmt 4.5, Leading zero omitted, Abs format (unit mm)*
G04 Created by KiCad (PCBNEW 6.0.7+dfsg-1~bpo11+1) date 2022-08-19 21:34:26*
%MOMM*%
%LPD*%
G01*
G04 APERTURE LIST*
%ADD10C,0.100000*%
%ADD11C,0.200000*%
%ADD12C,0.040000*%
%ADD13C,0.060000*%
G04 APERTURE END LIST*
D10*
X12900000Y-9200000D02*
X18900000Y-9200000D01*
X18900000Y-9200000D02*
X18900000Y-15200000D01*
X18900000Y-15200000D02*
X12900000Y-15200000D01*
X12900000Y-15200000D02*
X12900000Y-9200000D01*
D11*
D12*
X14470000Y-11155000D02*
X14510000Y-11195000D01*
X14510000Y-11155000D02*
X14470000Y-11195000D01*
X14880000Y-11055000D02*
X14920000Y-11095000D01*
X14920000Y-11055000D02*
X14880000Y-11095000D01*
X14980000Y-11055000D02*
X15020000Y-11095000D01*
X15020000Y-11055000D02*
X14980000Y-11095000D01*
X15081000Y-11554000D02*
X15121000Y-11594000D01*
X15121000Y-11554000D02*
X15081000Y-11594000D01*
X15155000Y-11080000D02*
X15195000Y-11120000D01*
X15195000Y-11080000D02*
X15155000Y-11120000D01*
X15180000Y-11730000D02*
X15220000Y-11770000D01*
X15220000Y-11730000D02*
X15180000Y-11770000D01*
X15180000Y-12180000D02*
X15220000Y-12220000D01*
X15220000Y-12180000D02*
X15180000Y-12220000D01*
X15230000Y-12655000D02*
X15270000Y-12695000D01*
X15270000Y-12655000D02*
X15230000Y-12695000D01*
X15380000Y-11730000D02*
X15420000Y-11770000D01*
X15420000Y-11730000D02*
X15380000Y-11770000D01*
X15380000Y-13030000D02*
X15420000Y-13070000D01*
X15420000Y-13030000D02*
X15380000Y-13070000D01*
X15505000Y-11230000D02*
X15545000Y-11270000D01*
X15545000Y-11230000D02*
X15505000Y-11270000D01*
X15595050Y-11155000D02*
X15635050Y-11195000D01*
X15635050Y-11155000D02*
X15595050Y-11195000D01*
X15638795Y-11788468D02*
X15678795Y-11828468D01*
X15678795Y-11788468D02*
X15638795Y-11828468D01*
X15638902Y-11906619D02*
X15678902Y-11946619D01*
X15678902Y-11906619D02*
X15638902Y-11946619D01*
X15655000Y-12255000D02*
X15695000Y-12295000D01*
X15695000Y-12255000D02*
X15655000Y-12295000D01*
X15655000Y-13805000D02*
X15695000Y-13845000D01*
X15695000Y-13805000D02*
X15655000Y-13845000D01*
X15780000Y-10855000D02*
X15820000Y-10895000D01*
X15820000Y-10855000D02*
X15780000Y-10895000D01*
X15780000Y-11330000D02*
X15820000Y-11370000D01*
X15820000Y-11330000D02*
X15780000Y-11370000D01*
X15780000Y-11930000D02*
X15820000Y-11970000D01*
X15820000Y-11930000D02*
X15780000Y-11970000D01*
X15780000Y-12030000D02*
X15820000Y-12070000D01*
X15820000Y-12030000D02*
X15780000Y-12070000D01*
X15780000Y-12130000D02*
X15820000Y-12170000D01*
X15820000Y-12130000D02*
X15780000Y-12170000D01*
X15827500Y-9930000D02*
X15867500Y-9970000D01*
X15867500Y-9930000D02*
X15827500Y-9970000D01*
X15843997Y-11797979D02*
X15883997Y-11837979D01*
X15883997Y-11797979D02*
X15843997Y-11837979D01*
X15880000Y-10780000D02*
X15920000Y-10820000D01*
X15920000Y-10780000D02*
X15880000Y-10820000D01*
X15880000Y-11330000D02*
X15920000Y-11370000D01*
X15920000Y-11330000D02*
X15880000Y-11370000D01*
X15905000Y-12730000D02*
X15945000Y-12770000D01*
X15945000Y-12730000D02*
X15905000Y-12770000D01*
X15930000Y-10655000D02*
X15970000Y-10695000D01*
X15970000Y-10655000D02*
X15930000Y-10695000D01*
X15932500Y-9930000D02*
X15972500Y-9970000D01*
X15972500Y-9930000D02*
X15932500Y-9970000D01*
X15980000Y-10855000D02*
X16020000Y-10895000D01*
X16020000Y-10855000D02*
X15980000Y-10895000D01*
X15980000Y-11930000D02*
X16020000Y-11970000D01*
X16020000Y-11930000D02*
X15980000Y-11970000D01*
X15980000Y-12030000D02*
X16020000Y-12070000D01*
X16020000Y-12030000D02*
X15980000Y-12070000D01*
X15980000Y-12130000D02*
X16020000Y-12170000D01*
X16020000Y-12130000D02*
X15980000Y-12170000D01*
X15987507Y-12533687D02*
X16027507Y-12573687D01*
X16027507Y-12533687D02*
X15987507Y-12573687D01*
X16005000Y-12730000D02*
X16045000Y-12770000D01*
X16045000Y-12730000D02*
X16005000Y-12770000D01*
X16105000Y-12130000D02*
X16145000Y-12170000D01*
X16145000Y-12130000D02*
X16105000Y-12170000D01*
X16105000Y-12605000D02*
X16145000Y-12645000D01*
X16145000Y-12605000D02*
X16105000Y-12645000D01*
X16117576Y-12271279D02*
X16157576Y-12311279D01*
X16157576Y-12271279D02*
X16117576Y-12311279D01*
X16130000Y-13605000D02*
X16170000Y-13645000D01*
X16170000Y-13605000D02*
X16130000Y-13645000D01*
X16141046Y-11567672D02*
X16181046Y-11607672D01*
X16181046Y-11567672D02*
X16141046Y-11607672D01*
X16205000Y-13004950D02*
X16245000Y-13044950D01*
X16245000Y-13004950D02*
X16205000Y-13044950D01*
X16230000Y-10655000D02*
X16270000Y-10695000D01*
X16270000Y-10655000D02*
X16230000Y-10695000D01*
X16230000Y-11255000D02*
X16270000Y-11295000D01*
X16270000Y-11255000D02*
X16230000Y-11295000D01*
X16255000Y-10405000D02*
X16295000Y-10445000D01*
X16295000Y-10405000D02*
X16255000Y-10445000D01*
X16270000Y-11335000D02*
X16310000Y-11375000D01*
X16310000Y-11335000D02*
X16270000Y-11375000D01*
X16305000Y-12680000D02*
X16345000Y-12720000D01*
X16345000Y-12680000D02*
X16305000Y-12720000D01*
X16455000Y-11505000D02*
X16495000Y-11545000D01*
X16495000Y-11505000D02*
X16455000Y-11545000D01*
X16545000Y-10880000D02*
X16585000Y-10920000D01*
X16585000Y-10880000D02*
X16545000Y-10920000D01*
X16545000Y-11380000D02*
X16585000Y-11420000D01*
X16585000Y-11380000D02*
X16545000Y-11420000D01*
X16555000Y-11130000D02*
X16595000Y-11170000D01*
X16595000Y-11130000D02*
X16555000Y-11170000D01*
X16580000Y-11705000D02*
X16620000Y-11745000D01*
X16620000Y-11705000D02*
X16580000Y-11745000D01*
X16580000Y-12180000D02*
X16620000Y-12220000D01*
X16620000Y-12180000D02*
X16580000Y-12220000D01*
X16730000Y-11130000D02*
X16770000Y-11170000D01*
X16770000Y-11130000D02*
X16730000Y-11170000D01*
X16905000Y-10655000D02*
X16945000Y-10695000D01*
X16945000Y-10655000D02*
X16905000Y-10695000D01*
X17030000Y-10980000D02*
X17070000Y-11020000D01*
X17070000Y-10980000D02*
X17030000Y-11020000D01*
X17030000Y-11505000D02*
X17070000Y-11545000D01*
X17070000Y-11505000D02*
X17030000Y-11545000D01*
X17130000Y-11705000D02*
X17170000Y-11745000D01*
X17170000Y-11705000D02*
X17130000Y-11745000D01*
X17155000Y-11005000D02*
X17195000Y-11045000D01*
X17195000Y-11005000D02*
X17155000Y-11045000D01*
X17155000Y-11280000D02*
X17195000Y-11320000D01*
X17195000Y-11280000D02*
X17155000Y-11320000D01*
X17155000Y-11530000D02*
X17195000Y-11570000D01*
X17195000Y-11530000D02*
X17155000Y-11570000D01*
X17230000Y-10730000D02*
X17270000Y-10770000D01*
X17270000Y-10730000D02*
X17230000Y-10770000D01*
X17405000Y-10655000D02*
X17445000Y-10695000D01*
X17445000Y-10655000D02*
X17405000Y-10695000D01*
X17480000Y-12680000D02*
X17520000Y-12720000D01*
X17520000Y-12680000D02*
X17480000Y-12720000D01*
X17505000Y-11005000D02*
X17545000Y-11045000D01*
X17545000Y-11005000D02*
X17505000Y-11045000D01*
X17505000Y-12005000D02*
X17545000Y-12045000D01*
X17545000Y-12005000D02*
X17505000Y-12045000D01*
X17580000Y-10430000D02*
X17620000Y-10470000D01*
X17620000Y-10430000D02*
X17580000Y-10470000D01*
X17630000Y-10830000D02*
X17670000Y-10870000D01*
X17670000Y-10830000D02*
X17630000Y-10870000D01*
X17680000Y-10580000D02*
X17720000Y-10620000D01*
X17720000Y-10580000D02*
X17680000Y-10620000D01*
X17780000Y-10680000D02*
X17820000Y-10720000D01*
X17820000Y-10680000D02*
X17780000Y-10720000D01*
X17780000Y-12330000D02*
X17820000Y-12370000D01*
X17820000Y-12330000D02*
X17780000Y-12370000D01*
X17805000Y-11630000D02*
X17845000Y-11670000D01*
X17845000Y-11630000D02*
X17805000Y-11670000D01*
X15622500Y-9667500D02*
G75*
G03*
X15622500Y-9667500I-20000J0D01*
G01*
X15622500Y-9802500D02*
G75*
G03*
X15622500Y-9802500I-20000J0D01*
G01*
X15707500Y-9667500D02*
G75*
G03*
X15707500Y-9667500I-20000J0D01*
G01*
X15707500Y-9802500D02*
G75*
G03*
X15707500Y-9802500I-20000J0D01*
G01*
X15792500Y-9667500D02*
G75*
G03*
X15792500Y-9667500I-20000J0D01*
G01*
X15792500Y-9802500D02*
G75*
G03*
X15792500Y-9802500I-20000J0D01*
G01*
X15877500Y-9667500D02*
G75*
G03*
X15877500Y-9667500I-20000J0D01*
G01*
X15877500Y-9802500D02*
G75*
G03*
X15877500Y-9802500I-20000J0D01*
G01*
X15962500Y-9667500D02*
G75*
G03*
X15962500Y-9667500I-20000J0D01*
G01*
X15962500Y-9802500D02*
G75*
G03*
X15962500Y-9802500I-20000J0D01*
G01*
X16047500Y-9667500D02*
G75*
G03*
X16047500Y-9667500I-20000J0D01*
G01*
X16047500Y-9802500D02*
G75*
G03*
X16047500Y-9802500I-20000J0D01*
G01*
X16132500Y-9667500D02*
G75*
G03*
X16132500Y-9667500I-20000J0D01*
G01*
X16132500Y-9802500D02*
G75*
G03*
X16132500Y-9802500I-20000J0D01*
G01*
X16217500Y-9667500D02*
G75*
G03*
X16217500Y-9667500I-20000J0D01*
G01*
X16217500Y-9802500D02*
G75*
G03*
X16217500Y-9802500I-20000J0D01*
G01*
D13*
X15467500Y-9336500D02*
X15467500Y-9396500D01*
X15437500Y-9366500D02*
X15497500Y-9366500D01*
D11*
X15497500Y-9406500D02*
X15497500Y-9326500D01*
X15437500Y-9406500D02*
X15437500Y-9326500D01*
X15497500Y-9326500D02*
G75*
G03*
X15437500Y-9326500I-30000J0D01*
G01*
X15437500Y-9406500D02*
G75*
G03*
X15497500Y-9406500I30000J0D01*
G01*
D13*
X15467500Y-9674500D02*
X15467500Y-9734500D01*
X15437500Y-9704500D02*
X15497500Y-9704500D01*
D11*
X15497500Y-9779500D02*
X15497500Y-9629500D01*
X15437500Y-9779500D02*
X15437500Y-9629500D01*
X15497500Y-9629500D02*
G75*
G03*
X15437500Y-9629500I-30000J0D01*
G01*
X15437500Y-9779500D02*
G75*
G03*
X15497500Y-9779500I30000J0D01*
G01*
D13*
X16332500Y-9336500D02*
X16332500Y-9396500D01*
X16302500Y-9366500D02*
X16362500Y-9366500D01*
D11*
X16362500Y-9406500D02*
X16362500Y-9326500D01*
X16302500Y-9406500D02*
X16302500Y-9326500D01*
X16362500Y-9326500D02*
G75*
G03*
X16302500Y-9326500I-30000J0D01*
G01*
X16302500Y-9406500D02*
G75*
G03*
X16362500Y-9406500I30000J0D01*
G01*
D13*
X16332500Y-9674500D02*
X16332500Y-9734500D01*
X16302500Y-9704500D02*
X16362500Y-9704500D01*
D11*
X16362500Y-9779500D02*
X16362500Y-9629500D01*
X16302500Y-9779500D02*
X16302500Y-9629500D01*
X16362500Y-9629500D02*
G75*
G03*
X16302500Y-9629500I-30000J0D01*
G01*
X16302500Y-9779500D02*
G75*
G03*
X16362500Y-9779500I30000J0D01*
G01*
D10*
X13522356Y-14606606D02*
X13522356Y-14535894D01*
X13451644Y-14535894D01*
X13451644Y-14606606D01*
X13522356Y-14606606D01*
X13522356Y-14860606D02*
X13522356Y-14789894D01*
X13451644Y-14789894D01*
X13451644Y-14860606D01*
X13522356Y-14860606D01*
X13776356Y-14606606D02*
X13776356Y-14535894D01*
X13705644Y-14535894D01*
X13705644Y-14606606D01*
X13776356Y-14606606D01*
X13776356Y-14860606D02*
X13776356Y-14789894D01*
X13705644Y-14789894D01*
X13705644Y-14860606D01*
X13776356Y-14860606D01*
X14030356Y-14606606D02*
X14030356Y-14535894D01*
X13959644Y-14535894D01*
X13959644Y-14606606D01*
X14030356Y-14606606D01*
X14030356Y-14860606D02*
X14030356Y-14789894D01*
X13959644Y-14789894D01*
X13959644Y-14860606D01*
X14030356Y-14860606D01*
X14284356Y-14606606D02*
X14284356Y-14535894D01*
X14213644Y-14535894D01*
X14213644Y-14606606D01*
X14284356Y-14606606D01*
X14284356Y-14860606D02*
X14284356Y-14789894D01*
X14213644Y-14789894D01*
X14213644Y-14860606D01*
X14284356Y-14860606D01*
X14538356Y-14606606D02*
X14538356Y-14535894D01*
X14467644Y-14535894D01*
X14467644Y-14606606D01*
X14538356Y-14606606D01*
X14538356Y-14860606D02*
X14538356Y-14789894D01*
X14467644Y-14789894D01*
X14467644Y-14860606D01*
X14538356Y-14860606D01*
X14792356Y-14606606D02*
X14792356Y-14535894D01*
X14721644Y-14535894D01*
X14721644Y-14606606D01*
X14792356Y-14606606D01*
X14792356Y-14860606D02*
X14792356Y-14789894D01*
X14721644Y-14789894D01*
X14721644Y-14860606D01*
X14792356Y-14860606D01*
X15046356Y-14606606D02*
X15046356Y-14535894D01*
X14975644Y-14535894D01*
X14975644Y-14606606D01*
X15046356Y-14606606D01*
X15046356Y-14860606D02*
X15046356Y-14789894D01*
X14975644Y-14789894D01*
X14975644Y-14860606D01*
X15046356Y-14860606D01*
X15300356Y-14606606D02*
X15300356Y-14535894D01*
X15229644Y-14535894D01*
X15229644Y-14606606D01*
X15300356Y-14606606D01*
X15300356Y-14860606D02*
X15300356Y-14789894D01*
X15229644Y-14789894D01*
X15229644Y-14860606D01*
X15300356Y-14860606D01*
X15454856Y-13335356D02*
X15454856Y-13264644D01*
X15384144Y-13264644D01*
X15384144Y-13335356D01*
X15454856Y-13335356D01*
X15554356Y-14606606D02*
X15554356Y-14535894D01*
X15483644Y-14535894D01*
X15483644Y-14606606D01*
X15554356Y-14606606D01*
X15554356Y-14860606D02*
X15554356Y-14789894D01*
X15483644Y-14789894D01*
X15483644Y-14860606D01*
X15554356Y-14860606D01*
X15708856Y-13335356D02*
X15708856Y-13264644D01*
X15638144Y-13264644D01*
X15638144Y-13335356D01*
X15708856Y-13335356D01*
X15808356Y-14606606D02*
X15808356Y-14535894D01*
X15737644Y-14535894D01*
X15737644Y-14606606D01*
X15808356Y-14606606D01*
X15808356Y-14860606D02*
X15808356Y-14789894D01*
X15737644Y-14789894D01*
X15737644Y-14860606D01*
X15808356Y-14860606D01*
X15962856Y-13335356D02*
X15962856Y-13264644D01*
X15892144Y-13264644D01*
X15892144Y-13335356D01*
X15962856Y-13335356D01*
X16062356Y-14606606D02*
X16062356Y-14535894D01*
X15991644Y-14535894D01*
X15991644Y-14606606D01*
X16062356Y-14606606D01*
X16062356Y-14860606D02*
X16062356Y-14789894D01*
X15991644Y-14789894D01*
X15991644Y-14860606D01*
X16062356Y-14860606D01*
X16316356Y-14606606D02*
X16316356Y-14535894D01*
X16245644Y-14535894D01*
X16245644Y-14606606D01*
X16316356Y-14606606D01*
X16316356Y-14860606D02*
X16316356Y-14789894D01*
X16245644Y-14789894D01*
X16245644Y-14860606D01*
X16316356Y-14860606D01*
X16570356Y-14606606D02*
X16570356Y-14535894D01*
X16499644Y-14535894D01*
X16499644Y-14606606D01*
X16570356Y-14606606D01*
X16570356Y-14860606D02*
X16570356Y-14789894D01*
X16499644Y-14789894D01*
X16499644Y-14860606D01*
X16570356Y-14860606D01*
X16824356Y-14606606D02*
X16824356Y-14535894D01*
X16753644Y-14535894D01*
X16753644Y-14606606D01*
X16824356Y-14606606D01*
X16824356Y-14860606D02*
X16824356Y-14789894D01*
X16753644Y-14789894D01*
X16753644Y-14860606D01*
X16824356Y-14860606D01*
X17078356Y-14606606D02*
X17078356Y-14535894D01*
X17007644Y-14535894D01*
X17007644Y-14606606D01*
X17078356Y-14606606D01*
X17078356Y-14860606D02*
X17078356Y-14789894D01*
X17007644Y-14789894D01*
X17007644Y-14860606D01*
X17078356Y-14860606D01*
X17332356Y-14606606D02*
X17332356Y-14535894D01*
X17261644Y-14535894D01*
X17261644Y-14606606D01*
X17332356Y-14606606D01*
X17332356Y-14860606D02*
X17332356Y-14789894D01*
X17261644Y-14789894D01*
X17261644Y-14860606D01*
X17332356Y-14860606D01*
X17586356Y-14606606D02*
X17586356Y-14535894D01*
X17515644Y-14535894D01*
X17515644Y-14606606D01*
X17586356Y-14606606D01*
X17586356Y-14860606D02*
X17586356Y-14789894D01*
X17515644Y-14789894D01*
X17515644Y-14860606D01*
X17586356Y-14860606D01*
X17840356Y-14606606D02*
X17840356Y-14535894D01*
X17769644Y-14535894D01*
X17769644Y-14606606D01*
X17840356Y-14606606D01*
X17840356Y-14860606D02*
X17840356Y-14789894D01*
X17769644Y-14789894D01*
X17769644Y-14860606D01*
X17840356Y-14860606D01*
X18094356Y-14606606D02*
X18094356Y-14535894D01*
X18023644Y-14535894D01*
X18023644Y-14606606D01*
X18094356Y-14606606D01*
X18094356Y-14860606D02*
X18094356Y-14789894D01*
X18023644Y-14789894D01*
X18023644Y-14860606D01*
X18094356Y-14860606D01*
X18348356Y-14606606D02*
X18348356Y-14535894D01*
X18277644Y-14535894D01*
X18277644Y-14606606D01*
X18348356Y-14606606D01*
X18348356Y-14860606D02*
X18348356Y-14789894D01*
X18277644Y-14789894D01*
X18277644Y-14860606D01*
X18348356Y-14860606D01*
D11*
X13152619Y-15515476D02*
X13152619Y-15315476D01*
X13200238Y-15315476D01*
X13228809Y-15325000D01*
X13247857Y-15344048D01*
X13257381Y-15363095D01*
X13266905Y-15401190D01*
X13266905Y-15429762D01*
X13257381Y-15467857D01*
X13247857Y-15486905D01*
X13228809Y-15505952D01*
X13200238Y-15515476D01*
X13152619Y-15515476D01*
X13352619Y-15515476D02*
X13352619Y-15382143D01*
X13352619Y-15420238D02*
X13362143Y-15401190D01*
X13371667Y-15391667D01*
X13390714Y-15382143D01*
X13409762Y-15382143D01*
X13476428Y-15515476D02*
X13476428Y-15382143D01*
X13476428Y-15315476D02*
X13466905Y-15325000D01*
X13476428Y-15334524D01*
X13485952Y-15325000D01*
X13476428Y-15315476D01*
X13476428Y-15334524D01*
X13600238Y-15515476D02*
X13581190Y-15505952D01*
X13571667Y-15486905D01*
X13571667Y-15315476D01*
X13705000Y-15515476D02*
X13685952Y-15505952D01*
X13676428Y-15486905D01*
X13676428Y-15315476D01*
X13933571Y-15515476D02*
X13933571Y-15315476D01*
X14000238Y-15458333D01*
X14066905Y-15315476D01*
X14066905Y-15515476D01*
X14247857Y-15515476D02*
X14247857Y-15410714D01*
X14238333Y-15391667D01*
X14219286Y-15382143D01*
X14181190Y-15382143D01*
X14162143Y-15391667D01*
X14247857Y-15505952D02*
X14228809Y-15515476D01*
X14181190Y-15515476D01*
X14162143Y-15505952D01*
X14152619Y-15486905D01*
X14152619Y-15467857D01*
X14162143Y-15448809D01*
X14181190Y-15439286D01*
X14228809Y-15439286D01*
X14247857Y-15429762D01*
X14343095Y-15382143D02*
X14343095Y-15582143D01*
X14343095Y-15391667D02*
X14362143Y-15382143D01*
X14400238Y-15382143D01*
X14419286Y-15391667D01*
X14428809Y-15401190D01*
X14438333Y-15420238D01*
X14438333Y-15477381D01*
X14428809Y-15496428D01*
X14419286Y-15505952D01*
X14400238Y-15515476D01*
X14362143Y-15515476D01*
X14343095Y-15505952D01*
X14524048Y-15496428D02*
X14533571Y-15505952D01*
X14524048Y-15515476D01*
X14514524Y-15505952D01*
X14524048Y-15496428D01*
X14524048Y-15515476D01*
X14524048Y-15391667D02*
X14533571Y-15401190D01*
X14524048Y-15410714D01*
X14514524Y-15401190D01*
X14524048Y-15391667D01*
X14524048Y-15410714D01*
D12*
X12855000Y-15825000D02*
X12895000Y-15865000D01*
X12895000Y-15825000D02*
X12855000Y-15865000D01*
D11*
X13190714Y-15735476D02*
X13209762Y-15735476D01*
X13228809Y-15745000D01*
X13238333Y-15754524D01*
X13247857Y-15773571D01*
X13257381Y-15811667D01*
X13257381Y-15859286D01*
X13247857Y-15897381D01*
X13238333Y-15916428D01*
X13228809Y-15925952D01*
X13209762Y-15935476D01*
X13190714Y-15935476D01*
X13171667Y-15925952D01*
X13162143Y-15916428D01*
X13152619Y-15897381D01*
X13143095Y-15859286D01*
X13143095Y-15811667D01*
X13152619Y-15773571D01*
X13162143Y-15754524D01*
X13171667Y-15745000D01*
X13190714Y-15735476D01*
X13343095Y-15916428D02*
X13352619Y-15925952D01*
X13343095Y-15935476D01*
X13333571Y-15925952D01*
X13343095Y-15916428D01*
X13343095Y-15935476D01*
X13524048Y-15802143D02*
X13524048Y-15935476D01*
X13476428Y-15725952D02*
X13428809Y-15868809D01*
X13552619Y-15868809D01*
X13666905Y-15735476D02*
X13685952Y-15735476D01*
X13705000Y-15745000D01*
X13714524Y-15754524D01*
X13724048Y-15773571D01*
X13733571Y-15811667D01*
X13733571Y-15859286D01*
X13724048Y-15897381D01*
X13714524Y-15916428D01*
X13705000Y-15925952D01*
X13685952Y-15935476D01*
X13666905Y-15935476D01*
X13647857Y-15925952D01*
X13638333Y-15916428D01*
X13628809Y-15897381D01*
X13619286Y-15859286D01*
X13619286Y-15811667D01*
X13628809Y-15773571D01*
X13638333Y-15754524D01*
X13647857Y-15745000D01*
X13666905Y-15735476D01*
X13857381Y-15735476D02*
X13876428Y-15735476D01*
X13895476Y-15745000D01*
X13905000Y-15754524D01*
X13914524Y-15773571D01*
X13924048Y-15811667D01*
X13924048Y-15859286D01*
X13914524Y-15897381D01*
X13905000Y-15916428D01*
X13895476Y-15925952D01*
X13876428Y-15935476D01*
X13857381Y-15935476D01*
X13838333Y-15925952D01*
X13828809Y-15916428D01*
X13819286Y-15897381D01*
X13809762Y-15859286D01*
X13809762Y-15811667D01*
X13819286Y-15773571D01*
X13828809Y-15754524D01*
X13838333Y-15745000D01*
X13857381Y-15735476D01*
X14009762Y-15935476D02*
X14009762Y-15802143D01*
X14009762Y-15821190D02*
X14019286Y-15811667D01*
X14038333Y-15802143D01*
X14066905Y-15802143D01*
X14085952Y-15811667D01*
X14095476Y-15830714D01*
X14095476Y-15935476D01*
X14095476Y-15830714D02*
X14105000Y-15811667D01*
X14124048Y-15802143D01*
X14152619Y-15802143D01*
X14171667Y-15811667D01*
X14181190Y-15830714D01*
X14181190Y-15935476D01*
X14276428Y-15935476D02*
X14276428Y-15802143D01*
X14276428Y-15821190D02*
X14285952Y-15811667D01*
X14305000Y-15802143D01*
X14333571Y-15802143D01*
X14352619Y-15811667D01*
X14362143Y-15830714D01*
X14362143Y-15935476D01*
X14362143Y-15830714D02*
X14371667Y-15811667D01*
X14390714Y-15802143D01*
X14419286Y-15802143D01*
X14438333Y-15811667D01*
X14447857Y-15830714D01*
X14447857Y-15935476D01*
X14838333Y-15725952D02*
X14666905Y-15983095D01*
X15095476Y-15735476D02*
X15114524Y-15735476D01*
X15133571Y-15745000D01*
X15143095Y-15754524D01*
X15152619Y-15773571D01*
X15162143Y-15811667D01*
X15162143Y-15859286D01*
X15152619Y-15897381D01*
X15143095Y-15916428D01*
X15133571Y-15925952D01*
X15114524Y-15935476D01*
X15095476Y-15935476D01*
X15076428Y-15925952D01*
X15066905Y-15916428D01*
X15057381Y-15897381D01*
X15047857Y-15859286D01*
X15047857Y-15811667D01*
X15057381Y-15773571D01*
X15066905Y-15754524D01*
X15076428Y-15745000D01*
X15095476Y-15735476D01*
X15247857Y-15916428D02*
X15257381Y-15925952D01*
X15247857Y-15935476D01*
X15238333Y-15925952D01*
X15247857Y-15916428D01*
X15247857Y-15935476D01*
X15381190Y-15735476D02*
X15400238Y-15735476D01*
X15419286Y-15745000D01*
X15428809Y-15754524D01*
X15438333Y-15773571D01*
X15447857Y-15811667D01*
X15447857Y-15859286D01*
X15438333Y-15897381D01*
X15428809Y-15916428D01*
X15419286Y-15925952D01*
X15400238Y-15935476D01*
X15381190Y-15935476D01*
X15362143Y-15925952D01*
X15352619Y-15916428D01*
X15343095Y-15897381D01*
X15333571Y-15859286D01*
X15333571Y-15811667D01*
X15343095Y-15773571D01*
X15352619Y-15754524D01*
X15362143Y-15745000D01*
X15381190Y-15735476D01*
X15638333Y-15935476D02*
X15524048Y-15935476D01*
X15581190Y-15935476D02*
X15581190Y-15735476D01*
X15562143Y-15764048D01*
X15543095Y-15783095D01*
X15524048Y-15792619D01*
X15819286Y-15735476D02*
X15724048Y-15735476D01*
X15714524Y-15830714D01*
X15724048Y-15821190D01*
X15743095Y-15811667D01*
X15790714Y-15811667D01*
X15809762Y-15821190D01*
X15819286Y-15830714D01*
X15828809Y-15849762D01*
X15828809Y-15897381D01*
X15819286Y-15916428D01*
X15809762Y-15925952D01*
X15790714Y-15935476D01*
X15743095Y-15935476D01*
X15724048Y-15925952D01*
X15714524Y-15916428D01*
X15895476Y-15735476D02*
X16028809Y-15735476D01*
X15943095Y-15935476D01*
X16095476Y-15735476D02*
X16095476Y-15773571D01*
X16171667Y-15735476D02*
X16171667Y-15773571D01*
X16466905Y-16011667D02*
X16457381Y-16002143D01*
X16438333Y-15973571D01*
X16428809Y-15954524D01*
X16419286Y-15925952D01*
X16409762Y-15878333D01*
X16409762Y-15840238D01*
X16419286Y-15792619D01*
X16428809Y-15764048D01*
X16438333Y-15745000D01*
X16457381Y-15716428D01*
X16466905Y-15706905D01*
X16524048Y-15735476D02*
X16657381Y-15735476D01*
X16571667Y-15935476D01*
X16771667Y-15735476D02*
X16790714Y-15735476D01*
X16809762Y-15745000D01*
X16819286Y-15754524D01*
X16828810Y-15773571D01*
X16838333Y-15811667D01*
X16838333Y-15859286D01*
X16828810Y-15897381D01*
X16819286Y-15916428D01*
X16809762Y-15925952D01*
X16790714Y-15935476D01*
X16771667Y-15935476D01*
X16752619Y-15925952D01*
X16743095Y-15916428D01*
X16733571Y-15897381D01*
X16724048Y-15859286D01*
X16724048Y-15811667D01*
X16733571Y-15773571D01*
X16743095Y-15754524D01*
X16752619Y-15745000D01*
X16771667Y-15735476D01*
X17076429Y-15935476D02*
X17076429Y-15735476D01*
X17162143Y-15935476D02*
X17162143Y-15830714D01*
X17152619Y-15811667D01*
X17133571Y-15802143D01*
X17105000Y-15802143D01*
X17085952Y-15811667D01*
X17076429Y-15821190D01*
X17285952Y-15935476D02*
X17266905Y-15925952D01*
X17257381Y-15916428D01*
X17247857Y-15897381D01*
X17247857Y-15840238D01*
X17257381Y-15821190D01*
X17266905Y-15811667D01*
X17285952Y-15802143D01*
X17314524Y-15802143D01*
X17333571Y-15811667D01*
X17343095Y-15821190D01*
X17352619Y-15840238D01*
X17352619Y-15897381D01*
X17343095Y-15916428D01*
X17333571Y-15925952D01*
X17314524Y-15935476D01*
X17285952Y-15935476D01*
X17466905Y-15935476D02*
X17447857Y-15925952D01*
X17438333Y-15906905D01*
X17438333Y-15735476D01*
X17619286Y-15925952D02*
X17600238Y-15935476D01*
X17562143Y-15935476D01*
X17543095Y-15925952D01*
X17533571Y-15906905D01*
X17533571Y-15830714D01*
X17543095Y-15811667D01*
X17562143Y-15802143D01*
X17600238Y-15802143D01*
X17619286Y-15811667D01*
X17628810Y-15830714D01*
X17628810Y-15849762D01*
X17533571Y-15868809D01*
X17705000Y-15925952D02*
X17724048Y-15935476D01*
X17762143Y-15935476D01*
X17781190Y-15925952D01*
X17790714Y-15906905D01*
X17790714Y-15897381D01*
X17781190Y-15878333D01*
X17762143Y-15868809D01*
X17733571Y-15868809D01*
X17714524Y-15859286D01*
X17705000Y-15840238D01*
X17705000Y-15830714D01*
X17714524Y-15811667D01*
X17733571Y-15802143D01*
X17762143Y-15802143D01*
X17781190Y-15811667D01*
X17857381Y-16011667D02*
X17866905Y-16002143D01*
X17885952Y-15973571D01*
X17895476Y-15954524D01*
X17905000Y-15925952D01*
X17914524Y-15878333D01*
X17914524Y-15840238D01*
X17905000Y-15792619D01*
X17895476Y-15764048D01*
X17885952Y-15745000D01*
X17866905Y-15716428D01*
X17857381Y-15706905D01*
D12*
X12895000Y-16109000D02*
G75*
G03*
X12895000Y-16109000I-20000J0D01*
G01*
D11*
X13190714Y-15999476D02*
X13209762Y-15999476D01*
X13228809Y-16009000D01*
X13238333Y-16018524D01*
X13247857Y-16037571D01*
X13257381Y-16075667D01*
X13257381Y-16123286D01*
X13247857Y-16161381D01*
X13238333Y-16180428D01*
X13228809Y-16189952D01*
X13209762Y-16199476D01*
X13190714Y-16199476D01*
X13171667Y-16189952D01*
X13162143Y-16180428D01*
X13152619Y-16161381D01*
X13143095Y-16123286D01*
X13143095Y-16075667D01*
X13152619Y-16037571D01*
X13162143Y-16018524D01*
X13171667Y-16009000D01*
X13190714Y-15999476D01*
X13343095Y-16180428D02*
X13352619Y-16189952D01*
X13343095Y-16199476D01*
X13333571Y-16189952D01*
X13343095Y-16180428D01*
X13343095Y-16199476D01*
X13524048Y-16066143D02*
X13524048Y-16199476D01*
X13476428Y-15989952D02*
X13428809Y-16132809D01*
X13552619Y-16132809D01*
X13666905Y-15999476D02*
X13685952Y-15999476D01*
X13705000Y-16009000D01*
X13714524Y-16018524D01*
X13724048Y-16037571D01*
X13733571Y-16075667D01*
X13733571Y-16123286D01*
X13724048Y-16161381D01*
X13714524Y-16180428D01*
X13705000Y-16189952D01*
X13685952Y-16199476D01*
X13666905Y-16199476D01*
X13647857Y-16189952D01*
X13638333Y-16180428D01*
X13628809Y-16161381D01*
X13619286Y-16123286D01*
X13619286Y-16075667D01*
X13628809Y-16037571D01*
X13638333Y-16018524D01*
X13647857Y-16009000D01*
X13666905Y-15999476D01*
X13857381Y-15999476D02*
X13876428Y-15999476D01*
X13895476Y-16009000D01*
X13905000Y-16018524D01*
X13914524Y-16037571D01*
X13924048Y-16075667D01*
X13924048Y-16123286D01*
X13914524Y-16161381D01*
X13905000Y-16180428D01*
X13895476Y-16189952D01*
X13876428Y-16199476D01*
X13857381Y-16199476D01*
X13838333Y-16189952D01*
X13828809Y-16180428D01*
X13819286Y-16161381D01*
X13809762Y-16123286D01*
X13809762Y-16075667D01*
X13819286Y-16037571D01*
X13828809Y-16018524D01*
X13838333Y-16009000D01*
X13857381Y-15999476D01*
X14009762Y-16199476D02*
X14009762Y-16066143D01*
X14009762Y-16085190D02*
X14019286Y-16075667D01*
X14038333Y-16066143D01*
X14066905Y-16066143D01*
X14085952Y-16075667D01*
X14095476Y-16094714D01*
X14095476Y-16199476D01*
X14095476Y-16094714D02*
X14105000Y-16075667D01*
X14124048Y-16066143D01*
X14152619Y-16066143D01*
X14171667Y-16075667D01*
X14181190Y-16094714D01*
X14181190Y-16199476D01*
X14276428Y-16199476D02*
X14276428Y-16066143D01*
X14276428Y-16085190D02*
X14285952Y-16075667D01*
X14305000Y-16066143D01*
X14333571Y-16066143D01*
X14352619Y-16075667D01*
X14362143Y-16094714D01*
X14362143Y-16199476D01*
X14362143Y-16094714D02*
X14371667Y-16075667D01*
X14390714Y-16066143D01*
X14419286Y-16066143D01*
X14438333Y-16075667D01*
X14447857Y-16094714D01*
X14447857Y-16199476D01*
X14838333Y-15989952D02*
X14666905Y-16247095D01*
X15095476Y-15999476D02*
X15114524Y-15999476D01*
X15133571Y-16009000D01*
X15143095Y-16018524D01*
X15152619Y-16037571D01*
X15162143Y-16075667D01*
X15162143Y-16123286D01*
X15152619Y-16161381D01*
X15143095Y-16180428D01*
X15133571Y-16189952D01*
X15114524Y-16199476D01*
X15095476Y-16199476D01*
X15076428Y-16189952D01*
X15066905Y-16180428D01*
X15057381Y-16161381D01*
X15047857Y-16123286D01*
X15047857Y-16075667D01*
X15057381Y-16037571D01*
X15066905Y-16018524D01*
X15076428Y-16009000D01*
X15095476Y-15999476D01*
X15247857Y-16180428D02*
X15257381Y-16189952D01*
X15247857Y-16199476D01*
X15238333Y-16189952D01*
X15247857Y-16180428D01*
X15247857Y-16199476D01*
X15381190Y-15999476D02*
X15400238Y-15999476D01*
X15419286Y-16009000D01*
X15428809Y-16018524D01*
X15438333Y-16037571D01*
X15447857Y-16075667D01*
X15447857Y-16123286D01*
X15438333Y-16161381D01*
X15428809Y-16180428D01*
X15419286Y-16189952D01*
X15400238Y-16199476D01*
X15381190Y-16199476D01*
X15362143Y-16189952D01*
X15352619Y-16180428D01*
X15343095Y-16161381D01*
X15333571Y-16123286D01*
X15333571Y-16075667D01*
X15343095Y-16037571D01*
X15352619Y-16018524D01*
X15362143Y-16009000D01*
X15381190Y-15999476D01*
X15638333Y-16199476D02*
X15524048Y-16199476D01*
X15581190Y-16199476D02*
X15581190Y-15999476D01*
X15562143Y-16028048D01*
X15543095Y-16047095D01*
X15524048Y-16056619D01*
X15819286Y-15999476D02*
X15724048Y-15999476D01*
X15714524Y-16094714D01*
X15724048Y-16085190D01*
X15743095Y-16075667D01*
X15790714Y-16075667D01*
X15809762Y-16085190D01*
X15819286Y-16094714D01*
X15828809Y-16113762D01*
X15828809Y-16161381D01*
X15819286Y-16180428D01*
X15809762Y-16189952D01*
X15790714Y-16199476D01*
X15743095Y-16199476D01*
X15724048Y-16189952D01*
X15714524Y-16180428D01*
X15895476Y-15999476D02*
X16028809Y-15999476D01*
X15943095Y-16199476D01*
X16095476Y-15999476D02*
X16095476Y-16037571D01*
X16171667Y-15999476D02*
X16171667Y-16037571D01*
X16466905Y-16275667D02*
X16457381Y-16266143D01*
X16438333Y-16237571D01*
X16428809Y-16218524D01*
X16419286Y-16189952D01*
X16409762Y-16142333D01*
X16409762Y-16104238D01*
X16419286Y-16056619D01*
X16428809Y-16028048D01*
X16438333Y-16009000D01*
X16457381Y-15980428D01*
X16466905Y-15970905D01*
X16647857Y-16199476D02*
X16533571Y-16199476D01*
X16590714Y-16199476D02*
X16590714Y-15999476D01*
X16571667Y-16028048D01*
X16552619Y-16047095D01*
X16533571Y-16056619D01*
X16819286Y-15999476D02*
X16781190Y-15999476D01*
X16762143Y-16009000D01*
X16752619Y-16018524D01*
X16733571Y-16047095D01*
X16724048Y-16085190D01*
X16724048Y-16161381D01*
X16733571Y-16180428D01*
X16743095Y-16189952D01*
X16762143Y-16199476D01*
X16800238Y-16199476D01*
X16819286Y-16189952D01*
X16828810Y-16180428D01*
X16838333Y-16161381D01*
X16838333Y-16113762D01*
X16828810Y-16094714D01*
X16819286Y-16085190D01*
X16800238Y-16075667D01*
X16762143Y-16075667D01*
X16743095Y-16085190D01*
X16733571Y-16094714D01*
X16724048Y-16113762D01*
X17076429Y-16199476D02*
X17076429Y-15999476D01*
X17162143Y-16199476D02*
X17162143Y-16094714D01*
X17152619Y-16075667D01*
X17133571Y-16066143D01*
X17105000Y-16066143D01*
X17085952Y-16075667D01*
X17076429Y-16085190D01*
X17285952Y-16199476D02*
X17266905Y-16189952D01*
X17257381Y-16180428D01*
X17247857Y-16161381D01*
X17247857Y-16104238D01*
X17257381Y-16085190D01*
X17266905Y-16075667D01*
X17285952Y-16066143D01*
X17314524Y-16066143D01*
X17333571Y-16075667D01*
X17343095Y-16085190D01*
X17352619Y-16104238D01*
X17352619Y-16161381D01*
X17343095Y-16180428D01*
X17333571Y-16189952D01*
X17314524Y-16199476D01*
X17285952Y-16199476D01*
X17466905Y-16199476D02*
X17447857Y-16189952D01*
X17438333Y-16170905D01*
X17438333Y-15999476D01*
X17619286Y-16189952D02*
X17600238Y-16199476D01*
X17562143Y-16199476D01*
X17543095Y-16189952D01*
X17533571Y-16170905D01*
X17533571Y-16094714D01*
X17543095Y-16075667D01*
X17562143Y-16066143D01*
X17600238Y-16066143D01*
X17619286Y-16075667D01*
X17628810Y-16094714D01*
X17628810Y-16113762D01*
X17533571Y-16132809D01*
X17705000Y-16189952D02*
X17724048Y-16199476D01*
X17762143Y-16199476D01*
X17781190Y-16189952D01*
X17790714Y-16170905D01*
X17790714Y-16161381D01*
X17781190Y-16142333D01*
X17762143Y-16132809D01*
X17733571Y-16132809D01*
X17714524Y-16123286D01*
X17705000Y-16104238D01*
X17705000Y-16094714D01*
X17714524Y-16075667D01*
X17733571Y-16066143D01*
X17762143Y-16066143D01*
X17781190Y-16075667D01*
X17857381Y-16275667D02*
X17866905Y-16266143D01*
X17885952Y-16237571D01*
X17895476Y-16218524D01*
X17905000Y-16189952D01*
X17914524Y-16142333D01*
X17914524Y-16104238D01*
X17905000Y-16056619D01*
X17895476Y-16028048D01*
X17885952Y-16009000D01*
X17866905Y-15980428D01*
X17857381Y-15970905D01*
D13*
X12865000Y-16343000D02*
X12865000Y-16403000D01*
X12835000Y-16373000D02*
X12895000Y-16373000D01*
D11*
X13190714Y-16263476D02*
X13209762Y-16263476D01*
X13228809Y-16273000D01*
X13238333Y-16282524D01*
X13247857Y-16301571D01*
X13257381Y-16339667D01*
X13257381Y-16387286D01*
X13247857Y-16425381D01*
X13238333Y-16444428D01*
X13228809Y-16453952D01*
X13209762Y-16463476D01*
X13190714Y-16463476D01*
X13171667Y-16453952D01*
X13162143Y-16444428D01*
X13152619Y-16425381D01*
X13143095Y-16387286D01*
X13143095Y-16339667D01*
X13152619Y-16301571D01*
X13162143Y-16282524D01*
X13171667Y-16273000D01*
X13190714Y-16263476D01*
X13343095Y-16444428D02*
X13352619Y-16453952D01*
X13343095Y-16463476D01*
X13333571Y-16453952D01*
X13343095Y-16444428D01*
X13343095Y-16463476D01*
X13524048Y-16263476D02*
X13485952Y-16263476D01*
X13466905Y-16273000D01*
X13457381Y-16282524D01*
X13438333Y-16311095D01*
X13428809Y-16349190D01*
X13428809Y-16425381D01*
X13438333Y-16444428D01*
X13447857Y-16453952D01*
X13466905Y-16463476D01*
X13505000Y-16463476D01*
X13524048Y-16453952D01*
X13533571Y-16444428D01*
X13543095Y-16425381D01*
X13543095Y-16377762D01*
X13533571Y-16358714D01*
X13524048Y-16349190D01*
X13505000Y-16339667D01*
X13466905Y-16339667D01*
X13447857Y-16349190D01*
X13438333Y-16358714D01*
X13428809Y-16377762D01*
X13666905Y-16263476D02*
X13685952Y-16263476D01*
X13705000Y-16273000D01*
X13714524Y-16282524D01*
X13724048Y-16301571D01*
X13733571Y-16339667D01*
X13733571Y-16387286D01*
X13724048Y-16425381D01*
X13714524Y-16444428D01*
X13705000Y-16453952D01*
X13685952Y-16463476D01*
X13666905Y-16463476D01*
X13647857Y-16453952D01*
X13638333Y-16444428D01*
X13628809Y-16425381D01*
X13619286Y-16387286D01*
X13619286Y-16339667D01*
X13628809Y-16301571D01*
X13638333Y-16282524D01*
X13647857Y-16273000D01*
X13666905Y-16263476D01*
X13857381Y-16263476D02*
X13876428Y-16263476D01*
X13895476Y-16273000D01*
X13905000Y-16282524D01*
X13914524Y-16301571D01*
X13924048Y-16339667D01*
X13924048Y-16387286D01*
X13914524Y-16425381D01*
X13905000Y-16444428D01*
X13895476Y-16453952D01*
X13876428Y-16463476D01*
X13857381Y-16463476D01*
X13838333Y-16453952D01*
X13828809Y-16444428D01*
X13819286Y-16425381D01*
X13809762Y-16387286D01*
X13809762Y-16339667D01*
X13819286Y-16301571D01*
X13828809Y-16282524D01*
X13838333Y-16273000D01*
X13857381Y-16263476D01*
X14009762Y-16463476D02*
X14009762Y-16330143D01*
X14009762Y-16349190D02*
X14019286Y-16339667D01*
X14038333Y-16330143D01*
X14066905Y-16330143D01*
X14085952Y-16339667D01*
X14095476Y-16358714D01*
X14095476Y-16463476D01*
X14095476Y-16358714D02*
X14105000Y-16339667D01*
X14124048Y-16330143D01*
X14152619Y-16330143D01*
X14171667Y-16339667D01*
X14181190Y-16358714D01*
X14181190Y-16463476D01*
X14276428Y-16463476D02*
X14276428Y-16330143D01*
X14276428Y-16349190D02*
X14285952Y-16339667D01*
X14305000Y-16330143D01*
X14333571Y-16330143D01*
X14352619Y-16339667D01*
X14362143Y-16358714D01*
X14362143Y-16463476D01*
X14362143Y-16358714D02*
X14371667Y-16339667D01*
X14390714Y-16330143D01*
X14419286Y-16330143D01*
X14438333Y-16339667D01*
X14447857Y-16358714D01*
X14447857Y-16463476D01*
X14838333Y-16253952D02*
X14666905Y-16511095D01*
X15095476Y-16263476D02*
X15114524Y-16263476D01*
X15133571Y-16273000D01*
X15143095Y-16282524D01*
X15152619Y-16301571D01*
X15162143Y-16339667D01*
X15162143Y-16387286D01*
X15152619Y-16425381D01*
X15143095Y-16444428D01*
X15133571Y-16453952D01*
X15114524Y-16463476D01*
X15095476Y-16463476D01*
X15076428Y-16453952D01*
X15066905Y-16444428D01*
X15057381Y-16425381D01*
X15047857Y-16387286D01*
X15047857Y-16339667D01*
X15057381Y-16301571D01*
X15066905Y-16282524D01*
X15076428Y-16273000D01*
X15095476Y-16263476D01*
X15247857Y-16444428D02*
X15257381Y-16453952D01*
X15247857Y-16463476D01*
X15238333Y-16453952D01*
X15247857Y-16444428D01*
X15247857Y-16463476D01*
X15381190Y-16263476D02*
X15400238Y-16263476D01*
X15419286Y-16273000D01*
X15428809Y-16282524D01*
X15438333Y-16301571D01*
X15447857Y-16339667D01*
X15447857Y-16387286D01*
X15438333Y-16425381D01*
X15428809Y-16444428D01*
X15419286Y-16453952D01*
X15400238Y-16463476D01*
X15381190Y-16463476D01*
X15362143Y-16453952D01*
X15352619Y-16444428D01*
X15343095Y-16425381D01*
X15333571Y-16387286D01*
X15333571Y-16339667D01*
X15343095Y-16301571D01*
X15352619Y-16282524D01*
X15362143Y-16273000D01*
X15381190Y-16263476D01*
X15524048Y-16282524D02*
X15533571Y-16273000D01*
X15552619Y-16263476D01*
X15600238Y-16263476D01*
X15619286Y-16273000D01*
X15628809Y-16282524D01*
X15638333Y-16301571D01*
X15638333Y-16320619D01*
X15628809Y-16349190D01*
X15514524Y-16463476D01*
X15638333Y-16463476D01*
X15705000Y-16263476D02*
X15828809Y-16263476D01*
X15762143Y-16339667D01*
X15790714Y-16339667D01*
X15809762Y-16349190D01*
X15819286Y-16358714D01*
X15828809Y-16377762D01*
X15828809Y-16425381D01*
X15819286Y-16444428D01*
X15809762Y-16453952D01*
X15790714Y-16463476D01*
X15733571Y-16463476D01*
X15714524Y-16453952D01*
X15705000Y-16444428D01*
X16000238Y-16263476D02*
X15962143Y-16263476D01*
X15943095Y-16273000D01*
X15933571Y-16282524D01*
X15914524Y-16311095D01*
X15905000Y-16349190D01*
X15905000Y-16425381D01*
X15914524Y-16444428D01*
X15924048Y-16453952D01*
X15943095Y-16463476D01*
X15981190Y-16463476D01*
X16000238Y-16453952D01*
X16009762Y-16444428D01*
X16019286Y-16425381D01*
X16019286Y-16377762D01*
X16009762Y-16358714D01*
X16000238Y-16349190D01*
X15981190Y-16339667D01*
X15943095Y-16339667D01*
X15924048Y-16349190D01*
X15914524Y-16358714D01*
X15905000Y-16377762D01*
X16095476Y-16263476D02*
X16095476Y-16301571D01*
X16171667Y-16263476D02*
X16171667Y-16301571D01*
X16466905Y-16539667D02*
X16457381Y-16530143D01*
X16438333Y-16501571D01*
X16428809Y-16482524D01*
X16419286Y-16453952D01*
X16409762Y-16406333D01*
X16409762Y-16368238D01*
X16419286Y-16320619D01*
X16428809Y-16292048D01*
X16438333Y-16273000D01*
X16457381Y-16244428D01*
X16466905Y-16234905D01*
X16581190Y-16263476D02*
X16600238Y-16263476D01*
X16619286Y-16273000D01*
X16628809Y-16282524D01*
X16638333Y-16301571D01*
X16647857Y-16339667D01*
X16647857Y-16387286D01*
X16638333Y-16425381D01*
X16628809Y-16444428D01*
X16619286Y-16453952D01*
X16600238Y-16463476D01*
X16581190Y-16463476D01*
X16562143Y-16453952D01*
X16552619Y-16444428D01*
X16543095Y-16425381D01*
X16533571Y-16387286D01*
X16533571Y-16339667D01*
X16543095Y-16301571D01*
X16552619Y-16282524D01*
X16562143Y-16273000D01*
X16581190Y-16263476D01*
X16885952Y-16463476D02*
X16885952Y-16263476D01*
X16971667Y-16463476D02*
X16971667Y-16358714D01*
X16962143Y-16339667D01*
X16943095Y-16330143D01*
X16914524Y-16330143D01*
X16895476Y-16339667D01*
X16885952Y-16349190D01*
X17095476Y-16463476D02*
X17076429Y-16453952D01*
X17066905Y-16444428D01*
X17057381Y-16425381D01*
X17057381Y-16368238D01*
X17066905Y-16349190D01*
X17076429Y-16339667D01*
X17095476Y-16330143D01*
X17124048Y-16330143D01*
X17143095Y-16339667D01*
X17152619Y-16349190D01*
X17162143Y-16368238D01*
X17162143Y-16425381D01*
X17152619Y-16444428D01*
X17143095Y-16453952D01*
X17124048Y-16463476D01*
X17095476Y-16463476D01*
X17276429Y-16463476D02*
X17257381Y-16453952D01*
X17247857Y-16434905D01*
X17247857Y-16263476D01*
X17428810Y-16453952D02*
X17409762Y-16463476D01*
X17371667Y-16463476D01*
X17352619Y-16453952D01*
X17343095Y-16434905D01*
X17343095Y-16358714D01*
X17352619Y-16339667D01*
X17371667Y-16330143D01*
X17409762Y-16330143D01*
X17428810Y-16339667D01*
X17438333Y-16358714D01*
X17438333Y-16377762D01*
X17343095Y-16396809D01*
X17514524Y-16453952D02*
X17533571Y-16463476D01*
X17571667Y-16463476D01*
X17590714Y-16453952D01*
X17600238Y-16434905D01*
X17600238Y-16425381D01*
X17590714Y-16406333D01*
X17571667Y-16396809D01*
X17543095Y-16396809D01*
X17524048Y-16387286D01*
X17514524Y-16368238D01*
X17514524Y-16358714D01*
X17524048Y-16339667D01*
X17543095Y-16330143D01*
X17571667Y-16330143D01*
X17590714Y-16339667D01*
X17838333Y-16387286D02*
X17990714Y-16387286D01*
X17914524Y-16463476D02*
X17914524Y-16311095D01*
X18324048Y-16330143D02*
X18324048Y-16463476D01*
X18276429Y-16253952D02*
X18228810Y-16396809D01*
X18352619Y-16396809D01*
X18571667Y-16453952D02*
X18590714Y-16463476D01*
X18628810Y-16463476D01*
X18647857Y-16453952D01*
X18657381Y-16434905D01*
X18657381Y-16425381D01*
X18647857Y-16406333D01*
X18628810Y-16396809D01*
X18600238Y-16396809D01*
X18581190Y-16387286D01*
X18571667Y-16368238D01*
X18571667Y-16358714D01*
X18581190Y-16339667D01*
X18600238Y-16330143D01*
X18628810Y-16330143D01*
X18647857Y-16339667D01*
X18771667Y-16463476D02*
X18752619Y-16453952D01*
X18743095Y-16434905D01*
X18743095Y-16263476D01*
X18876429Y-16463476D02*
X18857381Y-16453952D01*
X18847857Y-16444428D01*
X18838333Y-16425381D01*
X18838333Y-16368238D01*
X18847857Y-16349190D01*
X18857381Y-16339667D01*
X18876429Y-16330143D01*
X18905000Y-16330143D01*
X18924048Y-16339667D01*
X18933571Y-16349190D01*
X18943095Y-16368238D01*
X18943095Y-16425381D01*
X18933571Y-16444428D01*
X18924048Y-16453952D01*
X18905000Y-16463476D01*
X18876429Y-16463476D01*
X19000238Y-16330143D02*
X19076429Y-16330143D01*
X19028810Y-16263476D02*
X19028810Y-16434905D01*
X19038333Y-16453952D01*
X19057381Y-16463476D01*
X19076429Y-16463476D01*
X19133571Y-16453952D02*
X19152619Y-16463476D01*
X19190714Y-16463476D01*
X19209762Y-16453952D01*
X19219286Y-16434905D01*
X19219286Y-16425381D01*
X19209762Y-16406333D01*
X19190714Y-16396809D01*
X19162143Y-16396809D01*
X19143095Y-16387286D01*
X19133571Y-16368238D01*
X19133571Y-16358714D01*
X19143095Y-16339667D01*
X19162143Y-16330143D01*
X19190714Y-16330143D01*
X19209762Y-16339667D01*
X19285952Y-16539667D02*
X19295476Y-16530143D01*
X19314524Y-16501571D01*
X19324048Y-16482524D01*
X19333571Y-16453952D01*
X19343095Y-16406333D01*
X19343095Y-16368238D01*
X19333571Y-16320619D01*
X19324048Y-16292048D01*
X19314524Y-16273000D01*
X19295476Y-16244428D01*
X19285952Y-16234905D01*
D10*
X12880356Y-16672356D02*
X12880356Y-16601644D01*
X12809644Y-16601644D01*
X12809644Y-16672356D01*
X12880356Y-16672356D01*
D11*
X13257381Y-16727476D02*
X13143095Y-16727476D01*
X13200238Y-16727476D02*
X13200238Y-16527476D01*
X13181190Y-16556048D01*
X13162143Y-16575095D01*
X13143095Y-16584619D01*
X13343095Y-16708428D02*
X13352619Y-16717952D01*
X13343095Y-16727476D01*
X13333571Y-16717952D01*
X13343095Y-16708428D01*
X13343095Y-16727476D01*
X13476428Y-16527476D02*
X13495476Y-16527476D01*
X13514524Y-16537000D01*
X13524048Y-16546524D01*
X13533571Y-16565571D01*
X13543095Y-16603667D01*
X13543095Y-16651286D01*
X13533571Y-16689381D01*
X13524048Y-16708428D01*
X13514524Y-16717952D01*
X13495476Y-16727476D01*
X13476428Y-16727476D01*
X13457381Y-16717952D01*
X13447857Y-16708428D01*
X13438333Y-16689381D01*
X13428809Y-16651286D01*
X13428809Y-16603667D01*
X13438333Y-16565571D01*
X13447857Y-16546524D01*
X13457381Y-16537000D01*
X13476428Y-16527476D01*
X13666905Y-16527476D02*
X13685952Y-16527476D01*
X13705000Y-16537000D01*
X13714524Y-16546524D01*
X13724048Y-16565571D01*
X13733571Y-16603667D01*
X13733571Y-16651286D01*
X13724048Y-16689381D01*
X13714524Y-16708428D01*
X13705000Y-16717952D01*
X13685952Y-16727476D01*
X13666905Y-16727476D01*
X13647857Y-16717952D01*
X13638333Y-16708428D01*
X13628809Y-16689381D01*
X13619286Y-16651286D01*
X13619286Y-16603667D01*
X13628809Y-16565571D01*
X13638333Y-16546524D01*
X13647857Y-16537000D01*
X13666905Y-16527476D01*
X13857381Y-16527476D02*
X13876428Y-16527476D01*
X13895476Y-16537000D01*
X13905000Y-16546524D01*
X13914524Y-16565571D01*
X13924048Y-16603667D01*
X13924048Y-16651286D01*
X13914524Y-16689381D01*
X13905000Y-16708428D01*
X13895476Y-16717952D01*
X13876428Y-16727476D01*
X13857381Y-16727476D01*
X13838333Y-16717952D01*
X13828809Y-16708428D01*
X13819286Y-16689381D01*
X13809762Y-16651286D01*
X13809762Y-16603667D01*
X13819286Y-16565571D01*
X13828809Y-16546524D01*
X13838333Y-16537000D01*
X13857381Y-16527476D01*
X14009762Y-16727476D02*
X14009762Y-16594143D01*
X14009762Y-16613190D02*
X14019286Y-16603667D01*
X14038333Y-16594143D01*
X14066905Y-16594143D01*
X14085952Y-16603667D01*
X14095476Y-16622714D01*
X14095476Y-16727476D01*
X14095476Y-16622714D02*
X14105000Y-16603667D01*
X14124048Y-16594143D01*
X14152619Y-16594143D01*
X14171667Y-16603667D01*
X14181190Y-16622714D01*
X14181190Y-16727476D01*
X14276428Y-16727476D02*
X14276428Y-16594143D01*
X14276428Y-16613190D02*
X14285952Y-16603667D01*
X14305000Y-16594143D01*
X14333571Y-16594143D01*
X14352619Y-16603667D01*
X14362143Y-16622714D01*
X14362143Y-16727476D01*
X14362143Y-16622714D02*
X14371667Y-16603667D01*
X14390714Y-16594143D01*
X14419286Y-16594143D01*
X14438333Y-16603667D01*
X14447857Y-16622714D01*
X14447857Y-16727476D01*
X14838333Y-16517952D02*
X14666905Y-16775095D01*
X15095476Y-16527476D02*
X15114524Y-16527476D01*
X15133571Y-16537000D01*
X15143095Y-16546524D01*
X15152619Y-16565571D01*
X15162143Y-16603667D01*
X15162143Y-16651286D01*
X15152619Y-16689381D01*
X15143095Y-16708428D01*
X15133571Y-16717952D01*
X15114524Y-16727476D01*
X15095476Y-16727476D01*
X15076428Y-16717952D01*
X15066905Y-16708428D01*
X15057381Y-16689381D01*
X15047857Y-16651286D01*
X15047857Y-16603667D01*
X15057381Y-16565571D01*
X15066905Y-16546524D01*
X15076428Y-16537000D01*
X15095476Y-16527476D01*
X15247857Y-16708428D02*
X15257381Y-16717952D01*
X15247857Y-16727476D01*
X15238333Y-16717952D01*
X15247857Y-16708428D01*
X15247857Y-16727476D01*
X15381190Y-16527476D02*
X15400238Y-16527476D01*
X15419286Y-16537000D01*
X15428809Y-16546524D01*
X15438333Y-16565571D01*
X15447857Y-16603667D01*
X15447857Y-16651286D01*
X15438333Y-16689381D01*
X15428809Y-16708428D01*
X15419286Y-16717952D01*
X15400238Y-16727476D01*
X15381190Y-16727476D01*
X15362143Y-16717952D01*
X15352619Y-16708428D01*
X15343095Y-16689381D01*
X15333571Y-16651286D01*
X15333571Y-16603667D01*
X15343095Y-16565571D01*
X15352619Y-16546524D01*
X15362143Y-16537000D01*
X15381190Y-16527476D01*
X15514524Y-16527476D02*
X15638333Y-16527476D01*
X15571667Y-16603667D01*
X15600238Y-16603667D01*
X15619286Y-16613190D01*
X15628809Y-16622714D01*
X15638333Y-16641762D01*
X15638333Y-16689381D01*
X15628809Y-16708428D01*
X15619286Y-16717952D01*
X15600238Y-16727476D01*
X15543095Y-16727476D01*
X15524048Y-16717952D01*
X15514524Y-16708428D01*
X15733571Y-16727476D02*
X15771667Y-16727476D01*
X15790714Y-16717952D01*
X15800238Y-16708428D01*
X15819286Y-16679857D01*
X15828809Y-16641762D01*
X15828809Y-16565571D01*
X15819286Y-16546524D01*
X15809762Y-16537000D01*
X15790714Y-16527476D01*
X15752619Y-16527476D01*
X15733571Y-16537000D01*
X15724048Y-16546524D01*
X15714524Y-16565571D01*
X15714524Y-16613190D01*
X15724048Y-16632238D01*
X15733571Y-16641762D01*
X15752619Y-16651286D01*
X15790714Y-16651286D01*
X15809762Y-16641762D01*
X15819286Y-16632238D01*
X15828809Y-16613190D01*
X16000238Y-16594143D02*
X16000238Y-16727476D01*
X15952619Y-16517952D02*
X15905000Y-16660809D01*
X16028809Y-16660809D01*
X16095476Y-16527476D02*
X16095476Y-16565571D01*
X16171667Y-16527476D02*
X16171667Y-16565571D01*
X16466905Y-16803667D02*
X16457381Y-16794143D01*
X16438333Y-16765571D01*
X16428809Y-16746524D01*
X16419286Y-16717952D01*
X16409762Y-16670333D01*
X16409762Y-16632238D01*
X16419286Y-16584619D01*
X16428809Y-16556048D01*
X16438333Y-16537000D01*
X16457381Y-16508428D01*
X16466905Y-16498905D01*
X16628809Y-16594143D02*
X16628809Y-16727476D01*
X16581190Y-16517952D02*
X16533571Y-16660809D01*
X16657381Y-16660809D01*
X16714524Y-16527476D02*
X16838333Y-16527476D01*
X16771667Y-16603667D01*
X16800238Y-16603667D01*
X16819286Y-16613190D01*
X16828810Y-16622714D01*
X16838333Y-16641762D01*
X16838333Y-16689381D01*
X16828810Y-16708428D01*
X16819286Y-16717952D01*
X16800238Y-16727476D01*
X16743095Y-16727476D01*
X16724048Y-16717952D01*
X16714524Y-16708428D01*
X17076429Y-16727476D02*
X17076429Y-16527476D01*
X17162143Y-16727476D02*
X17162143Y-16622714D01*
X17152619Y-16603667D01*
X17133571Y-16594143D01*
X17105000Y-16594143D01*
X17085952Y-16603667D01*
X17076429Y-16613190D01*
X17285952Y-16727476D02*
X17266905Y-16717952D01*
X17257381Y-16708428D01*
X17247857Y-16689381D01*
X17247857Y-16632238D01*
X17257381Y-16613190D01*
X17266905Y-16603667D01*
X17285952Y-16594143D01*
X17314524Y-16594143D01*
X17333571Y-16603667D01*
X17343095Y-16613190D01*
X17352619Y-16632238D01*
X17352619Y-16689381D01*
X17343095Y-16708428D01*
X17333571Y-16717952D01*
X17314524Y-16727476D01*
X17285952Y-16727476D01*
X17466905Y-16727476D02*
X17447857Y-16717952D01*
X17438333Y-16698905D01*
X17438333Y-16527476D01*
X17619286Y-16717952D02*
X17600238Y-16727476D01*
X17562143Y-16727476D01*
X17543095Y-16717952D01*
X17533571Y-16698905D01*
X17533571Y-16622714D01*
X17543095Y-16603667D01*
X17562143Y-16594143D01*
X17600238Y-16594143D01*
X17619286Y-16603667D01*
X17628810Y-16622714D01*
X17628810Y-16641762D01*
X17533571Y-16660809D01*
X17705000Y-16717952D02*
X17724048Y-16727476D01*
X17762143Y-16727476D01*
X17781190Y-16717952D01*
X17790714Y-16698905D01*
X17790714Y-16689381D01*
X17781190Y-16670333D01*
X17762143Y-16660809D01*
X17733571Y-16660809D01*
X17714524Y-16651286D01*
X17705000Y-16632238D01*
X17705000Y-16622714D01*
X17714524Y-16603667D01*
X17733571Y-16594143D01*
X17762143Y-16594143D01*
X17781190Y-16603667D01*
X17857381Y-16803667D02*
X17866905Y-16794143D01*
X17885952Y-16765571D01*
X17895476Y-16746524D01*
X17905000Y-16717952D01*
X17914524Y-16670333D01*
X17914524Y-16632238D01*
X17905000Y-16584619D01*
X17895476Y-16556048D01*
X17885952Y-16537000D01*
X17866905Y-16508428D01*
X17857381Y-16498905D01*
M02*
