M48
; DRILL file {KiCad 6.0.7+dfsg-1~bpo11+1} date Fri 19 Aug 2022 09:34:25 PM EDT
; FORMAT={-:-/ absolute / metric / decimal}
; #@! TF.CreationDate,2022-08-19T21:34:25-04:00
; #@! TF.GenerationSoftware,Kicad,Pcbnew,6.0.7+dfsg-1~bpo11+1
; #@! TF.FileFunction,Plated,1,2,PTH
FMAT,2
METRIC
; #@! TA.AperFunction,Plated,PTH,ViaDrill
T1C0.400
; #@! TA.AperFunction,Plated,PTH,ComponentDrill
T2C0.400
; #@! TA.AperFunction,Plated,PTH,ComponentDrill
T3C0.600
; #@! TA.AperFunction,Plated,PTH,ComponentDrill
T4C1.000
%
G90
G05
T1
X144.9Y-111.75
X149.0Y-110.75
X150.0Y-110.75
X151.01Y-115.74
X151.75Y-111.0
X152.0Y-117.5
X152.0Y-122.0
X152.5Y-126.75
X154.0Y-117.5
X154.0Y-130.5
X155.25Y-112.5
X156.15Y-111.75
X156.588Y-118.085
X156.589Y-119.266
X156.75Y-122.75
X156.75Y-138.25
X158.0Y-108.75
X158.0Y-113.5
X158.0Y-119.5
X158.0Y-120.5
X158.0Y-121.5
X158.475Y-99.5
X158.64Y-118.18
X159.0Y-108.0
X159.0Y-113.5
X159.25Y-127.5
X159.5Y-106.75
X159.525Y-99.5
X160.0Y-108.75
X160.0Y-119.5
X160.0Y-120.5
X160.0Y-121.5
X160.075Y-125.537
X160.25Y-127.5
X161.25Y-121.5
X161.25Y-126.25
X161.376Y-122.913
X161.5Y-136.25
X161.61Y-115.877
X162.25Y-130.25
X162.5Y-106.75
X162.5Y-112.75
X162.75Y-104.25
X162.9Y-113.55
X163.25Y-127.0
X164.75Y-115.25
X165.65Y-109.0
X165.65Y-114.0
X165.75Y-111.5
X166.0Y-117.25
X166.0Y-122.0
X167.5Y-111.5
X169.25Y-106.75
X170.5Y-110.0
X170.5Y-115.25
X171.5Y-117.25
X171.75Y-110.25
X171.75Y-113.0
X171.75Y-115.5
X172.5Y-107.5
X174.25Y-106.75
X175.0Y-127.0
X175.25Y-110.25
X175.25Y-120.25
X176.0Y-104.5
X176.5Y-108.5
X177.0Y-106.0
X178.0Y-107.0
X178.0Y-123.5
X178.25Y-116.5
T2
X156.025Y-96.675
X156.025Y-98.025
X156.875Y-96.675
X156.875Y-98.025
X157.725Y-96.675
X157.725Y-98.025
X158.575Y-96.675
X158.575Y-98.025
X159.425Y-96.675
X159.425Y-98.025
X160.275Y-96.675
X160.275Y-98.025
X161.125Y-96.675
X161.125Y-98.025
X161.975Y-96.675
X161.975Y-98.025
T4
X134.87Y-145.713
X134.87Y-148.252
X137.41Y-145.713
X137.41Y-148.252
X139.95Y-145.713
X139.95Y-148.252
X142.49Y-145.713
X142.49Y-148.252
X145.03Y-145.713
X145.03Y-148.252
X147.57Y-145.713
X147.57Y-148.252
X150.11Y-145.713
X150.11Y-148.252
X152.65Y-145.713
X152.65Y-148.252
X154.195Y-133.0
X155.19Y-145.713
X155.19Y-148.252
X156.735Y-133.0
X157.73Y-145.713
X157.73Y-148.252
X159.275Y-133.0
X160.27Y-145.713
X160.27Y-148.252
X162.81Y-145.713
X162.81Y-148.252
X165.35Y-145.713
X165.35Y-148.252
X167.89Y-145.713
X167.89Y-148.252
X170.43Y-145.713
X170.43Y-148.252
X172.97Y-145.713
X172.97Y-148.252
X175.51Y-145.713
X175.51Y-148.252
X178.05Y-145.713
X178.05Y-148.252
X180.59Y-145.713
X180.59Y-148.252
X183.13Y-145.713
X183.13Y-148.252
T3
X154.675Y-94.065G85X154.675Y-93.265
G05
X154.675Y-97.795G85X154.675Y-96.295
G05
X163.325Y-94.065G85X163.325Y-93.265
G05
X163.325Y-97.795G85X163.325Y-96.295
G05
T0
M30
